<?xml version="1.0" standalone="no"?>
<!DOCTYPE svg PUBLIC "-//W3C//DTD SVG 1.1//EN" "http://www.w3.org/Graphics/SVG/1.1/DTD/svg11.dtd" >
<svg xmlns="http://www.w3.org/2000/svg" xmlns:xlink="http://www.w3.org/1999/xlink" version="1.1">
<metadata>
Created by FontForge 20170731 at Mon Sep  6 20:45:34 2010
 By Aleksey,,,
Copyright (c) 2005 by Frantisek Storm, www.stormtype.com. All rights reserved.
</metadata>
<defs>
<font id="EtelkaWideTextPro" horiz-adv-x="704" >
  <font-face 
    font-family="Etelka Wide Text Pro"
    font-weight="400"
    font-stretch="expanded"
    units-per-em="1000"
    panose-1="2 0 5 3 3 0 0 2 0 4"
    ascent="800"
    descent="-200"
    x-height="507"
    cap-height="697"
    bbox="-246 -314 1612 882"
    underline-thickness="50"
    underline-position="-300"
    unicode-range="U+0020-FB04"
  />
<missing-glyph horiz-adv-x="618" 
d="M0 0v697h618v-697h-618zM308 407l182 224h-362zM356 349l182 -225v449zM128 66h362l-182 226zM82 573v-449l180 225z" />
    <glyph glyph-name="ff" unicode="ff" horiz-adv-x="813" 
d="M603 544v-37h206v-84h-206v-423h-114v423h-261v-423h-113v423h-104v84h104v34q0 46 14.5 79t37.5 52t58.5 30.5t69.5 15t78 3.5q94 0 184 -29q45 29 140 29q84 0 154 -19l-28 -77q-46 13 -112 13q-53 0 -80.5 -20t-27.5 -74zM228 538v-31h261v40q0 47 13 74
q-65 17 -130 17q-73 0 -108.5 -20.5t-35.5 -79.5z" />
    <glyph glyph-name="fi" unicode="fi" horiz-adv-x="689" 
d="M603 507v-507h-114v423h-261v-423h-113v423h-104v84h104v34q0 54 20 90.5t58.5 55.5t83 26.5t104.5 7.5q118 0 216 -32l-30 -77q-81 26 -177 26q-82 0 -122 -20t-40 -80v-31h375z" />
    <glyph glyph-name="fl" unicode="fl" horiz-adv-x="695" 
d="M603 689v-553q0 -41 11 -64t40 -50l-96 -44q-36 31 -52.5 66t-16.5 88v493q-55 13 -117 13q-70 0 -107 -20.5t-37 -79.5v-31h190v-84h-190v-423h-113v423h-104v84h104v34q0 54 19.5 91t57 55.5t80.5 26t101 7.5q119 0 230 -32z" />
    <glyph glyph-name="ffi" unicode="ffi" horiz-adv-x="1062" 
d="M976 507v-507h-113v423h-260v-423h-114v423h-261v-423h-113v423h-104v84h104v34q0 54 19.5 91t55.5 55.5t76 26t93 7.5q110 0 209 -33q62 33 186 33q118 0 216 -32l-29 -77q-81 26 -178 26q-81 0 -120.5 -20t-39.5 -80v-31h373zM228 538v-31h261v34q0 44 16 78
q-61 19 -133 19q-73 0 -108.5 -20.5t-35.5 -79.5z" />
    <glyph glyph-name="ffl" unicode="ffl" horiz-adv-x="1070" 
d="M976 689v-553q0 -37 11.5 -62.5t41.5 -51.5l-98 -44q-35 31 -51.5 66t-16.5 88v493q-53 13 -118 13q-69 0 -105.5 -21.5t-36.5 -78.5v-31h188v-84h-188v-423h-114v423h-261v-423h-113v423h-104v84h104v34q0 54 19.5 91t55.5 55.5t76 26t93 7.5q112 0 208 -33
q58 33 180 33q118 0 229 -32zM489 541q0 47 18 79q-72 18 -135 18q-80 0 -112 -24t-32 -91v-16h261v34z" />
    <glyph glyph-name="Th" unicode="Th" horiz-adv-x="1271" 
d="M1187 289v-289h-114v277q0 95 -30.5 126.5t-109.5 31.5q-59 0 -101 -15.5t-42 -42.5v-377h-114v610h-261v-610h-123v610h-287v87h785v-214q70 38 171 38q121 0 173.5 -48.5t52.5 -183.5z" />
    <glyph glyph-name="ffk" unicode="ffk" horiz-adv-x="1394" 
d="M976 689v-689h-113v625q-53 13 -118 13q-69 0 -105.5 -20.5t-36.5 -79.5v-31h188v-84h-188v-423h-114v423h-261v-423h-113v423h-104v84h104v34q0 179 234 179q130 0 218 -32q58 33 180 33q127 -1 229 -32zM489 541q0 47 18 79q-72 18 -135 18q-79 0 -111.5 -24.5
t-32.5 -90.5v-16h261v34zM1395 0h-138q-226 250 -281 268q63 39 260 239h138q-180 -186 -254 -230q59 -29 275 -277z" />
    <glyph glyph-name="fk" unicode="fk" horiz-adv-x="1019" 
d="M603 0h-114v625q-55 13 -117 13q-69 0 -106.5 -20.5t-37.5 -79.5v-31h190v-84h-190v-423h-113v423h-104v84h104v34q0 54 19.5 91t57 55.5t80.5 26t101 7.5q123 0 230 -32v-689zM1021 0h-139q-227 251 -279 268q63 39 260 239h138q-187 -190 -256 -230q59 -27 276 -277z
" />
    <glyph glyph-name="fj" unicode="fj" horiz-adv-x="689" 
d="M489 -20v443h-261v-423h-113v423h-104v84h104v34q0 54 20 90.5t58.5 55.5t83 26.5t104.5 7.5q118 0 216 -32l-30 -77q-81 26 -177 26q-82 0 -122 -20t-40 -80v-31h375v-527q0 -102 -58 -144.5t-168 -38.5v82q60 0 86 20.5t26 80.5z" />
    <glyph glyph-name=".notdef" horiz-adv-x="618" 
d="M0 0v697h618v-697h-618zM308 407l182 224h-362zM356 349l182 -225v449zM128 66h362l-182 226zM82 573v-449l180 225z" />
    <glyph glyph-name=".null" horiz-adv-x="0" 
 />
    <glyph glyph-name="nonmarkingreturn" horiz-adv-x="333" 
 />
    <glyph glyph-name="space" unicode=" " horiz-adv-x="331" 
 />
    <glyph glyph-name="exclam" unicode="!" horiz-adv-x="398" 
d="M123 697h149l-32 -487h-84zM199 123q47 0 63 -11t16 -49q0 -41 -16 -53t-63 -12q-46 0 -62 12.5t-16 52.5q0 38 16 49t62 11z" />
    <glyph glyph-name="quotedbl" unicode="&#x22;" horiz-adv-x="404" 
d="M54 697h113l-23 -235h-77zM241 697h109l-22 -235h-76z" />
    <glyph glyph-name="numbersign" unicode="#" horiz-adv-x="822" 
d="M50 445l6 77h162l13 175h107l-12 -175h181l13 175h108l-13 -175h171l-6 -77h-171l-14 -177h174l-6 -76h-173l-14 -192h-108l14 192h-181l-16 -192h-107l15 192h-161l7 76h159l14 177h-162zM319 445l-13 -177h182l13 177h-182z" />
    <glyph glyph-name="dollar" unicode="$" horiz-adv-x="747" 
d="M328 825h89v-140q134 0 223 -23l-30 -88q-58 22 -193 24v-206q126 -14 186 -59.5t60 -129.5q0 -91 -61.5 -137.5t-184.5 -57.5v-145h-89v142q-139 0 -229 24l30 87q81 -23 199 -23v217q-126 12 -184 51.5t-58 122.5q0 175 242 197v144zM202 492q0 -43 27 -63.5t99 -27.5
v193q-126 -14 -126 -102zM544 199q0 45 -27 68.5t-100 32.5v-203q64 7 95.5 30.5t31.5 71.5z" />
    <glyph glyph-name="percent" unicode="%" horiz-adv-x="1093" 
d="M734 697h113l-493 -697h-113zM252 714q108 0 155 -46.5t47 -172.5q0 -127 -47.5 -176.5t-154.5 -49.5t-154.5 49.5t-47.5 176.5q0 126 47 172.5t155 46.5zM252 339q57 0 78 32t21 123q0 92 -20.5 120.5t-78.5 28.5q-57 0 -78.5 -29t-21.5 -120q0 -90 22 -122.5t78 -32.5z
M840 431q108 0 154.5 -46.5t46.5 -172.5q0 -127 -47 -176.5t-154 -49.5t-154.5 49.5t-47.5 176.5q0 126 47 172.5t155 46.5zM840 56q56 0 77.5 32.5t21.5 122.5q0 92 -21 121t-78 29t-78.5 -29.5t-21.5 -120.5q0 -89 22.5 -122t77.5 -33z" />
    <glyph glyph-name="ampersand" unicode="&#x26;" horiz-adv-x="932" 
d="M887 398q0 -129 -111 -243q29 -32 125 -155h-138q-30 43 -68 89q-79 -56 -148 -79.5t-173 -23.5q-164 0 -235.5 43t-71.5 154q0 80 53.5 129.5t167.5 53.5q-54 4 -88.5 17.5t-50 38.5t-20 49t-4.5 62q0 91 63.5 136t212.5 45q148 0 212.5 -42t64.5 -131q0 -73 -40.5 -117
t-144.5 -51q45 -4 94.5 -36t119.5 -109q60 79 60 170h120zM374 70q88 0 142.5 19.5t116.5 70.5q-73 86 -131 127.5t-118 41.5q-97 0 -141.5 -30.5t-44.5 -101.5t37.5 -99t138.5 -28zM392 410q81 0 121.5 27t40.5 87q0 57 -35 80.5t-118 23.5q-84 0 -118.5 -23t-34.5 -80
q0 -62 33 -88.5t111 -26.5z" />
    <glyph glyph-name="quotesingle" unicode="'" horiz-adv-x="221" 
d="M54 697h113l-23 -235h-77z" />
    <glyph glyph-name="parenleft" unicode="(" horiz-adv-x="335" 
d="M82 249q0 412 252 512l54 -73q-39 -14 -70.5 -43.5t-58 -80t-41.5 -131t-15 -184.5t15 -184.5t41.5 -131t58 -80t70.5 -43.5l-54 -73q-252 100 -252 512z" />
    <glyph glyph-name="parenright" unicode=")" horiz-adv-x="335" 
d="M253 249q0 -412 -252 -512l-54 73q185 65 185 439q0 104 -15 184.5t-41.5 131t-58 80t-70.5 43.5l54 73q252 -100 252 -512z" />
    <glyph glyph-name="asterisk" unicode="*" horiz-adv-x="548" 
d="M36 498v77h157l-79 115l82 38l78 -114l78 114l82 -39l-80 -114h158v-77h-158l79 -114l-81 -38l-78 112l-78 -112l-82 39l78 113h-156z" />
    <glyph glyph-name="plus" unicode="+" horiz-adv-x="723" 
d="M71 315v89h235v197h108v-197h237v-89h-237v-196h-108v196h-235z" />
    <glyph glyph-name="comma" unicode="," horiz-adv-x="324" 
d="M257 100l-135 -259h-103l95 259h143z" />
    <glyph glyph-name="hyphen" unicode="-" horiz-adv-x="348" 
d="M37 234v89h274v-89h-274z" />
    <glyph glyph-name="hyphen" unicode="&#xad;" horiz-adv-x="348" 
d="M37 234v89h274v-89h-274z" />
    <glyph glyph-name="period" unicode="." horiz-adv-x="324" 
d="M161 123q47 0 63 -11t16 -49q0 -41 -16 -53t-63 -12q-45 0 -61 12t-16 53q0 38 16 49t61 11z" />
    <glyph glyph-name="slash" unicode="/" horiz-adv-x="537" 
d="M461 697h126l-428 -697h-124z" />
    <glyph glyph-name="zero" unicode="0" horiz-adv-x="749" 
d="M374 714q80 0 134.5 -16t94 -56t58 -109.5t18.5 -174.5q0 -208 -72.5 -290t-232.5 -82q-106 0 -171 33t-100 115.5t-35 223.5q0 105 18.5 174.5t58.5 109.5t94.5 56t134.5 16zM373 77q106 0 144.5 56.5t38.5 224.5q0 89 -8.5 141t-31.5 81t-55 38t-88 9q-55 0 -86 -9
t-54.5 -38t-32 -81.5t-8.5 -140.5q0 -167 38.5 -224t142.5 -57z" />
    <glyph glyph-name="one" unicode="1" horiz-adv-x="749" 
d="M469 0h-121v588l-187 -71l-36 82l344 125v-724z" />
    <glyph glyph-name="two" unicode="2" horiz-adv-x="748" 
d="M131 595l-28 89q127 30 250 30q159 0 231 -45t72 -155q0 -56 -14 -94.5t-61 -88t-128 -104.5t-224 -140h424v-87h-587v81q139 90 216.5 143.5t133 95.5t76.5 72t28.5 53.5t7.5 61.5q0 66 -41.5 90.5t-142.5 24.5q-55 0 -118 -7.5t-95 -19.5z" />
    <glyph glyph-name="three" unicode="3" horiz-adv-x="749" 
d="M240 327v85h105q93 0 133.5 25.5t40.5 85.5q0 56 -41 78.5t-157 22.5q-130 0 -220 -23l-27 87q154 26 263 26q171 0 241 -41t70 -133q0 -74 -38 -117t-141 -51q110 -4 153 -51t43 -131q0 -113 -78 -158.5t-255 -45.5q-124 0 -265 27l25 85q89 -22 225 -22q127 0 171.5 27
t44.5 97q0 71 -42 99t-144 28h-107z" />
    <glyph glyph-name="four" unicode="4" horiz-adv-x="742" 
d="M452 191h-420v29q70 107 173.5 244t190.5 233h175v-421h115v-85h-115v-191h-119v191zM452 276v341q-66 -69 -142.5 -169.5t-123.5 -171.5h266z" />
    <glyph glyph-name="five" unicode="5" horiz-adv-x="749" 
d="M125 697h495v-87h-379v-190q60 5 118 5q170 0 238 -49.5t68 -165.5q0 -126 -74.5 -175t-252.5 -49q-116 0 -253 27l26 85q87 -22 212 -22t167.5 27t42.5 99q0 79 -39 107.5t-157 28.5q-122 0 -212 -16v375z" />
    <glyph glyph-name="six" unicode="6" horiz-adv-x="749" 
d="M669 686l-32 -90q-77 25 -192 25q-62 0 -102.5 -8t-74 -30t-49.5 -64t-18 -108q87 14 187 14q171 0 239.5 -49.5t68.5 -166.5q0 -126 -70 -174.5t-237 -48.5q-178 0 -248 78t-70 289q0 106 21.5 176.5t69.5 111t115 57t168 16.5q110 0 224 -28zM389 76q106 0 142 27
t36 98q0 77 -36 107t-140 30q-123 0 -192 -14q1 -77 12.5 -126.5t37 -76t57.5 -36t83 -9.5z" />
    <glyph glyph-name="seven" unicode="7" horiz-adv-x="749" 
d="M712 697v-33q-90 -121 -198.5 -317t-170.5 -347h-139q74 167 170.5 340t174.5 270h-454v87h617z" />
    <glyph glyph-name="eight" unicode="8" horiz-adv-x="748" 
d="M374 70q101 0 139.5 28.5t38.5 98.5q0 72 -41 102t-137 30t-137 -30t-41 -102q0 -70 38.5 -98.5t139.5 -28.5zM374 410q86 0 123.5 27t37.5 88q0 57 -35.5 80.5t-125.5 23.5t-125.5 -23.5t-35.5 -80.5q0 -61 38 -88t123 -27zM374 -14q-162 0 -234 46t-72 158q0 84 42 131
t154 51q-104 8 -140 50.5t-36 117.5q0 91 64.5 132.5t221.5 41.5t222 -42t65 -132q0 -36 -6.5 -62t-24.5 -50t-54 -38t-90 -18q110 -4 152 -51t42 -131q0 -112 -72 -158t-234 -46z" />
    <glyph glyph-name="nine" unicode="9" horiz-adv-x="749" 
d="M216 0q221 164 290 283q-69 -8 -132 -8q-173 0 -240.5 45t-67.5 161q0 127 71 180t236 53q182 0 247 -49.5t65 -192.5q0 -73 -25.5 -141.5t-73 -128t-97 -105.5t-115.5 -97h-158zM383 362q90 0 161 10q13 39 13 87q0 56 -9 89t-34 50t-55.5 22t-85.5 5q-105 0 -142 -32
t-37 -105q0 -77 36.5 -101.5t152.5 -24.5z" />
    <glyph glyph-name="colon" unicode=":" horiz-adv-x="324" 
d="M161 123q47 0 63 -11t16 -49q0 -41 -16 -53t-63 -12q-45 0 -61 12t-16 53q0 38 16 49t61 11zM161 510q47 0 63 -11t16 -49q0 -41 -16 -53t-63 -12q-45 0 -61 12t-16 53q0 38 16 49t61 11z" />
    <glyph glyph-name="semicolon" unicode=";" horiz-adv-x="324" 
d="M257 100l-135 -259h-103l95 259h143zM161 510q47 0 63 -11t16 -49q0 -41 -16 -53t-63 -12q-45 0 -61 12t-16 53q0 38 16 49t61 11z" />
    <glyph glyph-name="less" unicode="&#x3c;" horiz-adv-x="722" 
d="M618 605l-352 -245l352 -247l-61 -66l-439 288v48l438 287z" />
    <glyph glyph-name="equal" unicode="=" horiz-adv-x="723" 
d="M71 194v89h580v-89h-580zM71 431v89h580v-89h-580z" />
    <glyph glyph-name="greater" unicode="&#x3e;" horiz-adv-x="723" 
d="M118 113l353 245l-353 246l61 67l441 -288v-48l-438 -287z" />
    <glyph glyph-name="question" unicode="?" horiz-adv-x="575" 
d="M269 123q48 0 64 -11t16 -49q0 -41 -16.5 -53t-63.5 -12q-45 0 -61 12t-16 53q0 38 16 49t61 11zM333 206h-126q102 83 146.5 155.5t44.5 156.5q0 53 -34 78t-124 25q-104 0 -168 -22l-29 90q88 25 203 25q153 0 220.5 -49t67.5 -147q0 -86 -47.5 -156.5t-153.5 -155.5z
" />
    <glyph glyph-name="at" unicode="@" horiz-adv-x="1123" 
d="M510 548q-98 0 -156 -10.5t-99 -41.5t-56 -85.5t-15 -145.5q0 -89 17 -143t62.5 -87t114.5 -44.5t183 -11.5q221 0 301 65.5t80 251.5q0 140 -26 201h111q26 -70 26 -204q0 -115 -28.5 -191.5t-91 -122t-151.5 -64.5t-221 -19q-133 0 -221 17t-150.5 59t-90.5 113.5
t-28 179.5q0 86 18.5 149t52.5 104.5t88 66.5t119 35t153 10q57 0 96.5 -4t76.5 -14.5t59.5 -29.5t40 -49t25 -73.5t7.5 -102.5q0 -85 -12.5 -135.5t-45 -79t-77.5 -37.5t-121 -9q-138 0 -192 35.5t-54 133.5q0 102 50 134t177 32q97 0 165 -11q-1 75 -41.5 101.5
t-145.5 26.5zM562 358q-85 0 -113 -16t-28 -73t29 -76.5t109 -19.5t109 26t29 101v50q-59 8 -135 8z" />
    <glyph glyph-name="A" unicode="A" horiz-adv-x="810" 
d="M680 0q-86 186 -90 194h-387q-30 -74 -76 -194h-126q151 378 310 697h198q160 -408 308 -697h-137zM421 613h-34q-82 -173 -150 -332h317q-57 131 -133 332z" />
    <glyph glyph-name="B" unicode="B" horiz-adv-x="840" 
d="M235 86h297q99 0 99 117q0 58 -26 91.5t-78 33.5h-292v-242zM235 611v-200h287q91 0 91 102q0 50 -20 74t-71 24h-287zM572 372q111 -4 150.5 -49t39.5 -129q0 -194 -212 -194h-436v697h426q116 0 159 -43t43 -123q0 -36 -6 -60.5t-23 -47t-52 -35t-89 -16.5z" />
    <glyph glyph-name="C" unicode="C" horiz-adv-x="717" 
d="M70 355q0 106 23 176t73 110.5t119.5 56.5t172.5 16q125 0 236 -26l-30 -91q-77 24 -192 24q-80 0 -126 -8.5t-81.5 -36.5t-49 -81t-13.5 -141t13.5 -141.5t48.5 -83t82 -39.5t126 -10q113 0 192 23l30 -91q-106 -26 -236 -26q-102 0 -172 18t-120 60t-73 113.5
t-23 177.5z" />
    <glyph glyph-name="D" unicode="D" horiz-adv-x="864" 
d="M114 697h288q103 0 173 -16t120.5 -55.5t74 -107t23.5 -167.5q0 -101 -23.5 -169t-73.5 -108t-121 -57t-173 -17h-288v697zM664 350q0 84 -13 135t-47.5 79t-81.5 37t-127 9h-160v-523h160q78 0 126.5 11t82 40.5t47 80t13.5 131.5z" />
    <glyph glyph-name="E" unicode="E" horiz-adv-x="738" 
d="M114 697h589v-87h-468v-198h333v-86h-333v-239h468v-87h-589v697z" />
    <glyph glyph-name="F" unicode="F" horiz-adv-x="692" 
d="M114 697h578v-87h-457v-233h333v-86h-333v-291h-121v697z" />
    <glyph glyph-name="G" unicode="G" horiz-adv-x="828" 
d="M610 91v215h-200v85h324v-379q-101 -26 -276 -26q-102 0 -172 18t-120 60t-73 113.5t-23 177.5t24 176.5t76.5 110.5t123 56t174.5 16q131 0 244 -26l-30 -90q-77 24 -206 24q-82 0 -129 -9t-82.5 -37t-49 -81t-13.5 -141t13.5 -142t48.5 -84t82 -40t126 -10q71 0 138 13
z" />
    <glyph glyph-name="H" unicode="H" horiz-adv-x="870" 
d="M235 325v-325h-121v697h121v-279h401v279h121v-697h-121v325h-401z" />
    <glyph glyph-name="I" unicode="I" horiz-adv-x="348" 
d="M114 697h121v-697h-121v697z" />
    <glyph glyph-name="J" unicode="J" horiz-adv-x="541" 
d="M428 697v-505q0 -206 -240 -206q-89 0 -176 29l30 92q62 -24 138 -24q125 0 125 118v496h123z" />
    <glyph glyph-name="K" unicode="K" horiz-adv-x="767" 
d="M235 697v-697h-121v697h121zM779 0h-155q-128 160 -235 257t-153 111q50 27 150 115.5t212 213.5h153q-116 -123 -211.5 -208.5t-137.5 -111.5q44 -23 149 -123t228 -254z" />
    <glyph glyph-name="L" unicode="L" horiz-adv-x="657" 
d="M114 697h121v-608h414v-89h-535v697z" />
    <glyph glyph-name="M" unicode="M" horiz-adv-x="1071" 
d="M540 212q108 236 254 485h164v-697h-120v568q-124 -225 -260 -498h-93q-151 312 -253 498v-568h-118v697h173q147 -257 253 -485z" />
    <glyph glyph-name="N" unicode="N" horiz-adv-x="902" 
d="M788 697v-697h-148q-183 282 -406 575v-575h-120v697h162q184 -233 390 -546v546h122z" />
    <glyph glyph-name="O" unicode="O" horiz-adv-x="918" 
d="M459 714q103 0 172.5 -16.5t120 -57.5t73.5 -111t23 -176q0 -107 -23 -178.5t-73 -113t-120 -58.5t-173 -17t-172.5 17t-120 58.5t-73.5 113t-23 178.5q0 106 23 176t73.5 111t120 57.5t172.5 16.5zM459 77q104 0 157 21.5t77.5 80t24.5 172.5q0 89 -11.5 141.5t-44 82.5
t-78 39.5t-125.5 9.5q-79 0 -124.5 -9.5t-77.5 -39.5t-43.5 -82.5t-11.5 -141.5q0 -86 11.5 -138t43 -83t78 -42t124.5 -11z" />
    <glyph glyph-name="P" unicode="P" horiz-adv-x="794" 
d="M235 330h260q61 0 92 35.5t31 99.5q0 71 -30.5 108.5t-88.5 37.5h-264v-281zM235 0h-122v697h404q236 0 236 -233q0 -94 -57 -157.5t-174 -63.5h-287v-243z" />
    <glyph glyph-name="Q" unicode="Q" horiz-adv-x="942" 
d="M471 714q103 0 172.5 -16.5t120 -57.5t73.5 -111t23 -176q0 -170 -60.5 -250.5t-191.5 -99.5q87 -14 252 -195h-149q-68 83 -133.5 128.5t-111.5 49.5q-101 0 -170 17.5t-118.5 59.5t-72.5 113t-23 177t23 176t73.5 111t120 57.5t172.5 16.5zM471 77q104 0 157 21.5
t77.5 80t24.5 172.5q0 89 -11.5 141.5t-44 82.5t-78 39.5t-125.5 9.5q-79 0 -124.5 -9.5t-78 -39.5t-44 -82.5t-11.5 -141.5q0 -86 12 -138.5t43.5 -83t78 -41.5t124.5 -11z" />
    <glyph glyph-name="R" unicode="R" horiz-adv-x="829" 
d="M235 611v-241h259q60 0 91.5 30.5t31.5 86.5q0 61 -30.5 92.5t-87.5 31.5h-264zM522 307q83 -24 287 -307h-153q-194 284 -284 284h-137v-284h-121v697h404q234 0 234 -203q0 -82 -54 -134t-176 -53z" />
    <glyph glyph-name="S" unicode="S" horiz-adv-x="747" 
d="M656 685l-29 -89q-77 25 -213 25q-111 0 -163.5 -25.5t-52.5 -88.5q0 -48 42 -72t156 -32q149 -11 216.5 -59.5t67.5 -145.5q0 -113 -88 -162.5t-261 -49.5q-140 0 -250 30l30 88q93 -25 218 -25q112 0 167 25t55 89q0 50 -43.5 79.5t-158.5 37.5q-149 10 -215.5 52
t-66.5 136q0 114 88 165t259 51q131 0 242 -29z" />
    <glyph glyph-name="T" unicode="T" horiz-adv-x="706" 
d="M415 0h-123v610h-287v87h696v-87h-286v-610z" />
    <glyph glyph-name="U" unicode="U" horiz-adv-x="889" 
d="M666 697h123v-471q0 -72 -22 -120t-69 -74t-106.5 -36t-147.5 -10q-87 0 -146.5 10t-106 36t-69 74t-22.5 120v471h124v-461q0 -92 50 -125t170 -33t171 32.5t51 125.5v461z" />
    <glyph glyph-name="V" unicode="V" horiz-adv-x="773" 
d="M-8 697h137q153 -306 259 -603q125 250 256 603h127q-140 -364 -311 -697h-158q-155 411 -310 697z" />
    <glyph glyph-name="W" unicode="W" horiz-adv-x="1128" 
d="M573 536q-44 -186 -171 -536h-155q-145 464 -245 697h134q108 -266 196 -578q131 362 182 578h118q133 -411 170 -578q116 293 195 578h125q-109 -363 -245 -697h-156q-44 194 -148 536z" />
    <glyph glyph-name="X" unicode="X" horiz-adv-x="793" 
d="M167 697q93 -100 237 -257q118 132 222 257h148q-122 -147 -295 -341q168 -190 308 -356h-151q-131 154 -233 270q-125 -139 -249 -270h-148q117 123 323 353q-179 199 -317 344h155z" />
    <glyph glyph-name="Y" unicode="Y" horiz-adv-x="747" 
d="M132 697q128 -133 251 -286q136 148 243 286h145q-172 -210 -333 -379v-318h-122v318q-181 217 -342 379h158z" />
    <glyph glyph-name="Z" unicode="Z" horiz-adv-x="738" 
d="M23 0v30q268 291 504 580h-475v87h661v-28q-261 -334 -504 -582h488v-87h-674z" />
    <glyph glyph-name="bracketleft" unicode="[" horiz-adv-x="364" 
d="M106 755h282v-83h-163v-850h163v-82h-282v1015z" />
    <glyph glyph-name="backslash" unicode="\" horiz-adv-x="536" 
d="M-47 697h127l426 -697h-125z" />
    <glyph glyph-name="bracketright" unicode="]" horiz-adv-x="364" 
d="M-24 755h282v-1015h-282v82h163v850h-163v83z" />
    <glyph glyph-name="asciicircum" unicode="^" horiz-adv-x="600" 
d="M465 296l-168 302l-167 -302h-116l228 401h113l231 -401h-121z" />
    <glyph glyph-name="underscore" unicode="_" horiz-adv-x="520" 
d="M37 -147v89h446v-89h-446z" />
    <glyph glyph-name="grave" unicode="`" horiz-adv-x="586" 
d="M390 568h-107l-167 129h130z" />
    <glyph glyph-name="a" unicode="a" horiz-adv-x="661" 
d="M576 324v-298q-115 -40 -260 -40q-140 0 -196 36.5t-56 133.5q0 52 17 86.5t52 51.5t74 23t97 6q75 0 162 -15q0 79 -32.5 104.5t-133.5 25.5q-105 0 -180 -24l-24 82q112 25 222 25q139 0 198.5 -42.5t59.5 -154.5zM466 83v155q-52 11 -142 11q-82 0 -110 -15.5
t-28 -72.5q0 -62 26.5 -80t110.5 -18q75 0 143 20z" />
    <glyph glyph-name="b" unicode="b" horiz-adv-x="697" 
d="M201 377v-290q60 -19 143 -19q96 0 130 35.5t34 150.5q0 107 -34.5 144.5t-128.5 37.5q-61 0 -102.5 -16t-41.5 -43zM88 25v697h113v-238q62 37 162 37q139 0 201.5 -58.5t62.5 -208.5q0 -151 -66 -209.5t-217 -58.5q-149 0 -256 39z" />
    <glyph glyph-name="c" unicode="c" horiz-adv-x="562" 
d="M516 96l30 -83q-75 -27 -180 -27q-149 0 -223.5 60.5t-74.5 209.5q0 148 74.5 206.5t223.5 58.5q101 0 180 -24l-30 -84q-63 23 -146 23q-50 0 -81 -6.5t-55.5 -25.5t-35 -55.5t-10.5 -94.5q0 -107 42 -145t140 -38q73 0 146 25z" />
    <glyph glyph-name="d" unicode="d" horiz-adv-x="696" 
d="M495 88v290q0 28 -41.5 44t-102.5 16q-93 0 -128 -38t-35 -145q0 -114 34 -149.5t130 -35.5q84 0 143 18zM608 722v-697q-107 -39 -256 -39q-151 0 -217.5 58t-66.5 209q0 149 66 208.5t204 59.5q93 0 157 -34v235h113z" />
    <glyph glyph-name="e" unicode="e" horiz-adv-x="658" 
d="M543 93l22 -79q-110 -28 -208 -28q-144 0 -216.5 60.5t-72.5 209.5q0 145 69 205t209 60q72 0 119 -12.5t80 -44.5t46.5 -88t11.5 -142h-414q1 -98 42 -131.5t139 -33.5q89 0 173 24zM351 442q-83 0 -118.5 -28t-42.5 -103h300q-4 79 -33.5 105t-105.5 26z" />
    <glyph glyph-name="f" unicode="f" horiz-adv-x="440" 
d="M228 544v-37h208v-84h-208v-423h-113v423h-104v84h104v40q0 45 12.5 77t31.5 50.5t49.5 29.5t60 14t68.5 3q71 0 140 -19l-27 -77q-49 13 -114 13q-53 0 -80.5 -20t-27.5 -74z" />
    <glyph glyph-name="g" unicode="g" horiz-adv-x="696" 
d="M495 131v290q-61 18 -143 18q-96 0 -130 -35t-34 -150q0 -108 34.5 -145.5t128.5 -37.5q61 0 102.5 16t41.5 44zM495 25q-64 -38 -161 -38q-139 0 -202.5 58.5t-63.5 208.5q0 151 66.5 209t217.5 58q147 0 256 -38v-445q0 -136 -78.5 -188.5t-234.5 -52.5
q-46 0 -107.5 8.5t-97.5 20.5l26 81q83 -27 178 -27q103 0 152 31.5t49 113.5z" />
    <glyph glyph-name="h" unicode="h" horiz-adv-x="681" 
d="M372 521q121 0 173 -48.5t52 -183.5v-289h-114v277q0 83 -27.5 120t-112.5 37q-60 0 -101.5 -15.5t-41.5 -42.5v-376h-114v722h114v-239q70 38 172 38z" />
    <glyph glyph-name="i" unicode="i" horiz-adv-x="287" 
d="M201 507v-507h-113v507h113zM145 709q40 0 54 -9t14 -41q0 -35 -14 -45.5t-54 -10.5t-54 10.5t-14 45.5q0 32 14 41t54 9z" />
    <glyph glyph-name="j" unicode="j" horiz-adv-x="286" 
d="M145 709q40 0 53.5 -9t13.5 -41q0 -35 -13.5 -45.5t-53.5 -10.5t-54 10.5t-14 45.5q0 32 14 41t54 9zM200 507v-526q0 -106 -55 -145t-169 -39v81q59 0 85.5 20.5t26.5 80.5v528h112z" />
    <glyph glyph-name="k" unicode="k" horiz-adv-x="619" 
d="M201 722v-722h-113v722h113zM620 0h-138q-226 250 -281 268q63 39 260 239h138q-183 -188 -254 -230q61 -30 275 -277z" />
    <glyph glyph-name="l" unicode="l" horiz-adv-x="295" 
d="M201 722v-586q0 -37 11.5 -61.5t41.5 -52.5l-96 -44q-37 31 -53.5 65.5t-16.5 88.5v590h113z" />
    <glyph glyph-name="m" unicode="m" horiz-adv-x="1044" 
d="M201 420v-420h-113v479q118 42 258 42q109 0 160 -34q114 34 219 34q132 0 183.5 -50.5t51.5 -186.5v-284h-112v272q0 98 -30 130t-116 32q-78 0 -142 -17q21 -53 21 -133v-284h-114v272q0 99 -28.5 130.5t-114.5 31.5q-67 0 -123 -14z" />
    <glyph glyph-name="n" unicode="n" horiz-adv-x="682" 
d="M201 420v-420h-113v479q118 42 266 42q134 0 189 -51t55 -186v-284h-113v272q0 99 -30.5 130.5t-122.5 31.5q-72 0 -131 -14z" />
    <glyph glyph-name="o" unicode="o" 
d="M351 -14q-149 0 -216 59.5t-67 210.5q0 150 67 207.5t216 57.5q150 0 216.5 -57.5t66.5 -207.5q0 -151 -66.5 -210.5t-216.5 -59.5zM351 441q-96 0 -129.5 -35.5t-33.5 -151.5q0 -112 34.5 -150t128.5 -38q95 0 129 38t34 150q0 116 -33.5 151.5t-129.5 35.5z" />
    <glyph glyph-name="p" unicode="p" horiz-adv-x="697" 
d="M201 419v-289q0 -28 41 -44.5t102 -16.5q94 0 129 38t35 146q0 113 -34 148.5t-130 35.5q-86 0 -143 -18zM88 -192v675q109 38 256 38q151 0 217 -57.5t66 -208.5q0 -149 -66 -209t-204 -60q-94 0 -156 36v-214h-113z" />
    <glyph glyph-name="q" unicode="q" horiz-adv-x="696" 
d="M495 131v290q-61 18 -143 18q-96 0 -130 -35t-34 -150q0 -108 34.5 -145.5t128.5 -37.5q61 0 102.5 16t41.5 44zM608 483v-675h-113v216q-68 -38 -163 -38q-139 0 -201.5 59t-62.5 209q0 151 66.5 209t217.5 58q147 0 256 -38z" />
    <glyph glyph-name="r" unicode="r" horiz-adv-x="433" 
d="M88 0v507h113v-37q45 51 163 51q32 0 62 -3v-92q-33 5 -70 5q-66 0 -110.5 -16t-44.5 -46v-369h-113z" />
    <glyph glyph-name="s" unicode="s" horiz-adv-x="596" 
d="M516 495l-29 -80q-85 26 -177 26q-72 0 -102 -14.5t-30 -60.5q0 -32 30 -46.5t108 -20.5q116 -8 167.5 -42t51.5 -106q0 -91 -61 -128t-186 -37t-219 27l28 80q77 -27 188 -27q73 0 104 15.5t31 62.5q0 35 -29.5 51.5t-111.5 22.5q-112 8 -164.5 38.5t-52.5 101.5
q0 90 63 126.5t188 36.5q97 0 203 -26z" />
    <glyph glyph-name="t" unicode="t" horiz-adv-x="484" 
d="M445 423h-214v-247q0 -57 22.5 -81t81.5 -24q61 0 109 14l21 -78q-67 -21 -150 -21q-107 0 -152.5 38t-45.5 146v253h-104v84h104v96l114 39v-135h214v-84z" />
    <glyph glyph-name="u" unicode="u" horiz-adv-x="681" 
d="M482 88v419h113v-479q-119 -42 -266 -42q-133 0 -188.5 51t-55.5 186v284h113v-272q0 -99 30.5 -130.5t121.5 -31.5q75 0 132 15z" />
    <glyph glyph-name="v" unicode="v" horiz-adv-x="612" 
d="M304 93q121 255 172 414h118q-73 -205 -222 -507h-148q-111 321 -210 507h121q88 -176 169 -414z" />
    <glyph glyph-name="w" unicode="w" horiz-adv-x="986" 
d="M496 386q-57 -197 -137 -386h-147q-98 297 -196 507h124q81 -176 152 -412q36 85 80.5 213t63.5 199h122q60 -146 135 -412q108 246 155 412h120q-91 -272 -208 -507h-148q-60 244 -116 386z" />
    <glyph glyph-name="x" unicode="x" horiz-adv-x="626" 
d="M603 0h-132q-50 67 -147 182q-77 -86 -171 -182h-131q92 87 241 253q-116 133 -240 254h143q84 -88 161 -177q52 58 145 177h130q-121 -149 -212 -250q97 -110 213 -257z" />
    <glyph glyph-name="y" unicode="y" horiz-adv-x="612" 
d="M234 -24q-107 321 -220 531h121q91 -177 169 -417q117 243 172 417h118q-83 -231 -228 -517q-48 -96 -102 -182h-129q47 73 99 168z" />
    <glyph glyph-name="z" unicode="z" horiz-adv-x="594" 
d="M52 507h504v-25q-74 -96 -177.5 -216.5t-165.5 -181.5h339v-84h-520v26q96 99 196 213.5t152 183.5h-328v84z" />
    <glyph glyph-name="braceleft" unicode="{" horiz-adv-x="359" 
d="M28 210v-1v78q131 0 131 201q0 118 52 184t136 90l54 -74q-65 -16 -97 -63.5t-32 -156.5q0 -108 -32.5 -158.5t-73.5 -60.5q41 -10 73.5 -61.5t32.5 -159.5q0 -109 31.5 -156t97.5 -63l-54 -73q-188 53 -188 273q0 201 -131 201z" />
    <glyph glyph-name="bar" unicode="|" horiz-adv-x="409" 
d="M144 755h121v-1011h-121v1011z" />
    <glyph glyph-name="braceright" unicode="}" horiz-adv-x="359" 
d="M330 287v-77q-131 0 -131 -201q0 -220 -187 -272l-54 73q42 11 68.5 31.5t43 67t16.5 120.5q0 108 32.5 159t73.5 61q-41 10 -73.5 61t-32.5 159q0 109 -31.5 156t-96.5 64l54 72q187 -52 187 -273q0 -201 131 -201z" />
    <glyph glyph-name="asciitilde" unicode="~" horiz-adv-x="722" 
d="M585 435l75 -49q-22 -49 -66.5 -78.5t-102.5 -29.5q-44 0 -144.5 43.5t-133.5 43.5q-50 0 -80 -62l-68 53q33 47 68 70t84 23t150 -42.5t131 -42.5q28 0 49 16t38 55z" />
    <glyph glyph-name="nbspace" unicode="&#xa0;" horiz-adv-x="331" 
 />
    <glyph glyph-name="exclamdown" unicode="&#xa1;" horiz-adv-x="398" 
d="M275 -178h-149l32 487h84zM200 396q-47 0 -63.5 11t-16.5 49q0 41 16.5 53t63.5 12q46 0 62 -12.5t16 -52.5q0 -38 -16 -49t-62 -11z" />
    <glyph glyph-name="cent" unicode="&#xa2;" horiz-adv-x="554" 
d="M301 754h96v-103q75 -3 143 -23l-30 -79q-45 16 -113 20v-369q61 3 113 22l30 -78q-56 -20 -143 -26v-121h-96v122q-116 12 -174.5 73.5t-58.5 194.5q0 132 58.5 192t174.5 70v105zM182 385q0 -86 28.5 -126t90.5 -50v352q-63 -9 -91 -47.5t-28 -128.5z" />
    <glyph glyph-name="sterling" unicode="&#xa3;" horiz-adv-x="725" 
d="M49 307v82h77v95q0 115 78.5 172t241.5 57q132 0 243 -29l-29 -89q-75 26 -214 26q-104 0 -151 -32t-47 -101v-99h233v-82h-233v-220h419v-87h-541v307h-77z" />
    <glyph glyph-name="currency" unicode="&#xa4;" horiz-adv-x="793" 
d="M403 84q-94 0 -148 23l-102 -107l-91 61l103 108q-44 62 -44 185q0 119 42 178l-100 109l102 56l91 -101q53 23 147 23q89 0 143 -20l81 98l102 -55l-89 -105q47 -60 47 -183q0 -124 -47 -186l95 -107l-99 -61l-92 104q-53 -20 -141 -20zM403 535q-50 0 -79 -6t-50 -26
t-29 -55.5t-8 -95.5q0 -112 35 -148t131 -36q97 0 132 36t35 148q0 60 -8 95.5t-29.5 55.5t-50.5 26t-79 6z" />
    <glyph glyph-name="yen" unicode="&#xa5;" horiz-adv-x="747" 
d="M88 295v77h182q-159 183 -296 325h158q128 -133 251 -286q136 148 243 286h145q-155 -186 -283 -325h175v-77h-225v-86h225v-77h-225v-132h-122v132h-228v77h228v86h-228z" />
    <glyph glyph-name="brokenbar" unicode="&#xa6;" horiz-adv-x="409" 
d="M144 755h121v-367h-121v367zM144 111h121v-367h-121v367z" />
    <glyph glyph-name="section" unicode="&#xa7;" horiz-adv-x="747" 
d="M652 685l-28 -86q-70 25 -209 25q-107 0 -159.5 -25.5t-52.5 -84.5q0 -44 41 -66t153 -29q149 -11 221.5 -54.5t72.5 -130.5q0 -63 -51 -119q45 -39 45 -110q0 -208 -343 -208q-132 0 -236 28l27 87q73 -26 209 -26q107 0 159.5 26t52.5 85q0 44 -41 66t-153 29
q-149 11 -221.5 54t-72.5 131q0 64 49 120q-44 40 -44 109q0 105 89.5 156.5t254.5 51.5q128 0 237 -29zM211 351q-20 -26 -20 -70q0 -47 45.5 -69.5t166.5 -29.5q94 -6 143 -24q20 33 20 72q0 47 -45.5 69.5t-166.5 29.5q-91 5 -143 22z" />
    <glyph glyph-name="dieresis" unicode="&#xa8;" horiz-adv-x="522" 
d="M138 669q36 0 48 -8.5t12 -38.5q0 -33 -12 -42.5t-48 -9.5q-37 0 -49 9.5t-12 42.5q0 30 12 38.5t49 8.5zM379 669q36 0 48 -8.5t12 -38.5q0 -33 -12 -42.5t-48 -9.5t-48.5 9.5t-12.5 42.5q0 30 12.5 38.5t48.5 8.5z" />
    <glyph glyph-name="copyright" unicode="&#xa9;" horiz-adv-x="1027" 
d="M513 714q113 0 190.5 -16.5t133.5 -57t82 -111t26 -176.5q0 -107 -26 -178.5t-82 -113t-133 -58.5t-191 -17t-191 17t-133 58.5t-81.5 113t-25.5 178.5q0 106 25.5 176t81.5 111t133 57.5t191 16.5zM512 62q93 0 151.5 12t99.5 44t57.5 88t16.5 146q0 92 -16.5 148
t-58 87t-98.5 41.5t-152 10.5q-94 0 -150 -10.5t-97 -41.5t-57.5 -87t-16.5 -148q0 -90 16.5 -146t57 -88t98 -44t149.5 -12zM668 225l25 -74q-74 -23 -161 -23q-135 0 -194.5 48.5t-59.5 177.5q0 128 59.5 175.5t194.5 47.5q88 0 161 -20l-25 -76q-48 17 -131 17
q-85 0 -115 -27.5t-30 -118.5q0 -87 31 -117t114 -30q69 0 131 20z" />
    <glyph glyph-name="ordfeminine" unicode="&#xaa;" horiz-adv-x="505" 
d="M433 577v-211q-78 -28 -185 -28q-99 0 -137.5 24.5t-38.5 94.5t42.5 93.5t125.5 23.5q57 0 113 -10q0 55 -23 73t-92 18q-78 0 -126 -17l-17 58q85 18 156 18q98 0 140 -29.5t42 -107.5zM353 406v109q-31 7 -99 7q-51 0 -73.5 -11.5t-22.5 -49.5q0 -39 20.5 -54t75.5 -15
q50 0 99 14z" />
    <glyph glyph-name="guillemotleft" unicode="&#xab;" horiz-adv-x="758" 
d="M426 521l-236 -213l236 -218l-65 -59l-325 274l323 274zM721 521l-236 -213l236 -218l-63 -59l-326 274l323 274z" />
    <glyph glyph-name="logicalnot" unicode="&#xac;" horiz-adv-x="608" 
d="M564 0h-123v327h-404v88h527v-415z" />
    <glyph glyph-name="registered" unicode="&#xae;" horiz-adv-x="682" 
d="M485 518q0 -81 -81 -81q47 -19 78 -94h-92q-10 27 -31 54.5t-35 27.5h-29v-82h-81v262h187q42 0 63 -24t21 -63zM401 516q0 33 -30 33h-76v-69h76q30 0 30 36zM616 473q0 -135 -65 -188t-211 -53t-210 53t-64 188q0 136 64.5 188t209.5 52q146 0 211 -52t65 -188z
M532 473q0 110 -40.5 144t-151.5 34q-55 0 -88 -6.5t-57.5 -25.5t-34 -54t-9.5 -92q0 -105 41.5 -141.5t147.5 -36.5q109 0 150.5 36.5t41.5 141.5z" />
    <glyph glyph-name="macron" unicode="&#xaf;" horiz-adv-x="633" 
d="M155 581v74h318v-74h-318z" />
    <glyph glyph-name="macron" unicode="&#x2c9;" horiz-adv-x="633" 
d="M155 581v74h318v-74h-318z" />
    <glyph glyph-name="degree" unicode="&#xb0;" horiz-adv-x="504" 
d="M252 714q108 0 155 -46.5t47 -172.5q0 -127 -47.5 -176.5t-154.5 -49.5t-154.5 49.5t-47.5 176.5q0 126 47 172.5t155 46.5zM252 339q57 0 78 32t21 123q0 92 -20.5 120.5t-78.5 28.5q-57 0 -78.5 -29t-21.5 -120q0 -90 22 -122.5t78 -32.5z" />
    <glyph glyph-name="plusminus" unicode="&#xb1;" horiz-adv-x="723" 
d="M71 389v89h235v197h108v-197h237v-89h-237v-197h-108v197h-235zM71 29v89h580v-89h-580z" />
    <glyph glyph-name="twosuperior" unicode="&#xb2;" horiz-adv-x="486" 
d="M79 620l-17 76q76 18 154 18q112 0 161.5 -29.5t49.5 -97.5q0 -103 -121 -140q-42 -13 -59.5 -19.5t-40.5 -18t-32.5 -25t-12.5 -32.5h267v-72h-386q10 98 52.5 144t131.5 73q52 17 75 37t23 49q0 30 -25.5 41.5t-87.5 11.5q-88 0 -132 -16z" />
    <glyph glyph-name="threesuperior" unicode="&#xb3;" horiz-adv-x="479" 
d="M154 467v68h46q61 0 82.5 12t21.5 46q0 31 -21 41t-84 10q-74 0 -131 -15l-15 67q76 18 157 18q106 0 153 -25.5t47 -80.5q0 -49 -23 -74t-87 -30q69 -3 96.5 -30.5t27.5 -79.5q0 -68 -52 -96t-162 -28q-79 0 -162 18l16 68q59 -16 138 -16q65 0 88.5 13t23.5 52
q0 38 -23 50t-89 12h-48z" />
    <glyph glyph-name="acute" unicode="&#xb4;" horiz-adv-x="586" 
d="M224 568h-108l145 129h129z" />
    <glyph glyph-name="mu" unicode="&#xb5;" horiz-adv-x="682" 
d="M195 -192h-113l4 396v303h112v-272q0 -85 29.5 -124t123.5 -39q70 0 131 16v419h114v-480q-121 -41 -267 -41q-90 0 -137 22z" />
    <glyph glyph-name="mu" unicode="&#x3bc;" horiz-adv-x="682" 
d="M195 -192h-113l4 396v303h112v-272q0 -85 29.5 -124t123.5 -39q70 0 131 16v419h114v-480q-121 -41 -267 -41q-90 0 -137 22z" />
    <glyph glyph-name="paragraph" unicode="&#xb6;" horiz-adv-x="793" 
d="M679 0h-112v243h-110v-243h-114v243h-72q-118 0 -174 63t-56 158q0 233 234 233h404v-697z" />
    <glyph glyph-name="periodcentered" unicode="&#xb7;" horiz-adv-x="337" 
d="M167 366q52 0 69 -11.5t17 -52.5q0 -44 -17.5 -57.5t-68.5 -13.5q-49 0 -66 13.5t-17 57.5q0 41 17 52.5t66 11.5z" />
    <glyph glyph-name="periodcentered" unicode="&#x2219;" horiz-adv-x="337" 
d="M167 366q52 0 69 -11.5t17 -52.5q0 -44 -17.5 -57.5t-68.5 -13.5q-49 0 -66 13.5t-17 57.5q0 41 17 52.5t66 11.5z" />
    <glyph glyph-name="cedilla" unicode="&#xb8;" horiz-adv-x="778" 
d="M394 0h51v-44q77 0 107 -16.5t30 -60.5q0 -47 -35.5 -64.5t-122.5 -17.5q-80 0 -122 18l24 48q36 -14 95 -14q34 0 47 6t13 24q0 20 -27.5 26t-102.5 2z" />
    <glyph glyph-name="onesuperior" unicode="&#xb9;" horiz-adv-x="427" 
d="M290 286h-102v327l-112 -43l-26 73l240 83v-440z" />
    <glyph glyph-name="ordmasculine" unicode="&#xba;" horiz-adv-x="542" 
d="M270 333q-104 0 -152 42.5t-48 149.5q0 106 48 147.5t152 41.5q106 0 154 -41.5t48 -147.5q0 -107 -48 -149.5t-154 -42.5zM270 648q-64 0 -85 -23t-21 -102q0 -75 21.5 -100t84.5 -25t85 25.5t22 99.5q0 78 -21.5 101.5t-85.5 23.5z" />
    <glyph glyph-name="guillemotright" unicode="&#xbb;" horiz-adv-x="758" 
d="M333 90l236 213l-236 218l64 59l325 -275l-323 -273zM37 90l236 213l-236 218l65 59l324 -275l-323 -273z" />
    <glyph glyph-name="onequarter" unicode="&#xbc;" horiz-adv-x="984" 
d="M631 697h115l-494 -697h-116zM756 105h-274v31q103 143 238 289h134v-247h71v-73h-71v-105h-98v105zM756 178v182q-92 -95 -152 -182h152zM281 286h-101v327l-113 -43l-25 73l239 83v-440z" />
    <glyph glyph-name="onehalf" unicode="&#xbd;" horiz-adv-x="984" 
d="M592 340l-17 76q77 18 154 18q111 0 161.5 -29.5t50.5 -97.5q0 -102 -122 -140q-40 -12 -59 -19t-41 -18t-31.5 -25t-12.5 -33h267v-72h-386q10 99 51.5 144.5t130.5 72.5q52 17 75.5 37t23.5 49q0 30 -25.5 41.5t-87.5 11.5q-86 0 -132 -16zM624 697h115l-494 -697h-116
zM274 286h-101v327l-113 -43l-25 73l239 83v-440z" />
    <glyph glyph-name="threequarters" unicode="&#xbe;" horiz-adv-x="984" 
d="M704 697h116l-494 -697h-117zM765 105h-273v31q100 141 237 289h135v-247h70v-73h-70v-105h-99v105zM765 178v182q-90 -93 -153 -182h153zM146 467v68h46q61 0 82.5 12t21.5 46q0 31 -21.5 41t-83.5 10q-74 0 -131 -15l-16 67q77 18 158 18q106 0 152.5 -25.5t46.5 -80.5
q0 -48 -23 -73.5t-86 -30.5q69 -3 96.5 -30.5t27.5 -79.5q0 -68 -52.5 -96t-161.5 -28q-83 0 -162 18l16 68q59 -16 136 -16q67 0 90.5 13t23.5 52q0 38 -23.5 50t-90.5 12h-46z" />
    <glyph glyph-name="questiondown" unicode="&#xbf;" horiz-adv-x="575" 
d="M307 396q-48 0 -64 11t-16 49q0 41 16.5 53t63.5 12q45 0 61 -12t16 -53q0 -38 -16 -49t-61 -11zM242 313h126q-101 -83 -145.5 -155.5t-44.5 -156.5q0 -53 34 -78t124 -25q104 0 168 22l29 -90q-87 -25 -203 -25q-153 0 -220.5 49t-67.5 147q0 86 47.5 156.5
t152.5 155.5z" />
    <glyph glyph-name="Agrave" unicode="&#xc0;" horiz-adv-x="810" 
d="M680 0q-86 186 -90 194h-387q-30 -74 -76 -194h-126q151 378 310 697h198q160 -408 308 -697h-137zM421 613h-34q-82 -173 -150 -332h317q-57 131 -133 332zM506 747h-116l-191 129h138z" />
    <glyph glyph-name="Aacute" unicode="&#xc1;" horiz-adv-x="810" 
d="M680 0q-86 186 -90 194h-387q-30 -74 -76 -194h-126q151 378 310 697h198q160 -408 308 -697h-137zM421 613h-34q-82 -173 -150 -332h317q-57 131 -133 332zM416 747h-105l158 129h137z" />
    <glyph glyph-name="Acircumflex" unicode="&#xc2;" horiz-adv-x="810" 
d="M680 0q-86 186 -90 194h-387q-30 -74 -76 -194h-126q151 378 310 697h198q160 -408 308 -697h-137zM421 613h-34q-82 -173 -150 -332h317q-57 131 -133 332zM403 831l-90 -84h-113l147 129h116l151 -129h-117z" />
    <glyph glyph-name="Atilde" unicode="&#xc3;" horiz-adv-x="810" 
d="M680 0q-86 186 -90 194h-387q-30 -74 -76 -194h-126q151 378 310 697h198q160 -408 308 -697h-137zM421 613h-34q-82 -173 -150 -332h317q-57 131 -133 332zM559 873l61 -41q-19 -43 -54.5 -67.5t-83.5 -24.5q-34 0 -90 30.5t-83 30.5q-37 0 -66 -55l-54 44
q27 40 56 59.5t69 19.5q39 0 94 -28.5t81 -28.5q45 0 70 61z" />
    <glyph glyph-name="Adieresis" unicode="&#xc4;" horiz-adv-x="810" 
d="M680 0q-86 186 -90 194h-387q-30 -74 -76 -194h-126q151 378 310 697h198q160 -408 308 -697h-137zM421 613h-34q-82 -173 -150 -332h317q-57 131 -133 332zM282 855q35 0 47.5 -8.5t12.5 -38.5q0 -33 -12.5 -42.5t-47.5 -9.5q-37 0 -49 9.5t-12 42.5q0 30 12 38.5
t49 8.5zM523 855q36 0 48 -8.5t12 -38.5q0 -33 -12 -42.5t-48 -9.5q-37 0 -49 9.5t-12 42.5q0 30 12 38.5t49 8.5z" />
    <glyph glyph-name="Aring" unicode="&#xc5;" horiz-adv-x="810" 
d="M680 0q-86 186 -90 194h-387q-30 -74 -76 -194h-126q151 378 310 697h198q160 -408 308 -697h-137zM421 613h-34q-82 -173 -150 -332h317q-57 131 -133 332zM407 882q136 0 136 -96q0 -50 -33.5 -73t-102.5 -23q-137 0 -137 96q0 51 31.5 73.5t105.5 22.5zM407 831
q-37 0 -51 -11.5t-14 -35.5t14.5 -36t50.5 -12t51 12t15 36t-14.5 35.5t-51.5 11.5z" />
    <glyph glyph-name="AE" unicode="&#xc6;" horiz-adv-x="1158" 
d="M435 697h688v-87h-468v-198h282v-85h-282v-240h468v-87h-589v194h-392q-94 -115 -153 -194h-146q295 369 592 697zM534 613h-37q-156 -175 -286 -332h323v332z" />
    <glyph glyph-name="Ccedilla" unicode="&#xc7;" horiz-adv-x="717" 
d="M70 355q0 106 23 176t73 110.5t119.5 56.5t172.5 16q125 0 236 -26l-30 -91q-77 24 -192 24q-80 0 -126 -8.5t-81.5 -36.5t-49 -81t-13.5 -141t13.5 -141.5t48.5 -83t82 -39.5t126 -10q113 0 192 23l30 -91q-106 -26 -236 -26q-102 0 -172 18t-120 60t-73 113.5
t-23 177.5zM407 0h51v-44q76 0 106 -16.5t30 -60.5q0 -47 -35 -64.5t-122 -17.5q-80 0 -122 18l24 48q36 -14 95 -14q34 0 47 6t13 24q0 20 -27.5 26t-102.5 2z" />
    <glyph glyph-name="Egrave" unicode="&#xc8;" horiz-adv-x="738" 
d="M114 697h589v-87h-468v-198h333v-86h-333v-239h468v-87h-589v697zM557 747h-117l-190 129h138z" />
    <glyph glyph-name="Eacute" unicode="&#xc9;" horiz-adv-x="738" 
d="M114 697h589v-87h-468v-198h333v-86h-333v-239h468v-87h-589v697zM414 747h-106l159 129h137z" />
    <glyph glyph-name="Ecircumflex" unicode="&#xca;" horiz-adv-x="738" 
d="M114 697h589v-87h-468v-198h333v-86h-333v-239h468v-87h-589v697zM415 831l-90 -84h-113q22 19 46.5 40.5t54.5 48t46 40.5h116l151 -129h-117z" />
    <glyph glyph-name="Edieresis" unicode="&#xcb;" horiz-adv-x="738" 
d="M114 697h589v-87h-468v-198h333v-86h-333v-239h468v-87h-589v697zM298 855q35 0 47.5 -8.5t12.5 -38.5q0 -33 -12.5 -42.5t-47.5 -9.5q-37 0 -49.5 9.5t-12.5 42.5q0 30 12.5 38.5t49.5 8.5zM539 855q35 0 47.5 -8.5t12.5 -38.5q0 -33 -12.5 -42.5t-47.5 -9.5
q-37 0 -49 9.5t-12 42.5q0 30 12 38.5t49 8.5z" />
    <glyph glyph-name="Igrave" unicode="&#xcc;" horiz-adv-x="348" 
d="M114 697h122v-697h-122v697zM269 747h-116l-191 129h138z" />
    <glyph glyph-name="Iacute" unicode="&#xcd;" horiz-adv-x="348" 
d="M114 697h121v-697h-121v697zM191 747h-106l158 129h137z" />
    <glyph glyph-name="Icircumflex" unicode="&#xce;" horiz-adv-x="348" 
d="M114 697h121v-697h-121v697zM172 831l-90 -84h-113q24 22 72.5 65t73.5 64h117l151 -129h-118z" />
    <glyph glyph-name="Idieresis" unicode="&#xcf;" horiz-adv-x="347" 
d="M114 697h121v-697h-121v697zM56 855q36 0 48 -8.5t12 -38.5q0 -33 -12 -42.5t-48 -9.5q-37 0 -49 9.5t-12 42.5q0 30 12 38.5t49 8.5zM297 855q36 0 48 -8.5t12 -38.5q0 -33 -12 -42.5t-48 -9.5t-48.5 9.5t-12.5 42.5q0 30 12.5 38.5t48.5 8.5z" />
    <glyph glyph-name="Eth" unicode="&#xd0;" horiz-adv-x="864" 
d="M49 323v73h65v301h288q103 0 173 -16t120.5 -55.5t74 -107t23.5 -167.5q0 -101 -23.5 -169t-73.5 -108t-121 -57t-173 -17h-288v323h-65zM663 350q0 85 -13 135t-47.5 78t-81 36.5t-126.5 8.5h-160v-212h193v-73h-193v-236h160q78 0 126.5 11t81.5 41t46.5 80t13.5 131z
" />
    <glyph glyph-name="Ntilde" unicode="&#xd1;" horiz-adv-x="902" 
d="M788 697v-697h-148q-183 282 -406 575v-575h-120v697h162q184 -233 390 -546v546h122zM616 873l61 -41q-19 -43 -54.5 -67.5t-83.5 -24.5q-34 0 -90 30.5t-83 30.5q-38 0 -66 -55l-54 44q27 40 55.5 59.5t69.5 19.5q39 0 94 -28.5t81 -28.5q44 0 70 61z" />
    <glyph glyph-name="Ograve" unicode="&#xd2;" horiz-adv-x="918" 
d="M459 714q103 0 172.5 -16.5t120 -57.5t73.5 -111t23 -176q0 -107 -23 -178.5t-73 -113t-120 -58.5t-173 -17t-172.5 17t-120 58.5t-73.5 113t-23 178.5q0 106 23 176t73.5 111t120 57.5t172.5 16.5zM459 77q104 0 157 21.5t77.5 80t24.5 172.5q0 89 -11.5 141.5t-44 82.5
t-78 39.5t-125.5 9.5q-79 0 -124.5 -9.5t-77.5 -39.5t-43.5 -82.5t-11.5 -141.5q0 -86 11.5 -138t43 -83t78 -42t124.5 -11zM569 747h-116l-191 129h138z" />
    <glyph glyph-name="Oacute" unicode="&#xd3;" horiz-adv-x="918" 
d="M459 714q103 0 172.5 -16.5t120 -57.5t73.5 -111t23 -176q0 -107 -23 -178.5t-73 -113t-120 -58.5t-173 -17t-172.5 17t-120 58.5t-73.5 113t-23 178.5q0 106 23 176t73.5 111t120 57.5t172.5 16.5zM459 77q104 0 157 21.5t77.5 80t24.5 172.5q0 89 -11.5 141.5t-44 82.5
t-78 39.5t-125.5 9.5q-79 0 -124.5 -9.5t-77.5 -39.5t-43.5 -82.5t-11.5 -141.5q0 -86 11.5 -138t43 -83t78 -42t124.5 -11zM414 747h-105l158 129h137z" />
    <glyph glyph-name="Ocircumflex" unicode="&#xd4;" horiz-adv-x="918" 
d="M459 714q103 0 172.5 -16.5t120 -57.5t73.5 -111t23 -176q0 -107 -23 -178.5t-73 -113t-120 -58.5t-173 -17t-172.5 17t-120 58.5t-73.5 113t-23 178.5q0 106 23 176t73.5 111t120 57.5t172.5 16.5zM459 77q104 0 157 21.5t77.5 80t24.5 172.5q0 89 -11.5 141.5t-44 82.5
t-78 39.5t-125.5 9.5q-79 0 -124.5 -9.5t-77.5 -39.5t-43.5 -82.5t-11.5 -141.5q0 -86 11.5 -138t43 -83t78 -42t124.5 -11zM453 831l-90 -84h-113q24 22 73 65t73 64h117l151 -129h-118z" />
    <glyph glyph-name="Otilde" unicode="&#xd5;" horiz-adv-x="918" 
d="M459 714q103 0 172.5 -16.5t120 -57.5t73.5 -111t23 -176q0 -107 -23 -178.5t-73 -113t-120 -58.5t-173 -17t-172.5 17t-120 58.5t-73.5 113t-23 178.5q0 106 23 176t73.5 111t120 57.5t172.5 16.5zM459 77q104 0 157 21.5t77.5 80t24.5 172.5q0 89 -11.5 141.5t-44 82.5
t-78 39.5t-125.5 9.5q-79 0 -124.5 -9.5t-77.5 -39.5t-43.5 -82.5t-11.5 -141.5q0 -86 11.5 -138t43 -83t78 -42t124.5 -11zM610 873l61 -41q-19 -43 -54.5 -67.5t-83.5 -24.5q-34 0 -90 30.5t-83 30.5q-37 0 -66 -55l-54 44q27 40 56 59.5t69 19.5q39 0 94 -28.5t81 -28.5
q45 0 70 61z" />
    <glyph glyph-name="Odieresis" unicode="&#xd6;" horiz-adv-x="918" 
d="M459 714q103 0 172.5 -16.5t120 -57.5t73.5 -111t23 -176q0 -107 -23 -178.5t-73 -113t-120 -58.5t-173 -17t-172.5 17t-120 58.5t-73.5 113t-23 178.5q0 106 23 176t73.5 111t120 57.5t172.5 16.5zM459 77q104 0 157 21.5t77.5 80t24.5 172.5q0 89 -11.5 141.5t-44 82.5
t-78 39.5t-125.5 9.5q-79 0 -124.5 -9.5t-77.5 -39.5t-43.5 -82.5t-11.5 -141.5q0 -86 11.5 -138t43 -83t78 -42t124.5 -11zM338 855q35 0 47.5 -8.5t12.5 -38.5q0 -33 -12.5 -42.5t-47.5 -9.5q-37 0 -49.5 9.5t-12.5 42.5q0 30 12.5 38.5t49.5 8.5zM579 855q35 0 47.5 -8.5
t12.5 -38.5q0 -33 -12.5 -42.5t-47.5 -9.5q-37 0 -49 9.5t-12 42.5q0 30 12 38.5t49 8.5z" />
    <glyph glyph-name="multiply" unicode="&#xd7;" horiz-adv-x="723" 
d="M195 158l-77 64l166 139l-166 139l76 62l165 -138l167 140l78 -64l-168 -140l167 -138l-76 -64l-167 139z" />
    <glyph glyph-name="Oslash" unicode="&#xd8;" horiz-adv-x="917" 
d="M753 697h128q-49 -47 -96 -93q62 -83 62 -251q0 -107 -23 -178.5t-73.5 -113t-120 -58.5t-172.5 -17q-171 0 -258 51q-25 -25 -38 -37h-125l97 93q-65 84 -65 260q0 106 23 176t73.5 111t120 57.5t172.5 16.5q173 0 259 -53zM458 624q-77 0 -122 -9t-77.5 -37
t-44.5 -77.5t-12 -131.5q0 -55 2 -81q6 -67 23 -105q138 134 414 404q-51 37 -183 37zM458 77q149 0 203.5 51t54.5 206q0 67 -1 80q-4 61 -23 101q-184 -177 -411 -401q50 -37 177 -37z" />
    <glyph glyph-name="Ugrave" unicode="&#xd9;" horiz-adv-x="889" 
d="M666 697h123v-471q0 -72 -22 -120t-69 -74t-106.5 -36t-147.5 -10q-87 0 -146.5 10t-106 36t-69 74t-22.5 120v471h124v-461q0 -92 50 -125t170 -33t171 32.5t51 125.5v461zM576 747h-116l-191 129h138z" />
    <glyph glyph-name="Uacute" unicode="&#xda;" horiz-adv-x="889" 
d="M666 697h123v-471q0 -72 -22 -120t-69 -74t-106.5 -36t-147.5 -10q-87 0 -146.5 10t-106 36t-69 74t-22.5 120v471h124v-461q0 -92 50 -125t170 -33t171 32.5t51 125.5v461zM432 747h-105l158 129h137z" />
    <glyph glyph-name="Ucircumflex" unicode="&#xdb;" horiz-adv-x="889" 
d="M666 697h123v-471q0 -72 -22 -120t-69 -74t-106.5 -36t-147.5 -10q-87 0 -146.5 10t-106 36t-69 74t-22.5 120v471h124v-461q0 -92 50 -125t170 -33t171 32.5t51 125.5v461zM438 831l-90 -84h-112q25 22 73.5 65t72.5 64h116l152 -129h-118z" />
    <glyph glyph-name="Udieresis" unicode="&#xdc;" horiz-adv-x="889" 
d="M666 697h123v-471q0 -72 -22 -120t-69 -74t-106.5 -36t-147.5 -10q-87 0 -146.5 10t-106 36t-69 74t-22.5 120v471h124v-461q0 -92 50 -125t170 -33t171 32.5t51 125.5v461zM321 855q35 0 47.5 -8.5t12.5 -38.5q0 -33 -12.5 -42.5t-47.5 -9.5q-37 0 -49 9.5t-12 42.5
q0 30 12 38.5t49 8.5zM562 855q36 0 48 -8.5t12 -38.5q0 -33 -12 -42.5t-48 -9.5q-37 0 -49 9.5t-12 42.5q0 30 12 38.5t49 8.5z" />
    <glyph glyph-name="Yacute" unicode="&#xdd;" horiz-adv-x="747" 
d="M132 697q128 -133 251 -286q136 148 243 286h145q-172 -210 -333 -379v-318h-122v318q-181 217 -342 379h158zM392 747h-106l158 129h137z" />
    <glyph glyph-name="Thorn" unicode="&#xde;" horiz-adv-x="793" 
d="M114 697h121v-110h283q234 0 234 -232q0 -96 -56 -159t-174 -63h-287v-133h-121v697zM235 220h259q61 0 92.5 35.5t31.5 99.5q0 71 -30.5 108t-88.5 37h-264v-280z" />
    <glyph glyph-name="germandbls" unicode="&#xdf;" horiz-adv-x="762" 
d="M380 714q295 0 295 -174q0 -75 -35.5 -117.5t-138.5 -50.5q110 -4 152 -51t42 -131q0 -113 -77.5 -158.5t-253.5 -45.5q-42 0 -72 3l12 84q51 -3 64 -3q115 0 157 28.5t42 98.5q0 74 -40.5 103t-143.5 29h-36v81h35q94 0 131 27t37 88q0 56 -39 79.5t-133 23.5
q-176 0 -176 -105v-523h-114v532q0 92 78.5 137t213.5 45z" />
    <glyph glyph-name="agrave" unicode="&#xe0;" horiz-adv-x="661" 
d="M576 324v-298q-115 -40 -260 -40q-140 0 -196 36.5t-56 133.5q0 52 17 86.5t52 51.5t74 23t97 6q75 0 162 -15q0 79 -32.5 104.5t-133.5 25.5q-105 0 -180 -24l-24 82q112 25 222 25q139 0 198.5 -42.5t59.5 -154.5zM466 83v155q-52 11 -142 11q-82 0 -110 -15.5
t-28 -72.5q0 -62 26.5 -80t110.5 -18q75 0 143 20zM430 568h-107l-167 129h130z" />
    <glyph glyph-name="aacute" unicode="&#xe1;" horiz-adv-x="661" 
d="M576 324v-298q-115 -40 -260 -40q-140 0 -196 36.5t-56 133.5q0 52 17 86.5t52 51.5t74 23t97 6q75 0 162 -15q0 79 -32.5 104.5t-133.5 25.5q-105 0 -180 -24l-24 82q112 25 222 25q139 0 198.5 -42.5t59.5 -154.5zM466 83v155q-52 11 -142 11q-82 0 -110 -15.5
t-28 -72.5q0 -62 26.5 -80t110.5 -18q75 0 143 20zM340 568h-108l145 129h129z" />
    <glyph glyph-name="acircumflex" unicode="&#xe2;" horiz-adv-x="661" 
d="M576 324v-298q-115 -40 -260 -40q-140 0 -196 36.5t-56 133.5q0 52 17 86.5t52 51.5t74 23t97 6q75 0 162 -15q0 79 -32.5 104.5t-133.5 25.5q-105 0 -180 -24l-24 82q112 25 222 25q139 0 198.5 -42.5t59.5 -154.5zM466 83v155q-52 11 -142 11q-82 0 -110 -15.5
t-28 -72.5q0 -62 26.5 -80t110.5 -18q75 0 143 20zM423 568q-14 13 -44.5 39.5t-46.5 41.5q-14 -13 -89 -81h-114q24 22 73 65t73 64h117l151 -129h-120z" />
    <glyph glyph-name="atilde" unicode="&#xe3;" horiz-adv-x="661" 
d="M576 324v-298q-115 -40 -260 -40q-140 0 -196 36.5t-56 133.5q0 52 17 86.5t52 51.5t74 23t97 6q75 0 162 -15q0 79 -32.5 104.5t-133.5 25.5q-105 0 -180 -24l-24 82q112 25 222 25q139 0 198.5 -42.5t59.5 -154.5zM466 83v155q-52 11 -142 11q-82 0 -110 -15.5
t-28 -72.5q0 -62 26.5 -80t110.5 -18q75 0 143 20zM476 695l62 -41q-41 -92 -134 -92q-35 0 -87.5 30t-79.5 30q-40 0 -67 -56l-56 45q28 41 57.5 61t70.5 20q40 0 89.5 -29.5t75.5 -29.5q23 0 38 13.5t31 48.5z" />
    <glyph glyph-name="adieresis" unicode="&#xe4;" horiz-adv-x="661" 
d="M576 324v-298q-115 -40 -260 -40q-140 0 -196 36.5t-56 133.5q0 52 17 86.5t52 51.5t74 23t97 6q75 0 162 -15q0 79 -32.5 104.5t-133.5 25.5q-105 0 -180 -24l-24 82q112 25 222 25q139 0 198.5 -42.5t59.5 -154.5zM466 83v155q-52 11 -142 11q-82 0 -110 -15.5
t-28 -72.5q0 -62 26.5 -80t110.5 -18q75 0 143 20zM203 669q36 0 48 -8.5t12 -38.5q0 -33 -12 -42.5t-48 -9.5q-37 0 -49 9.5t-12 42.5q0 30 12 38.5t49 8.5zM444 669q36 0 48 -8.5t12 -38.5q0 -33 -12 -42.5t-48 -9.5t-48.5 9.5t-12.5 42.5q0 30 12.5 38.5t48.5 8.5z" />
    <glyph glyph-name="aring" unicode="&#xe5;" horiz-adv-x="661" 
d="M576 324v-298q-115 -40 -260 -40q-140 0 -196 36.5t-56 133.5q0 52 17 86.5t52 51.5t74 23t97 6q75 0 162 -15q0 79 -32.5 104.5t-133.5 25.5q-105 0 -180 -24l-24 82q112 25 222 25q139 0 198.5 -42.5t59.5 -154.5zM466 83v155q-52 11 -142 11q-82 0 -110 -15.5
t-28 -72.5q0 -62 26.5 -80t110.5 -18q75 0 143 20zM336 739q137 0 137 -96t-137 -96q-136 0 -136 96q0 51 31 73.5t105 22.5zM336 689q-36 0 -50 -11.5t-14 -35.5t14 -36t50 -12q37 0 51.5 12t14.5 36t-14.5 35.5t-51.5 11.5z" />
    <glyph glyph-name="ae" unicode="&#xe6;" horiz-adv-x="1049" 
d="M933 93l21 -79q-108 -28 -206 -28q-127 0 -190 42q-35 -20 -106 -31t-136 -11q-140 0 -196 36.5t-56 133.5q0 42 12 72.5t32 48.5t52 28.5t65.5 14t78.5 3.5q75 0 162 -15q0 80 -31.5 104.5t-134.5 24.5q-108 0 -180 -23l-24 82q112 25 222 25q90 0 139.5 -16t73.5 -58
q27 40 76 57t129 17q72 0 118.5 -12.5t80 -44.5t47 -88t11.5 -142h-414q1 -98 42.5 -131.5t138.5 -33.5q89 0 173 24zM494 92q-29 56 -29 146q-55 11 -141 11q-82 0 -110 -15.5t-28 -72.5q0 -59 25.5 -78.5t111.5 -19.5q105 0 171 29zM741 442q-83 0 -118 -26.5t-43 -104.5
h300q-4 79 -33.5 105t-105.5 26z" />
    <glyph glyph-name="ccedilla" unicode="&#xe7;" horiz-adv-x="562" 
d="M516 96l30 -83q-75 -27 -180 -27q-149 0 -223.5 60.5t-74.5 209.5q0 148 74.5 206.5t223.5 58.5q101 0 180 -24l-30 -84q-63 23 -146 23q-50 0 -81 -6.5t-55.5 -25.5t-35 -55.5t-10.5 -94.5q0 -107 42 -145t140 -38q73 0 146 25zM307 0h50v-44q77 0 107 -16.5t30 -60.5
q0 -47 -35 -64.5t-122 -17.5q-81 0 -123 18l24 48q36 -14 95 -14q35 0 47.5 6t12.5 24q0 20 -27 26t-102 2z" />
    <glyph glyph-name="egrave" unicode="&#xe8;" horiz-adv-x="658" 
d="M543 93l22 -79q-110 -28 -208 -28q-144 0 -216.5 60.5t-72.5 209.5q0 145 69 205t209 60q72 0 119 -12.5t80 -44.5t46.5 -88t11.5 -142h-414q1 -98 42 -131.5t139 -33.5q89 0 173 24zM351 442q-83 0 -118.5 -28t-42.5 -103h300q-4 79 -33.5 105t-105.5 26zM459 568h-107
l-166 129h129z" />
    <glyph glyph-name="eacute" unicode="&#xe9;" horiz-adv-x="658" 
d="M543 93l22 -79q-110 -28 -208 -28q-144 0 -216.5 60.5t-72.5 209.5q0 145 69 205t209 60q72 0 119 -12.5t80 -44.5t46.5 -88t11.5 -142h-414q1 -98 42 -131.5t139 -33.5q89 0 173 24zM351 442q-83 0 -118.5 -28t-42.5 -103h300q-4 79 -33.5 105t-105.5 26zM354 568h-108
l145 129h128z" />
    <glyph glyph-name="ecircumflex" unicode="&#xea;" horiz-adv-x="658" 
d="M543 93l22 -79q-110 -28 -208 -28q-144 0 -216.5 60.5t-72.5 209.5q0 145 69 205t209 60q72 0 119 -12.5t80 -44.5t46.5 -88t11.5 -142h-414q1 -98 42 -131.5t139 -33.5q89 0 173 24zM351 442q-83 0 -118.5 -28t-42.5 -103h300q-4 79 -33.5 105t-105.5 26zM440 568
q-14 13 -44.5 39.5t-46.5 41.5q-14 -13 -89 -81h-114q25 22 73.5 65t72.5 64h117l151 -129h-120z" />
    <glyph glyph-name="edieresis" unicode="&#xeb;" horiz-adv-x="658" 
d="M543 93l22 -79q-110 -28 -208 -28q-144 0 -216.5 60.5t-72.5 209.5q0 145 69 205t209 60q72 0 119 -12.5t80 -44.5t46.5 -88t11.5 -142h-414q1 -98 42 -131.5t139 -33.5q89 0 173 24zM351 442q-83 0 -118.5 -28t-42.5 -103h300q-4 79 -33.5 105t-105.5 26zM229 669
q35 0 47.5 -8.5t12.5 -38.5q0 -33 -12.5 -42.5t-47.5 -9.5q-37 0 -49 9.5t-12 42.5q0 30 12 38.5t49 8.5zM470 669q36 0 48 -8.5t12 -38.5q0 -33 -12 -42.5t-48 -9.5q-37 0 -49 9.5t-12 42.5q0 30 12 38.5t49 8.5z" />
    <glyph glyph-name="igrave" unicode="&#xec;" horiz-adv-x="287" 
d="M201 507v-507h-113v507h113zM225 568h-107l-167 129h130z" />
    <glyph glyph-name="iacute" unicode="&#xed;" horiz-adv-x="287" 
d="M200 507v-507h-113v507h113zM164 568h-108l145 129h129z" />
    <glyph glyph-name="icircumflex" unicode="&#xee;" horiz-adv-x="287" 
d="M201 507v-507h-113v507h113zM232 568q-14 13 -44.5 39.5t-46.5 41.5q-14 -13 -89 -81h-114q25 22 73.5 65t72.5 64h117l151 -129h-120z" />
    <glyph glyph-name="idieresis" unicode="&#xef;" horiz-adv-x="287" 
d="M201 507v-507h-113v507h113zM24 669q36 0 48 -8.5t12 -38.5q0 -33 -12 -42.5t-48 -9.5q-37 0 -49 9.5t-12 42.5q0 30 12 38.5t49 8.5zM265 669q36 0 48 -8.5t12 -38.5q0 -33 -12 -42.5t-48 -9.5t-48.5 9.5t-12.5 42.5q0 30 12.5 38.5t48.5 8.5z" />
    <glyph glyph-name="eth" unicode="&#xf0;" horiz-adv-x="749" 
d="M314 485l-49 57l87 46q-48 44 -136 109h158q44 -33 75 -59l81 45l48 -57l-73 -40q180 -173 180 -361q0 -143 -65 -192.5t-247 -49.5q-165 0 -236 53t-71 180q0 116 67.5 161t240.5 45q63 0 132 -8q-34 59 -99 121zM383 335q-116 0 -152.5 -24.5t-36.5 -101.5
q0 -73 37 -105t142 -32q55 0 85.5 5t55.5 22t34 50t9 89q0 47 -13 87q-71 10 -161 10z" />
    <glyph glyph-name="ntilde" unicode="&#xf1;" horiz-adv-x="682" 
d="M201 420v-420h-113v479q118 42 266 42q134 0 189 -51t55 -186v-284h-113v272q0 99 -30.5 130.5t-122.5 31.5q-72 0 -131 -14zM489 695l62 -41q-41 -92 -134 -92q-35 0 -87 30t-80 30q-40 0 -67 -56l-55 45q54 81 127 81q40 0 89.5 -29.5t75.5 -29.5q23 0 38 13.5t31 48.5
z" />
    <glyph glyph-name="ograve" unicode="&#xf2;" 
d="M351 -14q-149 0 -216 59.5t-67 210.5q0 150 67 207.5t216 57.5q150 0 216.5 -57.5t66.5 -207.5q0 -151 -66.5 -210.5t-216.5 -59.5zM351 441q-96 0 -129.5 -35.5t-33.5 -151.5q0 -112 34.5 -150t128.5 -38q95 0 129 38t34 150q0 116 -33.5 151.5t-129.5 35.5zM468 568
h-107l-167 129h130z" />
    <glyph glyph-name="oacute" unicode="&#xf3;" 
d="M351 -14q-149 0 -216 59.5t-67 210.5q0 150 67 207.5t216 57.5q150 0 216.5 -57.5t66.5 -207.5q0 -151 -66.5 -210.5t-216.5 -59.5zM351 441q-96 0 -129.5 -35.5t-33.5 -151.5q0 -112 34.5 -150t128.5 -38q95 0 129 38t34 150q0 116 -33.5 151.5t-129.5 35.5zM356 568
h-108l145 129h129z" />
    <glyph glyph-name="ocircumflex" unicode="&#xf4;" 
d="M351 -14q-149 0 -216 59.5t-67 210.5q0 150 67 207.5t216 57.5q150 0 216.5 -57.5t66.5 -207.5q0 -151 -66.5 -210.5t-216.5 -59.5zM351 441q-96 0 -129.5 -35.5t-33.5 -151.5q0 -112 34.5 -150t128.5 -38q95 0 129 38t34 150q0 116 -33.5 151.5t-129.5 35.5zM436 568
q-14 13 -44.5 39.5t-46.5 41.5q-14 -13 -89 -81h-114q22 19 46.5 40.5t54.5 48t46 40.5h116l151 -129h-120z" />
    <glyph glyph-name="otilde" unicode="&#xf5;" 
d="M351 -14q-149 0 -216 59.5t-67 210.5q0 150 67 207.5t216 57.5q150 0 216.5 -57.5t66.5 -207.5q0 -151 -66.5 -210.5t-216.5 -59.5zM351 441q-96 0 -129.5 -35.5t-33.5 -151.5q0 -112 34.5 -150t128.5 -38q95 0 129 38t34 150q0 116 -33.5 151.5t-129.5 35.5zM499 695
l62 -41q-41 -92 -134 -92q-35 0 -87 30t-80 30q-40 0 -67 -56l-55 45q54 81 127 81q40 0 89.5 -29.5t75.5 -29.5q23 0 38 13.5t31 48.5z" />
    <glyph glyph-name="odieresis" unicode="&#xf6;" 
d="M351 -14q-149 0 -216 59.5t-67 210.5q0 150 67 207.5t216 57.5q150 0 216.5 -57.5t66.5 -207.5q0 -151 -66.5 -210.5t-216.5 -59.5zM351 441q-96 0 -129.5 -35.5t-33.5 -151.5q0 -112 34.5 -150t128.5 -38q95 0 129 38t34 150q0 116 -33.5 151.5t-129.5 35.5zM230 669
q36 0 48 -8.5t12 -38.5q0 -33 -12 -42.5t-48 -9.5q-37 0 -49 9.5t-12 42.5q0 30 12 38.5t49 8.5zM471 669q36 0 48 -8.5t12 -38.5q0 -33 -12 -42.5t-48 -9.5q-37 0 -49 9.5t-12 42.5q0 30 12 38.5t49 8.5z" />
    <glyph glyph-name="divide" unicode="&#xf7;" horiz-adv-x="723" 
d="M71 315v89h580v-89h-580zM361 215q48 0 64 -10.5t16 -48.5q0 -41 -16 -53.5t-64 -12.5q-44 0 -60 12.5t-16 53.5q0 37 15.5 48t60.5 11zM361 627q48 0 64 -11t16 -49q0 -41 -16 -53t-64 -12q-45 0 -60.5 12t-15.5 53q0 38 15.5 49t60.5 11z" />
    <glyph glyph-name="oslash" unicode="&#xf8;" 
d="M553 507h115l-75 -73q42 -59 42 -178q0 -151 -67 -210.5t-218 -59.5q-113 0 -180 34l-21 -20h-113l74 73q-42 62 -42 183q0 150 67 207.5t215 57.5q121 0 182 -34zM350 441q-94 0 -127.5 -33.5t-33.5 -141.5q0 -74 7 -107l272 260q-34 22 -118 22zM350 66q96 0 130.5 40
t34.5 146q0 64 -6 95l-273 -258q32 -23 114 -23z" />
    <glyph glyph-name="ugrave" unicode="&#xf9;" horiz-adv-x="681" 
d="M482 88v419h113v-479q-119 -42 -266 -42q-133 0 -188.5 51t-55.5 186v284h113v-272q0 -99 30.5 -130.5t121.5 -31.5q75 0 132 15zM453 568h-106l-167 129h129z" />
    <glyph glyph-name="uacute" unicode="&#xfa;" horiz-adv-x="681" 
d="M482 88v419h113v-479q-119 -42 -266 -42q-133 0 -188.5 51t-55.5 186v284h113v-272q0 -99 30.5 -130.5t121.5 -31.5q75 0 132 15zM351 568h-108l146 129h128z" />
    <glyph glyph-name="ucircumflex" unicode="&#xfb;" horiz-adv-x="681" 
d="M482 88v419h113v-479q-119 -42 -266 -42q-133 0 -188.5 51t-55.5 186v284h113v-272q0 -99 30.5 -130.5t121.5 -31.5q75 0 132 15zM439 568q-14 13 -44.5 39.5t-46.5 41.5q-14 -13 -89 -81h-114q24 22 72.5 65t73.5 64h117l151 -129h-120z" />
    <glyph glyph-name="udieresis" unicode="&#xfc;" horiz-adv-x="681" 
d="M482 88v419h113v-479q-119 -42 -266 -42q-133 0 -188.5 51t-55.5 186v284h113v-272q0 -99 30.5 -130.5t121.5 -31.5q75 0 132 15zM229 669q36 0 48 -8.5t12 -38.5q0 -33 -12 -42.5t-48 -9.5q-37 0 -49 9.5t-12 42.5q0 30 12 38.5t49 8.5zM470 669q36 0 48 -8.5t12 -38.5
q0 -33 -12 -42.5t-48 -9.5q-37 0 -49 9.5t-12 42.5q0 30 12 38.5t49 8.5z" />
    <glyph glyph-name="yacute" unicode="&#xfd;" horiz-adv-x="612" 
d="M234 -24q-107 321 -220 531h121q91 -177 169 -417q117 243 172 417h118q-83 -231 -228 -517q-48 -96 -102 -182h-129q47 73 99 168zM332 568h-108l145 129h129z" />
    <glyph glyph-name="thorn" unicode="&#xfe;" horiz-adv-x="697" 
d="M88 -192v908h113v-209q73 14 143 14q151 0 217 -57.5t66 -208.5q0 -149 -66 -209t-204 -60q-94 0 -156 36v-214h-113zM201 419v-289q0 -28 41 -44.5t102 -16.5q94 0 129 38t35 146q0 113 -34 148.5t-130 35.5q-86 0 -143 -18z" />
    <glyph glyph-name="ydieresis" unicode="&#xff;" horiz-adv-x="612" 
d="M234 -24q-107 321 -220 531h121q91 -177 169 -417q117 243 172 417h118q-83 -231 -228 -517q-48 -96 -102 -182h-129q47 73 99 168zM188 669q36 0 48 -8.5t12 -38.5q0 -33 -12 -42.5t-48 -9.5q-37 0 -49 9.5t-12 42.5q0 30 12 38.5t49 8.5zM429 669q36 0 48 -8.5
t12 -38.5q0 -33 -12 -42.5t-48 -9.5q-37 0 -49 9.5t-12 42.5q0 30 12 38.5t49 8.5z" />
    <glyph glyph-name="Amacron" unicode="&#x100;" horiz-adv-x="810" 
d="M680 0q-86 186 -90 194h-387q-30 -74 -76 -194h-126q151 378 310 697h198q160 -408 308 -697h-137zM421 613h-34q-82 -173 -150 -332h317q-57 131 -133 332zM245 762v77h318v-77h-318z" />
    <glyph glyph-name="amacron" unicode="&#x101;" horiz-adv-x="661" 
d="M576 324v-298q-115 -40 -260 -40q-140 0 -196 36.5t-56 133.5q0 52 17 86.5t52 51.5t74 23t97 6q75 0 162 -15q0 79 -32.5 104.5t-133.5 25.5q-105 0 -180 -24l-24 82q112 25 222 25q139 0 198.5 -42.5t59.5 -154.5zM466 83v155q-52 11 -142 11q-82 0 -110 -15.5
t-28 -72.5q0 -62 26.5 -80t110.5 -18q75 0 143 20zM168 581v74h318v-74h-318z" />
    <glyph glyph-name="Abreve" unicode="&#x102;" horiz-adv-x="810" 
d="M680 0q-86 186 -90 194h-387q-30 -74 -76 -194h-126q151 378 310 697h198q160 -408 308 -697h-137zM421 613h-34q-82 -173 -150 -332h317q-57 131 -133 332zM233 871h84q0 -37 20 -50t67 -13q46 0 67 13t21 50h79q0 -132 -169 -132t-169 132z" />
    <glyph glyph-name="abreve" unicode="&#x103;" horiz-adv-x="661" 
d="M576 324v-298q-115 -40 -260 -40q-140 0 -196 36.5t-56 133.5q0 52 17 86.5t52 51.5t74 23t97 6q75 0 162 -15q0 79 -32.5 104.5t-133.5 25.5q-105 0 -180 -24l-24 82q112 25 222 25q139 0 198.5 -42.5t59.5 -154.5zM466 83v155q-52 11 -142 11q-82 0 -110 -15.5
t-28 -72.5q0 -62 26.5 -80t110.5 -18q75 0 143 20zM158 697h84q0 -37 20 -50t67 -13q46 0 67 13t21 50h79q0 -132 -169 -132t-169 132z" />
    <glyph glyph-name="Aogonek" unicode="&#x104;" horiz-adv-x="810" 
d="M680 0q-86 186 -90 194h-387q-30 -74 -76 -194h-126q151 378 310 697h198q160 -408 308 -697h-137zM421 613h-34q-82 -173 -150 -332h317q-57 131 -133 332zM750 12h44q-65 -33 -86.5 -56t-21.5 -54q0 -23 16.5 -33t61.5 -10q61 0 105 29l38 -56q-55 -35 -154 -35
q-87 0 -121.5 21.5t-34.5 67.5q0 41 39 75t114 51z" />
    <glyph glyph-name="aogonek" unicode="&#x105;" horiz-adv-x="661" 
d="M576 324v-298q-115 -40 -260 -40q-140 0 -196 36.5t-56 133.5q0 52 17 86.5t52 51.5t74 23t97 6q75 0 162 -15q0 79 -32.5 104.5t-133.5 25.5q-105 0 -180 -24l-24 82q112 25 222 25q139 0 198.5 -42.5t59.5 -154.5zM466 83v155q-52 11 -142 11q-82 0 -110 -15.5
t-28 -72.5q0 -62 26.5 -80t110.5 -18q75 0 143 20zM484 12h44q-64 -33 -86 -56t-22 -54q0 -23 16.5 -33t61.5 -10q62 0 105 29l38 -56q-55 -35 -153 -35q-88 0 -122 21.5t-34 67.5q0 41 38.5 75t113.5 51z" />
    <glyph glyph-name="Cacute" unicode="&#x106;" horiz-adv-x="717" 
d="M70 355q0 106 23 176t73 110.5t119.5 56.5t172.5 16q125 0 236 -26l-30 -91q-77 24 -192 24q-80 0 -126 -8.5t-81.5 -36.5t-49 -81t-13.5 -141t13.5 -141.5t48.5 -83t82 -39.5t126 -10q113 0 192 23l30 -91q-106 -26 -236 -26q-102 0 -172 18t-120 60t-73 113.5
t-23 177.5zM408 747h-105l158 129h137z" />
    <glyph glyph-name="cacute" unicode="&#x107;" horiz-adv-x="562" 
d="M516 96l30 -83q-75 -27 -180 -27q-149 0 -223.5 60.5t-74.5 209.5q0 148 74.5 206.5t223.5 58.5q101 0 180 -24l-30 -84q-63 23 -146 23q-50 0 -81 -6.5t-55.5 -25.5t-35 -55.5t-10.5 -94.5q0 -107 42 -145t140 -38q73 0 146 25zM345 568h-108l145 129h129z" />
    <glyph glyph-name="Ccircumflex" unicode="&#x108;" horiz-adv-x="717" 
d="M70 355q0 106 23 176t73 110.5t119.5 56.5t172.5 16q125 0 236 -26l-30 -91q-77 24 -192 24q-80 0 -126 -8.5t-81.5 -36.5t-49 -81t-13.5 -141t13.5 -141.5t48.5 -83t82 -39.5t126 -10q113 0 192 23l30 -91q-106 -26 -236 -26q-102 0 -172 18t-120 60t-73 113.5
t-23 177.5zM447 831l-90 -84h-113q24 22 73 65t73 64h117l151 -129h-118z" />
    <glyph glyph-name="ccircumflex" unicode="&#x109;" horiz-adv-x="561" 
d="M516 96l30 -83q-75 -27 -180 -27q-149 0 -223.5 60.5t-74.5 209.5q0 148 74.5 206.5t223.5 58.5q101 0 180 -24l-30 -84q-63 23 -146 23q-50 0 -81 -6.5t-55.5 -25.5t-35 -55.5t-10.5 -94.5q0 -107 42 -145t140 -38q73 0 146 25zM436 568q-14 13 -44.5 39.5t-46.5 41.5
q-14 -13 -89 -81h-114q22 19 46.5 40.5t54.5 48t46 40.5h116l151 -129h-120z" />
    <glyph glyph-name="Cdotaccent" unicode="&#x10a;" horiz-adv-x="717" 
d="M70 355q0 106 23 176t73 110.5t119.5 56.5t172.5 16q125 0 236 -26l-30 -91q-77 24 -192 24q-80 0 -126 -8.5t-81.5 -36.5t-49 -81t-13.5 -141t13.5 -141.5t48.5 -83t82 -39.5t126 -10q113 0 192 23l30 -91q-106 -26 -236 -26q-102 0 -172 18t-120 60t-73 113.5
t-23 177.5zM446 857q35 0 47.5 -8.5t12.5 -38.5q0 -33 -12.5 -43t-47.5 -10q-36 0 -49 10t-13 43q0 30 12.5 38.5t49.5 8.5z" />
    <glyph glyph-name="cdotaccent" unicode="&#x10b;" horiz-adv-x="562" 
d="M516 96l30 -83q-75 -27 -180 -27q-149 0 -223.5 60.5t-74.5 209.5q0 148 74.5 206.5t223.5 58.5q101 0 180 -24l-30 -84q-63 23 -146 23q-50 0 -81 -6.5t-55.5 -25.5t-35 -55.5t-10.5 -94.5q0 -107 42 -145t140 -38q73 0 146 25zM356 669q36 0 48 -8.5t12 -38.5
q0 -33 -12 -42.5t-48 -9.5t-48.5 9.5t-12.5 42.5q0 30 12.5 38.5t48.5 8.5z" />
    <glyph glyph-name="Ccaron" unicode="&#x10c;" horiz-adv-x="717" 
d="M70 355q0 106 23 176t73 110.5t119.5 56.5t172.5 16q125 0 236 -26l-30 -91q-77 24 -192 24q-80 0 -126 -8.5t-81.5 -36.5t-49 -81t-13.5 -141t13.5 -141.5t48.5 -83t82 -39.5t126 -10q113 0 192 23l30 -91q-106 -26 -236 -26q-102 0 -172 18t-120 60t-73 113.5
t-23 177.5zM342 876l94 -84l91 84h113l-146 -129h-117l-151 129h116z" />
    <glyph glyph-name="ccaron" unicode="&#x10d;" horiz-adv-x="562" 
d="M516 96l30 -83q-75 -27 -180 -27q-149 0 -223.5 60.5t-74.5 209.5q0 148 74.5 206.5t223.5 58.5q101 0 180 -24l-30 -84q-63 23 -146 23q-50 0 -81 -6.5t-55.5 -25.5t-35 -55.5t-10.5 -94.5q0 -107 42 -145t140 -38q73 0 146 25zM144 697h118l92 -81l88 81h116l-147 -129
h-116z" />
    <glyph glyph-name="Dcaron" unicode="&#x10e;" horiz-adv-x="864" 
d="M114 697h288q103 0 173 -16t120.5 -55.5t74 -107t23.5 -167.5q0 -101 -23.5 -169t-73.5 -108t-121 -57t-173 -17h-288v697zM664 350q0 84 -13 135t-47.5 79t-81.5 37t-127 9h-160v-523h160q78 0 126.5 11t82 40.5t47 80t13.5 131.5zM308 876l94 -84l91 84h113l-146 -129
h-117l-151 129h116z" />
    <glyph glyph-name="dcaron" unicode="&#x10f;" horiz-adv-x="695" 
d="M495 88v290q0 28 -41.5 44t-102.5 16q-93 0 -128 -38t-35 -145q0 -114 34 -149.5t130 -35.5q84 0 143 18zM608 722v-697q-107 -39 -256 -39q-151 0 -217.5 58t-66.5 209q0 149 66 208.5t204 59.5q93 0 157 -34v235h113zM673 722h110l-67 -192h-68z" />
    <glyph glyph-name="Dcroat" unicode="&#x110;" horiz-adv-x="864" 
d="M49 323v73h65v301h288q103 0 173 -16t120.5 -55.5t74 -107t23.5 -167.5q0 -101 -23.5 -169t-73.5 -108t-121 -57t-173 -17h-288v323h-65zM663 350q0 85 -13 135t-47.5 78t-81 36.5t-126.5 8.5h-160v-212h193v-73h-193v-236h160q78 0 126.5 11t81.5 41t46.5 80t13.5 131z
" />
    <glyph glyph-name="dcroat" unicode="&#x111;" horiz-adv-x="695" 
d="M376 583v71h119v68h113v-68h56v-71h-56v-558q-107 -39 -256 -39q-151 0 -217.5 58t-66.5 209q0 149 66 208.5t204 59.5q93 0 157 -34v96h-119zM495 88v290q0 28 -41.5 44t-102.5 16q-93 0 -128 -38t-35 -145q0 -114 34 -149.5t130 -35.5q84 0 143 18z" />
    <glyph glyph-name="Emacron" unicode="&#x112;" horiz-adv-x="738" 
d="M114 697h589v-87h-468v-198h333v-86h-333v-239h468v-87h-589v697zM250 762v77h318v-77h-318z" />
    <glyph glyph-name="emacron" unicode="&#x113;" horiz-adv-x="658" 
d="M543 93l22 -79q-110 -28 -208 -28q-144 0 -216.5 60.5t-72.5 209.5q0 145 69 205t209 60q72 0 119 -12.5t80 -44.5t46.5 -88t11.5 -142h-414q1 -98 42 -131.5t139 -33.5q89 0 173 24zM351 442q-83 0 -118.5 -28t-42.5 -103h300q-4 79 -33.5 105t-105.5 26zM190 581v74
h318v-74h-318z" />
    <glyph glyph-name="Ebreve" unicode="&#x114;" horiz-adv-x="738" 
d="M114 697h589v-87h-468v-198h333v-86h-333v-239h468v-87h-589v697zM246 871h84q0 -37 20.5 -50t67.5 -13q45 0 66 13t21 50h79q0 -132 -169 -132t-169 132z" />
    <glyph glyph-name="ebreve" unicode="&#x115;" horiz-adv-x="658" 
d="M543 93l22 -79q-110 -28 -208 -28q-144 0 -216.5 60.5t-72.5 209.5q0 145 69 205t209 60q72 0 119 -12.5t80 -44.5t46.5 -88t11.5 -142h-414q1 -98 42 -131.5t139 -33.5q89 0 173 24zM351 442q-83 0 -118.5 -28t-42.5 -103h300q-4 79 -33.5 105t-105.5 26zM175 697h84
q0 -37 20.5 -50t66.5 -13t67 13t21 50h79q0 -132 -169 -132t-169 132z" />
    <glyph glyph-name="Edotaccent" unicode="&#x116;" horiz-adv-x="738" 
d="M114 697h589v-87h-468v-198h333v-86h-333v-239h468v-87h-589v697zM436 857q35 0 47.5 -8.5t12.5 -38.5q0 -33 -12.5 -43t-47.5 -10q-36 0 -49 10t-13 43q0 30 12.5 38.5t49.5 8.5z" />
    <glyph glyph-name="edotaccent" unicode="&#x117;" horiz-adv-x="658" 
d="M543 93l22 -79q-110 -28 -208 -28q-144 0 -216.5 60.5t-72.5 209.5q0 145 69 205t209 60q72 0 119 -12.5t80 -44.5t46.5 -88t11.5 -142h-414q1 -98 42 -131.5t139 -33.5q89 0 173 24zM351 442q-83 0 -118.5 -28t-42.5 -103h300q-4 79 -33.5 105t-105.5 26zM345 669
q36 0 48 -8.5t12 -38.5q0 -33 -12 -42.5t-48 -9.5q-35 0 -48 10t-13 42q0 29 12.5 38t48.5 9z" />
    <glyph glyph-name="Eogonek" unicode="&#x118;" horiz-adv-x="738" 
d="M114 697h589v-87h-468v-198h333v-86h-333v-239h468v-87h-589v697zM636 12h44q-64 -33 -86 -56t-22 -54q0 -23 16.5 -33t61.5 -10q62 0 105 29l38 -56q-55 -35 -153 -35q-88 0 -122 21.5t-34 67.5q0 41 38.5 75t113.5 51z" />
    <glyph glyph-name="eogonek" unicode="&#x119;" horiz-adv-x="658" 
d="M543 93l22 -79q-110 -28 -208 -28q-144 0 -216.5 60.5t-72.5 209.5q0 145 69 205t209 60q72 0 119 -12.5t80 -44.5t46.5 -88t11.5 -142h-414q1 -98 42 -131.5t139 -33.5q89 0 173 24zM351 442q-83 0 -118.5 -28t-42.5 -103h300q-4 79 -33.5 105t-105.5 26zM489 12h45
q-65 -33 -86.5 -56t-21.5 -54q0 -23 16.5 -33t61.5 -10q60 0 104 29l38 -56q-55 -35 -153 -35q-87 0 -121.5 21.5t-34.5 67.5q0 41 38.5 75t113.5 51z" />
    <glyph glyph-name="Ecaron" unicode="&#x11a;" horiz-adv-x="738" 
d="M114 697h589v-87h-468v-198h333v-86h-333v-239h468v-87h-589v697zM329 876l93 -84l92 84h112l-146 -129h-116l-152 129h117z" />
    <glyph glyph-name="ecaron" unicode="&#x11b;" horiz-adv-x="658" 
d="M543 93l22 -79q-110 -28 -208 -28q-144 0 -216.5 60.5t-72.5 209.5q0 145 69 205t209 60q72 0 119 -12.5t80 -44.5t46.5 -88t11.5 -142h-414q1 -98 42 -131.5t139 -33.5q89 0 173 24zM351 442q-83 0 -118.5 -28t-42.5 -103h300q-4 79 -33.5 105t-105.5 26zM139 697h119
l91 -81l89 81h115l-147 -129h-116z" />
    <glyph glyph-name="Gcircumflex" unicode="&#x11c;" horiz-adv-x="828" 
d="M610 91v215h-200v85h324v-379q-101 -26 -276 -26q-102 0 -172 18t-120 60t-73 113.5t-23 177.5t24 176.5t76.5 110.5t123 56t174.5 16q131 0 244 -26l-30 -90q-77 24 -206 24q-82 0 -129 -9t-82.5 -37t-49 -81t-13.5 -141t13.5 -142t48.5 -84t82 -40t126 -10q71 0 138 13
zM449 831l-90 -84h-113l147 129h116l151 -129h-117z" />
    <glyph glyph-name="gcircumflex" unicode="&#x11d;" horiz-adv-x="696" 
d="M495 131v290q-61 18 -143 18q-96 0 -130 -35t-34 -150q0 -108 34.5 -145.5t128.5 -37.5q61 0 102.5 16t41.5 44zM495 25q-64 -38 -161 -38q-139 0 -202.5 58.5t-63.5 208.5q0 151 66.5 209t217.5 58q147 0 256 -38v-445q0 -136 -78.5 -188.5t-234.5 -52.5
q-46 0 -107.5 8.5t-97.5 20.5l26 81q83 -27 178 -27q103 0 152 31.5t49 113.5zM447 568q-14 13 -44.5 39.5t-46.5 41.5q-14 -13 -89 -81h-114l147 129h116l151 -129h-120z" />
    <glyph glyph-name="Gbreve" unicode="&#x11e;" horiz-adv-x="828" 
d="M610 91v215h-200v85h324v-379q-101 -26 -276 -26q-102 0 -172 18t-120 60t-73 113.5t-23 177.5t24 176.5t76.5 110.5t123 56t174.5 16q131 0 244 -26l-30 -90q-77 24 -206 24q-82 0 -129 -9t-82.5 -37t-49 -81t-13.5 -141t13.5 -142t48.5 -84t82 -40t126 -10q71 0 138 13
zM281 871h84q0 -37 20.5 -50t67.5 -13q45 0 66 13t21 50h80q0 -132 -170 -132q-169 0 -169 132z" />
    <glyph glyph-name="gbreve" unicode="&#x11f;" horiz-adv-x="696" 
d="M495 131v290q-61 18 -143 18q-96 0 -130 -35t-34 -150q0 -108 34.5 -145.5t128.5 -37.5q61 0 102.5 16t41.5 44zM495 25q-64 -38 -161 -38q-139 0 -202.5 58.5t-63.5 208.5q0 151 66.5 209t217.5 58q147 0 256 -38v-445q0 -136 -78.5 -188.5t-234.5 -52.5
q-46 0 -107.5 8.5t-97.5 20.5l26 81q83 -27 178 -27q103 0 152 31.5t49 113.5zM188 697h84q0 -37 20.5 -50t67.5 -13q45 0 66 13t21 50h79q0 -132 -169 -132t-169 132z" />
    <glyph glyph-name="Gdotaccent" unicode="&#x120;" horiz-adv-x="828" 
d="M610 91v215h-200v85h324v-379q-101 -26 -276 -26q-102 0 -172 18t-120 60t-73 113.5t-23 177.5t24 176.5t76.5 110.5t123 56t174.5 16q131 0 244 -26l-30 -90q-77 24 -206 24q-82 0 -129 -9t-82.5 -37t-49 -81t-13.5 -141t13.5 -142t48.5 -84t82 -40t126 -10q71 0 138 13
zM459 857q35 0 47.5 -8.5t12.5 -38.5q0 -33 -12.5 -43t-47.5 -10q-36 0 -48.5 10t-12.5 43q0 30 12 38.5t49 8.5z" />
    <glyph glyph-name="gdotaccent" unicode="&#x121;" horiz-adv-x="696" 
d="M495 131v290q-61 18 -143 18q-96 0 -130 -35t-34 -150q0 -108 34.5 -145.5t128.5 -37.5q61 0 102.5 16t41.5 44zM495 25q-64 -38 -161 -38q-139 0 -202.5 58.5t-63.5 208.5q0 151 66.5 209t217.5 58q147 0 256 -38v-445q0 -136 -78.5 -188.5t-234.5 -52.5
q-46 0 -107.5 8.5t-97.5 20.5l26 81q83 -27 178 -27q103 0 152 31.5t49 113.5zM351 669q36 0 48 -8.5t12 -38.5q0 -33 -12 -42.5t-48 -9.5q-35 0 -48 10t-13 42q0 29 12.5 38t48.5 9z" />
    <glyph glyph-name="Gcommaaccent" unicode="&#x122;" horiz-adv-x="828" 
d="M610 91v215h-200v85h324v-379q-101 -26 -276 -26q-102 0 -172 18t-120 60t-73 113.5t-23 177.5t24 176.5t76.5 110.5t123 56t174.5 16q131 0 244 -26l-30 -90q-77 24 -206 24q-82 0 -129 -9t-82.5 -37t-49 -81t-13.5 -141t13.5 -142t48.5 -84t82 -40t126 -10q71 0 138 13
zM549 -51l-125 -167h-91l85 167h131z" />
    <glyph glyph-name="gcommaaccent" unicode="&#x123;" horiz-adv-x="696" 
d="M495 131v290q-61 18 -143 18q-96 0 -130 -35t-34 -150q0 -108 34.5 -145.5t128.5 -37.5q61 0 102.5 16t41.5 44zM495 25q-64 -38 -161 -38q-139 0 -202.5 58.5t-63.5 208.5q0 151 66.5 209t217.5 58q147 0 256 -38v-445q0 -136 -78.5 -188.5t-234.5 -52.5
q-46 0 -107.5 8.5t-97.5 20.5l26 81q83 -27 178 -27q103 0 152 31.5t49 113.5zM489 747l-125 -167h-91l85 167h131z" />
    <glyph glyph-name="Hcircumflex" unicode="&#x124;" horiz-adv-x="870" 
d="M235 325v-325h-121v697h121v-279h401v279h121v-697h-121v325h-401zM426 831l-90 -84h-113l147 129h116l151 -129h-117z" />
    <glyph glyph-name="hcircumflex" unicode="&#x125;" horiz-adv-x="681" 
d="M372 521q121 0 173 -48.5t52 -183.5v-289h-114v277q0 83 -27.5 120t-112.5 37q-59 0 -101 -15.5t-42 -42.5v-376h-114v722h114v-239q70 38 172 38zM222 831l-90 -84h-113q25 22 73 65t73 64h117l151 -129h-118z" />
    <glyph glyph-name="Hbar" unicode="&#x126;" horiz-adv-x="870" 
d="M37 530v81h77v86h121v-86h401v86h121v-86h78v-81h-78v-530h-121v325h-401v-325h-121v530h-77zM235 418h401v112h-401v-112z" />
    <glyph glyph-name="hbar" unicode="&#x127;" horiz-adv-x="682" 
d="M18 588v69h70v65h112v-65h135v-69h-135v-105q70 38 173 38q121 0 173 -48.5t52 -183.5v-289h-113v277q0 95 -31 126.5t-111 31.5q-58 0 -100.5 -15.5t-42.5 -42.5v-377h-112v588h-70z" />
    <glyph glyph-name="Itilde" unicode="&#x128;" horiz-adv-x="348" 
d="M114 697h121v-697h-121v697zM330 873l61 -41q-19 -43 -54.5 -67.5t-83.5 -24.5q-34 0 -90 30.5t-83 30.5q-38 0 -66 -55l-54 44q27 40 55.5 59.5t69.5 19.5q39 0 94 -28.5t81 -28.5q44 0 70 61z" />
    <glyph glyph-name="itilde" unicode="&#x129;" horiz-adv-x="287" 
d="M201 507v-507h-113v507h113zM294 695l63 -41q-43 -92 -135 -92q-35 0 -87 30t-80 30q-38 0 -67 -56l-55 45q28 41 57.5 61t69.5 20t90 -29.5t76 -29.5q23 0 38 13.5t30 48.5z" />
    <glyph glyph-name="Imacron" unicode="&#x12a;" horiz-adv-x="348" 
d="M114 697h121v-697h-121v697zM17 762v77h318v-77h-318z" />
    <glyph glyph-name="imacron" unicode="&#x12b;" horiz-adv-x="287" 
d="M201 507v-507h-113v507h113zM-14 581v74h318v-74h-318z" />
    <glyph glyph-name="Ibreve" unicode="&#x12c;" horiz-adv-x="347" 
d="M114 697h121v-697h-121v697zM8 871h84q0 -37 20.5 -50t67.5 -13q45 0 66 13t21 50h79q0 -132 -169 -132t-169 132z" />
    <glyph glyph-name="ibreve" unicode="&#x12d;" horiz-adv-x="286" 
d="M200 507v-507h-112v507h112zM-24 697h84q0 -37 20.5 -50t67.5 -13q45 0 66 13t21 50h79q0 -132 -169 -132t-169 132z" />
    <glyph glyph-name="Iogonek" unicode="&#x12e;" horiz-adv-x="348" 
d="M114 697h121v-697h-121v697zM170 12h45q-65 -33 -86.5 -56t-21.5 -54q0 -23 16.5 -33t61.5 -10q61 0 104 29l39 -56q-57 -35 -154 -35q-87 0 -121.5 21.5t-34.5 67.5q0 41 38.5 75t113.5 51z" />
    <glyph glyph-name="iogonek" unicode="&#x12f;" horiz-adv-x="287" 
d="M200 507v-507h-113v507h113zM145 709q39 0 53 -9t14 -41q0 -35 -14 -45.5t-53 -10.5q-40 0 -54 10.5t-14 45.5q0 32 13.5 41t54.5 9zM147 12h45q-65 -33 -86.5 -56t-21.5 -54q0 -23 16.5 -33t61.5 -10q60 0 104 29l39 -56q-57 -35 -154 -35q-87 0 -121.5 21.5t-34.5 67.5
q0 41 38.5 75t113.5 51z" />
    <glyph glyph-name="Idotaccent" unicode="&#x130;" horiz-adv-x="348" 
d="M114 697h121v-697h-121v697zM176 857q36 0 48 -8.5t12 -38.5q0 -33 -12 -43t-48 -10t-48.5 10t-12.5 43q0 30 12.5 38.5t48.5 8.5z" />
    <glyph glyph-name="dotlessi" unicode="&#x131;" horiz-adv-x="287" 
d="M201 507v-507h-113v507h113z" />
    <glyph glyph-name="IJ" unicode="&#x132;" horiz-adv-x="888" 
d="M114 697h121v-697h-121v697zM775 697l1 -505q0 -206 -241 -206q-89 0 -176 29l30 92q63 -24 138 -24q125 0 125 118v496h123z" />
    <glyph glyph-name="ij" unicode="&#x133;" horiz-adv-x="574" 
d="M201 507v-507h-113v507h113zM145 709q40 0 54 -9t14 -41q0 -35 -14 -45.5t-54 -10.5t-54 10.5t-14 45.5q0 32 14 41t54 9zM430 709q40 0 53.5 -9t13.5 -41q0 -35 -14 -45.5t-53 -10.5q-41 0 -55 10.5t-14 45.5q0 32 14 41t55 9zM485 507v-526q0 -106 -55.5 -145
t-168.5 -39v81q59 0 84.5 20.5t25.5 80.5v528h114z" />
    <glyph glyph-name="Jcircumflex" unicode="&#x134;" horiz-adv-x="541" 
d="M428 697v-505q0 -206 -240 -206q-89 0 -176 29l30 92q62 -24 138 -24q125 0 125 118v496h123zM360 831l-90 -84h-113q16 14 46 40.5t54.5 48t46.5 40.5h116l151 -129h-117z" />
    <glyph glyph-name="jcircumflex" unicode="&#x135;" horiz-adv-x="287" 
d="M354 568h-120l-91 81l-89 -81h-114l146 129h117zM-24 -203v82q59 0 84.5 20.5t25.5 80.5v527h114v-526q0 -105 -55.5 -144.5t-168.5 -39.5z" />
    <glyph glyph-name="Kcommaaccent" unicode="&#x136;" horiz-adv-x="767" 
d="M235 697v-697h-121v697h121zM779 0h-155q-128 160 -235 257t-153 111q50 27 150 115.5t212 213.5h153q-116 -123 -211.5 -208.5t-137.5 -111.5q44 -23 149 -123t228 -254zM476 -51l-124 -167h-92l86 167h130z" />
    <glyph glyph-name="kcommaaccent" unicode="&#x137;" horiz-adv-x="619" 
d="M201 722v-722h-113v722h113zM620 0h-138q-226 250 -281 268q63 39 260 239h138q-183 -188 -254 -230q61 -30 275 -277zM406 -51l-125 -167h-91l85 167h131z" />
    <glyph glyph-name="Lacute" unicode="&#x139;" horiz-adv-x="657" 
d="M114 697h121v-608h414v-89h-535v697zM221 747h-106l159 129h136z" />
    <glyph glyph-name="lacute" unicode="&#x13a;" horiz-adv-x="293" 
d="M200 722v-586q0 -37 11.5 -61.5t41.5 -52.5l-96 -44q-37 31 -53.5 65.5t-16.5 88.5v590h113zM174 747h-106l158 129h137z" />
    <glyph glyph-name="Lcommaaccent" unicode="&#x13b;" horiz-adv-x="657" 
d="M114 697h121v-608h414v-89h-535v697zM458 -51l-124 -167h-92l86 167h130z" />
    <glyph glyph-name="lcommaaccent" unicode="&#x13c;" horiz-adv-x="294" 
d="M201 722v-586q0 -37 11.5 -61.5t41.5 -52.5l-96 -44q-37 31 -53.5 65.5t-16.5 88.5v590h113zM262 -51l-125 -167h-91l85 167h131z" />
    <glyph glyph-name="Lcaron" unicode="&#x13d;" horiz-adv-x="657" 
d="M114 697h121v-608h414v-89h-535v697zM355 722h111l-68 -192h-68z" />
    <glyph glyph-name="lcaron" unicode="&#x13e;" horiz-adv-x="295" 
d="M201 722v-586q0 -37 11.5 -61.5t41.5 -52.5l-96 -44q-37 31 -53.5 65.5t-16.5 88.5v590h113zM270 722h111l-67 -192h-69z" />
    <glyph glyph-name="Ldot" unicode="&#x13f;" horiz-adv-x="657" 
d="M114 697h121v-608h414v-89h-535v697zM401 442q35 0 47.5 -8.5t12.5 -38.5q0 -33 -12.5 -43t-47.5 -10q-36 0 -48.5 10t-12.5 43q0 30 12.5 38.5t48.5 8.5z" />
    <glyph glyph-name="ldot" unicode="&#x140;" horiz-adv-x="295" 
d="M201 722v-586q0 -37 11.5 -61.5t41.5 -52.5l-96 -44q-37 31 -53.5 65.5t-16.5 88.5v590h113zM303 447q35 0 47.5 -8.5t12.5 -38.5q0 -33 -12.5 -42.5t-47.5 -9.5q-36 0 -48.5 9.5t-12.5 42.5q0 30 12.5 38.5t48.5 8.5z" />
    <glyph glyph-name="Lslash" unicode="&#x141;" horiz-adv-x="657" 
d="M430 541v-100l-195 -145v-207h414v-89h-535v208l-85 -63v99l85 64v389h121v-301z" />
    <glyph glyph-name="lslash" unicode="&#x142;" horiz-adv-x="319" 
d="M214 722v-245q12 12 26.5 25.5t32.5 30t28 25.5v-100q-10 -9 -40.5 -37t-46.5 -43v-242q0 -8 1 -12q1 -33 11.5 -54.5t38.5 -47.5q-28 -14 -95 -44q-36 30 -52 61t-16 80q0 10 -1 30t-1 30v96q-9 -8 -38 -34.5t-44 -40.5v99q15 14 44 40.5t38 34.5v348h114z" />
    <glyph glyph-name="Nacute" unicode="&#x143;" horiz-adv-x="902" 
d="M788 697v-697h-148q-183 282 -406 575v-575h-120v697h162q184 -233 390 -546v546h122zM466 747h-106l158 129h137z" />
    <glyph glyph-name="nacute" unicode="&#x144;" horiz-adv-x="682" 
d="M201 420v-420h-113v479q118 42 266 42q134 0 189 -51t55 -186v-284h-113v272q0 99 -30.5 130.5t-122.5 31.5q-72 0 -131 -14zM322 568h-108l145 129h129z" />
    <glyph glyph-name="Ncommaaccent" unicode="&#x145;" horiz-adv-x="902" 
d="M788 697v-697h-148q-183 282 -406 575v-575h-120v697h162q184 -233 390 -546v546h122zM526 -51l-125 -167h-91l85 167h131z" />
    <glyph glyph-name="ncommaaccent" unicode="&#x146;" horiz-adv-x="682" 
d="M201 420v-420h-113v479q118 42 266 42q134 0 189 -51t55 -186v-284h-113v272q0 99 -30.5 130.5t-122.5 31.5q-72 0 -131 -14zM414 -51l-124 -167h-92l86 167h130z" />
    <glyph glyph-name="Ncaron" unicode="&#x147;" horiz-adv-x="902" 
d="M788 697v-697h-148q-183 282 -406 575v-575h-120v697h162q184 -233 390 -546v546h122zM371 876l93 -84l92 84h112l-146 -129h-116l-152 129h117z" />
    <glyph glyph-name="ncaron" unicode="&#x148;" horiz-adv-x="682" 
d="M201 420v-420h-113v479q118 42 266 42q134 0 189 -51t55 -186v-284h-113v272q0 99 -30.5 130.5t-122.5 31.5q-72 0 -131 -14zM131 697h119l91 -81l89 81h115l-146 -129h-117z" />
    <glyph glyph-name="Omacron" unicode="&#x14c;" horiz-adv-x="918" 
d="M459 714q103 0 172.5 -16.5t120 -57.5t73.5 -111t23 -176q0 -107 -23 -178.5t-73 -113t-120 -58.5t-173 -17t-172.5 17t-120 58.5t-73.5 113t-23 178.5q0 106 23 176t73.5 111t120 57.5t172.5 16.5zM459 77q104 0 157 21.5t77.5 80t24.5 172.5q0 89 -11.5 141.5t-44 82.5
t-78 39.5t-125.5 9.5q-79 0 -124.5 -9.5t-77.5 -39.5t-43.5 -82.5t-11.5 -141.5q0 -86 11.5 -138t43 -83t78 -42t124.5 -11zM299 762v77h318v-77h-318z" />
    <glyph glyph-name="omacron" unicode="&#x14d;" 
d="M351 -14q-149 0 -216 59.5t-67 210.5q0 150 67 207.5t216 57.5q150 0 216.5 -57.5t66.5 -207.5q0 -151 -66.5 -210.5t-216.5 -59.5zM351 441q-96 0 -129.5 -35.5t-33.5 -151.5q0 -112 34.5 -150t128.5 -38q95 0 129 38t34 150q0 116 -33.5 151.5t-129.5 35.5zM190 581v74
h318v-74h-318z" />
    <glyph glyph-name="Obreve" unicode="&#x14e;" horiz-adv-x="918" 
d="M459 714q103 0 172.5 -16.5t120 -57.5t73.5 -111t23 -176q0 -107 -23 -178.5t-73 -113t-120 -58.5t-173 -17t-172.5 17t-120 58.5t-73.5 113t-23 178.5q0 106 23 176t73.5 111t120 57.5t172.5 16.5zM459 77q104 0 157 21.5t77.5 80t24.5 172.5q0 89 -11.5 141.5t-44 82.5
t-78 39.5t-125.5 9.5q-79 0 -124.5 -9.5t-77.5 -39.5t-43.5 -82.5t-11.5 -141.5q0 -86 11.5 -138t43 -83t78 -42t124.5 -11zM288 871h84q0 -37 20.5 -50t67.5 -13q46 0 67 13t21 50h79q0 -132 -169 -132q-170 0 -170 132z" />
    <glyph glyph-name="obreve" unicode="&#x14f;" 
d="M351 -14q-149 0 -216 59.5t-67 210.5q0 150 67 207.5t216 57.5q150 0 216.5 -57.5t66.5 -207.5q0 -151 -66.5 -210.5t-216.5 -59.5zM351 441q-96 0 -129.5 -35.5t-33.5 -151.5q0 -112 34.5 -150t128.5 -38q95 0 129 38t34 150q0 116 -33.5 151.5t-129.5 35.5zM181 697h84
q0 -37 20.5 -50t66.5 -13t67 13t21 50h79q0 -132 -169 -132t-169 132z" />
    <glyph glyph-name="Ohungarumlaut" unicode="&#x150;" horiz-adv-x="918" 
d="M459 714q103 0 172.5 -16.5t120 -57.5t73.5 -111t23 -176q0 -107 -23 -178.5t-73 -113t-120 -58.5t-173 -17t-172.5 17t-120 58.5t-73.5 113t-23 178.5q0 106 23 176t73.5 111t120 57.5t172.5 16.5zM459 77q104 0 157 21.5t77.5 80t24.5 172.5q0 89 -11.5 141.5t-44 82.5
t-78 39.5t-125.5 9.5q-79 0 -124.5 -9.5t-77.5 -39.5t-43.5 -82.5t-11.5 -141.5q0 -86 11.5 -138t43 -83t78 -42t124.5 -11zM369 747h-84l105 129h111zM551 747h-84l105 129h111z" />
    <glyph glyph-name="ohungarumlaut" unicode="&#x151;" 
d="M351 -14q-149 0 -216 59.5t-67 210.5q0 150 67 207.5t216 57.5q150 0 216.5 -57.5t66.5 -207.5q0 -151 -66.5 -210.5t-216.5 -59.5zM351 441q-96 0 -129.5 -35.5t-33.5 -151.5q0 -112 34.5 -150t128.5 -38q95 0 129 38t34 150q0 116 -33.5 151.5t-129.5 35.5zM265 568
h-84l105 129h111zM447 568h-84l105 129h111z" />
    <glyph glyph-name="OE" unicode="&#x152;" horiz-adv-x="1325" 
d="M632 697h658v-87h-514q60 -65 69 -198h259v-85h-258q-3 -170 -76 -240h520v-87h-673q-63 -14 -158 -14q-103 0 -172.5 17t-120 58.5t-73.5 113t-23 178.5q0 106 23 176t73.5 111t120 57.5t172.5 16.5q102 0 173 -17zM459 77q104 0 157 21.5t77.5 80t24.5 172.5
q0 89 -11.5 141.5t-44 82.5t-78 39.5t-125.5 9.5q-79 0 -124.5 -9.5t-77.5 -39.5t-43.5 -82.5t-11.5 -141.5q0 -86 11.5 -138t43 -83t78 -42t124.5 -11z" />
    <glyph glyph-name="oe" unicode="&#x153;" horiz-adv-x="1102" 
d="M987 93l21 -79q-108 -28 -207 -28q-85 0 -139.5 18.5t-85.5 62.5q-30 -44 -84 -62.5t-141 -18.5q-149 0 -216 59.5t-67 210.5q0 150 67 207.5t216 57.5q166 0 222 -76q61 76 217 76q96 0 150.5 -23.5t81.5 -86.5t25 -177h-414q1 -98 42 -131.5t139 -33.5q87 0 173 24z
M351 441q-96 0 -129.5 -35.5t-33.5 -151.5q0 -112 34.5 -150t128.5 -38q95 0 129 38t34 150q0 116 -33.5 151.5t-129.5 35.5zM794 442q-81 0 -117 -27t-43 -104h300q-4 79 -34 105t-106 26z" />
    <glyph glyph-name="Racute" unicode="&#x154;" horiz-adv-x="829" 
d="M235 611v-241h259q60 0 91.5 30.5t31.5 86.5q0 61 -30.5 92.5t-87.5 31.5h-264zM522 307q83 -24 287 -307h-153q-194 284 -284 284h-137v-284h-121v697h404q234 0 234 -203q0 -82 -54 -134t-176 -53zM391 747h-105l158 129h137z" />
    <glyph glyph-name="racute" unicode="&#x155;" horiz-adv-x="433" 
d="M88 0v507h113v-37q45 51 163 51q32 0 62 -3v-92q-33 5 -70 5q-66 0 -110.5 -16t-44.5 -46v-369h-113zM279 568h-108l145 129h128z" />
    <glyph glyph-name="Rcommaaccent" unicode="&#x156;" horiz-adv-x="829" 
d="M235 611v-241h259q60 0 91.5 30.5t31.5 86.5q0 61 -30.5 92.5t-87.5 31.5h-264zM522 307q83 -24 287 -307h-153q-194 284 -284 284h-137v-284h-121v697h404q234 0 234 -203q0 -82 -54 -134t-176 -53zM499 -51l-125 -167h-91l85 167h131z" />
    <glyph glyph-name="rcommaaccent" unicode="&#x157;" horiz-adv-x="433" 
d="M87 0v507h113v-37q45 51 163 51q31 0 63 -3v-92q-35 5 -71 5q-66 0 -110.5 -16t-44.5 -46v-369h-113zM235 -51l-125 -167h-91l85 167h131z" />
    <glyph glyph-name="Rcaron" unicode="&#x158;" horiz-adv-x="829" 
d="M235 611v-241h259q60 0 91.5 30.5t31.5 86.5q0 61 -30.5 92.5t-87.5 31.5h-264zM522 307q83 -24 287 -307h-153q-194 284 -284 284h-137v-284h-121v697h404q234 0 234 -203q0 -82 -54 -134t-176 -53zM320 876l94 -84l91 84h113l-146 -129h-117l-151 129h116z" />
    <glyph glyph-name="rcaron" unicode="&#x159;" horiz-adv-x="434" 
d="M88 0v507h113v-37q45 51 163 51q32 0 62 -3v-92q-33 5 -70 5q-66 0 -110.5 -16t-44.5 -46v-369h-113zM58 697h119l91 -81l89 81h115l-146 -129h-117z" />
    <glyph glyph-name="Sacute" unicode="&#x15a;" horiz-adv-x="747" 
d="M656 685l-29 -89q-77 25 -213 25q-111 0 -163.5 -25.5t-52.5 -88.5q0 -48 42 -72t156 -32q149 -11 216.5 -59.5t67.5 -145.5q0 -113 -88 -162.5t-261 -49.5q-140 0 -250 30l30 88q93 -25 218 -25q112 0 167 25t55 89q0 50 -43.5 79.5t-158.5 37.5q-149 10 -215.5 52
t-66.5 136q0 114 88 165t259 51q131 0 242 -29zM374 747h-105l158 129h137z" />
    <glyph glyph-name="sacute" unicode="&#x15b;" horiz-adv-x="596" 
d="M516 495l-29 -80q-85 26 -177 26q-72 0 -102 -14.5t-30 -60.5q0 -32 30 -46.5t108 -20.5q116 -8 167.5 -42t51.5 -106q0 -91 -61 -128t-186 -37t-219 27l28 80q77 -27 188 -27q73 0 104 15.5t31 62.5q0 35 -29.5 51.5t-111.5 22.5q-112 8 -164.5 38.5t-52.5 101.5
q0 90 63 126.5t188 36.5q97 0 203 -26zM297 568h-108l145 129h129z" />
    <glyph glyph-name="Scircumflex" unicode="&#x15c;" horiz-adv-x="747" 
d="M656 685l-29 -89q-77 25 -213 25q-111 0 -163.5 -25.5t-52.5 -88.5q0 -48 42 -72t156 -32q149 -11 216.5 -59.5t67.5 -145.5q0 -113 -88 -162.5t-261 -49.5q-140 0 -250 30l30 88q93 -25 218 -25q112 0 167 25t55 89q0 50 -43.5 79.5t-158.5 37.5q-149 10 -215.5 52
t-66.5 136q0 114 88 165t259 51q131 0 242 -29zM391 831l-90 -84h-113l147 129h116l151 -129h-117z" />
    <glyph glyph-name="scircumflex" unicode="&#x15d;" horiz-adv-x="596" 
d="M516 495l-29 -80q-85 26 -177 26q-72 0 -102 -14.5t-30 -60.5q0 -32 30 -46.5t108 -20.5q116 -8 167.5 -42t51.5 -106q0 -91 -61 -128t-186 -37t-219 27l28 80q77 -27 188 -27q73 0 104 15.5t31 62.5q0 35 -29.5 51.5t-111.5 22.5q-112 8 -164.5 38.5t-52.5 101.5
q0 90 63 126.5t188 36.5q97 0 203 -26zM397 568q-14 13 -44.5 39.5t-46.5 41.5q-14 -13 -89 -81h-114q24 22 72.5 65t73.5 64h117l151 -129h-120z" />
    <glyph glyph-name="Scedilla" unicode="&#x15e;" horiz-adv-x="747" 
d="M656 685l-29 -89q-77 25 -213 25q-111 0 -163.5 -25.5t-52.5 -88.5q0 -48 42 -72t156 -32q149 -11 216.5 -59.5t67.5 -145.5q0 -113 -88 -162.5t-261 -49.5q-140 0 -250 30l30 88q93 -25 218 -25q112 0 167 25t55 89q0 50 -43.5 79.5t-158.5 37.5q-149 10 -215.5 52
t-66.5 136q0 114 88 165t259 51q131 0 242 -29zM341 0h50v-44q77 0 107 -16.5t30 -60.5q0 -47 -35 -64.5t-122 -17.5q-81 0 -123 18l24 48q36 -14 95 -14q34 0 47 6t13 24q0 20 -27.5 26t-102.5 2z" />
    <glyph glyph-name="Scedilla" unicode="&#xf6c1;" horiz-adv-x="747" 
d="M656 685l-29 -89q-77 25 -213 25q-111 0 -163.5 -25.5t-52.5 -88.5q0 -48 42 -72t156 -32q149 -11 216.5 -59.5t67.5 -145.5q0 -113 -88 -162.5t-261 -49.5q-140 0 -250 30l30 88q93 -25 218 -25q112 0 167 25t55 89q0 50 -43.5 79.5t-158.5 37.5q-149 10 -215.5 52
t-66.5 136q0 114 88 165t259 51q131 0 242 -29zM341 0h50v-44q77 0 107 -16.5t30 -60.5q0 -47 -35 -64.5t-122 -17.5q-81 0 -123 18l24 48q36 -14 95 -14q34 0 47 6t13 24q0 20 -27.5 26t-102.5 2z" />
    <glyph glyph-name="scedilla" unicode="&#x15f;" horiz-adv-x="596" 
d="M516 495l-29 -80q-85 26 -177 26q-72 0 -102 -14.5t-30 -60.5q0 -32 30 -46.5t108 -20.5q116 -8 167.5 -42t51.5 -106q0 -91 -61 -128t-186 -37t-219 27l28 80q77 -27 188 -27q73 0 104 15.5t31 62.5q0 35 -29.5 51.5t-111.5 22.5q-112 8 -164.5 38.5t-52.5 101.5
q0 90 63 126.5t188 36.5q97 0 203 -26zM258 0h50v-44q77 0 107 -16.5t30 -60.5q0 -47 -35 -64.5t-122 -17.5q-81 0 -123 18l24 48q36 -14 95 -14q34 0 47 6t13 24q0 20 -27.5 26t-102.5 2z" />
    <glyph glyph-name="scedilla" unicode="&#xf6c2;" horiz-adv-x="596" 
d="M516 495l-29 -80q-85 26 -177 26q-72 0 -102 -14.5t-30 -60.5q0 -32 30 -46.5t108 -20.5q116 -8 167.5 -42t51.5 -106q0 -91 -61 -128t-186 -37t-219 27l28 80q77 -27 188 -27q73 0 104 15.5t31 62.5q0 35 -29.5 51.5t-111.5 22.5q-112 8 -164.5 38.5t-52.5 101.5
q0 90 63 126.5t188 36.5q97 0 203 -26zM258 0h50v-44q77 0 107 -16.5t30 -60.5q0 -47 -35 -64.5t-122 -17.5q-81 0 -123 18l24 48q36 -14 95 -14q34 0 47 6t13 24q0 20 -27.5 26t-102.5 2z" />
    <glyph glyph-name="Scaron" unicode="&#x160;" horiz-adv-x="747" 
d="M656 685l-29 -89q-77 25 -213 25q-111 0 -163.5 -25.5t-52.5 -88.5q0 -48 42 -72t156 -32q149 -11 216.5 -59.5t67.5 -145.5q0 -113 -88 -162.5t-261 -49.5q-140 0 -250 30l30 88q93 -25 218 -25q112 0 167 25t55 89q0 50 -43.5 79.5t-158.5 37.5q-149 10 -215.5 52
t-66.5 136q0 114 88 165t259 51q131 0 242 -29zM296 876l94 -84l91 84h113l-147 -129h-116l-151 129h116z" />
    <glyph glyph-name="scaron" unicode="&#x161;" horiz-adv-x="596" 
d="M516 495l-29 -80q-85 26 -177 26q-72 0 -102 -14.5t-30 -60.5q0 -32 30 -46.5t108 -20.5q116 -8 167.5 -42t51.5 -106q0 -91 -61 -128t-186 -37t-219 27l28 80q77 -27 188 -27q73 0 104 15.5t31 62.5q0 35 -29.5 51.5t-111.5 22.5q-112 8 -164.5 38.5t-52.5 101.5
q0 90 63 126.5t188 36.5q97 0 203 -26zM96 697h118l92 -81l88 81h116l-147 -129h-116z" />
    <glyph glyph-name="Tcommaaccent" unicode="&#x162;" horiz-adv-x="706" 
d="M415 0h-123v610h-287v87h696v-87h-286v-610zM448 -51l-125 -167h-91l85 167h131z" />
    <glyph glyph-name="Tcommaaccent" unicode="&#x21a;" horiz-adv-x="706" 
d="M415 0h-123v610h-287v87h696v-87h-286v-610zM448 -51l-125 -167h-91l85 167h131z" />
    <glyph glyph-name="tcommaaccent" unicode="&#x163;" horiz-adv-x="484" 
d="M445 423h-214v-247q0 -57 22.5 -81t81.5 -24q61 0 109 14l21 -78q-67 -21 -150 -21q-107 0 -152.5 38t-45.5 146v253h-104v84h104v96l114 39v-135h214v-84zM336 -51l-125 -167h-91l85 167h131z" />
    <glyph glyph-name="tcommaaccent" unicode="&#x21b;" horiz-adv-x="484" 
d="M445 423h-214v-247q0 -57 22.5 -81t81.5 -24q61 0 109 14l21 -78q-67 -21 -150 -21q-107 0 -152.5 38t-45.5 146v253h-104v84h104v96l114 39v-135h214v-84zM336 -51l-125 -167h-91l85 167h131z" />
    <glyph glyph-name="Tcaron" unicode="&#x164;" horiz-adv-x="706" 
d="M415 0h-123v610h-287v87h696v-87h-286v-610zM267 876l93 -84l91 84h113l-146 -129h-117l-151 129h117z" />
    <glyph glyph-name="tcaron" unicode="&#x165;" horiz-adv-x="484" 
d="M445 423h-214v-247q0 -57 22.5 -81t81.5 -24q61 0 109 14l21 -78q-67 -21 -150 -21q-107 0 -152.5 38t-45.5 146v253h-104v84h104v96l114 39v-135h214v-84zM347 768h110l-67 -192h-69z" />
    <glyph glyph-name="Tbar" unicode="&#x166;" horiz-adv-x="706" 
d="M190 243v77h102v287h-287v90h696v-90h-286v-287h93v-77h-93v-243h-123v243h-102z" />
    <glyph glyph-name="tbar" unicode="&#x167;" horiz-adv-x="484" 
d="M43 223v72h74v129h-104v83h104v96l114 39v-135h214v-83h-214v-129h130v-72h-130v-47q0 -56 23 -80.5t81 -24.5q61 0 109 14l21 -78q-67 -21 -148 -21q-109 0 -154.5 38t-45.5 146v53h-74z" />
    <glyph glyph-name="Utilde" unicode="&#x168;" horiz-adv-x="889" 
d="M666 697h123v-471q0 -72 -22 -120t-69 -74t-106.5 -36t-147.5 -10q-87 0 -146.5 10t-106 36t-69 74t-22.5 120v471h124v-461q0 -92 50 -125t170 -33t171 32.5t51 125.5v461zM600 873l62 -41q-19 -43 -54.5 -67.5t-83.5 -24.5q-34 0 -90 30.5t-83 30.5q-39 0 -66 -55
l-54 44q52 79 125 79q38 0 93 -28.5t82 -28.5q23 0 39 13.5t30 47.5z" />
    <glyph glyph-name="utilde" unicode="&#x169;" horiz-adv-x="681" 
d="M482 88v419h113v-479q-119 -42 -266 -42q-133 0 -188.5 51t-55.5 186v284h113v-272q0 -99 30.5 -130.5t121.5 -31.5q75 0 132 15zM493 695l62 -41q-41 -92 -134 -92q-35 0 -87 30t-80 30q-40 0 -67 -56l-55 45q28 41 57.5 61t69.5 20t90 -29.5t76 -29.5q23 0 38 13.5
t30 48.5z" />
    <glyph glyph-name="Umacron" unicode="&#x16a;" horiz-adv-x="889" 
d="M666 697h123v-471q0 -72 -22 -120t-69 -74t-106.5 -36t-147.5 -10q-87 0 -146.5 10t-106 36t-69 74t-22.5 120v471h124v-461q0 -92 50 -125t170 -33t171 32.5t51 125.5v461zM281 762v77h318v-77h-318z" />
    <glyph glyph-name="umacron" unicode="&#x16b;" horiz-adv-x="681" 
d="M482 88v419h113v-479q-119 -42 -266 -42q-133 0 -188.5 51t-55.5 186v284h113v-272q0 -99 30.5 -130.5t121.5 -31.5q75 0 132 15zM179 581v74h318v-74h-318z" />
    <glyph glyph-name="Ubreve" unicode="&#x16c;" horiz-adv-x="889" 
d="M666 697h123v-471q0 -72 -22 -120t-69 -74t-106.5 -36t-147.5 -10q-87 0 -146.5 10t-106 36t-69 74t-22.5 120v471h124v-461q0 -92 50 -125t170 -33t171 32.5t51 125.5v461zM275 871h84q0 -37 20.5 -50t67.5 -13q45 0 66 13t21 50h80q0 -132 -170 -132q-169 0 -169 132z
" />
    <glyph glyph-name="ubreve" unicode="&#x16d;" horiz-adv-x="681" 
d="M482 88v419h113v-479q-119 -42 -266 -42q-133 0 -188.5 51t-55.5 186v284h113v-272q0 -99 30.5 -130.5t121.5 -31.5q75 0 132 15zM170 697h84q0 -37 20.5 -50t67.5 -13q45 0 66 13t21 50h80q0 -132 -170 -132q-169 0 -169 132z" />
    <glyph glyph-name="Uring" unicode="&#x16e;" horiz-adv-x="889" 
d="M666 697h123v-471q0 -72 -22 -120t-69 -74t-106.5 -36t-147.5 -10q-87 0 -146.5 10t-106 36t-69 74t-22.5 120v471h124v-461q0 -92 50 -125t170 -33t171 32.5t51 125.5v461zM442 882q137 0 137 -96t-137 -96t-137 96q0 51 31.5 73.5t105.5 22.5zM442 831
q-36 0 -50.5 -11.5t-14.5 -35.5q0 -48 65 -48q37 0 51.5 12t14.5 36t-14.5 35.5t-51.5 11.5z" />
    <glyph glyph-name="uring" unicode="&#x16f;" horiz-adv-x="681" 
d="M482 88v419h113v-479q-119 -42 -266 -42q-133 0 -188.5 51t-55.5 186v284h113v-272q0 -99 30.5 -130.5t121.5 -31.5q75 0 132 15zM347 739q69 0 102.5 -23t33.5 -73q0 -96 -136 -96q-137 0 -137 96q0 51 31.5 73.5t105.5 22.5zM347 689q-37 0 -51 -11.5t-14 -35.5
t14.5 -36t50.5 -12t51 12t15 36t-14.5 35.5t-51.5 11.5z" />
    <glyph glyph-name="Uhungarumlaut" unicode="&#x170;" horiz-adv-x="889" 
d="M666 697h123v-471q0 -72 -22 -120t-69 -74t-106.5 -36t-147.5 -10q-87 0 -146.5 10t-106 36t-69 74t-22.5 120v471h124v-461q0 -92 50 -125t170 -33t171 32.5t51 125.5v461zM346 747h-84l106 129h110zM528 747h-84l105 129h111z" />
    <glyph glyph-name="uhungarumlaut" unicode="&#x171;" horiz-adv-x="681" 
d="M482 88v419h113v-479q-119 -42 -266 -42q-133 0 -188.5 51t-55.5 186v284h113v-272q0 -99 30.5 -130.5t121.5 -31.5q75 0 132 15zM249 568h-84l106 129h110zM432 568h-84l104 129h112z" />
    <glyph glyph-name="Uogonek" unicode="&#x172;" horiz-adv-x="889" 
d="M666 697h123v-471q0 -72 -22 -120t-69 -74t-106.5 -36t-147.5 -10q-87 0 -146.5 10t-106 36t-69 74t-22.5 120v471h124v-461q0 -92 50 -125t170 -33t171 32.5t51 125.5v461zM521 12h45q-65 -33 -86.5 -56t-21.5 -54q0 -23 16.5 -33t61.5 -10q60 0 104 29l38 -56
q-55 -35 -153 -35q-87 0 -121.5 21.5t-34.5 67.5q0 41 38.5 75t113.5 51z" />
    <glyph glyph-name="uogonek" unicode="&#x173;" horiz-adv-x="681" 
d="M482 88v419h113v-479q-119 -42 -266 -42q-133 0 -188.5 51t-55.5 186v284h113v-272q0 -99 30.5 -130.5t121.5 -31.5q75 0 132 15zM487 12h44q-64 -33 -86 -56t-22 -54q0 -23 16.5 -33t61.5 -10q61 0 105 29l38 -56q-55 -35 -153 -35q-88 0 -122 21.5t-34 67.5
q0 41 38.5 75t113.5 51z" />
    <glyph glyph-name="Wcircumflex" unicode="&#x174;" horiz-adv-x="1128" 
d="M573 536q-44 -186 -171 -536h-155q-145 464 -245 697h134q108 -266 196 -578q131 362 182 578h118q133 -411 170 -578q116 293 195 578h125q-109 -363 -245 -697h-156q-44 194 -148 536zM567 831l-90 -84h-113q22 19 46.5 40.5t54.5 48t46 40.5h116l151 -129h-117z" />
    <glyph glyph-name="wcircumflex" unicode="&#x175;" horiz-adv-x="986" 
d="M496 386q-57 -197 -137 -386h-147q-98 297 -196 507h124q81 -176 152 -412q36 85 80.5 213t63.5 199h122q60 -146 135 -412q108 246 155 412h120q-91 -272 -208 -507h-148q-60 244 -116 386zM584 568q-20 18 -92 81q-18 -18 -88 -81h-114q25 22 73.5 65t72.5 64h116
l152 -129h-120z" />
    <glyph glyph-name="Ycircumflex" unicode="&#x176;" horiz-adv-x="747" 
d="M132 697q128 -133 251 -286q136 148 243 286h145q-172 -210 -333 -379v-318h-122v318q-181 217 -342 379h158zM376 831l-90 -84h-113q16 14 46 40.5t54.5 48t46.5 40.5h116l151 -129h-117z" />
    <glyph glyph-name="ycircumflex" unicode="&#x177;" horiz-adv-x="612" 
d="M234 -24q-107 321 -220 531h121q91 -177 169 -417q117 243 172 417h118q-83 -231 -228 -517q-48 -96 -102 -182h-129q47 73 99 168zM394 568q-14 13 -44.5 39.5t-46.5 41.5q-14 -13 -89 -81h-114q22 19 46.5 40.5t54.5 48t46 40.5h116l151 -129h-120z" />
    <glyph glyph-name="Ydieresis" unicode="&#x178;" horiz-adv-x="747" 
d="M132 697q128 -133 251 -286q136 148 243 286h145q-172 -210 -333 -379v-318h-122v318q-181 217 -342 379h158zM262 855q36 0 48 -8.5t12 -38.5q0 -33 -12 -42.5t-48 -9.5q-37 0 -49 9.5t-12 42.5q0 30 12 38.5t49 8.5zM503 855q36 0 48 -8.5t12 -38.5q0 -33 -12 -42.5
t-48 -9.5q-37 0 -49 9.5t-12 42.5q0 30 12 38.5t49 8.5z" />
    <glyph glyph-name="Zacute" unicode="&#x179;" horiz-adv-x="738" 
d="M23 0v30q268 291 504 580h-475v87h661v-28q-261 -334 -504 -582h488v-87h-674zM372 747h-105l158 129h137z" />
    <glyph glyph-name="zacute" unicode="&#x17a;" horiz-adv-x="594" 
d="M52 507h504v-25q-74 -96 -177.5 -216.5t-165.5 -181.5h339v-84h-520v26q96 99 196 213.5t152 183.5h-328v84zM332 568h-108l145 129h129z" />
    <glyph glyph-name="Zdotaccent" unicode="&#x17b;" horiz-adv-x="738" 
d="M23 0v30q268 291 504 580h-475v87h661v-28q-261 -334 -504 -582h488v-87h-674zM376 857q35 0 47.5 -8.5t12.5 -38.5q0 -33 -12.5 -43t-47.5 -10q-36 0 -48.5 10t-12.5 43q0 30 12 38.5t49 8.5z" />
    <glyph glyph-name="zdotaccent" unicode="&#x17c;" horiz-adv-x="594" 
d="M52 507h504v-25q-74 -96 -177.5 -216.5t-165.5 -181.5h339v-84h-520v26q96 99 196 213.5t152 183.5h-328v84zM303 669q36 0 48 -8.5t12 -38.5q0 -33 -12 -42.5t-48 -9.5q-35 0 -48 10t-13 42q0 29 12.5 38t48.5 9z" />
    <glyph glyph-name="Zcaron" unicode="&#x17d;" horiz-adv-x="738" 
d="M23 0v30q268 291 504 580h-475v87h661v-28q-261 -334 -504 -582h488v-87h-674zM297 876l93 -84l91 84h113l-146 -129h-117l-151 129h117z" />
    <glyph glyph-name="zcaron" unicode="&#x17e;" horiz-adv-x="594" 
d="M52 507h504v-25q-74 -96 -177.5 -216.5t-165.5 -181.5h339v-84h-520v26q96 99 196 213.5t152 183.5h-328v84zM94 697h119l91 -81l89 81h115l-146 -129h-116z" />
    <glyph glyph-name="florin" unicode="&#x192;" horiz-adv-x="439" 
d="M306 544l-8 -37h210l-21 -83h-209l-116 -460q-13 -51 -40 -85.5t-65 -51t-76.5 -23t-87.5 -6.5q-75 0 -139 22l46 79q47 -22 117 -22q55 0 89 23t49 79l108 445h-107l21 83h106l10 40q13 53 39.5 88.5t64 53.5t75.5 25t86 7q74 0 138 -19l-45 -77q-44 13 -113 13
q-112 0 -132 -94z" />
    <glyph glyph-name="Scommaaccent" unicode="&#x218;" horiz-adv-x="747" 
d="M656 685l-29 -89q-77 25 -213 25q-111 0 -163.5 -25.5t-52.5 -88.5q0 -48 42 -72t156 -32q149 -11 216.5 -59.5t67.5 -145.5q0 -113 -88 -162.5t-261 -49.5q-140 0 -250 30l30 88q93 -25 218 -25q112 0 167 25t55 89q0 50 -43.5 79.5t-158.5 37.5q-149 10 -215.5 52
t-66.5 136q0 114 88 165t259 51q131 0 242 -29zM461 -51l-125 -167h-91l85 167h131z" />
    <glyph glyph-name="scommaaccent" unicode="&#x219;" horiz-adv-x="596" 
d="M516 495l-29 -80q-85 26 -177 26q-72 0 -102 -14.5t-30 -60.5q0 -32 30 -46.5t108 -20.5q116 -8 167.5 -42t51.5 -106q0 -91 -61 -128t-186 -37t-219 27l28 80q77 -27 188 -27q73 0 104 15.5t31 62.5q0 35 -29.5 51.5t-111.5 22.5q-112 8 -164.5 38.5t-52.5 101.5
q0 90 63 126.5t188 36.5q97 0 203 -26zM381 -51l-125 -167h-91l85 167h131z" />
    <glyph glyph-name="circumflex" unicode="&#x2c6;" horiz-adv-x="804" 
d="M502 568q-14 13 -44.5 39.5t-46.5 41.5q-14 -13 -89 -81h-114q24 22 73 65t73 64h117l151 -129h-120z" />
    <glyph glyph-name="caron" unicode="&#x2c7;" horiz-adv-x="792" 
d="M208 697h119l91 -81l89 81h115l-146 -129h-117z" />
    <glyph glyph-name="breve" unicode="&#x2d8;" horiz-adv-x="637" 
d="M115 697h84q0 -37 20.5 -50t67.5 -13q45 0 66 13t21 50h79q0 -132 -169 -132t-169 132z" />
    <glyph glyph-name="dotaccent" unicode="&#x2d9;" horiz-adv-x="521" 
d="M177 669q36 0 48 -8.5t12 -38.5q0 -33 -12 -42.5t-48 -9.5q-35 0 -48 10t-13 42q0 29 12.5 38t48.5 9z" />
    <glyph glyph-name="ring" unicode="&#x2da;" horiz-adv-x="865" 
d="M432 739q137 0 137 -96t-137 -96t-137 96q0 51 31.5 73.5t105.5 22.5zM432 689q-37 0 -51 -11.5t-14 -35.5t14.5 -36t50.5 -12t51 12t15 36t-14.5 35.5t-51.5 11.5z" />
    <glyph glyph-name="ogonek" unicode="&#x2db;" horiz-adv-x="778" 
d="M528 12h45q-65 -33 -86.5 -56t-21.5 -54q0 -23 16.5 -33t61.5 -10q61 0 104 29l39 -56q-57 -35 -154 -35q-87 0 -121.5 21.5t-34.5 67.5q0 41 38.5 75t113.5 51z" />
    <glyph glyph-name="tilde" unicode="&#x2dc;" horiz-adv-x="867" 
d="M533 695l63 -41q-43 -92 -135 -92q-35 0 -87 30t-80 30q-38 0 -67 -56l-55 45q28 41 57.5 61t69.5 20t90 -29.5t76 -29.5q23 0 38 13.5t30 48.5z" />
    <glyph glyph-name="hungarumlaut" unicode="&#x2dd;" horiz-adv-x="708" 
d="M287 568h-84l106 129h110zM469 568h-84l105 129h111z" />
    <glyph glyph-name="Delta" unicode="&#x394;" horiz-adv-x="773" 
d="M772 0h-779q140 363 311 697h158q66 -178 150.5 -369t159.5 -328zM376 602q-107 -212 -225 -515h442q-122 252 -217 515z" />
    <glyph glyph-name="Delta" unicode="&#x2206;" horiz-adv-x="773" 
d="M772 0h-779q140 363 311 697h158q66 -178 150.5 -369t159.5 -328zM376 602q-107 -212 -225 -515h442q-122 252 -217 515z" />
    <glyph glyph-name="Omega" unicode="&#x3a9;" horiz-adv-x="944" 
d="M26 0v89h206q-64 35 -97 114.5t-33 189.5q0 179 89 250t280 71q192 0 282 -71t90 -250q0 -230 -132 -304h207v-89h-364v86q91 23 126 100t35 205q0 137 -52 185t-192 48q-138 0 -190 -48t-52 -185q0 -128 35 -205t124 -100v-86h-362z" />
    <glyph glyph-name="Omega" unicode="&#x2126;" horiz-adv-x="944" 
d="M26 0v89h206q-64 35 -97 114.5t-33 189.5q0 179 89 250t280 71q192 0 282 -71t90 -250q0 -230 -132 -304h207v-89h-364v86q91 23 126 100t35 205q0 137 -52 185t-192 48q-138 0 -190 -48t-52 -185q0 -128 35 -205t124 -100v-86h-362z" />
    <glyph glyph-name="pi" unicode="&#x3c0;" horiz-adv-x="740" 
d="M32 418v89h674v-89h-100v-418h-113v418h-250v-283q0 -128 -103 -164l-65 71q55 20 55 92v284h-98z" />
    <glyph glyph-name="afii10023" unicode="&#x401;" horiz-adv-x="738" 
d="M114 697h589v-87h-468v-198h333v-86h-333v-239h468v-87h-589v697zM281 855q35 0 47.5 -8.5t12.5 -38.5q0 -33 -12.5 -42.5t-47.5 -9.5q-37 0 -49 9.5t-12 42.5q0 30 12 38.5t49 8.5zM522 855q36 0 48 -8.5t12 -38.5q0 -33 -12 -42.5t-48 -9.5q-37 0 -49 9.5t-12 42.5
q0 30 12 38.5t49 8.5z" />
    <glyph glyph-name="afii10051" unicode="&#x402;" horiz-adv-x="888" 
d="M701 610h-286v-147q70 38 172 38q50 0 85 -7t65 -25t47 -50.5t26.5 -83.5t9.5 -123q0 -308 -204 -388l-73 68q28 11 46 21.5t41 34t36.5 55t23 84.5t9.5 123q0 89 -14 133t-42 58t-85 14t-98.5 -15t-44.5 -41v-359h-123v610h-287v87h696v-87z" />
    <glyph glyph-name="afii10052" unicode="&#x403;" horiz-adv-x="657" 
d="M235 0h-121v697h541v-87h-420v-610zM386 747h-105l158 129h137z" />
    <glyph glyph-name="afii10053" unicode="&#x404;" horiz-adv-x="736" 
d="M590 327h-387q2 -78 17.5 -127t50.5 -75.5t81.5 -36t121.5 -9.5q114 0 195 24l31 -91q-113 -26 -240 -26q-102 0 -172 18t-120.5 60t-74 113.5t-23.5 177.5t23.5 176t74 110.5t120 56.5t172.5 16q130 0 240 -27l-31 -90q-75 24 -195 24q-72 0 -116 -7t-79.5 -29
t-52.5 -63.5t-22 -109.5h386v-85z" />
    <glyph glyph-name="afii10054" unicode="&#x405;" horiz-adv-x="747" 
d="M656 685l-29 -89q-77 25 -213 25q-111 0 -163.5 -25.5t-52.5 -88.5q0 -48 42 -72t156 -32q149 -11 216.5 -59.5t67.5 -145.5q0 -113 -88 -162.5t-261 -49.5q-140 0 -250 30l30 88q93 -25 218 -25q112 0 167 25t55 89q0 50 -43.5 79.5t-158.5 37.5q-149 10 -215.5 52
t-66.5 136q0 114 88 165t259 51q131 0 242 -29z" />
    <glyph glyph-name="afii10055" unicode="&#x406;" horiz-adv-x="348" 
d="M114 697h121v-697h-121v697z" />
    <glyph glyph-name="afii10056" unicode="&#x407;" horiz-adv-x="348" 
d="M114 697h121v-697h-121v697zM54 855q36 0 48 -8.5t12 -38.5q0 -33 -12 -42.5t-48 -9.5q-37 0 -49 9.5t-12 42.5q0 30 12 38.5t49 8.5zM295 855q36 0 48 -8.5t12 -38.5q0 -33 -12 -42.5t-48 -9.5t-48.5 9.5t-12.5 42.5q0 30 12.5 38.5t48.5 8.5z" />
    <glyph glyph-name="afii10057" unicode="&#x408;" horiz-adv-x="541" 
d="M428 697v-505q0 -206 -240 -206q-89 0 -176 29l30 92q62 -24 138 -24q125 0 125 118v496h123z" />
    <glyph glyph-name="afii10058" unicode="&#x409;" horiz-adv-x="1254" 
d="M595 607h-270q-27 -308 -151 -607h-131q153 387 169 697h504v-272h269q223 0 223 -215q0 -102 -53.5 -156t-159.5 -54h-400v607zM968 342h-252v-256h256q104 0 104 125q0 62 -27.5 96.5t-80.5 34.5z" />
    <glyph glyph-name="afii10059" unicode="&#x40a;" horiz-adv-x="1259" 
d="M235 339v-339h-121v697h121v-274h365v274h121v-274h269q120 0 171.5 -56.5t51.5 -157.5q0 -102 -53.5 -155.5t-159.5 -53.5h-400v339h-365zM973 339h-252v-253h256q56 0 80 31.5t24 92.5t-27 95t-81 34z" />
    <glyph glyph-name="afii10060" unicode="&#x40b;" horiz-adv-x="897" 
d="M813 269v-269h-114v257q0 95 -31 126.5t-110 31.5q-57 0 -98.5 -15t-44.5 -41v-359h-123v610h-287v87h696v-87h-286v-147q70 38 172 38q121 0 173.5 -48.5t52.5 -183.5z" />
    <glyph glyph-name="afii10061" unicode="&#x40c;" horiz-adv-x="768" 
d="M768 0h-145q-51 104 -94 168t-89.5 100.5t-92 50.5t-112.5 18v-337h-121v697h121v-337q62 43 163.5 135.5t199.5 201.5h153q-118 -125 -208 -207t-130 -107q38 -9 63.5 -19t61 -35t67.5 -64t74 -105.5t89 -159.5zM433 747h-105l158 129h137z" />
    <glyph glyph-name="afii10062" unicode="&#x40e;" horiz-adv-x="650" 
d="M282 172q-1 3 -4 9.5t-4 10.5q-42 100 -128.5 253.5t-157.5 251.5h143q145 -220 229 -414q153 255 220 414h134q-81 -173 -196.5 -366t-219.5 -331q-101 0 -152 -1q68 72 136 173zM199 871h83q0 -37 20.5 -50.5t67.5 -13.5q24 0 39 4q25 5 36.5 18.5t11.5 41.5h79
q0 -132 -169 -132q-168 0 -168 132z" />
    <glyph glyph-name="afii10145" unicode="&#x40f;" horiz-adv-x="869" 
d="M759 0h-253l-25 -186h-84l-25 186h-257v697h122v-608h401v608h121v-697z" />
    <glyph glyph-name="afii10017" unicode="&#x410;" horiz-adv-x="810" 
d="M680 0q-86 186 -90 194h-387q-30 -74 -76 -194h-126q151 378 310 697h198q160 -408 308 -697h-137zM421 613h-34q-82 -173 -150 -332h317q-57 131 -133 332z" />
    <glyph glyph-name="afii10018" unicode="&#x411;" horiz-adv-x="840" 
d="M235 86h297q99 0 99 117q0 58 -26 91.5t-78 33.5h-292v-242zM682 697v-87h-447v-199h305q120 0 171 -53.5t51 -155.5q0 -202 -212 -202h-436v697h568z" />
    <glyph glyph-name="afii10019" unicode="&#x412;" horiz-adv-x="840" 
d="M235 86h297q99 0 99 117q0 58 -26 91.5t-78 33.5h-292v-242zM235 611v-200h287q91 0 91 102q0 50 -20 74t-71 24h-287zM572 372q111 -4 150.5 -49t39.5 -129q0 -194 -212 -194h-436v697h426q116 0 159 -43t43 -123q0 -36 -6 -60.5t-23 -47t-52 -35t-89 -16.5z" />
    <glyph glyph-name="afii10020" unicode="&#x413;" horiz-adv-x="647" 
d="M235 0h-121v697h541v-87h-420v-610z" />
    <glyph glyph-name="afii10021" unicode="&#x414;" horiz-adv-x="939" 
d="M787 697v-608h152l-25 -243h-106v154h-674v-154h-107l-25 243h127q117 245 135 608h523zM667 89v521h-291q-25 -313 -110 -521h401z" />
    <glyph glyph-name="afii10022" unicode="&#x415;" horiz-adv-x="738" 
d="M114 697h589v-87h-468v-198h333v-86h-333v-239h468v-87h-589v697z" />
    <glyph glyph-name="afii10024" unicode="&#x416;" horiz-adv-x="1084" 
d="M138 0h-138q53 116 96.5 190t83 112.5t68.5 53.5t72 27q-36 25 -117 107t-187 207h145q85 -105 173 -195t146 -137v332h122v-332q56 44 144.5 134.5t176.5 197.5h145q-107 -125 -188 -207t-117 -107q35 -9 58 -19t55 -35t60.5 -64t66.5 -105t81 -160h-138
q-45 103 -83 167t-79.5 101t-82 51.5t-99.5 18.5v-338h-122v338q-58 -4 -98.5 -18.5t-82 -51.5t-79 -101t-82.5 -167z" />
    <glyph glyph-name="afii10025" unicode="&#x417;" horiz-adv-x="767" 
d="M240 327v85h127q97 0 134.5 25t37.5 86q0 57 -43 79t-167 22q-139 0 -228 -23l-27 87q152 26 270 26q176 0 249.5 -41.5t73.5 -132.5q0 -75 -35.5 -117.5t-138.5 -50.5q110 -4 153 -51t43 -131q0 -112 -83 -158t-262 -46q-136 0 -277 27l25 87q91 -24 237 -24
q129 0 178.5 27.5t49.5 96.5q0 71 -43 99t-146 28h-128z" />
    <glyph glyph-name="afii10026" unicode="&#x418;" horiz-adv-x="902" 
d="M788 697v-697h-120v548q-209 -318 -392 -548h-162v697h120v-573q223 290 407 573h147z" />
    <glyph glyph-name="afii10027" unicode="&#x419;" horiz-adv-x="902" 
d="M788 697v-697h-120v548q-209 -318 -392 -548h-162v697h120v-573q223 290 407 573h147zM284 871h84q0 -37 20.5 -50t67.5 -13q46 0 67 13t21 50h79q0 -132 -169 -132q-170 0 -170 132z" />
    <glyph glyph-name="afii10028" unicode="&#x41a;" horiz-adv-x="768" 
d="M768 0h-145q-51 104 -94 168t-89.5 100.5t-92 50.5t-112.5 18v-337h-121v697h121v-337q62 43 163.5 135.5t199.5 201.5h153q-118 -125 -208 -207t-130 -107q38 -9 63.5 -19t61 -35t67.5 -64t74 -105.5t89 -159.5z" />
    <glyph glyph-name="afii10029" unicode="&#x41b;" horiz-adv-x="865" 
d="M631 610h-306q-12 -142 -52 -305.5t-99 -304.5h-131q153 387 169 697h540v-697h-121v610z" />
    <glyph glyph-name="afii10030" unicode="&#x41c;" horiz-adv-x="1071" 
d="M540 212q108 236 254 485h164v-697h-120v568q-124 -225 -260 -498h-93q-151 312 -253 498v-568h-118v697h173q147 -257 253 -485z" />
    <glyph glyph-name="afii10031" unicode="&#x41d;" horiz-adv-x="870" 
d="M235 325v-325h-121v697h121v-279h401v279h121v-697h-121v325h-401z" />
    <glyph glyph-name="afii10032" unicode="&#x41e;" horiz-adv-x="918" 
d="M459 714q103 0 172.5 -16.5t120 -57.5t73.5 -111t23 -176q0 -107 -23 -178.5t-73 -113t-120 -58.5t-173 -17t-172.5 17t-120 58.5t-73.5 113t-23 178.5q0 106 23 176t73.5 111t120 57.5t172.5 16.5zM459 77q104 0 157 21.5t77.5 80t24.5 172.5q0 89 -11.5 141.5t-44 82.5
t-78 39.5t-125.5 9.5q-79 0 -124.5 -9.5t-77.5 -39.5t-43.5 -82.5t-11.5 -141.5q0 -86 11.5 -138t43 -83t78 -42t124.5 -11z" />
    <glyph glyph-name="afii10033" unicode="&#x41f;" horiz-adv-x="870" 
d="M235 610v-610h-121v697h643v-697h-121v610h-401z" />
    <glyph glyph-name="afii10034" unicode="&#x420;" horiz-adv-x="794" 
d="M235 330h260q61 0 92 35.5t31 99.5q0 71 -30.5 108.5t-88.5 37.5h-264v-281zM235 0h-122v697h404q236 0 236 -233q0 -94 -57 -157.5t-174 -63.5h-287v-243z" />
    <glyph glyph-name="afii10035" unicode="&#x421;" horiz-adv-x="717" 
d="M70 355q0 106 23 176t73 110.5t119.5 56.5t172.5 16q125 0 236 -26l-30 -91q-77 24 -192 24q-80 0 -126 -8.5t-81.5 -36.5t-49 -81t-13.5 -141t13.5 -141.5t48.5 -83t82 -39.5t126 -10q113 0 192 23l30 -91q-106 -26 -236 -26q-102 0 -172 18t-120 60t-73 113.5
t-23 177.5z" />
    <glyph glyph-name="afii10036" unicode="&#x422;" horiz-adv-x="706" 
d="M415 0h-123v610h-287v87h696v-87h-286v-610z" />
    <glyph glyph-name="afii10037" unicode="&#x423;" horiz-adv-x="702" 
d="M360 283q159 265 220 414h134q-81 -173 -196.5 -366t-219.5 -331h-150q77 86 135 173q-39 99 -129.5 260.5t-165.5 263.5h143q142 -211 229 -414z" />
    <glyph glyph-name="afii10038" unicode="&#x424;" horiz-adv-x="925" 
d="M390 697h123v-94q137 -4 215 -33.5t108 -81t30 -138.5t-30.5 -139t-108.5 -81.5t-214 -33.5v-96h-123v96q-134 4 -210 34t-105 82t-29 138t29 138t105 81.5t210 33.5v94zM743 349q0 64 -15.5 97t-65.5 51.5t-149 20.5v-338q75 2 120.5 12t69.5 32t32 50t8 75zM167 349
q0 -62 15 -94.5t64 -52t144 -22.5v338q-72 -2 -116 -12t-68 -31.5t-31.5 -50t-7.5 -75.5z" />
    <glyph glyph-name="afii10039" unicode="&#x425;" horiz-adv-x="793" 
d="M167 697q93 -100 237 -257q118 132 222 257h148q-122 -147 -295 -341q168 -190 308 -356h-151q-131 154 -233 270q-125 -139 -249 -270h-148q117 123 323 353q-179 199 -317 344h155z" />
    <glyph glyph-name="afii10040" unicode="&#x426;" horiz-adv-x="908" 
d="M235 697v-608h401v608h121v-608h151l-24 -243h-106v154h-664v697h121z" />
    <glyph glyph-name="afii10041" unicode="&#x427;" horiz-adv-x="760" 
d="M525 360v337h121v-697h-121v234q-26 -15 -83.5 -26t-121.5 -11q-75 0 -127 9.5t-94.5 34.5t-63.5 74t-21 122v260h122v-249q0 -94 44.5 -125t156.5 -31q81 0 134.5 18t53.5 50z" />
    <glyph glyph-name="afii10042" unicode="&#x428;" horiz-adv-x="1128" 
d="M1014 697v-697h-900v697h121v-608h268v608h122v-608h268v608h121z" />
    <glyph glyph-name="afii10043" unicode="&#x429;" horiz-adv-x="1165" 
d="M235 697v-608h268v608h122v-608h268v608h121v-608h151l-25 -243h-106v154h-920v697h121z" />
    <glyph glyph-name="afii10044" unicode="&#x42a;" horiz-adv-x="840" 
d="M19 697h247v-271h304q121 0 172 -57.5t51 -158.5q0 -99 -53 -154.5t-159 -55.5h-437v610h-125v87zM266 85h292q103 0 103 126q0 130 -108 130h-287v-256z" />
    <glyph glyph-name="afii10045" unicode="&#x42b;" horiz-adv-x="1083" 
d="M235 85h292q103 0 103 126q0 130 -108 130h-287v-256zM113 697h122v-271h304q121 0 172 -57t51 -159t-53.5 -156t-158.5 -54h-437v697zM846 697h123v-697h-123v697z" />
    <glyph glyph-name="afii10046" unicode="&#x42c;" horiz-adv-x="809" 
d="M235 85h292q103 0 103 126q0 130 -108 130h-287v-256zM113 697h122v-271h304q121 0 172 -57t51 -159t-53.5 -156t-158.5 -54h-437v697z" />
    <glyph glyph-name="afii10047" unicode="&#x42d;" horiz-adv-x="736" 
d="M532 327h-387v85h386q-5 68 -22 109.5t-52.5 63.5t-79.5 29t-116 7q-120 0 -195 -24l-31 90q110 27 240 27q103 0 172.5 -16t120 -56.5t74 -110.5t23.5 -176t-23.5 -177.5t-74 -113.5t-120.5 -60t-172 -18q-127 0 -240 26l31 91q81 -24 195 -24q75 0 121.5 9.5t81.5 36
t50.5 75.5t17.5 127z" />
    <glyph glyph-name="afii10048" unicode="&#x42e;" horiz-adv-x="1133" 
d="M754 714q80 0 135 -16t95.5 -56t59.5 -109.5t19 -174.5q0 -141 -35.5 -223.5t-101 -115.5t-172.5 -33q-154 0 -230 75.5t-81 263.5h-208v-325h-121v697h121v-279h209q10 167 85 231.5t225 64.5zM752 77q106 0 145.5 57t39.5 224q0 88 -9 140.5t-32.5 81.5t-55.5 38t-88 9
q-73 0 -109.5 -18.5t-55.5 -76.5t-19 -174q0 -114 18.5 -174.5t57 -83.5t108.5 -23z" />
    <glyph glyph-name="afii10049" unicode="&#x42f;" horiz-adv-x="829" 
d="M593 370v241h-263q-57 0 -88 -32t-31 -92q0 -56 32 -86.5t92 -30.5h258zM306 310q-63 1 -109 15.5t-72 40.5t-37.5 57.5t-11.5 70.5q0 203 235 203h404v-697h-122v284h-145q-43 0 -73 -9.5t-63.5 -38.5t-65.5 -86.5t-67 -149.5h-143q57 126 100.5 191t79.5 88t90 31z" />
    <glyph glyph-name="afii10065" unicode="&#x430;" horiz-adv-x="661" 
d="M576 324v-298q-115 -40 -260 -40q-140 0 -196 36.5t-56 133.5q0 52 17 86.5t52 51.5t74 23t97 6q75 0 162 -15q0 79 -32.5 104t-133.5 25q-108 0 -180 -23l-24 82q112 25 222 25q139 0 198.5 -42.5t59.5 -154.5zM466 83v155q-52 11 -142 11q-82 0 -110 -15.5t-28 -72.5
q0 -62 26.5 -80t110.5 -18q75 0 143 20z" />
    <glyph glyph-name="afii10066" unicode="&#x431;" horiz-adv-x="683" 
d="M189 243q0 -94 35 -134.5t109 -40.5q95 0 128.5 33.5t33.5 142.5q0 101 -32.5 136.5t-115.5 35.5q-95 0 -126.5 -36t-31.5 -137zM186 435q55 65 178 65q129 0 190 -56.5t61 -200.5q0 -145 -67 -201t-218 -56q-134 0 -197 66t-63 235q0 123 15 199t53 118.5t87.5 59
t132.5 22.5q145 11 222 39v-86q-69 -26 -218 -38q-51 -4 -83 -14t-50.5 -32.5t-27 -48t-15.5 -71.5z" />
    <glyph glyph-name="afii10067" unicode="&#x432;" horiz-adv-x="678" 
d="M201 78h211q44 0 61.5 16.5t17.5 55.5q0 82 -83 82h-207v-154zM201 429v-124h203q41 0 57.5 16.5t16.5 48.5q0 33 -16 46t-58 13h-203zM467 272q81 -3 113 -37t32 -94q0 -141 -172 -141h-352v507h343q95 0 130.5 -31.5t35.5 -89.5q0 -54 -26.5 -81.5t-103.5 -32.5z" />
    <glyph glyph-name="afii10068" unicode="&#x433;" horiz-adv-x="494" 
d="M201 423v-423h-113v507h404v-84h-291z" />
    <glyph glyph-name="afii10069" unicode="&#x434;" horiz-adv-x="738" 
d="M203 507h411v-423h114l-26 -219h-90v135h-489v-135h-88l-28 219h104q78 216 92 423zM501 423h-193q-16 -149 -78 -339h271v339z" />
    <glyph glyph-name="afii10070" unicode="&#x435;" horiz-adv-x="658" 
d="M543 93l22 -79q-110 -28 -208 -28q-144 0 -216.5 60.5t-72.5 209.5q0 145 69 205t209 60q72 0 119 -12.5t80 -44.5t46.5 -88t11.5 -142h-414q1 -98 42 -131.5t139 -33.5q89 0 173 24zM351 442q-83 0 -118.5 -28t-42.5 -103h300q-4 79 -33.5 105t-105.5 26z" />
    <glyph glyph-name="afii10072" unicode="&#x436;" horiz-adv-x="885" 
d="M132 0h-131q48 82 86 135t69 80.5t49.5 38t46.5 20.5q-59 37 -235 233h133q153 -168 236 -241v241h113v-241q93 83 235 241h133q-173 -193 -235 -233q28 -10 47 -20.5t50 -38t69 -80.5t86 -135h-131q-74 127 -133.5 178.5t-120.5 62.5v-241h-113v241q-62 -11 -121 -62
t-133 -179z" />
    <glyph glyph-name="afii10073" unicode="&#x437;" horiz-adv-x="609" 
d="M173 234v75h91q79 0 111.5 14t32.5 51q0 35 -33 50t-122 15q-101 0 -179 -21l-25 83q92 20 205 20q148 0 209.5 -29.5t61.5 -97.5q0 -55 -31 -86.5t-115 -37.5q163 -6 163 -134q0 -84 -67.5 -117t-220.5 -33q-122 0 -211 20l26 85q73 -22 184 -22q99 0 134 18t35 66
q0 45 -36 63t-122 18h-91z" />
    <glyph glyph-name="afii10074" unicode="&#x438;" horiz-adv-x="689" 
d="M488 0v354q-111 -163 -288 -354h-114v507h114v-368q130 140 288 368h113v-507h-113z" />
    <glyph glyph-name="afii10075" unicode="&#x439;" horiz-adv-x="689" 
d="M488 0v354q-111 -163 -288 -354h-114v507h114v-368q130 140 288 368h113v-507h-113zM176 697h84q0 -37 20.5 -50.5t67.5 -13.5q91 0 87 64h79q0 -132 -169 -132t-169 132z" />
    <glyph glyph-name="afii10076" unicode="&#x43a;" horiz-adv-x="618" 
d="M616 0h-134q-82 130 -146.5 180.5t-134.5 61.5v-242h-113v507h113v-244q80 64 260 244h138q-192 -197 -251 -231q40 -13 67.5 -30t80 -77.5t120.5 -168.5z" />
    <glyph glyph-name="afii10077" unicode="&#x43b;" horiz-adv-x="657" 
d="M457 423h-191q-22 -213 -102 -423h-121q100 246 115 507h413v-507h-114v423z" />
    <glyph glyph-name="afii10078" unicode="&#x43c;" horiz-adv-x="864" 
d="M437 168q85 186 172 339h167v-507h-112v409q-107 -189 -187 -376h-94q-88 201 -182 376v-409h-113v507h173q97 -173 176 -339z" />
    <glyph glyph-name="afii10079" unicode="&#x43d;" horiz-adv-x="685" 
d="M483 231h-283v-231h-114v507h114v-195h283v195h114v-507h-114v231z" />
    <glyph glyph-name="afii10080" unicode="&#x43e;" 
d="M351 -14q-149 0 -216 59.5t-67 210.5q0 150 67 207.5t216 57.5q150 0 216.5 -57.5t66.5 -207.5q0 -151 -66.5 -210.5t-216.5 -59.5zM351 440q-96 0 -129.5 -35t-33.5 -151q0 -112 34.5 -149.5t128.5 -37.5q95 0 129 37.5t34 149.5q0 80 -16 119.5t-48.5 53t-98.5 13.5z
" />
    <glyph glyph-name="afii10081" unicode="&#x43f;" horiz-adv-x="686" 
d="M201 423v-423h-113v507h510v-507h-113v423h-284z" />
    <glyph glyph-name="afii10082" unicode="&#x440;" horiz-adv-x="697" 
d="M201 419v-289q0 -28 41 -44.5t102 -16.5q94 0 129 38t35 146q0 113 -34 148.5t-130 35.5q-86 0 -143 -18zM88 -192v675q109 38 256 38q151 0 217 -57.5t66 -208.5q0 -149 -66 -209t-204 -60q-94 0 -156 36v-214h-113z" />
    <glyph glyph-name="afii10083" unicode="&#x441;" horiz-adv-x="562" 
d="M516 96l30 -83q-75 -27 -180 -27q-149 0 -223.5 60.5t-74.5 209.5q0 148 74.5 206.5t223.5 58.5q101 0 180 -24l-30 -84q-63 23 -146 23q-50 0 -81 -6.5t-55.5 -25.5t-35 -55.5t-10.5 -94.5q0 -107 42 -145t140 -38q73 0 146 25z" />
    <glyph glyph-name="afii10084" unicode="&#x442;" horiz-adv-x="580" 
d="M346 423v-423h-114v423h-224v84h562v-84h-224z" />
    <glyph glyph-name="afii10085" unicode="&#x443;" horiz-adv-x="612" 
d="M234 -24q-107 321 -220 531h121q91 -177 169 -417q117 243 172 417h118q-83 -231 -228 -517q-48 -96 -102 -182h-129q47 73 99 168z" />
    <glyph glyph-name="afii10086" unicode="&#x444;" horiz-adv-x="1011" 
d="M448 507v196h114v-196q70 14 120 14q138 0 199.5 -58t61.5 -208q0 -149 -60.5 -209t-185.5 -60q-77 0 -135 36v-214h-114v214q-56 -36 -134 -36q-124 0 -185 60t-61 209q0 150 61.5 208t198.5 58q52 0 120 -14zM327 69q54 0 87.5 16t33.5 45v290q-54 17 -120 17
q-55 0 -84 -13.5t-44.5 -53.5t-15.5 -117q0 -106 32.5 -145t110.5 -39zM684 69q78 0 110 39t32 145q0 112 -31 148t-113 36q-65 0 -120 -17v-293q2 -27 36 -42.5t86 -15.5z" />
    <glyph glyph-name="afii10087" unicode="&#x445;" horiz-adv-x="626" 
d="M603 0h-132q-50 67 -147 182q-77 -86 -171 -182h-131q92 87 241 253q-116 133 -240 254h143q84 -88 161 -177q52 58 145 177h130q-121 -149 -212 -250q97 -110 213 -257z" />
    <glyph glyph-name="afii10088" unicode="&#x446;" horiz-adv-x="730" 
d="M598 84h124l-28 -219h-89v135h-517v507h113v-423h284v423h113v-423z" />
    <glyph glyph-name="afii10089" unicode="&#x447;" horiz-adv-x="650" 
d="M52 392v115h113v-103q0 -94 31 -125.5t110 -31.5q59 0 101 15.5t42 42.5v202h113v-507h-113v198q-70 -38 -173 -38q-121 0 -172.5 48.5t-51.5 183.5z" />
    <glyph glyph-name="afii10090" unicode="&#x448;" horiz-adv-x="986" 
d="M900 507v-507h-812v507h113v-423h236v423h113v-423h236v423h114z" />
    <glyph glyph-name="afii10091" unicode="&#x449;" horiz-adv-x="1032" 
d="M906 -134v134h-820v507h114v-423h236v423h113v-423h237v423h112v-423h124l-28 -218h-88z" />
    <glyph glyph-name="afii10092" unicode="&#x44a;" horiz-adv-x="723" 
d="M249 314h225q187 0 187 -154q0 -85 -45 -122.5t-142 -37.5h-338v423h-134v84h247v-193zM249 76h207q44 0 64 19t20 64q0 43 -20.5 61t-65.5 18h-205v-162z" />
    <glyph glyph-name="afii10093" unicode="&#x44b;" horiz-adv-x="887" 
d="M406 76q45 0 64.5 19t19.5 64q0 43 -20 60.5t-65 17.5h-205v-161h206zM200 314h224q96 0 142 -38t46 -116q0 -85 -45 -122.5t-143 -37.5h-338v507h114v-193zM799 507v-507h-114v507h114z" />
    <glyph glyph-name="afii10094" unicode="&#x44c;" horiz-adv-x="674" 
d="M406 76q45 0 64.5 19t19.5 64q0 43 -20 60.5t-65 17.5h-205v-161h206zM200 314h224q96 0 142 -38t46 -116q0 -85 -45 -122.5t-143 -37.5h-338v507h114v-193z" />
    <glyph glyph-name="afii10095" unicode="&#x44d;" horiz-adv-x="580" 
d="M34 13l30 79q66 -23 145 -23q92 0 134.5 34.5t46.5 129.5h-262v78h260q-9 75 -51 101t-128 26q-85 0 -145 -21l-30 80q79 24 180 24q147 0 221.5 -59t74.5 -206q0 -149 -74.5 -209.5t-221.5 -60.5q-105 0 -180 27z" />
    <glyph glyph-name="afii10096" unicode="&#x44e;" horiz-adv-x="994" 
d="M651 -14q-137 0 -202 54.5t-71 190.5h-177v-231h-113v507h113v-194h179q11 116 76.5 162t194.5 46q143 0 209 -58t66 -207q0 -151 -66 -210.5t-209 -59.5zM651 441q-90 0 -123 -36t-33 -151q0 -111 33.5 -149.5t122.5 -38.5t122.5 38.5t33.5 149.5q0 115 -33 151t-123 36
z" />
    <glyph glyph-name="afii10097" unicode="&#x44f;" horiz-adv-x="687" 
d="M485 274v153h-197q-47 0 -68 -16.5t-21 -58.5q0 -78 92 -78h194zM252 224q-92 1 -133.5 38.5t-41.5 96.5q0 148 192 148h330v-507h-114v197h-102q-69 0 -113 -37.5t-105 -159.5h-128q70 130 113.5 173.5t101.5 50.5z" />
    <glyph glyph-name="afii10071" unicode="&#x451;" horiz-adv-x="658" 
d="M543 93l22 -79q-110 -28 -208 -28q-144 0 -216.5 60.5t-72.5 209.5q0 145 69 205t209 60q72 0 119 -12.5t80 -44.5t46.5 -88t11.5 -142h-414q1 -98 42 -131.5t139 -33.5q89 0 173 24zM351 442q-83 0 -118.5 -28t-42.5 -103h300q-4 79 -33.5 105t-105.5 26zM226 669
q36 0 48 -8.5t12 -38.5q0 -33 -12 -42.5t-48 -9.5t-48.5 9.5t-12.5 42.5q0 30 12.5 38.5t48.5 8.5zM468 669q35 0 47.5 -8.5t12.5 -38.5q0 -33 -12.5 -42.5t-47.5 -9.5q-37 0 -49.5 9.5t-12.5 42.5q0 30 12.5 38.5t49.5 8.5z" />
    <glyph glyph-name="afii10099" unicode="&#x452;" horiz-adv-x="675" 
d="M200 588v-110q70 38 173 38q84 0 131.5 -22t74 -86.5t26.5 -183.5q0 -94 -18.5 -168t-50.5 -119t-65 -71.5t-70 -41.5l-72 68q33 13 57 31t48.5 53.5t37.5 97.5t13 148q0 89 -14.5 132.5t-42.5 57.5t-85 14t-98.5 -14.5t-44.5 -40.5v-371h-112v588h-70v69h70v65h112v-65
h135v-69h-135z" />
    <glyph glyph-name="afii10100" unicode="&#x453;" horiz-adv-x="494" 
d="M201 424v-424h-113v507h404v-83h-291zM312 568h-108l146 129h128z" />
    <glyph glyph-name="afii10101" unicode="&#x454;" horiz-adv-x="579" 
d="M516 92l28 -79q-73 -27 -178 -27q-147 0 -222.5 60.5t-75.5 209.5q0 147 74.5 206t221.5 59q105 0 180 -24l-28 -80q-61 21 -147 21q-85 0 -126.5 -26t-50.5 -101h260v-78h-263q4 -95 46 -129.5t134 -34.5q80 0 147 23z" />
    <glyph glyph-name="afii10102" unicode="&#x455;" horiz-adv-x="596" 
d="M516 495l-29 -80q-85 26 -177 26q-72 0 -102 -14.5t-30 -60.5q0 -32 30 -46.5t108 -20.5q116 -8 167.5 -42t51.5 -106q0 -91 -61 -128t-186 -37t-219 27l28 80q77 -27 188 -27q73 0 104 15.5t31 62.5q0 35 -29.5 51.5t-111.5 22.5q-112 8 -164.5 38.5t-52.5 101.5
q0 90 63 126.5t188 36.5q97 0 203 -26z" />
    <glyph glyph-name="afii10103" unicode="&#x456;" horiz-adv-x="287" 
d="M201 507v-507h-113v507h113zM145 709q40 0 54 -9t14 -41q0 -35 -14 -45.5t-54 -10.5t-54 10.5t-14 45.5q0 32 14 41t54 9z" />
    <glyph glyph-name="afii10104" unicode="&#x457;" horiz-adv-x="287" 
d="M201 507v-507h-113v507h113zM24 669q36 0 48 -8.5t12 -38.5q0 -33 -12 -42.5t-48 -9.5q-37 0 -49 9.5t-12 42.5q0 30 12 38.5t49 8.5zM265 669q36 0 48 -8.5t12 -38.5q0 -33 -12 -42.5t-48 -9.5t-48.5 9.5t-12.5 42.5q0 30 12.5 38.5t48.5 8.5z" />
    <glyph glyph-name="afii10105" unicode="&#x458;" horiz-adv-x="286" 
d="M145 709q40 0 53.5 -9t13.5 -41q0 -35 -13.5 -45.5t-53.5 -10.5t-54 10.5t-14 45.5q0 32 14 41t54 9zM200 507v-526q0 -106 -55 -145t-169 -39v81q59 0 85.5 20.5t26.5 80.5v528h112z" />
    <glyph glyph-name="afii10106" unicode="&#x459;" horiz-adv-x="1044" 
d="M457 423h-191q-22 -213 -102 -423h-121q100 246 115 507h413v-193h224q188 0 188 -154q0 -85 -45.5 -122.5t-142.5 -37.5h-338v423zM571 76h206q45 0 64.5 19t19.5 64q0 43 -20 61t-65 18h-205v-162z" />
    <glyph glyph-name="afii10107" unicode="&#x45a;" horiz-adv-x="1072" 
d="M598 314h224q96 0 142 -38t46 -116q0 -85 -45 -122.5t-143 -37.5h-337v238h-284v-238h-113v507h113v-193h284v193h113v-193zM598 76h206q45 0 64.5 19t19.5 64q0 43 -20 61t-65 18h-205v-162z" />
    <glyph glyph-name="afii10108" unicode="&#x45b;" horiz-adv-x="682" 
d="M18 588v69h70v65h112v-65h135v-69h-135v-105q70 38 173 38q121 0 173 -48.5t52 -183.5v-289h-113v277q0 95 -31 126.5t-111 31.5q-58 0 -100.5 -15.5t-42.5 -42.5v-377h-112v588h-70z" />
    <glyph glyph-name="afii10109" unicode="&#x45c;" horiz-adv-x="618" 
d="M616 0h-134q-82 130 -146.5 180.5t-134.5 61.5v-242h-113v507h113v-244q80 64 260 244h138q-192 -197 -251 -231q40 -13 67.5 -30t80 -77.5t120.5 -168.5zM358 568h-107l144 129h130z" />
    <glyph glyph-name="afii10110" unicode="&#x45e;" horiz-adv-x="612" 
d="M234 -24q-107 321 -220 531h121q91 -177 169 -417q117 243 172 417h118q-83 -231 -228 -517q-48 -96 -102 -182h-129q47 73 99 168zM138 700h84q0 -37 20 -50t67 -13q46 0 67 13t21 50h79q0 -132 -169 -132t-169 132z" />
    <glyph glyph-name="afii10193" unicode="&#x45f;" horiz-adv-x="686" 
d="M201 507v-423h284v423h113v-507h-184l-25 -171h-85l-25 171h-191v507h113z" />
    <glyph glyph-name="afii10050" unicode="&#x490;" horiz-adv-x="647" 
d="M114 0v697h424l32 171h85v-258h-420v-610h-121z" />
    <glyph glyph-name="afii10098" unicode="&#x491;" horiz-adv-x="494" 
d="M492 423h-292v-423h-114v507h298l28 154h80v-238z" />
    <glyph glyph-name="endash" unicode="&#x2013;" horiz-adv-x="673" 
d="M61 234v89h551v-89h-551z" />
    <glyph glyph-name="emdash" unicode="&#x2014;" horiz-adv-x="1021" 
d="M61 234v89h899v-89h-899z" />
    <glyph glyph-name="quoteleft" unicode="&#x2018;" horiz-adv-x="284" 
d="M29 505l131 259h96l-94 -259h-133z" />
    <glyph glyph-name="quoteright" unicode="&#x2019;" horiz-adv-x="283" 
d="M255 762l-131 -260h-96l94 260h133z" />
    <glyph glyph-name="quotesinglbase" unicode="&#x201a;" horiz-adv-x="276" 
d="M251 100l-131 -259h-96l94 259h133z" />
    <glyph glyph-name="quotedblleft" unicode="&#x201c;" horiz-adv-x="495" 
d="M29 505l131 259h96l-94 -259h-133zM243 505l130 259h96l-93 -259h-133z" />
    <glyph glyph-name="quotedblright" unicode="&#x201d;" horiz-adv-x="496" 
d="M468 762l-130 -259h-96l93 259h133zM255 762l-131 -259h-96l94 259h133z" />
    <glyph glyph-name="quotedblbase" unicode="&#x201e;" horiz-adv-x="496" 
d="M468 98l-130 -260h-96l93 260h133zM255 98l-131 -260h-96l94 260h133z" />
    <glyph glyph-name="dagger" unicode="&#x2020;" horiz-adv-x="520" 
d="M36 498v77h174v148h98v-148h176v-77h-176v-240h-98v240h-174z" />
    <glyph glyph-name="daggerdbl" unicode="&#x2021;" horiz-adv-x="520" 
d="M36 498v77h174v148h98v-148h176v-77h-176v-113h176v-77h-176v-148h-98v148h-174v77h174v113h-174z" />
    <glyph glyph-name="bullet" unicode="&#x2022;" 
d="M351 56q-149 0 -216 59.5t-67 210.5q0 150 67 207.5t216 57.5q150 0 216.5 -57.5t66.5 -207.5q0 -151 -66.5 -210.5t-216.5 -59.5z" />
    <glyph glyph-name="ellipsis" unicode="&#x2026;" horiz-adv-x="1411" 
d="M283 123q47 0 63 -11t16 -49q0 -41 -16 -53t-63 -12q-46 0 -62 12.5t-16 52.5q0 38 16 49t62 11zM704 123q47 0 63 -11t16 -49q0 -41 -16 -53t-63 -12q-45 0 -61.5 12.5t-16.5 52.5q0 37 16.5 48.5t61.5 11.5zM1125 123q48 0 64 -11t16 -49q0 -41 -16 -53t-64 -12
q-44 0 -60 12.5t-16 52.5q0 37 16 48.5t60 11.5z" />
    <glyph glyph-name="perthousand" unicode="&#x2030;" horiz-adv-x="1538" 
d="M734 697h113l-493 -697h-113zM252 714q108 0 155 -46.5t47 -172.5q0 -127 -47.5 -176.5t-154.5 -49.5t-154.5 49.5t-47.5 176.5q0 126 47 172.5t155 46.5zM252 339q57 0 78 32t21 123q0 92 -20.5 120.5t-78.5 28.5q-57 0 -78.5 -29t-21.5 -120q0 -90 22 -122.5t78 -32.5z
M840 431q108 0 154.5 -46.5t46.5 -172.5q0 -127 -47 -176.5t-154 -49.5t-154.5 49.5t-47.5 176.5q0 126 47 172.5t155 46.5zM840 56q56 0 77.5 32.5t21.5 122.5q0 92 -21 121t-78 29t-78.5 -29.5t-21.5 -120.5q0 -89 22.5 -122t77.5 -33zM1285 431q108 0 154.5 -46.5
t46.5 -172.5q0 -127 -47 -176.5t-154 -49.5t-154.5 49.5t-47.5 176.5q0 126 47 172.5t155 46.5zM1285 56q56 0 77.5 32.5t21.5 122.5q0 92 -21 121t-78 29t-78.5 -29.5t-21.5 -120.5q0 -89 22.5 -122t77.5 -33z" />
    <glyph glyph-name="guilsinglleft" unicode="&#x2039;" horiz-adv-x="461" 
d="M426 521l-236 -213l236 -218l-65 -59l-325 274l323 274z" />
    <glyph glyph-name="guilsinglright" unicode="&#x203a;" horiz-adv-x="461" 
d="M37 90l236 213l-236 218l65 59l324 -275l-323 -273z" />
    <glyph glyph-name="fraction" unicode="&#x2044;" horiz-adv-x="672" 
d="M530 697h113l-499 -697h-113z" />
    <glyph glyph-name="fraction" unicode="&#x2215;" horiz-adv-x="672" 
d="M530 697h113l-499 -697h-113z" />
    <glyph glyph-name="franc" unicode="&#x20a3;" horiz-adv-x="676" 
d="M60 138v72h54v487h578v-87h-457v-233h282v-85h-282v-82h113v-72h-113v-138h-121v138h-54z" />
    <glyph glyph-name="Euro" unicode="&#x20ac;" horiz-adv-x="717" 
d="M70 355q0 106 23 176t73 110.5t119.5 56.5t172.5 16q125 0 236 -26l-30 -91q-77 24 -192 24q-122 0 -180 -27.5t-77 -111.5h319v-73h-332v-55v-54h332v-72h-319q19 -88 77 -118t180 -30q113 0 192 23l30 -91q-106 -26 -236 -26q-102 0 -172 18t-120 60t-73 113.5
t-23 177.5z" />
    <glyph glyph-name="afii61352" unicode="&#x2116;" horiz-adv-x="1362" 
d="M788 697v-697h-148q-183 282 -406 575v-575h-120v697h162q184 -233 390 -546v546h122zM911 155v79h357v-79h-357zM1087 714q114 0 161.5 -42t47.5 -154q0 -114 -47.5 -157.5t-161.5 -43.5q-112 0 -159 43.5t-47 157.5q0 112 47 154t159 42zM1087 388q64 0 85.5 25
t21.5 104q0 80 -21 103t-86 23t-85 -23t-20 -103q0 -79 21 -104t84 -25z" />
    <glyph glyph-name="trademark" unicode="&#x2122;" horiz-adv-x="931" 
d="M233 344h-88v291h-132v62h350v-62h-130v-291zM530 697l111 -268l106 268h116v-353h-82v277l-108 -270h-78l-104 270v-277h-81v353h120z" />
    <glyph glyph-name="estimated" unicode="&#x212e;" horiz-adv-x="841" 
d="M789 320h-587q3 -144 60 -192.5t203 -48.5q124 0 205 24l31 -91q-113 -26 -237 -26q-205 0 -299.5 81.5t-94.5 285.5q0 105 24 176t73 111t113.5 57t154.5 17q182 0 268 -85t86 -292v-17zM435 624q-60 0 -98 -8t-69 -31t-46 -66t-19 -110h456q-4 127 -55.5 171t-168.5 44
z" />
    <glyph glyph-name="arrowleft" unicode="&#x2190;" horiz-adv-x="886" 
d="M453 54l-433 319l433 316l78 -68l-284 -205h619v-88h-619l284 -204z" />
    <glyph glyph-name="arrowup" unicode="&#x2191;" horiz-adv-x="890" 
d="M64 362l382 361l379 -360l-82 -65l-246 237v-516h-105v516l-245 -237z" />
    <glyph glyph-name="arrowright" unicode="&#x2192;" horiz-adv-x="886" 
d="M434 689l432 -316l-433 -319l-77 70l283 203h-619v88h619l-283 205z" />
    <glyph glyph-name="arrowdown" unicode="&#x2193;" horiz-adv-x="890" 
d="M825 380l-382 -361l-379 360l82 65l246 -237v516h105v-516l244 237z" />
    <glyph glyph-name="partialdiff" unicode="&#x2202;" horiz-adv-x="749" 
d="M373 421q53 0 133 -7q-70 120 -290 283h158q67 -52 115.5 -97.5t96.5 -105.5t73.5 -128t25.5 -141q0 -143 -65 -192.5t-247 -49.5q-165 0 -236 53t-71 180q0 115 67 160t240 45zM557 238q0 45 -15 87q-69 10 -160 10q-115 0 -151.5 -24.5t-36.5 -101.5q0 -73 37 -105
t142 -32q56 0 86 4.5t55 21.5t34 50.5t9 89.5z" />
    <glyph glyph-name="product" unicode="&#x220f;" horiz-adv-x="870" 
d="M235 607v-607h-121v697h643v-697h-121v607h-401z" />
    <glyph glyph-name="summation" unicode="&#x2211;" horiz-adv-x="739" 
d="M446 344q-126 -150 -231 -258h483v-86h-691q119 131 298 344q-131 158 -280 353h674v-87h-470q100 -125 217 -266z" />
    <glyph glyph-name="minus" unicode="&#x2212;" horiz-adv-x="723" 
d="M71 315v89h580v-89h-580z" />
    <glyph glyph-name="radical" unicode="&#x221a;" horiz-adv-x="672" 
d="M0 507h176q98 -199 168 -414q51 106 132.5 305t113.5 299h118q-47 -131 -141 -353.5t-155 -343.5h-147q-89 257 -167 416h-98v91z" />
    <glyph glyph-name="infinity" unicode="&#x221e;" horiz-adv-x="928" 
d="M417 350q0 63 -33.5 90.5t-112.5 27.5q-72 0 -100.5 -26t-28.5 -92t28.5 -91.5t100.5 -25.5q78 0 112 27.5t34 89.5zM463 269q-9 -75 -62 -101t-148 -26q-114 0 -166 46.5t-52 161.5t52.5 162.5t165.5 47.5q95 0 148 -26.5t62 -101.5q10 76 63 102t149 26
q113 0 165.5 -47t52.5 -162t-52.5 -162t-165.5 -47q-96 0 -149 26t-63 101zM511 351q0 -63 33.5 -90.5t110.5 -27.5q72 0 101.5 26t29.5 92t-29.5 92t-101.5 26q-77 0 -110.5 -27.5t-33.5 -90.5z" />
    <glyph glyph-name="integral" unicode="&#x222b;" horiz-adv-x="416" 
d="M456 702l-27 -77q-49 13 -116 13q-52 0 -80.5 -18.5t-28.5 -75.5v-565q0 -182 -217 -182q-83 0 -160 23l28 79q56 -22 124 -22q111 0 111 102v568q0 174 210 174q88 0 156 -19z" />
    <glyph glyph-name="approxequal" unicode="&#x2248;" horiz-adv-x="722" 
d="M585 318l75 -49q-22 -49 -66.5 -78.5t-102.5 -29.5q-44 0 -144.5 44t-133.5 44q-49 0 -80 -63l-68 53q33 47 68 70t84 23t150 -42.5t131 -42.5q28 0 49 16t38 55zM585 518l75 -49q-22 -49 -66.5 -78.5t-102.5 -29.5q-44 0 -144.5 43.5t-133.5 43.5q-50 0 -80 -62l-68 53
q33 47 68 69.5t84 22.5t150 -42t131 -42q28 0 49 16t38 55z" />
    <glyph glyph-name="notequal" unicode="&#x2260;" horiz-adv-x="723" 
d="M478 628h120l-72 -108h125v-89h-183l-98 -148h281v-89h-338l-73 -107h-117l72 107h-124v89h180l97 148h-277v89h335z" />
    <glyph glyph-name="lessequal" unicode="&#x2264;" horiz-adv-x="723" 
d="M71 29v89h580v-89h-580zM600 633l-339 -209l339 -212l-56 -64l-432 254v41l429 253z" />
    <glyph glyph-name="greaterequal" unicode="&#x2265;" horiz-adv-x="723" 
d="M652 118v-89h-580v89h580zM462 424l-340 209l59 63l430 -253v-41l-431 -254l-58 64z" />
    <glyph glyph-name="lozenge" unicode="&#x25ca;" horiz-adv-x="663" 
d="M634 272q-120 -241 -196 -428h-198q-130 250 -211 428q87 191 211 428h198q78 -193 196 -428zM503 273q-114 252 -152 352h-34q-104 -208 -168 -352q70 -158 168 -353h34q43 111 152 353z" />
    <glyph glyph-name="caron.alt" unicode="&#xe01e;" horiz-adv-x="401" 
d="M291 722h111l-68 -192h-68z" />
    <glyph glyph-name="commaaccent" unicode="&#xf6c3;" horiz-adv-x="329" 
d="M289 -51l-125 -167h-91l85 167h131z" />
    <glyph glyph-name="Acute" unicode="&#xf6c9;" horiz-adv-x="453" 
d="M221 747h-106l158 129h137z" />
    <glyph glyph-name="Caron" unicode="&#xf6ca;" horiz-adv-x="792" 
d="M328 876l94 -84l91 84h113l-146 -129h-117l-151 129h116z" />
    <glyph glyph-name="Dieresis" unicode="&#xf6cb;" horiz-adv-x="459" 
d="M176 855q36 0 48 -8.5t12 -38.5q0 -33 -12 -42.5t-48 -9.5q-37 0 -49 9.5t-12 42.5q0 30 12 38.5t49 8.5zM417 855q36 0 48 -8.5t12 -38.5q0 -33 -12 -42.5t-48 -9.5t-48.5 9.5t-12.5 42.5q0 30 12.5 38.5t48.5 8.5z" />
    <glyph glyph-name="Grave" unicode="&#xf6ce;" horiz-adv-x="454" 
d="M491 747h-116l-191 129h138z" />
    <glyph glyph-name="Hungarumlaut" unicode="&#xf6cf;" horiz-adv-x="750" 
d="M287 747h-84l106 129h110zM469 747h-84l105 129h111z" />
    <glyph glyph-name="Macron" unicode="&#xf6d0;" horiz-adv-x="400" 
d="M155 762v77h318v-77h-318z" />
    <glyph glyph-name="Lslashsmall" unicode="&#xf6f9;" horiz-adv-x="499" 
d="M200 220v-135h298v-85h-411v139l-55 -41v88l55 41v280h113v-198l119 90v-90z" />
    <glyph glyph-name="OEsmall" unicode="&#xf6fa;" horiz-adv-x="1002" 
d="M952 507v-80h-358q32 -45 39 -120h246v-77h-245q-3 -101 -43 -150h361v-80h-472q-56 -14 -129 -14q-149 0 -216 59.5t-67 210.5q0 150 67 207.5t216 57.5q80 0 132 -14h469zM351 441q-96 0 -129.5 -35.5t-33.5 -151.5q0 -112 34.5 -150t128.5 -38q95 0 129 38t34 150
q0 116 -33.5 151.5t-129.5 35.5z" />
    <glyph glyph-name="Scaronsmall" unicode="&#xf6fd;" horiz-adv-x="596" 
d="M516 495l-29 -80q-85 26 -177 26q-72 0 -102 -14.5t-30 -60.5q0 -32 30 -46.5t108 -20.5q116 -8 167.5 -42t51.5 -106q0 -91 -61 -128t-186 -37t-219 27l28 80q77 -27 188 -27q73 0 104 15.5t31 62.5q0 35 -29.5 51.5t-111.5 22.5q-112 8 -164.5 38.5t-52.5 101.5
q0 90 63 126.5t188 36.5q97 0 203 -26zM96 697h118l92 -81l88 81h116l-147 -129h-116z" />
    <glyph glyph-name="Zcaronsmall" unicode="&#xf6ff;" horiz-adv-x="594" 
d="M52 507h504v-25q-74 -96 -177.5 -216.5t-165.5 -181.5h339v-84h-520v26q96 99 196 213.5t152 183.5h-328v84zM94 697h119l91 -81l89 81h115l-146 -129h-116z" />
    <glyph glyph-name="exclamsmall" unicode="&#xf721;" horiz-adv-x="395" 
d="M127 507h140l-28 -317h-85zM197 122q47 0 63 -11t16 -49q0 -41 -16 -53.5t-63 -12.5q-45 0 -61.5 12.5t-16.5 53.5q0 38 16 49t62 11z" />
    <glyph glyph-name="ampersandsmall" unicode="&#xf726;" horiz-adv-x="810" 
d="M795 0h-126q-48 60 -64 78q-141 -92 -305 -92q-137 0 -198.5 33t-61.5 117q0 59 41.5 95.5t131.5 40.5q-82 6 -107.5 35.5t-25.5 86.5q0 69 56.5 98t203.5 29q146 0 201.5 -29t55.5 -98q0 -54 -34.5 -86t-119.5 -38q82 -8 171 -82q50 50 70 111h122q-31 -88 -122 -168
q51 -51 111 -131zM304 64q142 0 244 74q-99 95 -214 95q-85 0 -129.5 -18.5t-44.5 -66.5t31.5 -66t112.5 -18zM334 310q80 0 115 14.5t35 53.5q0 37 -29.5 51.5t-113.5 14.5q-85 0 -115.5 -14.5t-30.5 -51.5q0 -40 30.5 -54t108.5 -14z" />
    <glyph glyph-name="zerooldstyle" unicode="&#xf730;" horiz-adv-x="749" 
d="M378 -14q-139 0 -207.5 60.5t-68.5 209.5q0 148 68 206.5t208 58.5t205 -58t65 -207q0 -151 -65 -210.5t-205 -59.5zM378 441q-91 0 -123.5 -36t-32.5 -151q0 -112 33.5 -150t122.5 -38q90 0 120 37t30 151q0 117 -29.5 152t-120.5 35z" />
    <glyph glyph-name="oneoldstyle" unicode="&#xf731;" horiz-adv-x="749" 
d="M510 0h-113v393l-187 -76l-37 79l337 125v-521z" />
    <glyph glyph-name="twooldstyle" unicode="&#xf732;" horiz-adv-x="749" 
d="M151 409l-26 91q100 21 230 21q156 0 216.5 -37t60.5 -123q0 -76 -79.5 -143t-269.5 -138h358v-80h-527v73q168 77 251 125t111.5 80t28.5 70q0 46 -34 65.5t-129 19.5q-43 0 -104.5 -7.5t-86.5 -16.5z" />
    <glyph glyph-name="threeoldstyle" unicode="&#xf733;" horiz-adv-x="749" 
d="M239 137v85h105q95 0 134.5 24.5t39.5 84.5q0 57 -40.5 79t-157.5 22q-133 0 -219 -24l-27 87q140 26 262 26q171 0 241 -41t70 -132q0 -74 -37.5 -116t-141.5 -50q111 -4 153.5 -50.5t42.5 -129.5q0 -113 -77.5 -158.5t-255.5 -45.5q-122 0 -265 27l25 85
q89 -22 225 -22q127 0 171.5 27t44.5 97t-41.5 97.5t-143.5 27.5h-108z" />
    <glyph glyph-name="fouroldstyle" unicode="&#xf734;" horiz-adv-x="749" 
d="M458 0h-420v27q204 306 364 480h174v-426h115v-81h-115v-192h-118v192zM458 81v349q-121 -127 -265 -349h265z" />
    <glyph glyph-name="fiveoldstyle" unicode="&#xf735;" horiz-adv-x="749" 
d="M124 507h495v-87h-379v-188q45 5 118 5q171 0 238.5 -49t67.5 -166q0 -127 -74.5 -176t-252.5 -49q-114 0 -253 27l26 85q87 -22 212 -22t167.5 27.5t42.5 99.5q0 79 -38.5 108t-157.5 29q-121 0 -212 -16v372z" />
    <glyph glyph-name="sixoldstyle" unicode="&#xf736;" horiz-adv-x="749" 
d="M669 686l-32 -90q-77 25 -192 25q-62 0 -102.5 -8t-74 -30t-49.5 -64t-18 -108q87 14 187 14q171 0 239.5 -49.5t68.5 -166.5q0 -126 -70 -174.5t-237 -48.5q-178 0 -248 78t-70 289q0 106 21.5 176.5t69.5 111t115 57t168 16.5q110 0 224 -28zM389 76q106 0 142 27
t36 98q0 77 -36 107t-140 30q-123 0 -192 -14q1 -77 12.5 -126.5t37 -76t57.5 -36t83 -9.5z" />
    <glyph glyph-name="sevenoldstyle" unicode="&#xf737;" horiz-adv-x="749" 
d="M702 507v-33q-90 -121 -200 -318t-172 -348h-138q70 163 169 337.5t179 274.5h-454v87h616z" />
    <glyph glyph-name="eightoldstyle" unicode="&#xf738;" horiz-adv-x="748" 
d="M374 70q101 0 139.5 28.5t38.5 98.5q0 72 -41 102t-137 30t-137 -30t-41 -102q0 -70 38.5 -98.5t139.5 -28.5zM374 410q86 0 123.5 27t37.5 88q0 57 -35.5 80.5t-125.5 23.5t-125.5 -23.5t-35.5 -80.5q0 -61 38 -88t123 -27zM374 -14q-162 0 -234 46t-72 158q0 84 42 131
t154 51q-104 8 -140 50.5t-36 117.5q0 91 64.5 132.5t221.5 41.5t222 -42t65 -132q0 -36 -6.5 -62t-24.5 -50t-54 -38t-90 -18q110 -4 152 -51t42 -131q0 -112 -72 -158t-234 -46z" />
    <glyph glyph-name="nineoldstyle" unicode="&#xf739;" horiz-adv-x="749" 
d="M216 -192q221 164 290 282q-75 -7 -132 -7q-173 0 -240.5 45t-67.5 160q0 127 71 180t236 53q182 0 247 -49.5t65 -192.5q0 -73 -25.5 -141.5t-73 -127.5t-96.5 -105t-116 -97h-158zM383 169q90 0 161 10q13 40 13 87q0 56 -9 89.5t-34 50.5t-55 21.5t-86 4.5
q-105 0 -142 -32t-37 -105q0 -77 37 -101.5t152 -24.5z" />
    <glyph glyph-name="questionsmall" unicode="&#xf73f;" horiz-adv-x="569" 
d="M263 123q48 0 64 -11t16 -49q0 -41 -16.5 -53t-63.5 -12q-45 0 -61 12t-16 53q0 38 16 49t61 11zM316 187h-123q88 53 127 97.5t39 96.5q0 34 -26.5 47.5t-93.5 13.5q-91 0 -151 -17l-22 81q83 17 179 17q130 0 186 -31.5t56 -100.5q0 -61 -38.5 -106t-132.5 -98z" />
    <glyph glyph-name="Asmall" unicode="&#xf761;" horiz-adv-x="658" 
d="M517 0q-34 68 -63 137h-268q-28 -69 -50 -137h-119q67 190 222 507h186q117 -332 215 -507h-123zM341 427h-28q-60 -127 -98 -218h209q-45 110 -83 218z" />
    <glyph glyph-name="Bsmall" unicode="&#xf762;" horiz-adv-x="678" 
d="M201 78h211q44 0 61.5 16.5t17.5 55.5q0 82 -83 82h-207v-154zM201 429v-124h203q41 0 57.5 16.5t16.5 48.5q0 33 -16 46t-58 13h-203zM467 272q81 -3 113 -37t32 -94q0 -141 -172 -141h-352v507h343q95 0 130.5 -31.5t35.5 -89.5q0 -54 -26.5 -81.5t-103.5 -32.5z" />
    <glyph glyph-name="Csmall" unicode="&#xf763;" horiz-adv-x="562" 
d="M516 96l30 -83q-75 -27 -180 -27q-149 0 -223.5 60.5t-74.5 209.5q0 148 74.5 206.5t223.5 58.5q101 0 180 -24l-30 -84q-63 23 -146 23q-50 0 -81 -6.5t-55.5 -25.5t-35 -55.5t-10.5 -94.5q0 -107 42 -145t140 -38q73 0 146 25z" />
    <glyph glyph-name="Dsmall" unicode="&#xf764;" horiz-adv-x="684" 
d="M88 507h233q152 0 223.5 -55t71.5 -196q0 -143 -72 -199.5t-223 -56.5h-233v507zM318 429h-117v-351h117q98 0 138 36t40 140q0 56 -10 90.5t-33.5 53t-54 25t-80.5 6.5z" />
    <glyph glyph-name="Esmall" unicode="&#xf765;" horiz-adv-x="598" 
d="M548 507v-80h-347v-120h272v-77h-272v-150h347v-80h-460v507h460z" />
    <glyph glyph-name="Fsmall" unicode="&#xf766;" horiz-adv-x="558" 
d="M86 0v507h461v-81h-347v-144h272v-77h-272v-205h-114z" />
    <glyph glyph-name="Gsmall" unicode="&#xf767;" horiz-adv-x="673" 
d="M594 287v-266q-109 -35 -222 -35q-151 0 -227.5 60.5t-76.5 209.5q0 147 79.5 206t230.5 59q108 0 194 -24l-32 -82q-69 23 -160 23q-102 0 -147 -36.5t-45 -147.5q0 -107 45 -146t143 -39q64 0 111 14v128h-150v76h257z" />
    <glyph glyph-name="Hsmall" unicode="&#xf768;" horiz-adv-x="685" 
d="M483 231h-283v-231h-114v507h114v-195h283v195h114v-507h-114v231z" />
    <glyph glyph-name="Ismall" unicode="&#xf769;" horiz-adv-x="287" 
d="M201 507v-507h-113v507h113z" />
    <glyph glyph-name="Jsmall" unicode="&#xf76a;" horiz-adv-x="463" 
d="M377 507v-338q0 -183 -217 -183q-93 0 -160 23l26 83q59 -21 125 -21q51 0 81.5 21.5t30.5 80.5v334h114z" />
    <glyph glyph-name="Ksmall" unicode="&#xf76b;" horiz-adv-x="619" 
d="M201 507v-507h-113v507h113zM620 0h-138q-226 250 -281 268q63 39 260 239h138q-183 -188 -254 -230q61 -30 275 -277z" />
    <glyph glyph-name="Lsmall" unicode="&#xf76c;" horiz-adv-x="499" 
d="M201 507v-422h297v-85h-410v507h113z" />
    <glyph glyph-name="Msmall" unicode="&#xf76d;" horiz-adv-x="864" 
d="M437 168q85 186 172 339h167v-507h-112v409q-107 -189 -187 -376h-94q-88 201 -182 376v-409h-113v507h173q97 -173 176 -339z" />
    <glyph glyph-name="Nsmall" unicode="&#xf76e;" horiz-adv-x="689" 
d="M488 153v354h113v-507h-113q-162 230 -288 366v-366h-114v507h113q186 -203 289 -354z" />
    <glyph glyph-name="Osmall" unicode="&#xf76f;" 
d="M351 -14q-149 0 -216 59.5t-67 210.5q0 150 67 207.5t216 57.5q150 0 216.5 -57.5t66.5 -207.5q0 -151 -66.5 -210.5t-216.5 -59.5zM351 440q-96 0 -129.5 -35t-33.5 -151q0 -112 34.5 -149.5t128.5 -37.5q95 0 129 37.5t34 149.5q0 80 -16 119.5t-48.5 53t-98.5 13.5z
" />
    <glyph glyph-name="Psmall" unicode="&#xf770;" horiz-adv-x="664" 
d="M405 429h-205v-162h205q42 0 62.5 18.5t20.5 60.5q0 45 -19.5 64t-63.5 19zM426 193h-226v-193h-114v507h334q99 0 144 -39t45 -122q0 -153 -183 -153z" />
    <glyph glyph-name="Qsmall" unicode="&#xf771;" 
d="M345 -14q-143 0 -210 60t-67 210t67 207.5t216 57.5q150 0 216.5 -57.5t66.5 -207.5q0 -116 -36 -174t-118 -78q79 -13 231 -186h-135q-66 81 -127.5 124.5t-103.5 43.5zM351 441q-96 0 -129.5 -35.5t-33.5 -151.5q0 -112 34.5 -150t128.5 -38q95 0 129 38t34 150
q0 116 -33.5 151.5t-129.5 35.5z" />
    <glyph glyph-name="Rsmall" unicode="&#xf772;" horiz-adv-x="666" 
d="M416 507q188 0 188 -148q0 -132 -171 -135q47 -10 89.5 -51t135.5 -173h-134q-78 120 -125.5 158.5t-100.5 38.5h-98v-197h-114v507h330zM200 274h192q94 0 94 78q0 40 -21.5 57.5t-68.5 17.5h-196v-153z" />
    <glyph glyph-name="Ssmall" unicode="&#xf773;" horiz-adv-x="596" 
d="M516 495l-29 -80q-85 26 -177 26q-72 0 -102 -14.5t-30 -60.5q0 -32 30 -46.5t108 -20.5q116 -8 167.5 -42t51.5 -106q0 -91 -61 -128t-186 -37t-219 27l28 80q77 -27 188 -27q73 0 104 15.5t31 62.5q0 35 -29.5 51.5t-111.5 22.5q-112 8 -164.5 38.5t-52.5 101.5
q0 90 63 126.5t188 36.5q97 0 203 -26z" />
    <glyph glyph-name="Tsmall" unicode="&#xf774;" horiz-adv-x="580" 
d="M346 423v-423h-114v423h-224v84h562v-84h-224z" />
    <glyph glyph-name="Usmall" unicode="&#xf775;" horiz-adv-x="676" 
d="M338 73q82 0 110.5 25.5t28.5 88.5v320h114v-313q0 -117 -56.5 -162.5t-196.5 -45.5t-196.5 45.5t-56.5 162.5v313h113v-320q0 -63 29 -88.5t111 -25.5z" />
    <glyph glyph-name="Vsmall" unicode="&#xf776;" horiz-adv-x="619" 
d="M309 93q113 235 172 414h119q-78 -216 -224 -507h-146q-111 321 -210 507h121q93 -189 168 -414z" />
    <glyph glyph-name="Wsmall" unicode="&#xf777;" horiz-adv-x="986" 
d="M496 386q-57 -197 -137 -386h-147q-98 297 -196 507h124q81 -176 152 -412q36 85 80.5 213t63.5 199h122q60 -146 135 -412q108 246 155 412h120q-91 -272 -208 -507h-148q-60 244 -116 386z" />
    <glyph glyph-name="Xsmall" unicode="&#xf778;" horiz-adv-x="626" 
d="M603 0h-132q-50 67 -147 182q-77 -86 -171 -182h-131q92 87 241 253q-116 133 -240 254h143q84 -88 161 -177q52 58 145 177h130q-121 -149 -212 -250q97 -110 213 -257z" />
    <glyph glyph-name="Ysmall" unicode="&#xf779;" horiz-adv-x="576" 
d="M294 311q76 75 172 196h129q-115 -141 -248 -274v-233h-113v233q-135 160 -253 274h136q74 -73 177 -196z" />
    <glyph glyph-name="Zsmall" unicode="&#xf77a;" horiz-adv-x="594" 
d="M52 507h504v-25q-74 -96 -177.5 -216.5t-165.5 -181.5h339v-84h-520v26q96 99 196 213.5t152 183.5h-328v84z" />
    <glyph glyph-name="exclamdownsmall" unicode="&#xf7a1;" horiz-adv-x="395" 
d="M268 0h-139l27 318h84zM197 385q-47 0 -63 11t-16 49q0 41 16 53.5t63 12.5q45 0 61.5 -12.5t16.5 -53.5q0 -38 -16 -49t-62 -11z" />
    <glyph glyph-name="questiondownsmall" unicode="&#xf7bf;" horiz-adv-x="569" 
d="M289 396q-48 0 -64 11t-16 49q0 41 16.5 53t63.5 12q45 0 61 -12t16 -53q0 -38 -16 -49t-61 -11zM237 332h122q-88 -53 -127 -97.5t-39 -96.5q0 -34 26.5 -47.5t93.5 -13.5q90 0 152 17l21 -81q-83 -17 -179 -17q-130 0 -186 31.5t-56 100.5q0 61 39 106t133 98z" />
    <glyph glyph-name="Agravesmall" unicode="&#xf7e0;" horiz-adv-x="658" 
d="M517 0q-34 68 -63 137h-268q-28 -69 -50 -137h-119q67 190 222 507h186q117 -332 215 -507h-123zM341 427h-28q-60 -127 -98 -218h209q-45 110 -83 218zM441 568h-107l-167 129h130z" />
    <glyph glyph-name="Aacutesmall" unicode="&#xf7e1;" horiz-adv-x="658" 
d="M517 0q-34 68 -63 137h-268q-28 -69 -50 -137h-119q67 190 222 507h186q117 -332 215 -507h-123zM341 427h-28q-60 -127 -98 -218h209q-45 110 -83 218zM340 568h-108l145 129h128z" />
    <glyph glyph-name="Acircumflexsmall" unicode="&#xf7e2;" horiz-adv-x="658" 
d="M517 0q-34 68 -63 137h-268q-28 -69 -50 -137h-119q67 190 222 507h186q117 -332 215 -507h-123zM341 427h-28q-60 -127 -98 -218h209q-45 110 -83 218zM419 568q-14 13 -44.5 39.5t-46.5 41.5q-14 -13 -89 -81h-114q24 22 73 65t73 64h117l151 -129h-120z" />
    <glyph glyph-name="Atildesmall" unicode="&#xf7e3;" horiz-adv-x="658" 
d="M517 0q-34 68 -63 137h-268q-28 -69 -50 -137h-119q67 190 222 507h186q117 -332 215 -507h-123zM341 427h-28q-60 -127 -98 -218h209q-45 110 -83 218zM479 695l62 -41q-41 -92 -134 -92q-35 0 -87 30t-80 30q-40 0 -67 -56l-55 45q28 41 57.5 61t69.5 20t90 -29.5
t76 -29.5q23 0 38 13.5t30 48.5z" />
    <glyph glyph-name="Adieresissmall" unicode="&#xf7e4;" horiz-adv-x="658" 
d="M517 0q-34 68 -63 137h-268q-28 -69 -50 -137h-119q67 190 222 507h186q117 -332 215 -507h-123zM341 427h-28q-60 -127 -98 -218h209q-45 110 -83 218zM208 669q35 0 47.5 -8.5t12.5 -38.5q0 -33 -12.5 -42.5t-47.5 -9.5q-37 0 -49 9.5t-12 42.5q0 30 12 38.5t49 8.5z
M449 669q36 0 48 -8.5t12 -38.5q0 -33 -12 -42.5t-48 -9.5q-37 0 -49 9.5t-12 42.5q0 30 12 38.5t49 8.5z" />
    <glyph glyph-name="Aringsmall" unicode="&#xf7e5;" horiz-adv-x="658" 
d="M517 0q-34 68 -63 137h-268q-28 -69 -50 -137h-119q67 190 222 507h186q117 -332 215 -507h-123zM341 427h-28q-60 -127 -98 -218h209q-45 110 -83 218zM327 739q69 0 102.5 -23t33.5 -73q0 -96 -136 -96q-137 0 -137 96q0 51 31.5 73.5t105.5 22.5zM327 689
q-37 0 -51 -11.5t-14 -35.5t14.5 -36t50.5 -12t51 12t15 36t-14.5 35.5t-51.5 11.5z" />
    <glyph glyph-name="AEsmall" unicode="&#xf7e6;" horiz-adv-x="940" 
d="M816 306v-76h-272v-150h346v-80h-460v138h-278q-68 -86 -108 -138h-128q152 199 433 507h541v-81h-346v-120h272zM403 431q-123 -139 -192 -221h219v221h-27z" />
    <glyph glyph-name="Ccedillasmall" unicode="&#xf7e7;" horiz-adv-x="562" 
d="M516 96l30 -83q-75 -27 -180 -27q-149 0 -223.5 60.5t-74.5 209.5q0 148 74.5 206.5t223.5 58.5q101 0 180 -24l-30 -84q-63 23 -146 23q-50 0 -81 -6.5t-55.5 -25.5t-35 -55.5t-10.5 -94.5q0 -107 42 -145t140 -38q73 0 146 25zM315 0h51v-44q76 0 106 -16.5t30 -60.5
q0 -47 -35 -64.5t-122 -17.5q-80 0 -122 18l24 48q36 -14 95 -14q34 0 47 6t13 24q0 20 -27.5 26t-102.5 2z" />
    <glyph glyph-name="Egravesmall" unicode="&#xf7e8;" horiz-adv-x="598" 
d="M548 507v-80h-347v-120h272v-77h-272v-150h347v-80h-460v507h460zM434 568h-107l-167 129h130z" />
    <glyph glyph-name="Eacutesmall" unicode="&#xf7e9;" horiz-adv-x="598" 
d="M548 507v-80h-347v-120h272v-77h-272v-150h347v-80h-460v507h460zM333 568h-108l145 129h128z" />
    <glyph glyph-name="Ecircumflexsmall" unicode="&#xf7ea;" horiz-adv-x="598" 
d="M548 507v-80h-347v-120h272v-77h-272v-150h347v-80h-460v507h460zM422 568q-20 18 -92 81q-18 -18 -88 -81h-114q25 22 73 65t73 64h116l152 -129h-120z" />
    <glyph glyph-name="Edieresissmall" unicode="&#xf7eb;" horiz-adv-x="598" 
d="M548 507v-80h-347v-120h272v-77h-272v-150h347v-80h-460v507h460zM214 669q36 0 48 -8.5t12 -38.5q0 -33 -12 -42.5t-48 -9.5q-37 0 -49 9.5t-12 42.5q0 30 12 38.5t49 8.5zM455 669q36 0 48 -8.5t12 -38.5q0 -33 -12 -42.5t-48 -9.5q-37 0 -49 9.5t-12 42.5
q0 30 12 38.5t49 8.5z" />
    <glyph glyph-name="Igravesmall" unicode="&#xf7ec;" horiz-adv-x="287" 
d="M201 507v-507h-113v507h113zM225 568h-107l-167 129h130z" />
    <glyph glyph-name="Iacutesmall" unicode="&#xf7ed;" horiz-adv-x="287" 
d="M200 507v-507h-113v507h113zM164 568h-108l145 129h129z" />
    <glyph glyph-name="Icircumflexsmall" unicode="&#xf7ee;" horiz-adv-x="287" 
d="M201 507v-507h-113v507h113zM232 568q-14 13 -44.5 39.5t-46.5 41.5q-14 -13 -89 -81h-114q25 22 73.5 65t72.5 64h117l151 -129h-120z" />
    <glyph glyph-name="Idieresissmall" unicode="&#xf7ef;" horiz-adv-x="287" 
d="M201 507v-507h-113v507h113zM24 669q36 0 48 -8.5t12 -38.5q0 -33 -12 -42.5t-48 -9.5q-37 0 -49 9.5t-12 42.5q0 30 12 38.5t49 8.5zM265 669q36 0 48 -8.5t12 -38.5q0 -33 -12 -42.5t-48 -9.5t-48.5 9.5t-12.5 42.5q0 30 12.5 38.5t48.5 8.5z" />
    <glyph glyph-name="Ethsmall" unicode="&#xf7f0;" horiz-adv-x="684" 
d="M24 230v75h64v202h232q152 0 224 -55t72 -196q0 -143 -72 -199.5t-224 -56.5h-232v230h-64zM318 429h-118v-124h131v-75h-131v-152h118q98 0 138 36t40 140q0 56 -10 90.5t-33.5 53t-54 25t-80.5 6.5z" />
    <glyph glyph-name="Ntildesmall" unicode="&#xf7f1;" horiz-adv-x="689" 
d="M488 153v354h113v-507h-113q-162 230 -288 366v-366h-114v507h113q186 -203 289 -354zM501 695l63 -41q-43 -92 -135 -92q-35 0 -87 30t-80 30q-38 0 -67 -56l-55 45q28 41 57.5 61t69.5 20t90 -29.5t76 -29.5q23 0 38 13.5t30 48.5z" />
    <glyph glyph-name="Ogravesmall" unicode="&#xf7f2;" 
d="M351 -14q-149 0 -216 59.5t-67 210.5q0 150 67 207.5t216 57.5q150 0 216.5 -57.5t66.5 -207.5q0 -151 -66.5 -210.5t-216.5 -59.5zM351 441q-96 0 -129.5 -35.5t-33.5 -151.5q0 -112 34.5 -150t128.5 -38q95 0 129 38t34 150q0 116 -33.5 151.5t-129.5 35.5zM468 568
h-107l-167 129h130z" />
    <glyph glyph-name="Oacutesmall" unicode="&#xf7f3;" 
d="M351 -14q-149 0 -216 59.5t-67 210.5q0 150 67 207.5t216 57.5q150 0 216.5 -57.5t66.5 -207.5q0 -151 -66.5 -210.5t-216.5 -59.5zM351 441q-96 0 -129.5 -35.5t-33.5 -151.5q0 -112 34.5 -150t128.5 -38q95 0 129 38t34 150q0 116 -33.5 151.5t-129.5 35.5zM356 568
h-108l145 129h129z" />
    <glyph glyph-name="Ocircumflexsmall" unicode="&#xf7f4;" 
d="M351 -14q-149 0 -216 59.5t-67 210.5q0 150 67 207.5t216 57.5q150 0 216.5 -57.5t66.5 -207.5q0 -151 -66.5 -210.5t-216.5 -59.5zM351 441q-96 0 -129.5 -35.5t-33.5 -151.5q0 -112 34.5 -150t128.5 -38q95 0 129 38t34 150q0 116 -33.5 151.5t-129.5 35.5zM436 568
q-14 13 -44.5 39.5t-46.5 41.5q-14 -13 -89 -81h-114q22 19 46.5 40.5t54.5 48t46 40.5h116l151 -129h-120z" />
    <glyph glyph-name="Otildesmall" unicode="&#xf7f5;" 
d="M351 -14q-149 0 -216 59.5t-67 210.5q0 150 67 207.5t216 57.5q150 0 216.5 -57.5t66.5 -207.5q0 -151 -66.5 -210.5t-216.5 -59.5zM351 441q-96 0 -129.5 -35.5t-33.5 -151.5q0 -112 34.5 -150t128.5 -38q95 0 129 38t34 150q0 116 -33.5 151.5t-129.5 35.5zM499 695
l62 -41q-41 -92 -134 -92q-35 0 -87 30t-80 30q-40 0 -67 -56l-55 45q54 81 127 81q40 0 89.5 -29.5t75.5 -29.5q23 0 38 13.5t31 48.5z" />
    <glyph glyph-name="Odieresissmall" unicode="&#xf7f6;" 
d="M351 -14q-149 0 -216 59.5t-67 210.5q0 150 67 207.5t216 57.5q150 0 216.5 -57.5t66.5 -207.5q0 -151 -66.5 -210.5t-216.5 -59.5zM351 441q-96 0 -129.5 -35.5t-33.5 -151.5q0 -112 34.5 -150t128.5 -38q95 0 129 38t34 150q0 116 -33.5 151.5t-129.5 35.5zM230 669
q36 0 48 -8.5t12 -38.5q0 -33 -12 -42.5t-48 -9.5q-37 0 -49 9.5t-12 42.5q0 30 12 38.5t49 8.5zM471 669q36 0 48 -8.5t12 -38.5q0 -33 -12 -42.5t-48 -9.5q-37 0 -49 9.5t-12 42.5q0 30 12 38.5t49 8.5z" />
    <glyph glyph-name="Oslashsmall" unicode="&#xf7f8;" 
d="M553 507h115l-75 -73q42 -59 42 -178q0 -151 -67 -210.5t-218 -59.5q-113 0 -180 34l-21 -20h-113l74 73q-42 62 -42 183q0 150 67 207.5t215 57.5q121 0 182 -34zM350 441q-94 0 -127.5 -33.5t-33.5 -141.5q0 -74 7 -107l272 260q-34 22 -118 22zM350 66q96 0 130.5 40
t34.5 146q0 64 -6 95l-273 -258q32 -23 114 -23z" />
    <glyph glyph-name="Ugravesmall" unicode="&#xf7f9;" horiz-adv-x="676" 
d="M338 73q82 0 110.5 25.5t28.5 88.5v320h114v-313q0 -117 -56.5 -162.5t-196.5 -45.5t-196.5 45.5t-56.5 162.5v313h113v-320q0 -63 29 -88.5t111 -25.5zM457 568h-107l-167 129h130z" />
    <glyph glyph-name="Uacutesmall" unicode="&#xf7fa;" horiz-adv-x="676" 
d="M338 73q82 0 110.5 25.5t28.5 88.5v320h114v-313q0 -117 -56.5 -162.5t-196.5 -45.5t-196.5 45.5t-56.5 162.5v313h113v-320q0 -63 29 -88.5t111 -25.5zM332 568h-108l145 129h129z" />
    <glyph glyph-name="Ucircumflexsmall" unicode="&#xf7fb;" horiz-adv-x="676" 
d="M338 73q82 0 110.5 25.5t28.5 88.5v320h114v-313q0 -117 -56.5 -162.5t-196.5 -45.5t-196.5 45.5t-56.5 162.5v313h113v-320q0 -63 29 -88.5t111 -25.5zM422 568q-14 13 -44.5 39.5t-46.5 41.5q-14 -13 -89 -81h-114l147 129h116l151 -129h-120z" />
    <glyph glyph-name="Udieresissmall" unicode="&#xf7fc;" horiz-adv-x="676" 
d="M338 73q82 0 110.5 25.5t28.5 88.5v320h114v-313q0 -117 -56.5 -162.5t-196.5 -45.5t-196.5 45.5t-56.5 162.5v313h113v-320q0 -63 29 -88.5t111 -25.5zM219 669q36 0 48 -8.5t12 -38.5q0 -33 -12 -42.5t-48 -9.5t-48.5 9.5t-12.5 42.5q0 30 12.5 38.5t48.5 8.5zM461 669
q35 0 47.5 -8.5t12.5 -38.5q0 -33 -12.5 -42.5t-47.5 -9.5q-37 0 -49.5 9.5t-12.5 42.5q0 30 12.5 38.5t49.5 8.5z" />
    <glyph glyph-name="Yacutesmall" unicode="&#xf7fd;" horiz-adv-x="576" 
d="M294 311q76 75 172 196h129q-115 -141 -248 -274v-233h-113v233q-135 160 -253 274h136q74 -73 177 -196zM309 568h-108l145 129h128z" />
    <glyph glyph-name="Thornsmall" unicode="&#xf7fe;" horiz-adv-x="664" 
d="M200 101v-101h-114v507h114v-92h220q99 0 144 -39t45 -122q0 -76 -46.5 -114.5t-153.5 -38.5h-209zM405 337h-205v-162h205q42 0 62.5 18.5t20.5 60.5q0 45 -19.5 64t-63.5 19z" />
    <glyph glyph-name="Ydieresissmall" unicode="&#xf7ff;" horiz-adv-x="576" 
d="M294 311q76 75 172 196h129q-115 -141 -248 -274v-233h-113v233q-135 160 -253 274h136q74 -73 177 -196zM174 669q36 0 48 -8.5t12 -38.5q0 -33 -12 -42.5t-48 -9.5q-37 0 -49 9.5t-12 42.5q0 30 12 38.5t49 8.5zM415 669q36 0 48 -8.5t12 -38.5q0 -33 -12 -42.5
t-48 -9.5t-48.5 9.5t-12.5 42.5q0 30 12.5 38.5t48.5 8.5z" />
    <glyph glyph-name="CR" horiz-adv-x="331" 
 />
    <glyph glyph-name="Gcedilla" horiz-adv-x="828" 
d="M610 91v215h-200v85h324v-379q-101 -26 -276 -26q-102 0 -172 18t-120 60t-73 113.5t-23 177.5t24 176.5t76.5 110.5t123 56t174.5 16q131 0 244 -26l-30 -90q-77 24 -206 24q-82 0 -129 -9t-82.5 -37t-49 -81t-13.5 -141t13.5 -142t48.5 -84t82 -40t126 -10q71 0 138 13
zM426 0h51v-44q77 0 107 -16.5t30 -60.5q0 -47 -35.5 -64.5t-122.5 -17.5q-80 0 -122 18l24 48q36 -14 95 -14q34 0 47 6t13 24q0 20 -27.5 26t-102.5 2z" />
    <glyph glyph-name="Idot" horiz-adv-x="348" 
d="M114 697h121v-697h-121v697zM178 857q35 0 47.5 -8.5t12.5 -38.5q0 -33 -12.5 -43t-47.5 -10q-36 0 -49 10t-13 43q0 30 12.5 38.5t49.5 8.5z" />
    <glyph glyph-name="Breve" horiz-adv-x="396" 
d="M143 871h84q0 -37 20.5 -50t67.5 -13q45 0 66 13t21 50h79q0 -132 -169 -132t-169 132z" />
    <glyph glyph-name="Circumflex" horiz-adv-x="804" 
d="M415 831l-90 -84h-113q24 22 73 65t73 64h117l151 -129h-118z" />
    <glyph glyph-name="Dotaccent" horiz-adv-x="383" 
d="M181 857q36 0 48 -8.5t12 -38.5q0 -33 -12 -43t-48 -10t-48.5 10t-12.5 43q0 30 12 38.5t49 8.5z" />
    <glyph glyph-name="gacute" horiz-adv-x="696" 
d="M495 131v290q-61 18 -143 18q-96 0 -130 -35t-34 -150q0 -108 34.5 -145.5t128.5 -37.5q61 0 102.5 16t41.5 44zM495 25q-64 -38 -161 -38q-139 0 -202.5 58.5t-63.5 208.5q0 151 66.5 209t217.5 58q147 0 256 -38v-445q0 -136 -78.5 -188.5t-234.5 -52.5
q-46 0 -107.5 8.5t-97.5 20.5l26 81q83 -27 178 -27q103 0 152 31.5t49 113.5zM354 568h-108l145 129h128z" />
    <glyph glyph-name="ldotaccent" horiz-adv-x="295" 
d="M201 722v-586q0 -37 11.5 -61.5t41.5 -52.5l-96 -44q-37 31 -53.5 65.5t-16.5 88.5v590h113zM315 432q35 0 47.5 -8.5t12.5 -38.5q0 -33 -12.5 -42.5t-47.5 -9.5q-36 0 -48.5 9.5t-12.5 42.5q0 30 12.5 38.5t48.5 8.5z" />
    <glyph glyph-name="Ring" horiz-adv-x="865" 
d="M432 882q137 0 137 -96t-137 -96t-137 96q0 51 31.5 73.5t105.5 22.5zM432 831q-37 0 -51 -11.5t-14 -35.5t14.5 -36t50.5 -12t51 12t15 36t-14.5 35.5t-51.5 11.5z" />
    <glyph glyph-name="Tilde" horiz-adv-x="858" 
d="M634 873l61 -41q-19 -43 -54.5 -67.5t-83.5 -24.5q-34 0 -90 30.5t-83 30.5q-38 0 -66 -55l-54 44q27 40 55.5 59.5t69.5 19.5q39 0 94 -28.5t81 -28.5q44 0 70 61z" />
    <glyph glyph-name="Dmacron" horiz-adv-x="864" 
d="M114 697h288q103 0 173 -16t120.5 -55.5t74 -107t23.5 -167.5q0 -101 -23.5 -169t-73.5 -108t-121 -57t-173 -17h-288v697zM664 350q0 84 -13 135t-47.5 79t-81.5 37t-127 9h-160v-523h160q78 0 126.5 11t82 40.5t47 80t13.5 131.5zM250 762v77h318v-77h-318z" />
    <glyph glyph-name="zerop" horiz-adv-x="753" 
d="M376 714q80 0 134.5 -16t94.5 -56t58.5 -109.5t18.5 -174.5q0 -208 -73 -290t-233 -82q-159 0 -232 82.5t-73 289.5q0 105 18.5 174.5t58.5 109.5t94 56t134 16zM376 77q106 0 144.5 57t38.5 224q0 89 -8.5 141t-32 81t-55 38t-87.5 9q-73 0 -109.5 -18.5t-55 -76
t-18.5 -174.5q0 -114 18 -174.5t56 -83.5t109 -23z" />
    <glyph glyph-name="onep" horiz-adv-x="441" 
d="M327 0h-121v588l-187 -71l-36 82l344 125v-724z" />
    <glyph glyph-name="twop" horiz-adv-x="718" 
d="M119 595l-28 89q127 30 250 30q159 0 232 -45t73 -155q0 -73 -31 -126t-119.5 -120.5t-278.5 -180.5h424v-87h-587v81q139 90 216.5 143.5t133 95.5t76.5 72t28.5 53.5t7.5 61.5q0 66 -41 90.5t-141 24.5q-56 0 -119.5 -7.5t-95.5 -19.5z" />
    <glyph glyph-name="threep" horiz-adv-x="713" 
d="M220 327v85h107q92 0 132 25.5t40 85.5q0 57 -40.5 79t-157.5 22q-129 0 -219 -23l-27 87q152 26 262 26q171 0 241 -41t70 -133q0 -74 -37.5 -117t-141.5 -51q110 -4 153 -51t43 -131q0 -113 -77.5 -158.5t-255.5 -45.5q-122 0 -265 27l26 85q88 -22 225 -22
q127 0 171 27t44 97q0 71 -41.5 99t-143.5 28h-108z" />
    <glyph glyph-name="fourp" horiz-adv-x="713" 
d="M445 191h-420v29q72 108 175 245t190 232h174v-421h115v-85h-115v-191h-119v191zM445 276v341q-66 -70 -143.5 -171.5t-121.5 -169.5h265z" />
    <glyph glyph-name="fivep" horiz-adv-x="730" 
d="M118 697h496v-87h-378v-190q60 5 118 5q170 0 238 -49.5t68 -165.5q0 -127 -74.5 -175.5t-253.5 -48.5q-115 0 -252 27l26 85q87 -22 212 -22t167.5 27t42.5 99q0 79 -39 107.5t-158 28.5q-120 0 -213 -16v375z" />
    <glyph glyph-name="sixp" horiz-adv-x="754" 
d="M669 686l-32 -90q-77 25 -192 25q-62 0 -102.5 -8t-74 -30t-49.5 -64t-18 -108q87 14 187 14q171 0 239.5 -49.5t68.5 -166.5q0 -126 -70 -174.5t-237 -48.5q-178 0 -248 78t-70 289q0 106 21.5 176.5t69.5 111t115 57t168 16.5q110 0 224 -28zM389 76q106 0 142 27
t36 98q0 77 -36 107t-140 30q-123 0 -192 -14q1 -77 12.5 -126.5t37 -76t57.5 -36t83 -9.5z" />
    <glyph glyph-name="sevenp" horiz-adv-x="614" 
d="M633 697v-33q-90 -121 -198.5 -317t-170.5 -347h-139q74 167 170.5 340t174.5 270h-454v87h617z" />
    <glyph glyph-name="eightp" horiz-adv-x="752" 
d="M376 70q101 0 140 28.5t39 98.5q0 72 -40.5 102t-138.5 30q-96 0 -136 -30t-40 -102q0 -70 37.5 -98.5t138.5 -28.5zM376 410q86 0 123.5 27t37.5 88q0 57 -35.5 80.5t-125.5 23.5t-125.5 -23.5t-35.5 -80.5q0 -61 38 -88t123 -27zM376 -14q-162 0 -234 46t-72 158
q0 84 42 131t154 51q-104 8 -140 50.5t-36 117.5q0 91 64.5 132.5t221.5 41.5t222 -42t65 -132q0 -36 -6.5 -62t-24.5 -50t-54 -38t-90 -18q110 -4 152 -51t42 -131q0 -112 -72 -158t-234 -46z" />
    <glyph glyph-name="ninep" horiz-adv-x="748" 
d="M211 0q220 163 292 283q-70 -8 -134 -8q-173 0 -240.5 45t-67.5 161q0 127 71 180t236 53q182 0 247 -49.5t65 -192.5q0 -73 -25.5 -141.5t-73 -128t-97 -105.5t-115.5 -97h-158zM378 362q92 0 161 10q14 42 14 87q0 56 -9.5 89t-34 50t-55.5 22t-86 5q-105 0 -141 -31.5
t-36 -105.5q0 -77 36 -101.5t151 -24.5z" />
    <glyph glyph-name="g.2" horiz-adv-x="696" 
d="M613 491v-131q0 -87 -70.5 -136.5t-196.5 -49.5q-77 0 -125 15q-8 -18 -8 -39q0 -31 35 -44.5t133 -15.5q141 -3 200.5 -33t59.5 -99q0 -87 -77.5 -124t-235.5 -37q-156 0 -250 27l27 85q82 -29 220 -29q108 0 152.5 16t44.5 54q0 34 -32.5 45t-147.5 13q-97 2 -149 16.5
t-69.5 37.5t-17.5 63q0 49 31 90q-66 39 -66 132q0 89 67.5 131.5t215.5 42.5q149 0 259 -30zM501 357v71q-62 12 -149 12q-92 0 -127 -19t-35 -74q0 -54 34.5 -73t123.5 -19q153 0 153 102z" />
    <glyph glyph-name="ct" horiz-adv-x="1028" 
d="M661 170v253q-61 0 -169 7t-125 7q-50 0 -81 -6.5t-54.5 -26t-33.5 -56t-10 -94.5q0 -107 40.5 -145t138.5 -38q80 0 141 23l29 -81q-75 -27 -175 -27q-147 0 -220.5 60.5t-73.5 209.5q0 147 74 206t220 59q23 0 131 -7t168 -7v96l114 39v-135h213v-84h-213v-247
q0 -57 23 -81t80 -24q61 0 109 14l22 -78q-68 -21 -150 -21q-108 0 -153 38t-45 146z" />
    <glyph glyph-name="arrowupleft" horiz-adv-x="851" 
d="M160 142l-36 480l574 -31l-3 -94l-374 22l438 -365l-75 -62l-438 365l28 -311z" />
    <glyph glyph-name="arrowupright" horiz-adv-x="850" 
d="M173 591l574 31l-36 -480l-114 3l27 311l-438 -365l-74 63l438 365l-374 -22z" />
    <glyph glyph-name="arrowdownleft" horiz-adv-x="851" 
d="M124 91l36 480l114 -3l-28 -311l438 365l75 -63l-438 -365l374 22l3 -94z" />
    <glyph glyph-name="arrowdownright" horiz-adv-x="850" 
d="M747 90l-574 32l3 94l374 -22l-438 365l74 62l438 -365l-27 311l114 4z" />
    <glyph glyph-name="dmacron" horiz-adv-x="695" 
d="M376 583v71h119v68h113v-68h56v-71h-56v-558q-107 -39 -256 -39q-151 0 -217.5 58t-66.5 209q0 149 66 208.5t204 59.5q93 0 157 -34v96h-119zM495 88v290q0 28 -41.5 44t-102.5 16q-93 0 -128 -38t-35 -145q0 -114 34 -149.5t130 -35.5q84 0 143 18z" />
    <glyph glyph-name="Ldotaccent" horiz-adv-x="657" 
d="M114 697h121v-608h414v-89h-535v697zM401 442q35 0 47.5 -8.5t12.5 -38.5q0 -33 -12.5 -43t-47.5 -10q-36 0 -48.5 10t-12.5 43q0 30 12.5 38.5t48.5 8.5z" />
    <glyph glyph-name="st" horiz-adv-x="1068" 
d="M702 170v253q-88 1 -230 9.5t-162 8.5q-72 0 -102 -14.5t-30 -60.5q0 -32 30 -46.5t108 -20.5q116 -8 167.5 -42t51.5 -106q0 -91 -61 -128t-186 -37t-219 27l28 80q77 -27 188 -27q73 0 104 15.5t31 62.5q0 35 -29.5 51.5t-111.5 22.5q-112 8 -164.5 38.5t-52.5 101.5
q0 90 63 126.5t188 36.5q22 0 168 -7t221 -7v96l112 39v-135h214v-84h-214v-247q0 -57 23.5 -81t81.5 -24q60 0 108 14l23 -78q-70 -21 -150 -21q-108 0 -153 38t-45 146z" />
    <glyph glyph-name="orn1" horiz-adv-x="695" 
d="M353 -68q-16 26 -46 43t-61 24.5t-65 22t-60 35t-43 64.5t-17 109q0 105 41.5 156.5t118.5 51.5q59 0 132 -30q73 30 134 30q76 0 118 -51t42 -156q0 -64 -18 -108t-46 -64t-63 -35t-67 -22.5t-60 -25t-40 -44.5zM353 327q-57 31 -94 31q-78 0 -78 -129q0 -50 12.5 -80
t33 -42t42.5 -18.5t46 -18t38 -32.5q13 21 36.5 32.5t46 18t44 18.5t34.5 42t13 80q0 68 -16.5 97.5t-53.5 29.5q-38 0 -104 -29zM352 423q9 21 9 47q0 42 -27.5 71t-74.5 29h-259v77h695v-77h-292q24 -20 24 -52q0 -27 -19 -53t-56 -42z" />
    <glyph glyph-name="orn2" horiz-adv-x="695" 
d="M342 -68q-12 27 -40 44.5t-59.5 25t-66.5 22.5t-63 35t-46 64t-18 108q0 207 159 207q60 0 134 -30q73 30 133 30q75 0 117 -51.5t42 -156.5q0 -65 -17 -109t-43 -64.5t-60 -35t-65 -22t-61 -24.5t-46 -43zM343 423q-38 16 -56.5 41.5t-18.5 53.5q0 32 24 52h-292v77h695
v-77h-259q-47 0 -74.5 -29t-27.5 -71q0 -26 9 -47z" />
    <glyph glyph-name="orn3" horiz-adv-x="695" 
d="M353 648q12 -27 40 -44.5t60 -25t67 -22.5t63 -35t46 -64t18 -108q0 -105 -42 -156t-118 -51q-61 0 -134 30q-76 -31 -132 -31q-76 0 -118 52t-42 157q0 65 17 109t43 64t60 35t65 22t61 24.5t46 43.5zM353 253q68 -30 104 -30t53 29.5t17 97.5q0 42 -9.5 70.5t-24.5 41
t-35 21.5t-38.5 13.5t-37 16t-29.5 29.5q-14 -21 -38 -33t-46 -18.5t-42.5 -18.5t-33 -41.5t-12.5 -79.5q0 -129 78 -129q40 0 94 31zM352 156q37 -15 56 -41t19 -53q0 -33 -24 -52h292v-78h-695v78h259q47 0 74.5 29t27.5 71q0 27 -9 46z" />
    <glyph glyph-name="orn4" horiz-adv-x="695" 
d="M342 648q16 -26 46 -43.5t61 -24.5t65 -22t60 -35t43 -64t17 -109q0 -105 -42 -157t-117 -52q-57 0 -133 31q-74 -30 -134 -30q-159 0 -159 207q0 64 18 108t46 64t63 35t66.5 22.5t59.5 25t40 44.5zM343 156q-9 -19 -9 -46q0 -42 27.5 -71t74.5 -29h259v-78h-695v78h292
q-24 20 -24 52q0 28 19 53.5t56 40.5z" />
    <glyph glyph-name="orn5" horiz-adv-x="964" 
d="M20 285q37 15 58 47t34.5 64t37 62.5t80.5 50t149 19.5q125 0 187 -34.5t62 -97.5q0 -50 -36 -111q36 -64 36 -111q0 -133 -248 -133q-91 0 -147.5 21t-80 53t-37 65t-35.5 63t-60 42zM494 285q38 47 38 78q0 65 -154 65q-60 0 -96 -10t-50.5 -27t-22 -35.5t-22 -38.5
t-39.5 -32q25 -11 39 -30.5t22 -38t22 -36t50.5 -28.5t96.5 -11q81 0 116.5 14t35.5 44q0 31 -36 86zM610 286q29 -8 57 -8q50 0 85 23t35 63v216h92v-580h-92v243q-27 -20 -63 -20q-75 0 -114 63z" />
    <glyph glyph-name="orn6" horiz-adv-x="964" 
d="M20 295q28 9 47 27t30 40t21.5 47t28 47.5t44.5 41.5t75 30t114 11q248 0 248 -133q0 -48 -36 -111q36 -63 36 -111q0 -132 -249 -132q-78 0 -131 14t-77.5 35.5t-42.5 50t-26.5 54.5t-29.5 51t-52 38zM610 294q19 31 50.5 46.5t63.5 15.5q38 0 63 -19v243h92v-580h-92
v216q0 39 -35 62t-85 23q-32 0 -57 -7z" />
    <glyph glyph-name="orn7" horiz-adv-x="964" 
d="M944 286q-28 -9 -46.5 -27.5t-29.5 -40.5t-22 -46.5t-28.5 -47.5t-44 -41.5t-74.5 -29.5t-114 -11q-249 0 -249 132q0 48 36 112q-36 64 -36 111q0 63 62.5 97.5t188.5 34.5q92 0 148.5 -19.5t79.5 -50t36.5 -62.5t34.5 -64t58 -47zM470 286q-36 -56 -36 -87
q0 -30 36 -43.5t117 -13.5q60 0 96 11t50.5 28.5t22 36t22 38t39.5 30.5q-25 12 -39.5 32t-22 38t-22 35t-50 27.5t-95.5 10.5q-155 0 -155 -65q0 -33 37 -78zM354 287q-39 -63 -113 -63q-40 0 -62 20v-243h-94v579h94v-216q0 -40 34.5 -62.5t85.5 -22.5q31 0 55 8z" />
    <glyph glyph-name="orn8" horiz-adv-x="964" 
d="M944 295q-37 -15 -58 -47t-34.5 -64t-36.5 -62.5t-79.5 -50t-148.5 -19.5q-126 0 -188.5 35t-62.5 98q0 46 36 110q-36 64 -36 112q0 63 61.5 98t187.5 35q66 0 114 -11t74.5 -30t44 -41.5t28.5 -47.5t22 -47t29.5 -40.5t46.5 -27.5zM354 294q-24 8 -55 8
q-51 0 -85.5 -22.5t-34.5 -62.5v-216h-94v579h94v-243q22 20 62 20q74 0 113 -63z" />
    <glyph glyph-name="publish" horiz-adv-x="1027" 
d="M945 353q0 -107 -26 -178.5t-82 -113t-133 -58.5t-191 -17t-191.5 17t-133 58.5t-81 113t-25.5 178.5q0 106 25.5 176t81.5 111t133 57.5t191 16.5q113 0 190.5 -16.5t133.5 -57t82 -111t26 -176.5zM638 419q0 74 -64 74h-143v-144h139q38 0 53 17.5t15 52.5zM749 420
q0 -67 -37.5 -107t-112.5 -40h-168v-137h-104v433h270q79 0 115.5 -40.5t36.5 -108.5zM512 639q-94 0 -150 -10.5t-97 -41.5t-57.5 -87t-16.5 -148q0 -90 16.5 -146t57 -88t98 -44t149.5 -12q93 0 151 12t99 44t57.5 88t16.5 146q0 92 -16.5 148t-58 87t-98 41.5
t-151.5 10.5z" />
    <glyph glyph-name="zerob" horiz-adv-x="918" 
d="M459 618q-119 0 -172.5 -56t-53.5 -206q0 -153 54 -214t172 -61q117 0 170.5 61t53.5 214q0 150 -53 206t-171 56zM458 147q-77 0 -106.5 43t-29.5 166q0 86 14 129t41 56.5t81 13.5q55 0 82 -13.5t40.5 -56t13.5 -129.5q0 -124 -28.5 -166.5t-107.5 -42.5zM459 714
q103 0 172.5 -16.5t120 -57.5t73.5 -111t23 -176q0 -107 -23 -178.5t-73 -113t-120 -58.5t-173 -17t-172.5 17t-120 58.5t-73.5 113t-23 178.5q0 106 23 176t73.5 111t120 57.5t172.5 16.5z" />
    <glyph glyph-name="oneb" horiz-adv-x="918" 
d="M431 95h89v534l-253 -93l26 -58l138 52v-435zM459 714q103 0 172.5 -16.5t120 -57.5t73.5 -111t23 -176q0 -107 -23 -178.5t-73 -113t-120 -58.5t-173 -17t-172.5 17t-120 58.5t-73.5 113t-23 178.5q0 106 23 176t73.5 111t120 57.5t172.5 16.5z" />
    <glyph glyph-name="twob" horiz-adv-x="918" 
d="M459 714q103 0 172.5 -16.5t120 -57.5t73.5 -111t23 -176q0 -107 -23 -178.5t-73 -113t-120 -58.5t-173 -17t-172.5 17t-120 58.5t-73.5 113t-23 178.5q0 106 23 176t73.5 111t120 57.5t172.5 16.5zM258 598l20 -64q55 19 158 19q74 0 105 -18t31 -67q0 -28 -5.5 -45.5
t-21 -40t-57 -53.5t-98 -70t-160.5 -107v-59h432v64h-315q141 84 207 134t88.5 88.5t22.5 93.5q0 81 -53.5 114t-170.5 33q-95 0 -183 -22z" />
    <glyph glyph-name="threeb" horiz-adv-x="918" 
d="M369 396v-63h79q76 0 107 -21t31 -73t-32.5 -72t-127.5 -20q-101 0 -166 16l-18 -61q105 -21 195 -21q131 0 188 34t57 117q0 62 -31.5 97t-112.5 38q76 5 102 36.5t26 87.5q0 67 -51.5 97t-177.5 30q-81 0 -191 -19l20 -63q62 17 160 17q87 0 117.5 -16.5t30.5 -58.5
q0 -45 -29 -63.5t-98 -18.5h-78zM459 714q103 0 172.5 -16.5t120 -57.5t73.5 -111t23 -176q0 -107 -23 -178.5t-73 -113t-120 -58.5t-173 -17t-172.5 17t-120 58.5t-73.5 113t-23 178.5q0 106 23 176t73.5 111t120 57.5t172.5 16.5z" />
    <glyph glyph-name="fourb" horiz-adv-x="918" 
d="M198 233h311v-142h87v142h85v61h-85v312h-128q-130 -144 -270 -353v-20zM509 548v-254h-198q104 155 198 254zM459 714q103 0 172.5 -16.5t120 -57.5t73.5 -111t23 -176q0 -107 -23 -178.5t-73 -113t-120 -58.5t-173 -17t-172.5 17t-120 58.5t-73.5 113t-23 178.5
q0 106 23 176t73.5 111t120 57.5t172.5 16.5z" />
    <glyph glyph-name="fiveb" horiz-adv-x="918" 
d="M639 603h-365v-275q63 12 157 12q87 0 116 -21.5t29 -80.5q0 -53 -31 -73t-125 -20q-92 0 -156 16l-19 -61q93 -21 186 -21q131 0 186 36t55 129q0 86 -49.5 122.5t-175.5 36.5q-52 0 -88 -4v139h280v65zM459 714q103 0 172.5 -16.5t120 -57.5t73.5 -111t23 -176
q0 -107 -23 -178.5t-73 -113t-120 -58.5t-173 -17t-172.5 17t-120 58.5t-73.5 113t-23 178.5q0 106 23 176t73.5 111t120 57.5t172.5 16.5z" />
    <glyph glyph-name="sixb" horiz-adv-x="918" 
d="M645 532l21 66q-80 20 -164 20q-148 0 -212 -56.5t-64 -209.5q0 -155 51.5 -213t182.5 -58q123 0 175 36t52 129q0 86 -50.5 122.5t-176.5 36.5q-82 0 -140 -11q5 97 45 127t138 30q85 0 142 -19zM593 240q0 -53 -27 -73t-106 -20q-75 0 -107 37t-33 148q62 10 134 10
q83 0 111 -22t28 -80zM459 714q103 0 172.5 -16.5t120 -57.5t73.5 -111t23 -176q0 -107 -23 -178.5t-73 -113t-120 -58.5t-173 -17t-172.5 17t-120 58.5t-73.5 113t-23 178.5q0 106 23 176t73.5 111t120 57.5t172.5 16.5z" />
    <glyph glyph-name="sevenb" horiz-adv-x="918" 
d="M341 91h93q122 280 270 515h-460v-66h331q-60 -97 -125.5 -221t-108.5 -228zM459 714q103 0 172.5 -16.5t120 -57.5t73.5 -111t23 -176q0 -107 -23 -178.5t-73 -113t-120 -58.5t-173 -17t-172.5 17t-120 58.5t-73.5 113t-23 178.5q0 106 23 176t73.5 111t120 57.5
t172.5 16.5z" />
    <glyph glyph-name="eightb" horiz-adv-x="918" 
d="M459 143q-75 0 -103.5 21t-28.5 73q0 53 30 75.5t102 22.5t102 -22.5t30 -75.5q0 -52 -28.5 -73t-103.5 -21zM459 394q-64 0 -92 20t-28 66q0 42 26.5 59t93.5 17q66 0 92.5 -17t26.5 -59q0 -46 -27.5 -66t-91.5 -20zM459 81q118 0 171 34t53 117q0 62 -30.5 97
t-112.5 38q77 5 103.5 36.5t26.5 87.5q0 66 -48 96.5t-163 30.5q-116 0 -163.5 -30.5t-47.5 -96.5q0 -56 26 -87.5t103 -36.5q-82 -3 -113 -38t-31 -97q0 -83 53.5 -117t172.5 -34zM459 714q103 0 172.5 -16.5t120 -57.5t73.5 -111t23 -176q0 -107 -23 -178.5t-73 -113
t-120 -58.5t-173 -17t-172.5 17t-120 58.5t-73.5 113t-23 178.5q0 106 23 176t73.5 111t120 57.5t172.5 16.5z" />
    <glyph glyph-name="nineb" horiz-adv-x="918" 
d="M458 297q40 0 100 5q-53 -88 -217 -209h117q49 38 85.5 72t71.5 78t54 94.5t19 104.5q0 105 -48 141.5t-182 36.5q-122 0 -174 -39t-52 -133q0 -86 49 -118.5t177 -32.5zM596 432q0 -34 -12 -65q-58 -8 -120 -8q-85 0 -111.5 18.5t-26.5 76.5q0 55 26.5 78.5t105.5 23.5
q80 0 109 -22.5t29 -101.5zM459 -14q-103 0 -173 17t-120 58.5t-73 113t-23 178.5q0 106 23 176t73.5 111t120 57.5t172.5 16.5t172.5 -16.5t120 -57.5t73.5 -111t23 -176q0 -107 -23 -178.5t-73.5 -113t-120 -58.5t-172.5 -17z" />
    <glyph glyph-name="apple" horiz-adv-x="1104" 
d="M338 -14q-138 0 -204 60t-66 209q0 68 19.5 116t52.5 74.5t74.5 43.5t89 30.5t91.5 28.5t87 44t70 71q31 -48 82.5 -80t103 -45t106 -32.5t96 -43t68 -76t26.5 -131.5q0 -149 -66 -209t-204 -60q-92 0 -156 35v-213h-114v213q-64 -35 -156 -35zM608 505v-375
q0 -28 41 -44.5t102 -16.5q94 0 129 38t35 145q0 59 -18 96.5t-51.5 56.5t-69.5 30t-84.5 28.5t-83.5 41.5zM494 130v375q-35 -24 -83.5 -41.5t-84 -28.5t-69 -30t-51.5 -56.5t-18 -96.5q0 -107 34.5 -145t128.5 -38q61 0 102 16.5t41 44.5z" />
    <glyph glyph-name="sp" horiz-adv-x="1289" 
d="M680 -192v591q-200 42 -370 42q-72 0 -102 -14.5t-30 -60.5q0 -32 30 -46.5t108 -20.5q116 -8 167.5 -42t51.5 -106q0 -91 -61 -128t-186 -37t-219 27l28 80q77 -27 188 -27q73 0 104 15.5t31 62.5q0 35 -29.5 51.5t-111.5 22.5q-112 8 -164.5 38.5t-52.5 101.5
q0 90 63 126.5t188 36.5q182 0 367 -38q109 38 256 38q151 0 217 -57.5t66 -208.5q0 -149 -66 -209t-204 -60q-94 0 -156 36v-214h-113zM793 419v-289q0 -28 41 -44.5t102 -16.5q94 0 129 38t35 146q0 113 -34 148.5t-130 35.5q-86 0 -143 -18z" />
    <glyph glyph-name="at.2" horiz-adv-x="1125" 
d="M806 435v-299q-110 -40 -257 -40q-138 0 -192.5 35.5t-54.5 133.5q0 43 12 73.5t31 48t50 28t62 13.5t74 3q74 0 166 -15q0 81 -32.5 106.5t-141.5 25.5q-83 0 -136 -6.5t-94.5 -23.5t-63 -50t-32 -81t-10.5 -122q0 -60 7.5 -102.5t25.5 -75t45 -53t71 -33t97.5 -17.5
t129.5 -5q115 0 186 12.5t116.5 46t62.5 87t17 140.5q0 115 -26 171h108q25 -66 25 -171q0 -110 -27 -181.5t-89.5 -113t-150.5 -58t-222 -16.5q-133 0 -221 17t-150.5 59t-90.5 113.5t-28 179.5q0 107 27 178.5t86.5 112.5t141 57.5t201.5 16.5q154 0 215.5 -41t61.5 -154z
M697 193v155q-63 10 -136 10q-76 0 -108.5 -16.5t-32.5 -71.5t29 -76t106 -21q79 0 142 20z" />
    <glyph glyph-name="ampersand.2" horiz-adv-x="893" 
d="M720 327v-297q-56 -20 -145 -32t-163 -12q-158 0 -240 47t-82 157q0 84 43 131t154 51q-102 8 -137 49t-35 117q0 90 69.5 133t215.5 43q91 0 184 -25l-34 -87q-65 22 -141 22q-93 0 -129 -23t-36 -78q0 -59 36 -85t121 -26h203v95l116 38v-133h162v-85h-162zM604 94v233
h-207q-95 0 -135 -28.5t-40 -98.5q0 -68 44.5 -96t154.5 -28q114 0 183 18z" />
    <glyph glyph-name="Abrevesmall" horiz-adv-x="658" 
d="M517 0q-34 68 -63 137h-268q-28 -69 -50 -137h-119q67 190 222 507h186q117 -332 215 -507h-123zM341 427h-28q-60 -127 -98 -218h209q-45 110 -83 218zM161 697h84q0 -37 20.5 -50t67.5 -13q45 0 66 13t21 50h79q0 -132 -169 -132t-169 132z" />
    <glyph glyph-name="Amacronsmall" horiz-adv-x="658" 
d="M517 0q-34 68 -63 137h-268q-28 -69 -50 -137h-119q67 190 222 507h186q117 -332 215 -507h-123zM341 427h-28q-60 -127 -98 -218h209q-45 110 -83 218zM168 581v74h318v-74h-318z" />
    <glyph glyph-name="Aogoneksmall" horiz-adv-x="658" 
d="M517 0q-34 68 -63 137h-268q-28 -69 -50 -137h-119q67 190 222 507h186q117 -332 215 -507h-123zM341 427h-28q-60 -127 -98 -218h209q-45 110 -83 218zM569 12h44q-64 -33 -86 -56t-22 -54q0 -23 16.5 -33t61.5 -10q61 0 105 29l38 -56q-55 -35 -153 -35
q-88 0 -122 21.5t-34 67.5q0 41 38.5 75t113.5 51z" />
    <glyph glyph-name="bracketleftsmall" horiz-adv-x="422" 
d="M106 647h282v-83h-163v-626h163v-82h-282v791z" />
    <glyph glyph-name="braceleftsmall" horiz-adv-x="405" 
d="M38 211v-1v77q58 0 90 32t32 119q0 96 49 148.5t130 68.5q8 -12 23 -35.5t23 -35.5q-62 -13 -90 -47t-28 -120q0 -85 -32.5 -123t-74.5 -45q42 -7 74.5 -45.5t32.5 -123.5q0 -86 27.5 -119.5t90.5 -46.5q-5 -8 -21 -32.5t-25 -37.5q-81 16 -130 68.5t-49 147.5
q0 87 -32 119t-90 32z" />
    <glyph glyph-name="Dcaronsmall" horiz-adv-x="684" 
d="M88 507h233q152 0 223.5 -55t71.5 -196q0 -143 -72 -199.5t-223 -56.5h-233v507zM318 429h-117v-351h117q98 0 138 36t40 140q0 56 -10 90.5t-33.5 53t-54 25t-80.5 6.5zM117 697h119l91 -81l89 81h115l-147 -129h-116z" />
    <glyph glyph-name="Dcroatsmall" horiz-adv-x="684" 
d="M24 230v75h64v202h232q152 0 224 -55t72 -196q0 -143 -72 -199.5t-224 -56.5h-232v230h-64zM318 429h-118v-124h131v-75h-131v-152h118q98 0 138 36t40 140q0 56 -10 90.5t-33.5 53t-54 25t-80.5 6.5z" />
    <glyph glyph-name="Dmacronsmall" horiz-adv-x="684" 
d="M88 507h233q152 0 223.5 -55t71.5 -196q0 -143 -72 -199.5t-223 -56.5h-233v507zM318 429h-117v-351h117q98 0 138 36t40 140q0 56 -10 90.5t-33.5 53t-54 25t-80.5 6.5zM158 581v74h318v-74h-318z" />
    <glyph glyph-name="Emacronsmall" horiz-adv-x="598" 
d="M548 507v-80h-347v-120h272v-77h-272v-150h347v-80h-460v507h460zM162 581v74h318v-74h-318z" />
    <glyph glyph-name="Eurosmall" horiz-adv-x="569" 
d="M510 89l30 -76q-75 -27 -178 -27q-147 0 -220.5 60.5t-73.5 209.5q0 147 74 206t220 59q99 0 178 -24l-30 -77q-59 22 -142 22q-71 0 -110 -17.5t-56 -64.5h250v-63h-263q-1 -13 -1 -43q0 -26 1 -37h263v-63h-250q16 -49 55.5 -68.5t110.5 -19.5q81 0 142 23z" />
    <glyph glyph-name="Eogoneksmall" horiz-adv-x="598" 
d="M548 507v-80h-347v-120h272v-77h-272v-150h347v-80h-460v507h460zM461 12h45q-65 -33 -86.5 -56t-21.5 -54q0 -23 16.5 -33t61.5 -10q60 0 104 29l38 -56q-55 -35 -153 -35q-87 0 -121.5 21.5t-34.5 67.5q0 41 38.5 75t113.5 51z" />
    <glyph glyph-name="Ecaronsmall" horiz-adv-x="598" 
d="M548 507v-80h-347v-120h272v-77h-272v-150h347v-80h-460v507h460zM135 697h119l91 -81l89 81h115l-147 -129h-116z" />
    <glyph glyph-name="Edotaccentsmall" horiz-adv-x="598" 
d="M548 507v-80h-347v-120h272v-77h-272v-150h347v-80h-460v507h460zM335 669q36 0 48 -8.5t12 -38.5q0 -33 -12 -42.5t-48 -9.5q-35 0 -48 10t-13 42q0 29 12.5 38t48.5 9z" />
    <glyph glyph-name="Ebrevesmall" horiz-adv-x="598" 
d="M548 507v-80h-347v-120h272v-77h-272v-150h347v-80h-460v507h460zM161 697h84q0 -37 20.5 -50t67.5 -13q45 0 66 13t21 50h80q0 -132 -170 -132q-169 0 -169 132z" />
    <glyph glyph-name="Gacutesmall" horiz-adv-x="673" 
d="M594 287v-266q-109 -35 -222 -35q-151 0 -227.5 60.5t-76.5 209.5q0 147 79.5 206t230.5 59q108 0 194 -24l-32 -82q-69 23 -160 23q-102 0 -147 -36.5t-45 -147.5q0 -107 45 -146t143 -39q64 0 111 14v128h-150v76h257zM358 568h-108l146 129h128z" />
    <glyph glyph-name="Gbrevesmall" horiz-adv-x="673" 
d="M594 287v-266q-109 -35 -222 -35q-151 0 -227.5 60.5t-76.5 209.5q0 147 79.5 206t230.5 59q108 0 194 -24l-32 -82q-69 23 -160 23q-102 0 -147 -36.5t-45 -147.5q0 -107 45 -146t143 -39q64 0 111 14v128h-150v76h257zM199 697h84q0 -37 20.5 -50t66.5 -13t67 13t21 50
h79q0 -132 -169 -132t-169 132z" />
    <glyph glyph-name="Gcircumflexsmall" horiz-adv-x="673" 
d="M594 287v-266q-109 -35 -222 -35q-151 0 -227.5 60.5t-76.5 209.5q0 147 79.5 206t230.5 59q108 0 194 -24l-32 -82q-69 23 -160 23q-102 0 -147 -36.5t-45 -147.5q0 -107 45 -146t143 -39q64 0 111 14v128h-150v76h257zM457 568q-14 13 -44.5 39.5t-46.5 41.5
q-14 -13 -89 -81h-114q25 22 73 65t73 64h117l151 -129h-120z" />
    <glyph glyph-name="Gcommaaccentsmall" horiz-adv-x="673" 
d="M594 287v-266q-109 -35 -222 -35q-151 0 -227.5 60.5t-76.5 209.5q0 147 79.5 206t230.5 59q108 0 194 -24l-32 -82q-69 23 -160 23q-102 0 -147 -36.5t-45 -147.5q0 -107 45 -146t143 -39q64 0 111 14v128h-150v76h257zM441 -51l-125 -167h-91l85 167h131z" />
    <glyph glyph-name="Gdotaccentsmall" horiz-adv-x="673" 
d="M594 287v-266q-109 -35 -222 -35q-151 0 -227.5 60.5t-76.5 209.5q0 147 79.5 206t230.5 59q108 0 194 -24l-32 -82q-69 23 -160 23q-102 0 -147 -36.5t-45 -147.5q0 -107 45 -146t143 -39q64 0 111 14v128h-150v76h257zM364 669q36 0 48 -8.5t12 -38.5q0 -33 -12 -42.5
t-48 -9.5q-35 0 -48 10t-13 42q0 29 12.5 38t48.5 9z" />
    <glyph glyph-name="Germandblssmall" horiz-adv-x="1191" 
d="M1111 495l-29 -80q-85 26 -176 26q-72 0 -102 -14.5t-30 -60.5q0 -32 30 -46.5t108 -20.5q116 -8 167 -42t51 -106q0 -91 -61 -128t-186 -37t-219 27l28 80q77 -27 188 -27q73 0 104 15.5t31 62.5q0 35 -29.5 51.5t-111.5 22.5q-112 8 -164.5 38.5t-52.5 101.5
q0 90 63 126.5t188 36.5q97 0 203 -26zM516 495l-29 -80q-85 26 -177 26q-72 0 -102 -14.5t-30 -60.5q0 -32 30 -46.5t108 -20.5q116 -8 167.5 -42t51.5 -106q0 -91 -61 -128t-186 -37t-219 27l28 80q77 -27 188 -27q73 0 104 15.5t31 62.5q0 35 -29.5 51.5t-111.5 22.5
q-112 8 -164.5 38.5t-52.5 101.5q0 90 63 126.5t188 36.5q97 0 203 -26z" />
    <glyph glyph-name="Hbarsmall" horiz-adv-x="685" 
d="M13 385v68h74v54h113v-54h285v54h112v-54h75v-68h-75v-385h-112v231h-285v-231h-113v385h-74zM200 313h285v72h-285v-72z" />
    <glyph glyph-name="Hcircumflexsmall" horiz-adv-x="685" 
d="M483 231h-283v-231h-114v507h114v-195h283v195h114v-507h-114v231zM433 568q-14 13 -44.5 39.5t-46.5 41.5q-14 -13 -89 -81h-114q24 22 73 65t73 64h117l151 -129h-120z" />
    <glyph glyph-name="IJsmall" horiz-adv-x="750" 
d="M201 507v-507h-113v507h113zM664 507v-338q0 -183 -217 -183q-91 0 -160 23l27 83q58 -21 124 -21q51 0 81.5 21.5t30.5 80.5v334h114z" />
    <glyph glyph-name="Imacronsmall" horiz-adv-x="287" 
d="M201 507v-507h-113v507h113zM-14 581v74h318v-74h-318z" />
    <glyph glyph-name="Iogoneksmall" horiz-adv-x="287" 
d="M200 507v-507h-112v507h112zM140 12h45q-65 -33 -86.5 -56t-21.5 -54q0 -23 16.5 -33t61.5 -10q61 0 104 29l39 -56q-57 -35 -154 -35q-87 0 -121.5 21.5t-34.5 67.5q0 41 38.5 75t113.5 51z" />
    <glyph glyph-name="Itildesmall" horiz-adv-x="287" 
d="M200 507v-507h-113v507h113zM297 695l63 -41q-43 -92 -135 -92q-35 0 -87 30t-80 30q-38 0 -67 -56l-55 45q28 41 57.5 61t69.5 20t90 -29.5t76 -29.5q23 0 38 13.5t30 48.5z" />
    <glyph glyph-name="Jcircumflexsmall" horiz-adv-x="463" 
d="M377 507v-338q0 -183 -217 -183q-93 0 -160 23l26 83q59 -21 125 -21q51 0 81.5 21.5t30.5 80.5v334h114zM404 568q-14 13 -44.5 39.5t-46.5 41.5q-14 -13 -89 -81h-114q22 19 46.5 40.5t54.5 48t46 40.5h116l151 -129h-120z" />
    <glyph glyph-name="Kcommaaccentsmall" horiz-adv-x="619" 
d="M201 507v-507h-113v507h113zM620 0h-138q-226 250 -281 268q63 39 260 239h138q-183 -188 -254 -230q61 -30 275 -277zM419 -51l-125 -167h-91l85 167h131z" />
    <glyph glyph-name="Lacutesmall" horiz-adv-x="499" 
d="M201 507v-422h297v-85h-410v507h113zM214 568h-108l145 129h129z" />
    <glyph glyph-name="Lcaronsmall" horiz-adv-x="499" 
d="M201 507v-422h297v-85h-410v507h113zM303 544h110l-67 -192h-68z" />
    <glyph glyph-name="Lcommaaccentsmall" horiz-adv-x="499" 
d="M201 507v-422h297v-85h-410v507h113zM362 -51l-125 -167h-91l85 167h131z" />
    <glyph glyph-name="Ldotsmall" horiz-adv-x="499" 
d="M201 507v-422h297v-85h-410v507h113zM342 362q36 0 48 -8.5t12 -38.5q0 -33 -12 -42.5t-48 -9.5q-35 0 -48 10t-13 42q0 29 12.5 38t48.5 9z" />
    <glyph glyph-name="Nacutesmall" horiz-adv-x="689" 
d="M488 153v354h113v-507h-113q-162 230 -288 366v-366h-114v507h113q186 -203 289 -354zM361 568h-108l145 129h128z" />
    <glyph glyph-name="Ncaronsmall" horiz-adv-x="689" 
d="M488 153v354h113v-507h-113q-162 230 -288 366v-366h-114v507h113q186 -203 289 -354zM142 697h119l91 -81l89 81h115l-146 -129h-116z" />
    <glyph glyph-name="Ncommaaccentsmall" horiz-adv-x="689" 
d="M488 153v354h113v-507h-113q-162 230 -288 366v-366h-114v507h113q186 -203 289 -354zM421 -51l-125 -167h-91l85 167h131z" />
    <glyph glyph-name="Obrevesmall" 
d="M351 -14q-149 0 -216 59.5t-67 210.5q0 150 67 207.5t216 57.5q150 0 216.5 -57.5t66.5 -207.5q0 -151 -66.5 -210.5t-216.5 -59.5zM351 440q-96 0 -129.5 -35t-33.5 -151q0 -112 34.5 -149.5t128.5 -37.5q95 0 129 37.5t34 149.5q0 80 -16 119.5t-48.5 53t-98.5 13.5z
M182 697h84q0 -37 20 -50t66 -13q47 0 68 13t21 50h79q0 -132 -170 -132q-168 0 -168 132z" />
    <glyph glyph-name="Ohungarumlautsmall" 
d="M351 -14q-149 0 -216 59.5t-67 210.5q0 150 67 207.5t216 57.5q150 0 216.5 -57.5t66.5 -207.5q0 -151 -66.5 -210.5t-216.5 -59.5zM351 440q-96 0 -129.5 -35t-33.5 -151q0 -112 34.5 -149.5t128.5 -37.5q95 0 129 37.5t34 149.5q0 80 -16 119.5t-48.5 53t-98.5 13.5z
M267 568h-84l106 129h110zM450 568h-84l104 129h112z" />
    <glyph glyph-name="Omacronsmall" 
d="M351 -14q-149 0 -216 59.5t-67 210.5q0 150 67 207.5t216 57.5q150 0 216.5 -57.5t66.5 -207.5q0 -151 -66.5 -210.5t-216.5 -59.5zM351 440q-96 0 -129.5 -35t-33.5 -151q0 -112 34.5 -149.5t128.5 -37.5q95 0 129 37.5t34 149.5q0 80 -16 119.5t-48.5 53t-98.5 13.5z
M193 581v74h318v-74h-318z" />
    <glyph glyph-name="parenleftsmall" horiz-adv-x="385" 
d="M82 250q0 328 242 406l53 -73q-176 -49 -176 -333q0 -282 176 -333l-53 -72q-242 78 -242 405z" />
    <glyph glyph-name="Racutesmall" horiz-adv-x="666" 
d="M416 507q188 0 188 -148q0 -132 -171 -135q47 -10 89.5 -51t135.5 -173h-134q-78 120 -125.5 158.5t-100.5 38.5h-98v-197h-114v507h330zM200 274h192q94 0 94 78q0 40 -21.5 57.5t-68.5 17.5h-196v-153zM318 568h-108l145 129h128z" />
    <glyph glyph-name="Rcaronsmall" horiz-adv-x="666" 
d="M416 507q188 0 188 -148q0 -132 -171 -135q47 -10 89.5 -51t135.5 -173h-134q-78 120 -125.5 158.5t-100.5 38.5h-98v-197h-114v507h330zM200 274h192q94 0 94 78q0 40 -21.5 57.5t-68.5 17.5h-196v-153zM132 697h118l92 -81l88 81h116l-147 -129h-116z" />
    <glyph glyph-name="Rcommaaccentsmall" horiz-adv-x="666" 
d="M416 507q188 0 188 -148q0 -132 -171 -135q47 -10 89.5 -51t135.5 -173h-134q-78 120 -125.5 158.5t-100.5 38.5h-98v-197h-114v507h330zM200 274h192q94 0 94 78q0 40 -21.5 57.5t-68.5 17.5h-196v-153zM417 -51l-125 -167h-91l85 167h131z" />
    <glyph glyph-name="sterlingsmall" horiz-adv-x="615" 
d="M48 211v74h64v65q0 171 267 171q113 0 199 -22l-26 -79q-64 19 -173 19q-84 0 -118.5 -23.5t-34.5 -74.5v-56h182v-74h-182v-129h334v-82h-448v211h-64z" />
    <glyph glyph-name="summationsmall" horiz-adv-x="595" 
d="M554 423h-328q42 -57 140 -168q-120 -139 -153 -171h339v-84h-520v26q71 73 203 229q-115 135 -185 227v25h504v-84z" />
    <glyph glyph-name="Tbarsmall" horiz-adv-x="580" 
d="M132 198v74h100v151h-224v84h562v-84h-225v-151h105v-74h-105v-198h-113v198h-100z" />
    <glyph glyph-name="Tcommaaccentsmall" horiz-adv-x="580" 
d="M346 423v-423h-114v423h-224v84h562v-84h-224zM366 -51l-125 -167h-91l85 167h131z" />
    <glyph glyph-name="Tcaronsmall" horiz-adv-x="580" 
d="M346 423v-423h-114v423h-224v84h562v-84h-224zM84 697h118l92 -81l88 81h116l-147 -129h-116z" />
    <glyph glyph-name="Utildesmall" horiz-adv-x="676" 
d="M338 73q82 0 110.5 25.5t28.5 88.5v320h114v-313q0 -117 -56.5 -162.5t-196.5 -45.5t-196.5 45.5t-56.5 162.5v313h113v-320q0 -63 29 -88.5t111 -25.5zM488 695l63 -41q-43 -92 -135 -92q-35 0 -87 30t-80 30q-38 0 -67 -56l-55 45q28 41 57.5 61t69.5 20t90 -29.5
t76 -29.5q23 0 38 13.5t30 48.5z" />
    <glyph glyph-name="Uringsmall" horiz-adv-x="676" 
d="M338 73q82 0 110.5 25.5t28.5 88.5v320h114v-313q0 -117 -56.5 -162.5t-196.5 -45.5t-196.5 45.5t-56.5 162.5v313h113v-320q0 -63 29 -88.5t111 -25.5zM339 739q137 0 137 -96t-137 -96q-136 0 -136 96q0 51 31 73.5t105 22.5zM339 689q-36 0 -50 -11.5t-14 -35.5
t14 -36t50 -12q37 0 51.5 12t14.5 36t-14.5 35.5t-51.5 11.5z" />
    <glyph glyph-name="Uogoneksmall" horiz-adv-x="676" 
d="M338 73q82 0 110.5 25.5t28.5 88.5v320h114v-313q0 -117 -56.5 -162.5t-196.5 -45.5t-196.5 45.5t-56.5 162.5v313h113v-320q0 -63 29 -88.5t111 -25.5zM423 12h45q-65 -33 -86.5 -56t-21.5 -54q0 -23 16.5 -33t61.5 -10q60 0 104 29l39 -56q-57 -35 -154 -35
q-87 0 -121.5 21.5t-34.5 67.5q0 41 38.5 75t113.5 51z" />
    <glyph glyph-name="Umacronsmall" horiz-adv-x="676" 
d="M338 73q82 0 110.5 25.5t28.5 88.5v320h114v-313q0 -117 -56.5 -162.5t-196.5 -45.5t-196.5 45.5t-56.5 162.5v313h113v-320q0 -63 29 -88.5t111 -25.5zM183 581v74h318v-74h-318z" />
    <glyph glyph-name="Ubrevesmall" horiz-adv-x="676" 
d="M338 73q82 0 110.5 25.5t28.5 88.5v320h114v-313q0 -117 -56.5 -162.5t-196.5 -45.5t-196.5 45.5t-56.5 162.5v313h113v-320q0 -63 29 -88.5t111 -25.5zM173 697h84q0 -37 20 -50t67 -13q46 0 67 13t21 50h79q0 -132 -169 -132t-169 132z" />
    <glyph glyph-name="Uhungarumlautsmall" horiz-adv-x="676" 
d="M338 73q82 0 110.5 25.5t28.5 88.5v320h114v-313q0 -117 -56.5 -162.5t-196.5 -45.5t-196.5 45.5t-56.5 162.5v313h113v-320q0 -63 29 -88.5t111 -25.5zM259 568h-84l106 129h110zM441 568h-84l105 129h111z" />
    <glyph glyph-name="yensmall" horiz-adv-x="576" 
d="M65 222v55h133q-104 121 -216 230h133q57 -55 179 -196q86 86 173 196h127q-103 -122 -208 -230h123v-55h-162v-65h162v-54h-162v-103h-113v103h-169v54h169v65h-169z" />
    <glyph glyph-name="Ycircumflexsmall" horiz-adv-x="576" 
d="M294 311q76 75 172 196h129q-115 -141 -248 -274v-233h-113v233q-135 160 -253 274h136q74 -73 177 -196zM385 568q-14 13 -44.5 39.5t-46.5 41.5q-14 -13 -89 -81h-114q22 19 46.5 40.5t54.5 48t46 40.5h116l151 -129h-120z" />
    <glyph glyph-name="zerosmall" horiz-adv-x="664" 
d="M331 -14q-132 0 -195.5 60t-63.5 210q0 149 63.5 207t195.5 58q133 0 197 -58t64 -207q0 -150 -64 -210t-197 -60zM331 441q-53 0 -81 -13.5t-43 -54t-15 -119.5q0 -110 31 -149t108 -39q78 0 109.5 38.5t31.5 149.5q0 114 -30.5 150.5t-110.5 36.5z" />
    <glyph glyph-name="onesmall" horiz-adv-x="663" 
d="M446 0h-114v393l-187 -76l-36 79l337 125v-521z" />
    <glyph glyph-name="twosmall" horiz-adv-x="664" 
d="M116 409l-28 91q100 21 217 21q144 0 204.5 -38t60.5 -122q0 -75 -65.5 -134.5t-256.5 -146.5h328v-80h-498v73q173 91 245.5 136.5t94.5 73t22 67.5q0 45 -32.5 64t-115.5 19q-41 0 -95.5 -7.5t-80.5 -16.5z" />
    <glyph glyph-name="foursmall" horiz-adv-x="663" 
d="M398 129h-354v32q117 155 301 346h166v-299h114v-79h-114v-129h-113v129zM398 208v229q-122 -127 -204 -229h204z" />
    <glyph glyph-name="fivesmall" horiz-adv-x="663" 
d="M112 507h449v-82h-335v-118q58 4 104 4q137 0 196 -37.5t59 -122.5q0 -92 -69 -128.5t-220 -36.5q-143 0 -222 20l25 80q76 -19 192 -19q97 0 137.5 18.5t40.5 62.5q0 49 -37.5 69.5t-127.5 20.5q-110 0 -192 -12v281z" />
    <glyph glyph-name="sixsmall" horiz-adv-x="664" 
d="M618 148q0 -91 -62.5 -126.5t-204.5 -35.5q-150 0 -213.5 56t-63.5 213q0 147 79 206.5t244 59.5q97 0 199 -23l-28 -81q-82 22 -170 22q-114 0 -160 -28t-50 -112q93 12 174 12q140 0 198 -36.5t58 -126.5zM500 150q0 53 -31.5 71.5t-122.5 18.5q-90 0 -158 -11
q1 -101 39 -133.5t122 -32.5q89 0 120 19t31 68z" />
    <glyph glyph-name="sevensmall" horiz-adv-x="664" 
d="M67 507h556v-22q-85 -98 -171.5 -231t-146.5 -254h-131q130 238 284 423h-391v84z" />
    <glyph glyph-name="eightsmall" horiz-adv-x="664" 
d="M331 65q96 0 130 18t34 67q0 46 -38.5 64.5t-125.5 18.5q-86 0 -124.5 -18.5t-38.5 -64.5q0 -49 34 -67t129 -18zM331 -14q-151 0 -216 33t-65 117q0 128 163 134q-83 6 -114.5 37.5t-31.5 86.5q0 68 58.5 97.5t205.5 29.5t205.5 -29.5t58.5 -97.5q0 -55 -32 -86.5
t-115 -37.5q164 -7 164 -134q0 -84 -65 -117t-216 -33zM331 310q80 0 115.5 15t35.5 53q0 37 -32.5 51.5t-118.5 14.5t-118 -14.5t-32 -51.5q0 -39 35 -53.5t115 -14.5z" />
    <glyph glyph-name="ninesmall" horiz-adv-x="663" 
d="M306 189q-139 0 -195 36.5t-56 125.5q0 92 64.5 131.5t207.5 39.5q155 0 218 -45t63 -154q0 -41 -16.5 -80.5t-39.5 -69t-64.5 -63.5t-72.5 -55.5t-83 -54.5h-159q95 56 175.5 114t98.5 85q-100 -10 -141 -10zM488 325q0 67 -35.5 93.5t-122.5 26.5q-93 0 -124.5 -22
t-31.5 -73q0 -53 28 -68.5t123 -15.5q64 0 148 10q14 26 15 49z" />
    <glyph glyph-name="threesmall" horiz-adv-x="663" 
d="M210 234v75h91q80 0 113.5 14t33.5 51q0 36 -33 50.5t-121 14.5q-106 0 -182 -21l-26 83q92 20 209 20q148 0 210 -29.5t62 -97.5q0 -55 -33.5 -86.5t-117.5 -37.5q164 -6 164 -134q0 -84 -68 -117t-221 -33q-122 0 -211 20l26 85q73 -22 184 -22q99 0 134 18t35 66
q0 45 -36 63t-122 18h-91z" />
    <glyph glyph-name="atsmall" horiz-adv-x="875" 
d="M399 457q-70 0 -110.5 -7t-69.5 -29.5t-40 -61t-11 -103.5q0 -122 55 -162t213 -40q157 0 214.5 46.5t57.5 178.5q0 95 -23 152h99q21 -49 21 -154q0 -166 -86.5 -229.5t-282.5 -63.5q-198 0 -283 58t-85 215q0 154 79 211.5t246 57.5q65 0 104 -6.5t69.5 -28t42.5 -61.5
t12 -106q0 -63 -9.5 -100.5t-34 -58.5t-58 -28t-91.5 -7q-106 0 -146 25t-40 100t39 100.5t134 25.5q70 0 114 -6q-4 47 -32.5 64.5t-97.5 17.5zM436 319q-57 0 -75.5 -11t-18.5 -49q0 -39 19 -51.5t74 -12.5q54 0 74 18t20 69v32q-70 5 -93 5z" />
    <glyph glyph-name="backslashsmall" horiz-adv-x="512" 
d="M-7 507h128l396 -507h-127z" />
    <glyph glyph-name="slashsmall" horiz-adv-x="513" 
d="M388 507h130l-399 -507h-127z" />
    <glyph glyph-name="barsmall" horiz-adv-x="409" 
d="M144 640h121v-775h-121v775z" />
    <glyph glyph-name="bracketrightsmall" horiz-adv-x="422" 
d="M34 647h282v-791h-282v82h163v626h-163v83z" />
    <glyph glyph-name="bracerightsmall" horiz-adv-x="405" 
d="M367 286v1v-76q-58 0 -90.5 -32.5t-32.5 -119.5q0 -95 -49 -147.5t-129 -68.5l-46 70q62 13 90 47t28 120q0 85 32 123t74 46q-41 7 -73.5 45t-32.5 124t-27.5 119.5t-90.5 47.5l46 69q80 -16 129 -68.5t49 -147.5q0 -87 32.5 -119.5t90.5 -32.5z" />
    <glyph glyph-name="Cdotaccentsmall" horiz-adv-x="562" 
d="M516 96l30 -83q-75 -27 -180 -27q-149 0 -223.5 60.5t-74.5 209.5q0 148 74.5 206.5t223.5 58.5q101 0 180 -24l-30 -84q-63 23 -146 23q-50 0 -81 -6.5t-55.5 -25.5t-35 -55.5t-10.5 -94.5q0 -107 42 -145t140 -38q73 0 146 25zM356 669q36 0 48 -8.5t12 -38.5
q0 -33 -12 -42.5t-48 -9.5t-48.5 9.5t-12.5 42.5q0 30 12.5 38.5t48.5 8.5z" />
    <glyph glyph-name="Cacutesmall" horiz-adv-x="562" 
d="M516 96l30 -83q-75 -27 -180 -27q-149 0 -223.5 60.5t-74.5 209.5q0 148 74.5 206.5t223.5 58.5q101 0 180 -24l-30 -84q-63 23 -146 23q-50 0 -81 -6.5t-55.5 -25.5t-35 -55.5t-10.5 -94.5q0 -107 42 -145t140 -38q73 0 146 25zM350 568h-108l145 129h129z" />
    <glyph glyph-name="Ccaronsmall" horiz-adv-x="562" 
d="M516 96l30 -83q-75 -27 -180 -27q-149 0 -223.5 60.5t-74.5 209.5q0 148 74.5 206.5t223.5 58.5q101 0 180 -24l-30 -84q-63 23 -146 23q-50 0 -81 -6.5t-55.5 -25.5t-35 -55.5t-10.5 -94.5q0 -107 42 -145t140 -38q73 0 146 25zM144 697h118l92 -81l88 81h116l-147 -129
h-116z" />
    <glyph glyph-name="centsmall" horiz-adv-x="534" 
d="M245 521h73v-75q62 -3 113 -18l-25 -63q-32 12 -88 16v-247q46 3 88 17l25 -62q-46 -16 -113 -20v-83h-73v85q-89 9 -134.5 52t-45.5 136q0 91 45.5 134t134.5 51v77zM162 258q0 -107 83 -118v236q-42 -5 -62.5 -32.5t-20.5 -85.5z" />
    <glyph glyph-name="daggersmall" horiz-adv-x="520" 
d="M36 430v77h174v148h98v-148h176v-77h-176v-241h-98v241h-174z" />
    <glyph glyph-name="degreesmall" horiz-adv-x="416" 
d="M208 521q94 0 134 -34t40 -128q0 -96 -40 -132.5t-134 -36.5t-134 36.5t-40 132.5q0 94 40 128t134 34zM208 248q50 0 66.5 22.5t16.5 86.5q0 65 -16 86t-67 21q-49 0 -66 -21t-17 -86q0 -63 17.5 -86t65.5 -23z" />
    <glyph glyph-name="dollarsmall" horiz-adv-x="646" 
d="M284 617h76v-105q94 0 179 -20l-26 -76q-50 15 -153 19v-141q103 -11 150.5 -46t47.5 -102q0 -135 -198 -153v-109h-76v109q-112 0 -189 19l30 78q69 -17 159 -19v150q-101 9 -148.5 41t-47.5 98q0 135 196 151v106zM195 364q0 -28 20 -42.5t69 -20.5v133q-89 -8 -89 -70
zM453 144q0 29 -20.5 45.5t-72.5 23.5v-141q93 8 93 72z" />
    <glyph glyph-name="numbersignsmall" horiz-adv-x="693" 
d="M49 320l6 71h127l10 116h101l-9 -116h135l8 116h102l-10 -116h137l-6 -71h-135l-10 -121h139l-6 -69h-138l-11 -130h-100l9 130h-134l-10 -130h-102l11 130h-126l6 69h125l9 121h-128zM278 320l-9 -121h134l10 121h-135z" />
    <glyph glyph-name="parenrightsmall" horiz-adv-x="385" 
d="M303 250q0 -327 -243 -406l-53 72q178 51 178 334q0 282 -178 333l53 72q243 -79 243 -405z" />
    <glyph glyph-name="percentsmall" horiz-adv-x="928" 
d="M627 507h108l-437 -507h-107zM208 521q94 0 134 -34t40 -128q0 -96 -40 -132.5t-134 -36.5t-134 36.5t-40 132.5q0 94 40 128t134 34zM208 248q50 0 66.5 22.5t16.5 86.5q0 65 -16 86t-67 21q-49 0 -66 -21t-17 -86q0 -63 17.5 -86t65.5 -23zM720 318q95 0 134.5 -34.5
t39.5 -128.5q0 -96 -40 -132.5t-134 -36.5t-134 36.5t-40 132.5q0 94 40 128.5t134 34.5zM720 44q50 0 66.5 23t16.5 86q0 66 -16 86.5t-67 20.5q-49 0 -65.5 -21t-16.5 -86q0 -62 17 -85.5t65 -23.5z" />
    <glyph glyph-name="sectionsmall" horiz-adv-x="562" 
d="M479 502l-25 -64q-60 17 -148 17q-139 0 -139 -52q0 -23 26.5 -34t100.5 -15q106 -6 157.5 -32t51.5 -80q0 -38 -35 -70q30 -22 30 -65q0 -121 -243 -121q-88 0 -173 18l25 65q59 -18 148 -18q139 0 139 53q0 23 -26.5 34t-100.5 15q-106 6 -157.5 32t-51.5 80
q0 37 32 71q-27 23 -27 64q0 121 243 121q94 0 173 -19zM168 305q-10 -17 -10 -37q0 -22 30 -34t98 -17q63 -3 108 -14q10 18 10 34q0 23 -30 35.5t-100 17.5q-71 5 -106 15z" />
    <glyph glyph-name="Sacutesmall" horiz-adv-x="596" 
d="M516 495l-29 -80q-85 26 -177 26q-72 0 -102 -14.5t-30 -60.5q0 -32 30 -46.5t108 -20.5q116 -8 167.5 -42t51.5 -106q0 -91 -61 -128t-186 -37t-219 27l28 80q77 -27 188 -27q73 0 104 15.5t31 62.5q0 35 -29.5 51.5t-111.5 22.5q-112 8 -164.5 38.5t-52.5 101.5
q0 90 63 126.5t188 36.5q97 0 203 -26zM297 568h-108l145 129h129z" />
    <glyph glyph-name="Scedillasmall" horiz-adv-x="596" 
d="M516 495l-29 -80q-85 26 -177 26q-72 0 -102 -14.5t-30 -60.5q0 -32 30 -46.5t108 -20.5q116 -8 167.5 -42t51.5 -106q0 -91 -61 -128t-186 -37t-219 27l28 80q77 -27 188 -27q73 0 104 15.5t31 62.5q0 35 -29.5 51.5t-111.5 22.5q-112 8 -164.5 38.5t-52.5 101.5
q0 90 63 126.5t188 36.5q97 0 203 -26zM258 0h50v-44q77 0 107 -16.5t30 -60.5q0 -47 -35 -64.5t-122 -17.5q-81 0 -123 18l24 48q36 -14 95 -14q34 0 47 6t13 24q0 20 -27.5 26t-102.5 2z" />
    <glyph glyph-name="Scircumflexsmall" horiz-adv-x="596" 
d="M516 495l-29 -80q-85 26 -177 26q-72 0 -102 -14.5t-30 -60.5q0 -32 30 -46.5t108 -20.5q116 -8 167.5 -42t51.5 -106q0 -91 -61 -128t-186 -37t-219 27l28 80q77 -27 188 -27q73 0 104 15.5t31 62.5q0 35 -29.5 51.5t-111.5 22.5q-112 8 -164.5 38.5t-52.5 101.5
q0 90 63 126.5t188 36.5q97 0 203 -26zM397 568q-14 13 -44.5 39.5t-46.5 41.5q-14 -13 -89 -81h-114q24 22 72.5 65t73.5 64h117l151 -129h-120z" />
    <glyph glyph-name="Scommaaccentsmall" horiz-adv-x="596" 
d="M516 495l-29 -80q-85 26 -177 26q-72 0 -102 -14.5t-30 -60.5q0 -32 30 -46.5t108 -20.5q116 -8 167.5 -42t51.5 -106q0 -91 -61 -128t-186 -37t-219 27l28 80q77 -27 188 -27q73 0 104 15.5t31 62.5q0 35 -29.5 51.5t-111.5 22.5q-112 8 -164.5 38.5t-52.5 101.5
q0 90 63 126.5t188 36.5q97 0 203 -26zM381 -51l-125 -167h-91l85 167h131z" />
    <glyph glyph-name="Wcircumflexsmall" horiz-adv-x="986" 
d="M496 386q-57 -197 -137 -386h-147q-98 297 -196 507h124q81 -176 152 -412q36 85 80.5 213t63.5 199h122q60 -146 135 -412q108 246 155 412h120q-91 -272 -208 -507h-148q-60 244 -116 386zM584 568q-20 18 -92 81q-18 -18 -88 -81h-114q25 22 73.5 65t72.5 64h116
l152 -129h-120z" />
    <glyph glyph-name="Zacutesmall" horiz-adv-x="594" 
d="M52 507h504v-25q-74 -96 -177.5 -216.5t-165.5 -181.5h339v-84h-520v26q96 99 196 213.5t152 183.5h-328v84zM332 568h-108l145 129h129z" />
    <glyph glyph-name="Zdotaccentsmall" horiz-adv-x="594" 
d="M52 507h504v-25q-74 -96 -177.5 -216.5t-165.5 -181.5h339v-84h-520v26q96 99 196 213.5t152 183.5h-328v84zM303 669q36 0 48 -8.5t12 -38.5q0 -33 -12 -42.5t-48 -9.5q-35 0 -48 10t-13 42q0 29 12.5 38t48.5 9z" />
    <glyph glyph-name="zeroop" horiz-adv-x="682" 
d="M345 -14q-140 0 -208.5 60.5t-68.5 209.5q0 148 68.5 206.5t208.5 58.5t204.5 -58t64.5 -207q0 -151 -65 -210.5t-204 -59.5zM345 441q-62 0 -93.5 -13.5t-47.5 -54t-16 -119.5q0 -112 33.5 -150t123.5 -38t119.5 37t29.5 151q0 81 -13.5 120t-43.5 53t-92 14z" />
    <glyph glyph-name="oneop" horiz-adv-x="424" 
d="M336 0h-113v393l-187 -76l-37 79l337 125v-521z" />
    <glyph glyph-name="twoop" horiz-adv-x="658" 
d="M103 409l-27 91q103 21 230 21q156 0 216.5 -37t60.5 -123q0 -76 -79 -143t-269 -138h357v-80h-527v73q168 77 251.5 125t111.5 80t28 70q0 46 -34 65.5t-129 19.5q-42 0 -103.5 -7.5t-86.5 -16.5z" />
    <glyph glyph-name="threeop" horiz-adv-x="691" 
d="M198 137v85h107q93 0 132.5 24.5t39.5 84.5q0 57 -40.5 79t-157.5 22q-131 0 -219 -24l-27 87q140 26 262 26q172 0 241.5 -41t69.5 -132q0 -75 -37.5 -116.5t-141.5 -49.5q111 -4 153.5 -50.5t42.5 -129.5q0 -113 -77.5 -158.5t-255.5 -45.5q-122 0 -265 27l26 85
q88 -22 225 -22q127 0 171 27t44 97q0 71 -41.5 98t-143.5 27h-108z" />
    <glyph glyph-name="fourop" horiz-adv-x="685" 
d="M438 0h-419v27q197 299 362 480h174v-426h116v-81h-116v-192h-117v192zM438 81v349q-114 -121 -265 -349h265z" />
    <glyph glyph-name="fiveop" horiz-adv-x="712" 
d="M104 507h495v-87h-379v-188q45 5 118 5q170 0 238 -49.5t68 -165.5q0 -127 -74.5 -176t-252.5 -49q-116 0 -253 27l26 85q87 -22 212 -22t167.5 27.5t42.5 99.5q0 79 -39 108t-157 29q-122 0 -212 -16v372z" />
    <glyph glyph-name="sixop" horiz-adv-x="761" 
d="M666 686q-3 -10 -9.5 -28.5t-11.5 -33.5t-9 -28q-80 25 -192 25q-60 0 -92 -7q-78 -12 -113 -56t-41 -147q89 14 187 14q171 0 239.5 -49.5t68.5 -166.5q0 -126 -69.5 -174.5t-237.5 -48.5q-178 0 -248 78t-70 289q0 106 22 176.5t70 111t115 57t167 16.5q112 0 224 -28z
M386 76q106 0 142.5 27t36.5 98q0 77 -36.5 107t-140.5 30q-45 0 -69 -1q-62 -3 -123 -13q1 -77 13 -126t37 -76t57 -36.5t83 -9.5z" />
    <glyph glyph-name="sevenop" horiz-adv-x="602" 
d="M606 507v-33q-91 -122 -201 -319.5t-171 -346.5h-139q72 164 170.5 338.5t177.5 273.5h-454v87h617z" />
    <glyph glyph-name="eightop" horiz-adv-x="748" 
d="M374 70q101 0 140 28.5t39 98.5q0 72 -40.5 102t-138.5 30q-96 0 -136 -30t-40 -102q0 -70 37.5 -98.5t138.5 -28.5zM374 410q86 0 123.5 27t37.5 88q0 57 -35.5 80.5t-125.5 23.5t-125.5 -23.5t-35.5 -80.5q0 -61 38 -88t123 -27zM374 -14q-162 0 -234 46t-72 158
q0 84 42 131t154 51q-104 8 -140 50.5t-36 117.5q0 91 64.5 132.5t221.5 41.5t222 -42t65 -132q0 -36 -6.5 -62t-24.5 -50t-54 -38t-90 -18q110 -4 152 -51t42 -131q0 -112 -72 -158t-234 -46z" />
    <glyph glyph-name="nineop" horiz-adv-x="755" 
d="M218 -192q221 164 290 282q-75 -7 -132 -7q-173 0 -240.5 45t-67.5 160q0 127 71 180t236 53q182 0 247 -49.5t65 -192.5q0 -73 -25.5 -141.5t-73 -127.5t-96.5 -105t-116 -97h-158zM385 169q90 0 161 10q13 40 13 87q0 56 -9 89.5t-34 50.5t-55 21.5t-86 4.5
q-105 0 -142 -32t-37 -105q0 -77 37 -101.5t152 -24.5z" />
    <glyph glyph-name="two.alt" horiz-adv-x="717" 
d="M115 595l-28 89q127 30 252 30q159 0 231.5 -44.5t72.5 -154.5q0 -78 -46 -128t-151 -91q-58 -22 -92 -39t-67 -41t-51 -55.5t-25 -73.5h427v-87h-582q7 67 29 120.5t48.5 88t70 65.5t78 47.5t87.5 38.5q76 32 110 63t34 86q0 66 -40 89.5t-142 23.5q-56 0 -120 -7.5
t-96 -19.5z" />
    <glyph glyph-name="Ccircumflexsmall" horiz-adv-x="561" 
d="M516 96l30 -83q-75 -27 -180 -27q-149 0 -223.5 60.5t-74.5 209.5q0 148 74.5 206.5t223.5 58.5q101 0 180 -24l-30 -84q-63 23 -146 23q-50 0 -81 -6.5t-55.5 -25.5t-35 -55.5t-10.5 -94.5q0 -107 42 -145t140 -38q73 0 146 25zM436 568q-14 13 -44.5 39.5t-46.5 41.5
q-14 -13 -89 -81h-114q22 19 46.5 40.5t54.5 48t46 40.5h116l151 -129h-120z" />
    <glyph glyph-name="ccaront" horiz-adv-x="1028" 
d="M661 170v253q-61 0 -169 7t-125 7q-50 0 -81 -6.5t-54.5 -26t-33.5 -56t-10 -94.5q0 -107 40.5 -145t138.5 -38q80 0 141 23l29 -81q-75 -27 -175 -27q-147 0 -220.5 60.5t-73.5 209.5q0 147 74 206t220 59q23 0 131 -7t168 -7v96l114 39v-135h213v-84h-213v-247
q0 -57 23 -81t80 -24q61 0 109 14l22 -78q-68 -21 -150 -21q-108 0 -153 38t-45 146zM153 697h119l91 -81l89 81h115l-146 -129h-117z" />
    <glyph glyph-name="scaront" horiz-adv-x="1068" 
d="M702 170v253q-88 1 -230 9.5t-162 8.5q-72 0 -102 -14.5t-30 -60.5q0 -32 30 -46.5t108 -20.5q116 -8 167.5 -42t51.5 -106q0 -91 -61 -128t-186 -37t-219 27l28 80q77 -27 188 -27q73 0 104 15.5t31 62.5q0 35 -29.5 51.5t-111.5 22.5q-112 8 -164.5 38.5t-52.5 101.5
q0 90 63 126.5t188 36.5q22 0 168 -7t221 -7v96l112 39v-135h214v-84h-214v-247q0 -57 23.5 -81t81.5 -24q60 0 108 14l23 -78q-70 -21 -150 -21q-108 0 -153 38t-45 146zM100 697h119l91 -81l89 81h115l-146 -129h-116z" />
    <glyph glyph-name="ampersandsmall.2" horiz-adv-x="797" 
d="M777 235h-156v-219q-136 -30 -259 -30q-153 0 -220.5 33t-67.5 117q0 130 162 136q-84 5 -117 33.5t-33 81.5q0 69 63 101.5t209 32.5q117 0 210 -20l-26 -83q-78 21 -182 21q-89 0 -122 -14t-33 -50q0 -37 33.5 -51t113.5 -14h425v-75zM194 155q0 -48 35.5 -67
t133.5 -19q88 0 151 14v152h-168q-82 0 -117 -18.5t-35 -61.5z" />
    <glyph glyph-name="man" horiz-adv-x="629" 
d="M414 419v-611h-91v372h-16v-372h-91v611q-27 -1 -35 -10.5t-8 -37.5v-191h-113v194q0 83 49 109t205 26t205.5 -26t49.5 -109v-194h-113v191q0 28 -8 37.5t-34 10.5zM314 721q73 0 98.5 -16.5t25.5 -72.5q0 -63 -25.5 -82t-98.5 -19q-75 0 -101 19t-26 82q0 56 25.5 72.5
t101.5 16.5z" />
    </font>
</defs>
</svg>
