<?xml version="1.0" standalone="no"?>
<!DOCTYPE svg PUBLIC "-//W3C//DTD SVG 1.1//EN" "http://www.w3.org/Graphics/SVG/1.1/DTD/svg11.dtd" >
<svg xmlns="http://www.w3.org/2000/svg" xmlns:xlink="http://www.w3.org/1999/xlink" version="1.1">
<metadata>
Created by FontForge 20170731 at Mon Sep  6 20:32:59 2010
 By Aleksey,,,
Copyright (c) 2005 by Frantisek Storm, www.stormtype.com. All rights reserved.
</metadata>
<defs>
<font id="EtelkaWideMediumPro" horiz-adv-x="705" >
  <font-face 
    font-family="Etelka Wide Medium Pro"
    font-weight="500"
    font-stretch="expanded"
    units-per-em="1000"
    panose-1="2 0 5 3 8 0 0 2 0 4"
    ascent="800"
    descent="-200"
    x-height="509"
    cap-height="697"
    bbox="-187 -314 1612 890"
    underline-thickness="50"
    underline-position="-300"
    unicode-range="U+0020-FB04"
  />
<missing-glyph horiz-adv-x="636" 
d="M0 0v697h636v-697h-636zM318 419l158 196h-316zM376 349l158 -197v393zM160 82h316l-158 197zM102 545v-393l158 197z" />
    <glyph glyph-name="ff" unicode="ff" horiz-adv-x="824" 
d="M630 536v-27h198v-108h-198v-401h-149v401h-224v-401h-149v401h-102v108h102v30q0 185 242 185q119 0 207 -29q49 29 145 29q89 0 169 -22l-33 -98q-51 14 -111 14q-47 0 -72 -18.5t-25 -63.5zM257 532v-23h224v34q0 38 10 61q-58 14 -113 14q-63 0 -92 -18t-29 -68z" />
    <glyph glyph-name="fi" unicode="fi" horiz-adv-x="713" 
d="M630 509v-509h-149v401h-224v-401h-149v401h-102v108h102v30q0 55 20.5 92t61 57t89.5 28t116 8q123 0 227 -31l-35 -97q-79 22 -173 22q-80 0 -118.5 -17.5t-38.5 -68.5v-23h373z" />
    <glyph glyph-name="fl" unicode="fl" horiz-adv-x="719" 
d="M630 693v-550q0 -74 47 -120q-25 -8 -69 -24t-63 -22q-64 59 -64 161v469q-52 11 -103 11q-60 0 -90.5 -18t-30.5 -68v-23h162v-108h-162v-401h-149v401h-102v108h102v30q0 55 19.5 92.5t58 57t84.5 27.5t110 8q126 0 250 -31z" />
    <glyph glyph-name="ffi" unicode="ffi" horiz-adv-x="1086" 
d="M1003 509v-509h-149v401h-224v-401h-149v401h-224v-401h-149v401h-102v108h102v30q0 55 19 92.5t55 57t77 27.5t94 8q101 0 213 -34q68 34 202 34q123 0 227 -31l-35 -97q-79 22 -173 22q-80 0 -118.5 -17.5t-38.5 -68.5v-23h373zM257 532v-23h224v30q0 37 12 64
q-56 15 -115 15q-63 0 -92 -18t-29 -68z" />
    <glyph glyph-name="ffl" unicode="ffl" horiz-adv-x="1093" 
d="M1003 693v-550q0 -74 47 -120q-22 -7 -66 -23t-66 -23q-64 59 -64 161v469q-52 11 -103 11q-60 0 -90.5 -18.5t-30.5 -67.5v-23h162v-108h-162v-401h-149v401h-224v-401h-149v401h-102v108h102v30q0 55 19 92.5t55 57t77 27.5t94 8q110 0 211 -33q63 33 190 33
q125 0 249 -31zM481 539q0 39 12 64q-62 15 -115 15q-67 0 -94 -21t-27 -75v-13h224v30z" />
    <glyph glyph-name="Th" unicode="Th" horiz-adv-x="1300" 
d="M1222 293v-293h-149v283q0 77 -29 103t-94 26q-48 0 -82.5 -12t-34.5 -33v-367h-149v583h-238v-583h-160v583h-282v114h829v-208q80 35 168 35q57 0 95.5 -9.5t68 -34.5t43.5 -71t14 -116z" />
    <glyph glyph-name="ffk" unicode="ffk" horiz-adv-x="1433" 
d="M1003 693v-693h-149v607q-52 11 -103 11q-60 0 -90.5 -18.5t-30.5 -67.5v-23h162v-108h-162v-401h-149v401h-224v-401h-149v401h-102v108h102v30q0 54 19.5 92t55 57t76 27t93.5 8q119 0 212 -32q63 33 190 33q136 0 249 -31zM481 539q0 39 12 64q-62 15 -115 15
q-66 0 -93.5 -15.5t-27.5 -60.5v-33h224v30zM1434 0h-176q-208 252 -255 269q59 40 237 240h175q-81 -92 -143.5 -152.5t-89.5 -78.5q25 -13 92 -86t160 -192z" />
    <glyph glyph-name="fk" unicode="fk" horiz-adv-x="1060" 
d="M630 0h-149v607q-52 11 -103 11q-60 0 -90.5 -18.5t-30.5 -67.5v-23h162v-108h-162v-401h-149v401h-102v108h102v30q0 55 19.5 92.5t58 57t84.5 27.5t110 8q137 0 250 -31v-693zM1061 0h-177q-208 252 -254 269q57 38 236 240h176q-81 -92 -143.5 -152.5t-89.5 -78.5
q25 -13 92 -86t160 -192z" />
    <glyph glyph-name="fj" unicode="fj" horiz-adv-x="713" 
d="M630 509v-521q0 -202 -252 -191v103q54 0 78.5 18.5t24.5 67.5v415h-224v-401h-149v401h-102v108h102v30q0 55 20.5 92t61 57t89.5 28t116 8q123 0 227 -31l-35 -97q-79 22 -173 22q-80 0 -118.5 -17.5t-38.5 -68.5v-23h373z" />
    <glyph glyph-name=".notdef" horiz-adv-x="636" 
d="M0 0v697h636v-697h-636zM318 419l158 196h-316zM376 349l158 -197v393zM160 82h316l-158 197zM102 545v-393l158 197z" />
    <glyph glyph-name=".null" horiz-adv-x="0" 
 />
    <glyph glyph-name="nonmarkingreturn" horiz-adv-x="333" 
 />
    <glyph glyph-name="space" unicode=" " horiz-adv-x="319" 
 />
    <glyph glyph-name="exclam" unicode="!" horiz-adv-x="399" 
d="M107 697h184l-37 -474h-110zM200 143q57 0 76.5 -13t19.5 -57q0 -48 -20 -63t-76 -15q-55 0 -74.5 15t-19.5 63q0 44 19.5 57t74.5 13z" />
    <glyph glyph-name="quotedbl" unicode="&#x22;" horiz-adv-x="444" 
d="M54 697h134l-22 -240h-99zM259 697h131l-23 -240h-97z" />
    <glyph glyph-name="numbersign" unicode="#" horiz-adv-x="854" 
d="M48 435l8 100h155l12 162h139l-13 -162h166l13 162h138l-12 -162h164l-8 -100h-164l-12 -159h166l-8 -99h-166l-14 -177h-138l13 177h-165l-14 -177h-139l15 177h-154l8 99h153l12 159h-155zM342 435l-13 -159h165l14 159h-166z" />
    <glyph glyph-name="dollar" unicode="$" horiz-adv-x="746" 
d="M319 825h105v-138q134 -2 227 -27l-35 -110q-62 21 -192 23v-171q125 -14 185 -60.5t60 -131.5q0 -96 -59.5 -143.5t-185.5 -58.5v-145h-105v142q-143 2 -234 26l35 111q69 -20 199 -24v180q-123 12 -184 53t-61 123q0 96 61 146t184 62v143zM222 488q0 -35 20 -51
t77 -23v155q-97 -13 -97 -81zM522 203q0 35 -21 54t-77 28v-163q49 7 73.5 26t24.5 55z" />
    <glyph glyph-name="percent" unicode="%" horiz-adv-x="1151" 
d="M760 697h140l-515 -697h-139zM260 714q120 0 169.5 -47t49.5 -176q0 -131 -50 -181t-169 -50q-118 0 -168 50t-50 181q0 129 49.5 176t168.5 47zM260 349q52 0 69.5 27.5t17.5 113.5t-17 111t-70 25q-51 0 -69 -25.5t-18 -110.5t18 -113t69 -28zM890 439q120 0 169.5 -47
t49.5 -175q0 -131 -50 -181t-169 -50t-168.5 50t-49.5 181q0 128 49.5 175t168.5 47zM890 74q52 0 69.5 27.5t17.5 114.5q0 85 -17 110t-70 25q-52 0 -69.5 -25t-17.5 -110q0 -86 18 -114t69 -28z" />
    <glyph glyph-name="ampersand" unicode="&#x26;" horiz-adv-x="955" 
d="M913 396q0 -130 -114 -242q37 -40 130 -154h-180q-23 31 -59 75q-76 -47 -147 -68t-167 -21q-173 0 -244.5 43t-71.5 153q0 172 224 180q-55 4 -89.5 16.5t-51.5 36.5t-22.5 49t-5.5 64q0 96 64 141t227 45q160 0 225 -41t65 -134q0 -75 -43 -117t-149 -49
q84 -6 200 -126q50 67 50 149h159zM376 94q75 0 126 15.5t106 54.5q-67 76 -120.5 113t-104.5 37q-81 0 -118 -26.5t-37 -86.5q0 -61 31 -84t117 -23zM398 417q69 0 103.5 22.5t34.5 74.5q0 51 -29.5 70.5t-100.5 19.5q-73 0 -102 -19t-29 -70q0 -53 28 -75.5t95 -22.5z" />
    <glyph glyph-name="quotesingle" unicode="'" horiz-adv-x="242" 
d="M54 697h134l-22 -240h-99z" />
    <glyph glyph-name="parenleft" unicode="(" horiz-adv-x="364" 
d="M82 249q0 419 264 517l68 -93q-82 -33 -128.5 -130t-46.5 -294q0 -102 13.5 -178.5t38 -125t54.5 -76.5t69 -44l-68 -93q-264 98 -264 517z" />
    <glyph glyph-name="parenright" unicode=")" horiz-adv-x="364" 
d="M282 249q0 -418 -264 -517l-70 93q82 33 128.5 130t46.5 294q0 102 -13.5 178.5t-38 125t-54.5 76.5t-69 44l70 93q264 -99 264 -517z" />
    <glyph glyph-name="asterisk" unicode="*" horiz-adv-x="593" 
d="M36 479v100h155l-78 113l107 50l76 -112l77 112l107 -50l-79 -113h156v-100h-156l78 -113l-106 -49l-77 110l-76 -110l-107 50l78 112h-155z" />
    <glyph glyph-name="plus" unicode="+" horiz-adv-x="699" 
d="M58 303v118h220v184h142v-184h221v-118h-221v-184h-142v184h-220z" />
    <glyph glyph-name="comma" unicode="," horiz-adv-x="342" 
d="M283 103l-138 -262h-133l94 262h177z" />
    <glyph glyph-name="hyphen" unicode="-" horiz-adv-x="365" 
d="M35 222v118h295v-118h-295z" />
    <glyph glyph-name="hyphen" unicode="&#xad;" horiz-adv-x="365" 
d="M35 222v118h295v-118h-295z" />
    <glyph glyph-name="period" unicode="." horiz-adv-x="342" 
d="M169 143q58 0 77 -13t19 -57q0 -48 -19.5 -63t-76.5 -15q-54 0 -73 15t-19 63q0 44 19 57t73 13z" />
    <glyph glyph-name="slash" unicode="/" horiz-adv-x="560" 
d="M445 697h161l-427 -697h-161z" />
    <glyph glyph-name="zero" unicode="0" horiz-adv-x="751" 
d="M375 714q82 0 137.5 -16t97 -56t61 -109.5t19.5 -174.5q0 -106 -19.5 -178.5t-60 -115t-97.5 -60.5t-138 -18q-108 0 -174.5 33t-103 115.5t-36.5 223.5q0 105 19.5 174.5t60.5 109.5t97 56t137 16zM375 105q65 0 97 20t46.5 73t14.5 160q0 81 -6.5 127t-26.5 71.5
t-47.5 33t-77.5 7.5q-66 0 -96.5 -16t-45 -66.5t-14.5 -156.5q0 -107 14.5 -160t46 -73t95.5 -20z" />
    <glyph glyph-name="one" unicode="1" horiz-adv-x="751" 
d="M492 0h-154v556l-188 -67l-44 108l386 129v-726z" />
    <glyph glyph-name="two" unicode="2" horiz-adv-x="750" 
d="M122 568l-34 114q124 32 267 32q163 0 236 -44.5t73 -160.5q0 -74 -29 -124.5t-108.5 -109.5t-255.5 -161h392v-114h-607v106q114 72 178 113.5t119.5 82t79 61t40.5 46.5t20 43t3 46q0 56 -34 76.5t-120 20.5q-132 0 -220 -27z" />
    <glyph glyph-name="three" unicode="3" horiz-adv-x="751" 
d="M232 310v112h115q78 0 109 19.5t31 69.5q0 49 -36 67t-144 18q-124 0 -210 -22l-31 114q144 26 271 26q177 0 247 -41t70 -137q0 -77 -37.5 -118t-141.5 -49q112 -4 154 -49.5t42 -131.5q0 -112 -77.5 -157t-258.5 -45q-139 0 -275 25l30 114q85 -20 214 -20
q117 0 156 21.5t39 79.5q0 59 -33.5 81.5t-115.5 22.5h-118z" />
    <glyph glyph-name="four" unicode="4" horiz-adv-x="746" 
d="M438 179h-418v41q202 301 358 477h211v-409h111v-109h-111v-179h-151v179zM438 288v295q-106 -116 -226 -295h226z" />
    <glyph glyph-name="five" unicode="5" horiz-adv-x="751" 
d="M115 697h519v-114h-369v-155q64 4 100 4q173 0 240 -49t67 -168q0 -131 -73.5 -180t-255.5 -49q-141 0 -266 25l31 114q80 -20 205 -20q115 0 151.5 20.5t36.5 82.5q0 67 -34 89.5t-146 22.5q-117 0 -206 -14v391z" />
    <glyph glyph-name="six" unicode="6" horiz-adv-x="751" 
d="M675 687l-35 -116q-74 23 -197 23q-106 0 -155.5 -35t-53.5 -138q75 11 159 11q174 0 241.5 -49t67.5 -168q0 -131 -69.5 -180t-244.5 -49q-181 0 -252 78.5t-71 289.5q0 107 20.5 176.5t67.5 110.5t115.5 57t174.5 16q122 0 232 -27zM388 105q89 0 119 22t30 81
q0 62 -30.5 87t-119.5 25q-77 0 -155 -10q1 -85 19.5 -130.5t49 -60t87.5 -14.5z" />
    <glyph glyph-name="seven" unicode="7" horiz-adv-x="751" 
d="M722 697v-40q-83 -111 -193.5 -311t-168.5 -346h-179q70 160 163.5 328t167.5 255h-432v114h642z" />
    <glyph glyph-name="eight" unicode="8" horiz-adv-x="751" 
d="M375 94q86 0 118 23t32 84t-33.5 87t-116.5 26q-82 0 -115 -26t-33 -87t31.5 -84t116.5 -23zM375 417q72 0 104 22.5t32 75.5q0 51 -30 70t-106 19t-106 -19t-30 -70q0 -53 32 -75.5t104 -22.5zM375 -14q-172 0 -243 45.5t-71 156.5q0 87 41.5 132t154.5 49
q-105 8 -141.5 49t-36.5 118q0 95 64 136.5t232 41.5q169 0 233 -41.5t64 -136.5q0 -77 -36.5 -118t-141.5 -49q113 -4 154.5 -49t41.5 -132q0 -111 -71 -156.5t-244 -45.5z" />
    <glyph glyph-name="nine" unicode="9" horiz-adv-x="751" 
d="M205 0q200 157 270 273q-48 -5 -104 -5q-176 0 -243 46t-67 164q0 132 70 184t244 52q189 0 254.5 -50t65.5 -191q0 -72 -22.5 -139t-66 -126t-91.5 -107t-113 -101h-197zM387 380q74 0 130 7q11 36 11 72q0 87 -31 112t-122 25q-88 0 -118 -25t-30 -87q0 -65 30 -84.5
t130 -19.5z" />
    <glyph glyph-name="colon" unicode=":" horiz-adv-x="342" 
d="M169 143q58 0 77 -13t19 -57q0 -48 -19.5 -63t-76.5 -15q-54 0 -73 15t-19 63q0 44 19 57t73 13zM169 515q58 0 77 -13t19 -58q0 -48 -19.5 -62.5t-76.5 -14.5q-54 0 -73 14.5t-19 62.5q0 45 19 58t73 13z" />
    <glyph glyph-name="semicolon" unicode=";" horiz-adv-x="342" 
d="M283 103l-138 -262h-133l94 262h177zM169 515q57 0 76.5 -13t19.5 -58q0 -48 -19.5 -62.5t-76.5 -14.5q-54 0 -73 14.5t-19 62.5q0 45 19 58t73 13z" />
    <glyph glyph-name="less" unicode="&#x3c;" horiz-adv-x="698" 
d="M618 587l-321 -225l321 -227l-78 -90l-439 285v61l437 284z" />
    <glyph glyph-name="equal" unicode="=" horiz-adv-x="699" 
d="M58 168v118h583v-118h-583zM58 435v118h583v-118h-583z" />
    <glyph glyph-name="greater" unicode="&#x3e;" horiz-adv-x="698" 
d="M102 134l322 225l-322 228l78 89l438 -285v-61l-437 -284z" />
    <glyph glyph-name="question" unicode="?" horiz-adv-x="591" 
d="M282 143q57 0 76.5 -13t19.5 -57q0 -48 -19.5 -62.5t-76.5 -14.5q-55 0 -74 14.5t-19 62.5q0 44 19 57t74 13zM360 215h-156q94 84 135.5 149.5t41.5 142.5q0 44 -32 65.5t-113 21.5q-107 0 -172 -21l-32 116q96 25 217 25q165 0 238 -49.5t73 -152.5q0 -80 -49.5 -149
t-150.5 -148z" />
    <glyph glyph-name="at" unicode="@" horiz-adv-x="1127" 
d="M515 528q-96 0 -150.5 -9t-93.5 -37.5t-53 -78.5t-14 -135q0 -86 15.5 -137t58.5 -82t108.5 -41.5t176.5 -10.5q110 0 177.5 13t111 48.5t60 92.5t16.5 150q0 128 -27 187h136q24 -66 24 -191q0 -117 -28 -194.5t-91 -124t-153.5 -66t-224.5 -19.5q-136 0 -226.5 17
t-153.5 59.5t-91 114.5t-28 182q0 107 29 179.5t89 112.5t138 56.5t189 16.5q89 0 142 -10t92.5 -40t55.5 -84.5t16 -143.5q0 -85 -12 -134.5t-45 -78t-80 -37t-129 -8.5q-141 0 -193 35t-52 134q0 101 48.5 133.5t174.5 32.5q95 0 150 -10q-1 63 -35 85.5t-128 22.5z
M565 342q-68 0 -91.5 -13.5t-23.5 -60.5t23.5 -62.5t93.5 -15.5q63 0 87 20t24 78v47q-43 7 -113 7z" />
    <glyph glyph-name="A" unicode="A" horiz-adv-x="818" 
d="M666 0q-55 115 -81 174h-366q-22 -57 -64 -174h-166q129 345 302 697h249q154 -407 301 -697h-175zM423 585h-32q-50 -108 -130 -298h279q-64 152 -117 298z" />
    <glyph glyph-name="B" unicode="B" horiz-adv-x="855" 
d="M264 111h264q81 0 81 98q0 103 -85 103h-260v-201zM264 585v-166h257q72 0 72 84q0 43 -16 62.5t-56 19.5h-257zM587 369q112 -4 152 -48t40 -130q0 -191 -216 -191h-457v697h450q118 0 161.5 -41.5t43.5 -125.5q0 -77 -34.5 -115t-139.5 -46z" />
    <glyph glyph-name="C" unicode="C" horiz-adv-x="710" 
d="M64 355q0 106 23 176t74 110.5t121 56.5t174 16q129 0 240 -26l-34 -116q-74 22 -178 22q-50 0 -82.5 -3t-63 -12t-48.5 -25t-32 -43t-19.5 -65t-5.5 -92q0 -80 12.5 -128.5t45.5 -75t76 -35t117 -8.5q104 0 178 22l34 -118q-107 -25 -240 -25q-103 0 -173.5 18t-121 60
t-74 113.5t-23.5 177.5z" />
    <glyph glyph-name="D" unicode="D" horiz-adv-x="884" 
d="M106 697h319q103 0 174 -16t122 -55t75 -106.5t24 -168.5q0 -196 -94 -273.5t-301 -77.5h-319v697zM651 350q0 78 -11 123t-41.5 70t-72 32.5t-116.5 7.5h-146v-469h146q73 0 116 9t73 35.5t41 71.5t11 120z" />
    <glyph glyph-name="E" unicode="E" horiz-adv-x="744" 
d="M106 697h607v-114h-449v-161h321v-113h-321v-195h449v-114h-607v697z" />
    <glyph glyph-name="F" unicode="F" horiz-adv-x="701" 
d="M106 697h595v-114h-437v-197h321v-113h-321v-273h-158v697z" />
    <glyph glyph-name="G" unicode="G" horiz-adv-x="840" 
d="M592 116v180h-182v111h344v-391q-113 -30 -298 -30q-103 0 -173.5 18t-121 60t-74 113.5t-23.5 177.5t26 176.5t80.5 110.5t128 56t180.5 16q139 0 252 -26l-32 -115q-73 21 -208 21q-78 0 -121.5 -7.5t-77.5 -32.5t-46.5 -72.5t-12.5 -127.5t12.5 -129t45.5 -75.5
t76 -35t117 -8.5q58 0 108 10z" />
    <glyph glyph-name="H" unicode="H" horiz-adv-x="884" 
d="M264 309v-309h-158v697h158v-266h358v266h156v-697h-156v309h-358z" />
    <glyph glyph-name="I" unicode="I" horiz-adv-x="370" 
d="M106 697h158v-697h-158v697z" />
    <glyph glyph-name="J" unicode="J" horiz-adv-x="553" 
d="M450 697l1 -505q0 -206 -254 -206q-101 0 -190 27l31 118q65 -21 143 -21q109 0 109 99v488h160z" />
    <glyph glyph-name="K" unicode="K" horiz-adv-x="794" 
d="M264 697v-697h-158v697h158zM810 0h-194q-116 160 -212.5 257t-137.5 111q44 27 134.5 116t191.5 213h192q-105 -123 -191.5 -208.5t-124.5 -111.5q40 -23 135.5 -123t206.5 -254z" />
    <glyph glyph-name="L" unicode="L" horiz-adv-x="661" 
d="M106 697h158v-582h395v-115h-553v697z" />
    <glyph glyph-name="M" unicode="M" horiz-adv-x="1100" 
d="M557 251q96 212 232 446h205v-697h-155v519q-89 -166 -233 -455h-123q-160 338 -225 455v-519h-152v697h216q126 -217 235 -446z" />
    <glyph glyph-name="N" unicode="N" horiz-adv-x="929" 
d="M822 697v-697h-193q-178 274 -368 525v-525h-155v697h208q181 -238 351 -503v503h157z" />
    <glyph glyph-name="O" unicode="O" horiz-adv-x="925" 
d="M462 714q104 0 175 -16.5t123 -57t76 -110.5t24 -175q0 -107 -24 -179t-76 -113.5t-123 -59t-175 -17.5t-175 17.5t-123 59t-76 113.5t-24 179q0 105 24 175.5t76 110.5t123 56.5t175 16.5zM462 105q73 0 114.5 9t69 37t37 74.5t9.5 127.5t-9 127t-37.5 72.5t-69 34.5
t-114.5 8t-114 -8t-68.5 -34.5t-37.5 -72.5t-9 -127t9.5 -127.5t37 -74.5t68.5 -37t114 -9z" />
    <glyph glyph-name="P" unicode="P" horiz-adv-x="808" 
d="M264 340h233q103 0 103 119q0 126 -99 126h-237v-245zM264 0h-158v697h436q232 0 232 -239q0 -98 -57.5 -163t-171.5 -65h-281v-230z" />
    <glyph glyph-name="Q" unicode="Q" horiz-adv-x="940" 
d="M469 714q104 0 175 -16.5t123 -56.5t76.5 -110.5t24.5 -175.5q0 -162 -57.5 -241.5t-176.5 -98.5q85 -20 248 -207h-185q-66 84 -126.5 129t-103.5 49q-207 0 -301 81t-94 288q0 105 24 175.5t76 110.5t122.5 56.5t174.5 16.5zM469 105q59 0 95.5 6t65 20.5t43 43.5
t21 71t6.5 107q0 54 -4 91t-15 65t-26.5 44t-43.5 26t-60.5 13t-81.5 3q-74 0 -114 -8t-68 -34.5t-37 -72.5t-9 -127t9 -127.5t37 -74.5t69 -37t113 -9z" />
    <glyph glyph-name="R" unicode="R" horiz-adv-x="847" 
d="M264 585v-210h237q46 0 71.5 26t25.5 76q0 108 -94 108h-240zM555 303q43 -13 106.5 -81.5t172.5 -221.5h-195q-97 141 -159.5 203.5t-103.5 62.5h-112v-266h-158v697h436q232 0 232 -203q0 -83 -51 -135t-168 -56z" />
    <glyph glyph-name="S" unicode="S" horiz-adv-x="746" 
d="M671 683l-35 -114q-84 25 -221 25q-101 0 -144.5 -20.5t-43.5 -70.5q0 -42 37 -61t147 -28q147 -13 213.5 -62t66.5 -147q0 -120 -87 -169.5t-274 -49.5q-151 0 -260 31l35 114q93 -25 223 -25q103 0 148 20t45 72q0 43 -39 66t-152 31q-143 12 -207 55t-64 137
q0 120 88 173.5t268 53.5q142 0 256 -31z" />
    <glyph glyph-name="T" unicode="T" horiz-adv-x="732" 
d="M446 0h-160v583h-282v114h724v-114h-282v-583z" />
    <glyph glyph-name="U" unicode="U" horiz-adv-x="891" 
d="M796 697l1 -486q0 -129 -86.5 -177t-264.5 -48q-87 0 -148 9.5t-109 34t-71.5 69.5t-23.5 112v486h160v-466q0 -70 42.5 -97t149.5 -27q105 0 149 26.5t44 97.5v466h157z" />
    <glyph glyph-name="V" unicode="V" horiz-adv-x="777" 
d="M-23 697h175q139 -279 239 -563q113 231 230 563h167q-131 -353 -306 -697h-203q-63 173 -147 367.5t-155 329.5z" />
    <glyph glyph-name="W" unicode="W" horiz-adv-x="1171" 
d="M592 478q-47 -191 -154 -478h-200q-133 444 -240 697h173q96 -240 180 -533q124 345 168 533h146q125 -369 165 -533q100 261 174 533h163q-102 -348 -243 -697h-201q-45 200 -131 478z" />
    <glyph glyph-name="X" unicode="X" horiz-adv-x="808" 
d="M203 697q89 -94 210 -230q113 132 192 230h194q-119 -145 -289 -342q230 -267 302 -355h-197q-133 159 -204 241q-159 -175 -222 -241h-194q125 129 319 352q-196 220 -314 345h203z" />
    <glyph glyph-name="Y" unicode="Y" horiz-adv-x="765" 
d="M160 697q108 -113 233 -266q131 147 221 266h192q-159 -198 -337 -396v-301h-159v300q-216 256 -356 397h206z" />
    <glyph glyph-name="Z" unicode="Z" horiz-adv-x="744" 
d="M20 0v32q228 258 458 551h-432v114h678v-30q-96 -129 -231.5 -293t-226.5 -260h450v-114h-696z" />
    <glyph glyph-name="bracketleft" unicode="[" horiz-adv-x="409" 
d="M108 755h324v-108h-169v-800h169v-107h-324v1015z" />
    <glyph glyph-name="backslash" unicode="\" horiz-adv-x="560" 
d="M-35 697h161l427 -697h-161z" />
    <glyph glyph-name="bracketright" unicode="]" horiz-adv-x="409" 
d="M-23 755h324v-1015h-324v107h169v800h-169v108z" />
    <glyph glyph-name="asciicircum" unicode="^" horiz-adv-x="638" 
d="M461 296l-145 266l-143 -266h-157l230 401h143l233 -401h-161z" />
    <glyph glyph-name="underscore" unicode="_" horiz-adv-x="564" 
d="M35 -166v118h494v-118h-494z" />
    <glyph glyph-name="grave" unicode="`" horiz-adv-x="578" 
d="M417 568h-132l-173 129h158z" />
    <glyph glyph-name="a" unicode="a" horiz-adv-x="672" 
d="M593 326v-300q-123 -40 -276 -40q-147 0 -202.5 35.5t-55.5 134.5q0 100 59.5 133.5t180.5 33.5q72 0 151 -14q0 68 -29 89.5t-123 21.5q-102 0 -185 -25l-28 102q123 27 244 27q140 0 202 -43.5t62 -154.5zM450 98v127q-50 9 -121 9q-67 0 -90.5 -13t-23.5 -60
q0 -51 22 -65.5t91 -14.5q62 0 122 17z" />
    <glyph glyph-name="b" unicode="b" 
d="M232 367v-263q51 -16 119 -16q82 0 111 31.5t29 136.5q0 93 -29.5 126t-108.5 33q-51 0 -86 -13t-35 -35zM83 23v699h149v-232q66 34 158 34q132 0 192.5 -58.5t60.5 -207.5q0 -153 -68.5 -212.5t-223.5 -59.5q-157 0 -268 37z" />
    <glyph glyph-name="c" unicode="c" horiz-adv-x="563" 
d="M516 118l33 -106q-78 -26 -186 -26q-149 0 -225.5 61t-76.5 210q0 148 77 207.5t225 59.5q109 0 186 -24l-33 -106q-72 22 -142 22q-88 0 -123.5 -30.5t-35.5 -130.5q0 -96 36.5 -128.5t122.5 -32.5q70 0 142 24z" />
    <glyph glyph-name="d" unicode="d" 
d="M473 107v263q0 22 -34.5 35.5t-85.5 13.5q-79 0 -108.5 -34t-29.5 -128q0 -101 29 -133t111 -32q65 0 118 15zM621 722v-699q-111 -37 -266 -37q-157 0 -225.5 58.5t-68.5 210.5q0 147 67.5 208t197.5 61q83 0 147 -29v227h148z" />
    <glyph glyph-name="e" unicode="e" horiz-adv-x="663" 
d="M547 112l24 -98q-100 -28 -214 -28q-143 0 -219.5 61.5t-76.5 209.5q0 146 71.5 206.5t212.5 60.5q77 0 126 -12.5t84 -46t48 -92.5t9 -151h-395q1 -78 37 -104.5t121 -26.5q88 0 172 21zM354 426q-71 0 -100 -23t-36 -86h257q-4 66 -29.5 87.5t-91.5 21.5z" />
    <glyph glyph-name="f" unicode="f" horiz-adv-x="451" 
d="M257 536v-27h198v-108h-198v-401h-149v401h-102v108h102v34q0 102 59.5 141.5t162.5 39.5q88 0 168 -22l-34 -98q-49 14 -110 14q-48 0 -72.5 -18t-24.5 -64z" />
    <glyph glyph-name="g" unicode="g" 
d="M473 143v262q-54 17 -118 17q-83 0 -111.5 -31.5t-28.5 -136.5q0 -94 28.5 -126.5t107.5 -32.5q52 0 87 13t35 35zM473 21q-66 -33 -155 -33q-133 0 -195 58t-62 207q0 152 69 211.5t225 59.5q157 0 266 -38v-447q0 -73 -23 -122t-68.5 -74.5t-101 -36t-133.5 -10.5
q-121 0 -215 30l30 100q95 -25 184 -25q90 0 134.5 26.5t44.5 93.5z" />
    <glyph glyph-name="h" unicode="h" horiz-adv-x="700" 
d="M400 524q57 0 95.5 -9.5t68 -34.5t43.5 -71t14 -116v-293h-149v283q0 66 -27 97.5t-96 31.5q-49 0 -83 -12t-34 -33v-367h-149v722h149v-233q80 35 168 35z" />
    <glyph glyph-name="i" unicode="i" horiz-adv-x="315" 
d="M232 509v-509h-149v509h149zM158 721q51 0 68.5 -11.5t17.5 -49.5q0 -43 -17.5 -56t-68.5 -13t-68.5 13t-17.5 56q0 38 17.5 49.5t68.5 11.5z" />
    <glyph glyph-name="j" unicode="j" horiz-adv-x="315" 
d="M-19 -203v103q53 0 77.5 18.5t24.5 67.5v523h149v-520q0 -109 -59.5 -150.5t-191.5 -41.5zM159 721q50 0 67.5 -11.5t17.5 -49.5q0 -43 -17.5 -56t-67.5 -13q-51 0 -69 13t-18 56q0 38 17.5 49.5t69.5 11.5z" />
    <glyph glyph-name="k" unicode="k" horiz-adv-x="662" 
d="M232 722v-722h-149v722h149zM663 0h-176q-208 252 -255 269q60 42 236 240h177q-167 -187 -234 -231q26 -13 93.5 -86t158.5 -192z" />
    <glyph glyph-name="l" unicode="l" horiz-adv-x="322" 
d="M232 722v-579q0 -69 47 -120l-131 -47q-65 62 -65 162v584h149z" />
    <glyph glyph-name="m" unicode="m" horiz-adv-x="1057" 
d="M232 400v-400h-149v480q136 44 282 44q103 0 156 -34q112 34 217 34q131 0 185.5 -52.5t54.5 -187.5v-284h-149v271q0 85 -24.5 113t-97.5 28q-63 0 -119 -14q17 -46 17 -114v-284h-149v271q0 85 -24.5 113t-97.5 28q-51 0 -102 -12z" />
    <glyph glyph-name="n" unicode="n" horiz-adv-x="700" 
d="M232 400v-400h-149v480q136 44 289 44q133 0 191 -53t58 -187v-284h-149v271q0 85 -26 113t-105 28q-55 0 -109 -12z" />
    <glyph glyph-name="o" unicode="o" 
d="M351 -14q-152 0 -221 59.5t-69 211.5q0 150 69.5 208.5t220.5 58.5q154 0 223.5 -58.5t69.5 -208.5q0 -152 -69.5 -211.5t-223.5 -59.5zM351 424q-81 0 -108.5 -31.5t-27.5 -137.5q0 -103 28 -136t108 -33q82 0 111 33t29 136q0 73 -13.5 109t-41.5 48t-85 12z" />
    <glyph glyph-name="p" unicode="p" 
d="M232 402v-262q0 -22 34.5 -35.5t85.5 -13.5q79 0 109 34t30 127q0 102 -29 133.5t-111 31.5q-73 0 -119 -15zM83 -192v678q109 38 268 38q156 0 224 -58.5t68 -210.5q0 -148 -67 -208.5t-198 -60.5q-78 0 -146 29v-207h-149z" />
    <glyph glyph-name="q" unicode="q" 
d="M473 143v262q-54 17 -118 17q-83 0 -111.5 -31.5t-28.5 -136.5q0 -94 28.5 -126.5t107.5 -32.5q52 0 87 13t35 35zM621 486v-678h-148v212q-68 -34 -159 -34q-132 0 -192.5 58.5t-60.5 208.5q0 152 69 211.5t225 59.5q157 0 266 -38z" />
    <glyph glyph-name="r" unicode="r" horiz-adv-x="455" 
d="M83 0v509h149v-38q40 53 156 53q30 0 62 -3v-118q-37 7 -78 7q-59 0 -99.5 -15t-40.5 -42v-353h-149z" />
    <glyph glyph-name="s" unicode="s" horiz-adv-x="589" 
d="M521 496l-33 -97q-89 24 -177 24q-61 0 -86 -11t-25 -48q0 -26 25.5 -37.5t100.5 -17.5q114 -10 163.5 -44t49.5 -109q0 -64 -34 -102.5t-89.5 -53t-138.5 -14.5q-127 0 -218 27l31 98q81 -24 181 -24q66 0 93 12t27 50q0 28 -27 41.5t-104 19.5q-107 7 -156.5 38.5
t-49.5 106.5q0 93 68 131t194 38q105 0 205 -28z" />
    <glyph glyph-name="t" unicode="t" horiz-adv-x="498" 
d="M466 401h-203v-219q0 -49 19.5 -69t72.5 -20t105 14l26 -98q-76 -23 -168 -23q-109 0 -156.5 38.5t-47.5 146.5v230h-102v108h102v86l149 51v-137h203v-108z" />
    <glyph glyph-name="u" unicode="u" horiz-adv-x="700" 
d="M468 110v399h149v-480q-139 -44 -290 -44q-132 0 -190 53t-58 187v284h149v-271q0 -85 25.5 -113t103.5 -28q59 0 111 13z" />
    <glyph glyph-name="v" unicode="v" horiz-adv-x="613" 
d="M306 125q101 221 151 384h151q-78 -221 -219 -509h-184q-103 303 -205 509h155q81 -172 151 -384z" />
    <glyph glyph-name="w" unicode="w" horiz-adv-x="996" 
d="M498 341q-48 -177 -118 -341h-183q-95 285 -197 509h157q78 -171 139 -382q31 76 72 194.5t60 187.5h146q66 -167 123 -382q98 225 142 382h151q-86 -259 -209 -509h-185q-46 198 -98 341z" />
    <glyph glyph-name="x" unicode="x" horiz-adv-x="625" 
d="M619 0h-168q-48 66 -128 161q-71 -80 -150 -161h-166q94 91 238 254q-135 156 -237 255h178q61 -62 140 -156q53 60 126 156h166q-86 -108 -210 -251q105 -122 211 -258z" />
    <glyph glyph-name="y" unicode="y" horiz-adv-x="613" 
d="M216 -25q-100 303 -216 534h155q81 -169 151 -386q102 223 151 386h151q-87 -249 -231 -530q-50 -99 -95 -171h-166q43 63 100 167z" />
    <glyph glyph-name="z" unicode="z" horiz-adv-x="597" 
d="M42 509h527v-25q-62 -84 -156.5 -196.5t-157.5 -179.5h306v-108h-539v25q84 89 178 200t141 176h-299v108z" />
    <glyph glyph-name="braceleft" unicode="{" horiz-adv-x="406" 
d="M37 198v-1v103q132 0 132 201q0 211 197 266l71 -93q-43 -13 -68 -32.5t-40.5 -63.5t-15.5 -117q0 -105 -32.5 -153.5t-73.5 -58.5q41 -10 73.5 -59.5t32.5 -154.5q0 -73 15 -117t40 -63.5t69 -32.5l-71 -92q-197 55 -197 267q0 201 -132 201z" />
    <glyph glyph-name="bar" unicode="|" horiz-adv-x="445" 
d="M144 755h157v-1011h-157v1011z" />
    <glyph glyph-name="braceright" unicode="}" horiz-adv-x="406" 
d="M369 274v-76q-132 0 -132 -201q0 -210 -197 -266q-12 15 -35.5 46t-35.5 47q43 13 68 32.5t40.5 63.5t15.5 117q0 104 32.5 153t72.5 59q-40 10 -72.5 59.5t-32.5 154.5q0 72 -15 116t-40 63.5t-69 32.5q12 16 35.5 46.5t35.5 45.5q197 -56 197 -266q0 -201 132 -201v-26
z" />
    <glyph glyph-name="asciitilde" unicode="~" horiz-adv-x="699" 
d="M560 445l96 -63q-23 -51 -71 -83t-113 -32q-48 0 -138.5 43t-124.5 43q-46 0 -77 -60l-86 69q69 97 164 97q56 0 146.5 -41.5t121.5 -41.5q28 0 46.5 15t35.5 54z" />
    <glyph glyph-name="nbspace" unicode="&#xa0;" horiz-adv-x="319" 
 />
    <glyph glyph-name="exclamdown" unicode="&#xa1;" horiz-adv-x="398" 
d="M292 -178h-184l38 474h108zM199 376q-56 0 -75.5 13t-19.5 57q0 48 19.5 63t75.5 15q54 0 73.5 -15t19.5 -63q0 -44 -19.5 -57t-73.5 -13z" />
    <glyph glyph-name="cent" unicode="&#xa2;" horiz-adv-x="550" 
d="M293 751h117v-104q76 -5 129 -21l-34 -98q-37 14 -95 16v-328q57 3 95 18l34 -96q-49 -18 -129 -24v-121h-117v121q-114 13 -173 75.5t-59 193.5q0 130 59.5 190.5t172.5 71.5v106zM204 380q0 -70 21.5 -104.5t67.5 -45.5v301q-47 -10 -68 -44t-21 -107z" />
    <glyph glyph-name="sterling" unicode="&#xa3;" horiz-adv-x="732" 
d="M43 293v105h71v79q0 119 81 177.5t254 58.5q147 0 255 -31l-35 -113q-85 24 -220 24q-98 0 -137.5 -25t-39.5 -83v-87h237v-105h-237v-179h407v-114h-565v293h-71z" />
    <glyph glyph-name="currency" unicode="&#xa4;" horiz-adv-x="809" 
d="M411 83q-78 0 -125 17l-96 -100l-125 75l96 103q-41 60 -41 177q0 108 37 168l-92 102l137 72l84 -93q47 17 125 17q76 0 122 -15l73 91l137 -71l-82 -97q42 -60 42 -174q0 -116 -42 -177l89 -103l-134 -75l-84 98q-51 -15 -121 -15zM411 515q-58 0 -85.5 -10t-42.5 -45
t-15 -108q0 -101 30 -132t113 -31q84 0 114.5 31t30.5 132q0 55 -7 87.5t-26.5 49t-43.5 21.5t-68 5z" />
    <glyph glyph-name="yen" unicode="&#xa5;" horiz-adv-x="765" 
d="M97 278v92h153q-170 198 -296 327h206q108 -113 233 -266q131 147 221 266h192q-125 -158 -276 -327h144v-92h-205v-78h205v-92h-205v-108h-159v108h-213v92h213v78h-213z" />
    <glyph glyph-name="brokenbar" unicode="&#xa6;" horiz-adv-x="445" 
d="M144 755h157v-367h-157v367zM144 111h157v-367h-157v367z" />
    <glyph glyph-name="section" unicode="&#xa7;" horiz-adv-x="747" 
d="M661 684l-32 -108q-83 24 -211 24q-97 0 -140 -20.5t-43 -67.5q0 -38 35.5 -55.5t142.5 -25.5q144 -12 215.5 -57t71.5 -134q0 -63 -56 -119q44 -39 44 -108q0 -216 -353 -216q-139 0 -244 30l33 108q75 -24 211 -24q96 0 139 20.5t43 66.5q0 38 -35 56t-141 26
q-144 12 -215.5 57t-71.5 133q0 68 52 122q-40 39 -40 105q0 217 353 217q139 0 242 -30zM234 334q-22 -24 -22 -57q0 -40 40.5 -58t161.5 -27q60 -3 104 -16q22 22 22 57q0 40 -40.5 58.5t-161.5 26.5q-70 5 -104 16z" />
    <glyph glyph-name="dieresis" unicode="&#xa8;" horiz-adv-x="554" 
d="M143 681q42 0 57 -10t15 -45q0 -38 -15 -50t-57 -12t-56.5 11.5t-14.5 50.5q0 35 14.5 45t56.5 10zM400 681q41 0 55.5 -10t14.5 -45q0 -38 -14.5 -50t-55.5 -12q-43 0 -57.5 11.5t-14.5 50.5q0 35 14 45t58 10z" />
    <glyph glyph-name="copyright" unicode="&#xa9;" horiz-adv-x="1004" 
d="M502 714q111 0 187.5 -16.5t133 -56.5t83 -110.5t26.5 -175.5q0 -107 -26.5 -179t-82.5 -113.5t-133 -59t-188 -17.5t-188 17.5t-133 59t-82.5 113.5t-26.5 179q0 105 26.5 175.5t83 110.5t133 56.5t187.5 16.5zM502 78q88 0 141 10t90.5 40.5t52 84t14.5 141.5
t-14.5 140t-52.5 81t-89.5 38t-141.5 9q-89 0 -141 -9t-90 -38t-52.5 -81t-14.5 -140t14.5 -141.5t52.5 -84t90.5 -40.5t140.5 -10zM658 246l27 -89q-71 -22 -156 -22q-134 0 -192.5 46t-58.5 172t58 170.5t193 44.5q89 0 156 -19l-27 -90q-51 16 -122 16t-96.5 -23
t-25.5 -100q0 -74 26 -99t96 -25t122 18z" />
    <glyph glyph-name="ordfeminine" unicode="&#xaa;" horiz-adv-x="522" 
d="M450 577v-215q-89 -28 -198 -28q-103 0 -141.5 25t-38.5 95q0 71 41.5 94.5t126.5 23.5q55 0 106 -10q0 47 -21 62t-86 15q-72 0 -130 -16l-18 72q91 19 171 19q98 0 143 -30t45 -107zM346 413v89q-32 7 -84 7q-43 0 -61.5 -10t-18.5 -41q0 -33 16 -45t62 -12q45 0 86 12
z" />
    <glyph glyph-name="guillemotleft" unicode="&#xab;" horiz-adv-x="801" 
d="M441 518l-211 -204l211 -208l-84 -75l-325 281l324 279zM769 518l-211 -204l211 -208l-84 -75l-325 281l324 279z" />
    <glyph glyph-name="logicalnot" unicode="&#xac;" horiz-adv-x="623" 
d="M583 0h-157v311h-391v117h548v-428z" />
    <glyph glyph-name="registered" unicode="&#xae;" horiz-adv-x="684" 
d="M493 512q0 -44 -20.5 -62t-61.5 -18q53 -21 73 -98h-102q-6 27 -23.5 51.5t-30.5 24.5h-22v-76h-94v266h196q43 0 64 -24.5t21 -63.5zM396 508q0 28 -26 28h-64v-58h64q26 0 26 30zM628 466q0 -139 -67.5 -194t-218.5 -55q-152 0 -219 55t-67 194q0 140 67 193.5
t219 53.5t219 -53.5t67 -193.5zM530 466q0 57 -9 90.5t-33 52.5t-57 25t-89 6q-108 0 -147 -33t-39 -141q0 -103 40 -138.5t146 -35.5q108 0 148 35.5t40 138.5z" />
    <glyph glyph-name="macron" unicode="&#xaf;" horiz-adv-x="625" 
d="M148 576v90h334v-90h-334z" />
    <glyph glyph-name="macron" unicode="&#x2c9;" horiz-adv-x="625" 
d="M148 576v90h334v-90h-334z" />
    <glyph glyph-name="degree" unicode="&#xb0;" horiz-adv-x="521" 
d="M260 714q120 0 169.5 -47t49.5 -176q0 -131 -50 -181t-169 -50q-118 0 -168 50t-50 181q0 129 49.5 176t168.5 47zM260 349q52 0 69.5 27.5t17.5 113.5t-17 111t-70 25q-51 0 -69 -25.5t-18 -110.5t18 -113t69 -28z" />
    <glyph glyph-name="plusminus" unicode="&#xb1;" horiz-adv-x="699" 
d="M58 380v118h220v184h142v-184h221v-118h-221v-184h-142v184h-220zM58 19v118h583v-118h-583z" />
    <glyph glyph-name="twosuperior" unicode="&#xb2;" horiz-adv-x="515" 
d="M80 601l-20 93q73 19 169 19q114 0 167 -30.5t53 -102.5q0 -104 -110 -136q-99 -29 -121 -44q-22 -14 -26 -37h258v-89h-407q9 97 48 143.5t124 76.5q53 17 78.5 34.5t25.5 43.5t-22 36t-78 10q-82 0 -139 -17z" />
    <glyph glyph-name="threesuperior" unicode="&#xb3;" horiz-adv-x="507" 
d="M157 454v83h60q49 0 66 10t17 37q0 25 -19 33.5t-80 8.5q-78 0 -128 -14l-19 85q80 16 168 16q112 0 163 -25.5t51 -84.5q0 -49 -24.5 -74.5t-90.5 -29.5q70 -3 98.5 -30.5t28.5 -81.5q0 -68 -56 -96.5t-170 -28.5q-90 0 -172 17l19 85q60 -14 133 -14q64 0 86 11t22 41
q0 32 -18.5 42t-72.5 10h-62z" />
    <glyph glyph-name="acute" unicode="&#xb4;" horiz-adv-x="578" 
d="M243 568h-131l145 129h160z" />
    <glyph glyph-name="mu" unicode="&#xb5;" horiz-adv-x="700" 
d="M217 -192h-145l7 405v296h149v-271q0 -74 25.5 -107.5t104.5 -33.5q57 0 110 13v399h149v-480q-136 -43 -289 -43q-74 0 -114 16z" />
    <glyph glyph-name="mu" unicode="&#x3bc;" horiz-adv-x="700" 
d="M217 -192h-145l7 405v296h149v-271q0 -74 25.5 -107.5t104.5 -33.5q57 0 110 13v399h149v-480q-136 -43 -289 -43q-74 0 -114 16z" />
    <glyph glyph-name="paragraph" unicode="&#xb6;" horiz-adv-x="808" 
d="M701 0h-139v230h-103v-230h-141v230h-55q-114 0 -171.5 65t-57.5 163q0 239 232 239h435v-697z" />
    <glyph glyph-name="periodcentered" unicode="&#xb7;" horiz-adv-x="357" 
d="M177 379q61 0 82 -14.5t21 -61.5q0 -52 -21 -68t-82 -16q-58 0 -79 16t-21 68q0 47 20.5 61.5t79.5 14.5z" />
    <glyph glyph-name="periodcentered" unicode="&#x2219;" horiz-adv-x="357" 
d="M177 379q61 0 82 -14.5t21 -61.5q0 -52 -21 -68t-82 -16q-58 0 -79 16t-21 68q0 47 20.5 61.5t79.5 14.5z" />
    <glyph glyph-name="cedilla" unicode="&#xb8;" horiz-adv-x="769" 
d="M396 0h59v-42q72 0 102 -17t30 -61q0 -47 -36.5 -65t-127.5 -18q-74 0 -118 16l26 54q30 -12 86 -12q28 0 38.5 5.5t10.5 20.5q0 19 -24 24t-89 2z" />
    <glyph glyph-name="onesuperior" unicode="&#xb9;" horiz-adv-x="452" 
d="M315 278h-125v306l-114 -41l-32 88l271 94v-447z" />
    <glyph glyph-name="ordmasculine" unicode="&#xba;" horiz-adv-x="552" 
d="M275 324q-106 0 -157.5 44.5t-51.5 151.5t51.5 150.5t157.5 43.5q108 0 159.5 -43.5t51.5 -150.5t-51.5 -151.5t-159.5 -44.5zM275 635q-55 0 -74 -22t-19 -94q0 -70 19.5 -93t73.5 -23q55 0 75 23t20 93q0 72 -19.5 94t-75.5 22z" />
    <glyph glyph-name="guillemotright" unicode="&#xbb;" horiz-adv-x="801" 
d="M360 105l212 204l-212 209l84 74l326 -280l-324 -280zM32 105l212 204l-212 209l84 74l326 -280l-324 -280z" />
    <glyph glyph-name="onequarter" unicode="&#xbc;" horiz-adv-x="1032" 
d="M646 697h147l-516 -697h-147zM787 98h-274v43q98 141 233 291h164v-243h69v-91h-69v-98h-123v98zM787 189v161q-82 -85 -132 -161h132zM298 278h-126v306l-112 -41l-34 88l272 94v-447z" />
    <glyph glyph-name="onehalf" unicode="&#xbd;" horiz-adv-x="1033" 
d="M628 327l-20 93q73 19 169 19q113 0 166 -30.5t53 -102.5q0 -104 -109 -136q-99 -29 -121 -44t-26 -37h258v-89h-407q9 97 47.5 143.5t123.5 76.5q54 17 79.5 34.5t25.5 43.5t-22 36t-78 10q-82 0 -139 -17zM642 697h147l-516 -697h-147zM294 278h-126v306l-112 -41
l-34 88l272 94v-447z" />
    <glyph glyph-name="threequarters" unicode="&#xbe;" horiz-adv-x="1032" 
d="M724 697h146l-517 -697h-146zM804 98h-273v43q113 160 234 291h163v-243h69v-91h-69v-98h-124v98zM804 189v161q-79 -85 -132 -161h132zM136 454v83h60q49 0 66 10t17 37q0 25 -19 33.5t-80 8.5q-78 0 -128 -14l-19 85q80 16 168 16q112 0 163 -25.5t51 -84.5
q0 -49 -24.5 -74.5t-90.5 -29.5q70 -3 98.5 -30.5t28.5 -81.5q0 -68 -56 -96.5t-170 -28.5q-90 0 -172 17l19 85q60 -14 133 -14q64 0 86 11t22 41q0 32 -18.5 42t-72.5 10h-62z" />
    <glyph glyph-name="questiondown" unicode="&#xbf;" horiz-adv-x="591" 
d="M310 377q-57 0 -76.5 13t-19.5 57q0 48 19.5 62.5t76.5 14.5q55 0 74 -14.5t19 -62.5q0 -44 -19 -57t-74 -13zM232 305h156q-94 -84 -135.5 -149.5t-41.5 -142.5q0 -44 32 -65.5t113 -21.5q107 0 172 21l32 -116q-96 -25 -217 -25q-165 0 -238 49.5t-73 152.5
q0 80 49.5 149t150.5 148z" />
    <glyph glyph-name="Agrave" unicode="&#xc0;" horiz-adv-x="818" 
d="M666 0q-55 115 -81 174h-366q-22 -57 -64 -174h-166q129 345 302 697h249q154 -407 301 -697h-175zM423 585h-32q-50 -108 -130 -298h279q-64 152 -117 298zM523 747h-137l-189 129h164z" />
    <glyph glyph-name="Aacute" unicode="&#xc1;" horiz-adv-x="818" 
d="M666 0q-55 115 -81 174h-366q-22 -57 -64 -174h-166q129 345 302 697h249q154 -407 301 -697h-175zM423 585h-32q-50 -108 -130 -298h279q-64 152 -117 298zM427 747h-130l155 129h165z" />
    <glyph glyph-name="Acircumflex" unicode="&#xc2;" horiz-adv-x="818" 
d="M666 0q-55 115 -81 174h-366q-22 -57 -64 -174h-166q129 345 302 697h249q154 -407 301 -697h-175zM423 585h-32q-50 -108 -130 -298h279q-64 152 -117 298zM494 747l-86 78l-84 -78h-135l147 129h146l151 -129h-139z" />
    <glyph glyph-name="Atilde" unicode="&#xc3;" horiz-adv-x="818" 
d="M666 0q-55 115 -81 174h-366q-22 -57 -64 -174h-166q129 345 302 697h249q154 -407 301 -697h-175zM423 585h-32q-50 -108 -130 -298h279q-64 152 -117 298zM554 879l73 -50q-17 -41 -55 -67t-89 -26q-37 0 -91 27t-80 27q-37 0 -61 -50l-68 55q55 79 129 79
q44 0 98.5 -26t78.5 -26q22 0 36.5 12.5t28.5 44.5z" />
    <glyph glyph-name="Adieresis" unicode="&#xc4;" horiz-adv-x="818" 
d="M666 0q-55 115 -81 174h-366q-22 -57 -64 -174h-166q129 345 302 697h249q154 -407 301 -697h-175zM423 585h-32q-50 -108 -130 -298h279q-64 152 -117 298zM279 864q42 0 56.5 -10.5t14.5 -45.5q0 -38 -14.5 -49.5t-56.5 -11.5t-57 11.5t-15 49.5q0 35 15 45.5t57 10.5z
M535 864q42 0 56.5 -10.5t14.5 -45.5q0 -38 -14.5 -49.5t-56.5 -11.5q-43 0 -57.5 11.5t-14.5 49.5q0 35 14.5 45.5t57.5 10.5z" />
    <glyph glyph-name="Aring" unicode="&#xc5;" horiz-adv-x="818" 
d="M666 0q-55 115 -81 174h-366q-22 -57 -64 -174h-166q129 345 302 697h249q154 -407 301 -697h-175zM423 585h-32q-50 -108 -130 -298h279q-64 152 -117 298zM414 890q74 0 108.5 -22.5t34.5 -75.5t-34.5 -75.5t-108.5 -22.5t-109 22.5t-35 75.5q0 54 33.5 76t110.5 22z
M414 834q-35 0 -47.5 -10t-12.5 -33t12.5 -33t47.5 -10t47.5 10t12.5 33q0 24 -12.5 33.5t-47.5 9.5z" />
    <glyph glyph-name="AE" unicode="&#xc6;" horiz-adv-x="1162" 
d="M414 697h716v-114h-449v-161h267v-112h-267v-196h449v-114h-606v174h-373q-87 -109 -134 -174h-190q290 371 587 697zM524 585h-33q-148 -171 -251 -298h284v298z" />
    <glyph glyph-name="Ccedilla" unicode="&#xc7;" horiz-adv-x="710" 
d="M64 355q0 106 23 176t74 110.5t121 56.5t174 16q129 0 240 -26l-34 -116q-74 22 -178 22q-50 0 -82.5 -3t-63 -12t-48.5 -25t-32 -43t-19.5 -65t-5.5 -92q0 -80 12.5 -128.5t45.5 -75t76 -35t117 -8.5q104 0 178 22l34 -118q-107 -25 -240 -25q-103 0 -173.5 18t-121 60
t-74 113.5t-23.5 177.5zM405 0h59v-42q71 0 101.5 -17.5t30.5 -60.5q0 -47 -37 -65t-128 -18q-73 0 -117 16l26 54q29 -12 85 -12q28 0 38.5 5.5t10.5 20.5q0 19 -23.5 24t-88.5 2z" />
    <glyph glyph-name="Egrave" unicode="&#xc8;" horiz-adv-x="744" 
d="M106 697h607v-114h-449v-161h321v-113h-321v-195h449v-114h-607v697zM568 747h-137l-189 129h164z" />
    <glyph glyph-name="Eacute" unicode="&#xc9;" horiz-adv-x="744" 
d="M106 697h607v-114h-449v-161h321v-113h-321v-195h449v-114h-607v697zM432 747h-129l155 129h164z" />
    <glyph glyph-name="Ecircumflex" unicode="&#xca;" horiz-adv-x="744" 
d="M106 697h607v-114h-449v-161h321v-113h-321v-195h449v-114h-607v697zM503 747l-86 78l-84 -78h-135l147 129h146l151 -129h-139z" />
    <glyph glyph-name="Edieresis" unicode="&#xcb;" horiz-adv-x="744" 
d="M106 697h607v-114h-449v-161h321v-113h-321v-195h449v-114h-607v697zM290 864q42 0 56 -10.5t14 -45.5q0 -38 -14 -49.5t-56 -11.5t-57 11.5t-15 49.5q0 35 15 45.5t57 10.5zM545 864q42 0 56.5 -10.5t14.5 -45.5q0 -38 -14.5 -49.5t-56.5 -11.5q-43 0 -57.5 11.5
t-14.5 49.5q0 35 14.5 45.5t57.5 10.5z" />
    <glyph glyph-name="Igrave" unicode="&#xcc;" horiz-adv-x="369" 
d="M106 697h158v-697h-158v697zM290 747h-136l-190 129h164z" />
    <glyph glyph-name="Iacute" unicode="&#xcd;" horiz-adv-x="369" 
d="M106 697h158v-697h-158v697zM214 747h-130l155 129h164z" />
    <glyph glyph-name="Icircumflex" unicode="&#xce;" horiz-adv-x="370" 
d="M106 697h158v-697h-158v697zM269 747l-87 78l-84 -78h-134l146 129h147l151 -129h-139z" />
    <glyph glyph-name="Idieresis" unicode="&#xcf;" horiz-adv-x="369" 
d="M106 697h158v-697h-158v697zM59 864q42 0 56.5 -10.5t14.5 -45.5q0 -38 -14.5 -49.5t-56.5 -11.5t-57 11.5t-15 49.5q0 35 15 45.5t57 10.5zM315 864q42 0 56 -10.5t14 -45.5q0 -38 -14 -49.5t-56 -11.5q-43 0 -57.5 11.5t-14.5 49.5q0 35 14.5 45.5t57.5 10.5z" />
    <glyph glyph-name="Eth" unicode="&#xd0;" horiz-adv-x="883" 
d="M43 311v92h62v294h320q103 0 174 -16t122 -55t74.5 -106.5t23.5 -168.5t-23.5 -169t-74.5 -108t-122 -57t-174 -17h-320v311h-62zM650 350q0 78 -10.5 123t-41.5 69.5t-72.5 32t-116.5 7.5h-145v-179h191v-92h-191v-197h145q73 0 116.5 9t73 35.5t40.5 71.5t11 120z" />
    <glyph glyph-name="Ntilde" unicode="&#xd1;" horiz-adv-x="929" 
d="M822 697v-697h-193q-178 274 -368 525v-525h-155v697h208q181 -238 351 -503v503h157zM618 879l74 -50q-18 -41 -56 -67t-88 -26q-37 0 -91.5 27t-80.5 27q-37 0 -61 -50l-67 55q54 79 128 79q44 0 98.5 -26t79.5 -26q21 0 35.5 12.5t28.5 44.5z" />
    <glyph glyph-name="Ograve" unicode="&#xd2;" horiz-adv-x="925" 
d="M462 714q104 0 175 -16.5t123 -57t76 -110.5t24 -175q0 -107 -24 -179t-76 -113.5t-123 -59t-175 -17.5t-175 17.5t-123 59t-76 113.5t-24 179q0 105 24 175.5t76 110.5t123 56.5t175 16.5zM462 105q73 0 114.5 9t69 37t37 74.5t9.5 127.5t-9 127t-37.5 72.5t-69 34.5
t-114.5 8t-114 -8t-68.5 -34.5t-37.5 -72.5t-9 -127t9.5 -127.5t37 -74.5t68.5 -37t114 -9zM581 747h-137l-189 129h164z" />
    <glyph glyph-name="Oacute" unicode="&#xd3;" horiz-adv-x="925" 
d="M462 714q104 0 175 -16.5t123 -57t76 -110.5t24 -175q0 -107 -24 -179t-76 -113.5t-123 -59t-175 -17.5t-175 17.5t-123 59t-76 113.5t-24 179q0 105 24 175.5t76 110.5t123 56.5t175 16.5zM462 105q73 0 114.5 9t69 37t37 74.5t9.5 127.5t-9 127t-37.5 72.5t-69 34.5
t-114.5 8t-114 -8t-68.5 -34.5t-37.5 -72.5t-9 -127t9.5 -127.5t37 -74.5t68.5 -37t114 -9zM432 747h-129l155 129h164z" />
    <glyph glyph-name="Ocircumflex" unicode="&#xd4;" horiz-adv-x="925" 
d="M462 714q104 0 175 -16.5t123 -57t76 -110.5t24 -175q0 -107 -24 -179t-76 -113.5t-123 -59t-175 -17.5t-175 17.5t-123 59t-76 113.5t-24 179q0 105 24 175.5t76 110.5t123 56.5t175 16.5zM462 105q73 0 114.5 9t69 37t37 74.5t9.5 127.5t-9 127t-37.5 72.5t-69 34.5
t-114.5 8t-114 -8t-68.5 -34.5t-37.5 -72.5t-9 -127t9.5 -127.5t37 -74.5t68.5 -37t114 -9zM544 747l-86 78l-84 -78h-135l147 129h146l151 -129h-139z" />
    <glyph glyph-name="Otilde" unicode="&#xd5;" horiz-adv-x="925" 
d="M462 714q104 0 175 -16.5t123 -57t76 -110.5t24 -175q0 -107 -24 -179t-76 -113.5t-123 -59t-175 -17.5t-175 17.5t-123 59t-76 113.5t-24 179q0 105 24 175.5t76 110.5t123 56.5t175 16.5zM462 105q73 0 114.5 9t69 37t37 74.5t9.5 127.5t-9 127t-37.5 72.5t-69 34.5
t-114.5 8t-114 -8t-68.5 -34.5t-37.5 -72.5t-9 -127t9.5 -127.5t37 -74.5t68.5 -37t114 -9zM609 879l73 -50q-18 -41 -55.5 -67t-88.5 -26q-37 0 -91 27t-81 27q-37 0 -61 -50l-67 55q54 79 128 79q44 0 99 -26t79 -26q22 0 36.5 12.5t28.5 44.5z" />
    <glyph glyph-name="Odieresis" unicode="&#xd6;" horiz-adv-x="925" 
d="M462 714q104 0 175 -16.5t123 -57t76 -110.5t24 -175q0 -107 -24 -179t-76 -113.5t-123 -59t-175 -17.5t-175 17.5t-123 59t-76 113.5t-24 179q0 105 24 175.5t76 110.5t123 56.5t175 16.5zM462 105q73 0 114.5 9t69 37t37 74.5t9.5 127.5t-9 127t-37.5 72.5t-69 34.5
t-114.5 8t-114 -8t-68.5 -34.5t-37.5 -72.5t-9 -127t9.5 -127.5t37 -74.5t68.5 -37t114 -9zM333 864q42 0 56.5 -10.5t14.5 -45.5q0 -38 -14.5 -49.5t-56.5 -11.5t-57 11.5t-15 49.5q0 35 15 45.5t57 10.5zM588 864q42 0 56.5 -10.5t14.5 -45.5q0 -38 -14.5 -49.5
t-56.5 -11.5q-43 0 -57.5 11.5t-14.5 49.5q0 35 14.5 45.5t57.5 10.5z" />
    <glyph glyph-name="multiply" unicode="&#xd7;" horiz-adv-x="699" 
d="M193 149l-101 84l155 130l-156 129l101 84l156 -130l156 131l101 -85l-156 -130l156 -130l-101 -83l-156 130z" />
    <glyph glyph-name="Oslash" unicode="&#xd8;" horiz-adv-x="924" 
d="M744 697h162l-106 -101q59 -81 59 -241q0 -107 -24 -179t-75.5 -113.5t-123 -59t-174.5 -17.5q-163 0 -249 45l-32 -31h-161l106 101q-63 86 -63 254q0 105 24 175.5t76.5 110.5t123.5 56.5t175 16.5q165 0 252 -47zM462 595q-69 0 -109.5 -7.5t-69.5 -30.5t-40 -63.5
t-11 -107.5q0 -107 17 -168l361 351q-43 26 -148 26zM462 105q133 0 181.5 42t48.5 173q0 98 -17 157l-357 -346q42 -26 144 -26z" />
    <glyph glyph-name="Ugrave" unicode="&#xd9;" horiz-adv-x="891" 
d="M796 697l1 -486q0 -129 -86.5 -177t-264.5 -48q-87 0 -148 9.5t-109 34t-71.5 69.5t-23.5 112v486h160v-466q0 -70 42.5 -97t149.5 -27q105 0 149 26.5t44 97.5v466h157zM584 747h-137l-190 129h165z" />
    <glyph glyph-name="Uacute" unicode="&#xda;" horiz-adv-x="891" 
d="M796 697l1 -486q0 -129 -86.5 -177t-264.5 -48q-87 0 -148 9.5t-109 34t-71.5 69.5t-23.5 112v486h160v-466q0 -70 42.5 -97t149.5 -27q105 0 149 26.5t44 97.5v466h157zM447 747h-130l155 129h164z" />
    <glyph glyph-name="Ucircumflex" unicode="&#xdb;" horiz-adv-x="891" 
d="M796 697l1 -486q0 -129 -86.5 -177t-264.5 -48q-87 0 -148 9.5t-109 34t-71.5 69.5t-23.5 112v486h160v-466q0 -70 42.5 -97t149.5 -27q105 0 149 26.5t44 97.5v466h157zM526 747l-86 78l-84 -78h-135l147 129h146l151 -129h-139z" />
    <glyph glyph-name="Udieresis" unicode="&#xdc;" horiz-adv-x="891" 
d="M796 697l1 -486q0 -129 -86.5 -177t-264.5 -48q-87 0 -148 9.5t-109 34t-71.5 69.5t-23.5 112v486h160v-466q0 -70 42.5 -97t149.5 -27q105 0 149 26.5t44 97.5v466h157zM315 864q42 0 56.5 -10.5t14.5 -45.5q0 -38 -14.5 -49.5t-56.5 -11.5t-57 11.5t-15 49.5
q0 35 15 45.5t57 10.5zM570 864q42 0 56.5 -10.5t14.5 -45.5q0 -38 -14.5 -49.5t-56.5 -11.5q-43 0 -57.5 11.5t-14.5 49.5q0 35 14.5 45.5t57.5 10.5z" />
    <glyph glyph-name="Yacute" unicode="&#xdd;" horiz-adv-x="765" 
d="M160 697q108 -113 233 -266q131 147 221 266h192q-159 -198 -337 -396v-301h-159v300q-216 256 -356 397h206zM400 747h-129l155 129h164z" />
    <glyph glyph-name="Thorn" unicode="&#xde;" horiz-adv-x="808" 
d="M106 697h158v-103h278q232 0 232 -239q0 -98 -57.5 -163t-171.5 -65h-281v-127h-158v697zM264 237h233q103 0 103 119q0 125 -99 125h-237v-244z" />
    <glyph glyph-name="germandbls" unicode="&#xdf;" horiz-adv-x="785" 
d="M389 714q165 0 240.5 -42t75.5 -136q0 -77 -36.5 -118t-140.5 -49q112 -4 154 -49.5t42 -131.5q0 -112 -77.5 -157t-258.5 -45q-44 0 -83 3l17 108q38 -4 72 -4q96 0 130 24t34 84q0 63 -34.5 88t-117.5 25h-46v103h42q80 0 111.5 23.5t31.5 74.5q0 49 -34.5 68.5
t-121.5 19.5q-156 0 -156 -93v-510h-150v527q0 187 306 187z" />
    <glyph glyph-name="agrave" unicode="&#xe0;" horiz-adv-x="672" 
d="M593 326v-300q-123 -40 -276 -40q-147 0 -202.5 35.5t-55.5 134.5q0 100 59.5 133.5t180.5 33.5q72 0 151 -14q0 68 -29 89.5t-123 21.5q-102 0 -185 -25l-28 102q123 27 244 27q140 0 202 -43.5t62 -154.5zM450 98v127q-50 9 -121 9q-67 0 -90.5 -13t-23.5 -60
q0 -51 22 -65.5t91 -14.5q62 0 122 17zM443 568h-132l-173 129h159z" />
    <glyph glyph-name="aacute" unicode="&#xe1;" horiz-adv-x="672" 
d="M593 326v-300q-123 -40 -276 -40q-147 0 -202.5 35.5t-55.5 134.5q0 100 59.5 133.5t180.5 33.5q72 0 151 -14q0 68 -29 89.5t-123 21.5q-102 0 -185 -25l-28 102q123 27 244 27q140 0 202 -43.5t62 -154.5zM450 98v127q-50 9 -121 9q-67 0 -90.5 -13t-23.5 -60
q0 -51 22 -65.5t91 -14.5q62 0 122 17zM358 568h-131l145 129h160z" />
    <glyph glyph-name="acircumflex" unicode="&#xe2;" horiz-adv-x="672" 
d="M593 326v-300q-123 -40 -276 -40q-147 0 -202.5 35.5t-55.5 134.5q0 100 59.5 133.5t180.5 33.5q72 0 151 -14q0 68 -29 89.5t-123 21.5q-102 0 -185 -25l-28 102q123 27 244 27q140 0 202 -43.5t62 -154.5zM450 98v127q-50 9 -121 9q-67 0 -90.5 -13t-23.5 -60
q0 -51 22 -65.5t91 -14.5q62 0 122 17zM561 568h-141l-85 76l-83 -76h-135l146 129h146z" />
    <glyph glyph-name="atilde" unicode="&#xe3;" horiz-adv-x="672" 
d="M593 326v-300q-123 -40 -276 -40q-147 0 -202.5 35.5t-55.5 134.5q0 100 59.5 133.5t180.5 33.5q72 0 151 -14q0 68 -29 89.5t-123 21.5q-102 0 -185 -25l-28 102q123 27 244 27q140 0 202 -43.5t62 -154.5zM450 98v127q-50 9 -121 9q-67 0 -90.5 -13t-23.5 -60
q0 -51 22 -65.5t91 -14.5q62 0 122 17zM473 702l74 -50q-38 -93 -140 -93q-38 0 -89.5 26.5t-79.5 26.5q-37 0 -63 -51l-67 55q56 81 131 81q44 0 94.5 -26.5t75.5 -26.5q22 0 36 12.5t28 45.5z" />
    <glyph glyph-name="adieresis" unicode="&#xe4;" horiz-adv-x="672" 
d="M593 326v-300q-123 -40 -276 -40q-147 0 -202.5 35.5t-55.5 134.5q0 100 59.5 133.5t180.5 33.5q72 0 151 -14q0 68 -29 89.5t-123 21.5q-102 0 -185 -25l-28 102q123 27 244 27q140 0 202 -43.5t62 -154.5zM450 98v127q-50 9 -121 9q-67 0 -90.5 -13t-23.5 -60
q0 -51 22 -65.5t91 -14.5q62 0 122 17zM199 681q42 0 57 -10t15 -45q0 -38 -15 -50t-57 -12t-56 11.5t-14 50.5q0 35 14 45t56 10zM456 681q42 0 56.5 -10t14.5 -45q0 -38 -15 -50t-56 -12q-43 0 -57.5 11.5t-14.5 50.5q0 35 14.5 45t57.5 10z" />
    <glyph glyph-name="aring" unicode="&#xe5;" horiz-adv-x="672" 
d="M593 326v-300q-123 -40 -276 -40q-147 0 -202.5 35.5t-55.5 134.5q0 100 59.5 133.5t180.5 33.5q72 0 151 -14q0 68 -29 89.5t-123 21.5q-102 0 -185 -25l-28 102q123 27 244 27q140 0 202 -43.5t62 -154.5zM450 98v127q-50 9 -121 9q-67 0 -90.5 -13t-23.5 -60
q0 -51 22 -65.5t91 -14.5q62 0 122 17zM337 741q74 0 108.5 -22.5t34.5 -75.5t-34.5 -75.5t-108.5 -22.5t-109 22.5t-35 75.5t33.5 75.5t110.5 22.5zM337 684q-35 0 -47.5 -9.5t-12.5 -33.5q0 -23 12.5 -33t47.5 -10t47.5 10t12.5 33q0 24 -12 33.5t-48 9.5z" />
    <glyph glyph-name="ae" unicode="&#xe6;" horiz-adv-x="1042" 
d="M927 112l24 -98q-102 -28 -214 -28q-115 0 -178 36q-90 -36 -242 -36q-147 0 -202.5 35.5t-55.5 134.5q0 52 16.5 86.5t51 51.5t74 23t98.5 6q72 0 151 -14q0 68 -28 88.5t-124 20.5q-108 0 -185 -23l-28 102q123 27 244 27q154 0 203 -61q53 61 193 61q76 0 125 -12.5
t84 -46t48 -92.5t9 -151h-394q1 -78 37 -104.5t121 -26.5q88 0 172 21zM472 105q-24 47 -24 120q-50 9 -118 9q-67 0 -90.5 -13t-23.5 -60q0 -49 21 -64.5t92 -15.5q34 0 77.5 7t65.5 17zM733 426q-69 0 -98.5 -22.5t-36.5 -86.5h257q-4 66 -29.5 87.5t-92.5 21.5z" />
    <glyph glyph-name="ccedilla" unicode="&#xe7;" horiz-adv-x="563" 
d="M516 118l33 -106q-78 -26 -186 -26q-149 0 -225.5 61t-76.5 210q0 148 77 207.5t225 59.5q109 0 186 -24l-33 -106q-72 22 -142 22q-88 0 -123.5 -30.5t-35.5 -130.5q0 -96 36.5 -128.5t122.5 -32.5q70 0 142 24zM312 0h59v-42q71 0 101.5 -17.5t30.5 -60.5
q0 -47 -37 -65t-128 -18q-73 0 -117 16l26 54q29 -12 85 -12q28 0 38.5 5.5t10.5 20.5q0 19 -23.5 24t-88.5 2z" />
    <glyph glyph-name="egrave" unicode="&#xe8;" horiz-adv-x="663" 
d="M547 112l24 -98q-100 -28 -214 -28q-143 0 -219.5 61.5t-76.5 209.5q0 146 71.5 206.5t212.5 60.5q77 0 126 -12.5t84 -46t48 -92.5t9 -151h-395q1 -78 37 -104.5t121 -26.5q88 0 172 21zM354 426q-71 0 -100 -23t-36 -86h257q-4 66 -29.5 87.5t-91.5 21.5zM468 568h-132
l-173 129h158z" />
    <glyph glyph-name="eacute" unicode="&#xe9;" horiz-adv-x="663" 
d="M547 112l24 -98q-100 -28 -214 -28q-143 0 -219.5 61.5t-76.5 209.5q0 146 71.5 206.5t212.5 60.5q77 0 126 -12.5t84 -46t48 -92.5t9 -151h-395q1 -78 37 -104.5t121 -26.5q88 0 172 21zM354 426q-71 0 -100 -23t-36 -86h257q-4 66 -29.5 87.5t-91.5 21.5zM372 568h-131
l145 129h160z" />
    <glyph glyph-name="ecircumflex" unicode="&#xea;" horiz-adv-x="663" 
d="M547 112l24 -98q-100 -28 -214 -28q-143 0 -219.5 61.5t-76.5 209.5q0 146 71.5 206.5t212.5 60.5q77 0 126 -12.5t84 -46t48 -92.5t9 -151h-395q1 -78 37 -104.5t121 -26.5q88 0 172 21zM354 426q-71 0 -100 -23t-36 -86h257q-4 66 -29.5 87.5t-91.5 21.5zM577 568h-140
l-86 76l-82 -76h-136l146 129h147z" />
    <glyph glyph-name="edieresis" unicode="&#xeb;" horiz-adv-x="663" 
d="M547 112l24 -98q-100 -28 -214 -28q-143 0 -219.5 61.5t-76.5 209.5q0 146 71.5 206.5t212.5 60.5q77 0 126 -12.5t84 -46t48 -92.5t9 -151h-395q1 -78 37 -104.5t121 -26.5q88 0 172 21zM354 426q-71 0 -100 -23t-36 -86h257q-4 66 -29.5 87.5t-91.5 21.5zM223 681
q42 0 57 -10t15 -45q0 -38 -15 -50t-57 -12t-56.5 11.5t-14.5 50.5q0 35 14.5 45t56.5 10zM480 681q42 0 56.5 -10t14.5 -45q0 -38 -15 -50t-56 -12q-43 0 -57.5 11.5t-14.5 50.5q0 35 14.5 45t57.5 10z" />
    <glyph glyph-name="igrave" unicode="&#xec;" horiz-adv-x="315" 
d="M232 509v-509h-149v509h149zM257 568h-132l-173 129h158z" />
    <glyph glyph-name="iacute" unicode="&#xed;" horiz-adv-x="315" 
d="M232 509v-509h-149v509h149zM184 568h-131l145 129h160z" />
    <glyph glyph-name="icircumflex" unicode="&#xee;" horiz-adv-x="314" 
d="M231 509v-509h-149v509h149zM380 568h-140l-86 76l-82 -76h-136l146 129h147z" />
    <glyph glyph-name="idieresis" unicode="&#xef;" horiz-adv-x="314" 
d="M231 509v-509h-148v509h148zM30 681q42 0 57 -10t15 -45q0 -38 -15 -50t-57 -12t-56.5 11.5t-14.5 50.5q0 35 14.5 45t56.5 10zM287 681q41 0 55.5 -10t14.5 -45q0 -38 -14.5 -50t-55.5 -12q-43 0 -57.5 11.5t-14.5 50.5q0 35 14 45t58 10z" />
    <glyph glyph-name="eth" unicode="&#xf0;" horiz-adv-x="751" 
d="M306 480l-59 65l84 44q-29 26 -126 108h197q34 -26 56 -45l73 38l58 -65l-66 -35q172 -175 172 -366q0 -141 -65.5 -191t-254.5 -50q-174 0 -244 52t-70 183q0 118 67 164t243 46q56 0 104 -5q-35 55 -83 102zM387 317q-100 0 -130 -20t-30 -85q0 -62 29.5 -86.5
t118.5 -24.5q92 0 122.5 24.5t30.5 112.5q0 36 -11 72q-56 7 -130 7z" />
    <glyph glyph-name="ntilde" unicode="&#xf1;" horiz-adv-x="700" 
d="M232 400v-400h-149v480q136 44 289 44q133 0 191 -53t58 -187v-284h-149v271q0 85 -26 113t-105 28q-55 0 -109 -12zM493 702l75 -50q-40 -93 -141 -93q-38 0 -89.5 26.5t-79.5 26.5q-37 0 -62 -51l-67 55q55 81 130 81q44 0 95 -26.5t76 -26.5q22 0 35.5 12.5t27.5 45.5
z" />
    <glyph glyph-name="ograve" unicode="&#xf2;" 
d="M351 -14q-152 0 -221 59.5t-69 211.5q0 150 69.5 208.5t220.5 58.5q154 0 223.5 -58.5t69.5 -208.5q0 -152 -69.5 -211.5t-223.5 -59.5zM351 424q-81 0 -108.5 -31.5t-27.5 -137.5q0 -103 28 -136t108 -33q82 0 111 33t29 136q0 73 -13.5 109t-41.5 48t-85 12zM476 568
h-132l-173 129h159z" />
    <glyph glyph-name="oacute" unicode="&#xf3;" 
d="M351 -14q-152 0 -221 59.5t-69 211.5q0 150 69.5 208.5t220.5 58.5q154 0 223.5 -58.5t69.5 -208.5q0 -152 -69.5 -211.5t-223.5 -59.5zM351 424q-81 0 -108.5 -31.5t-27.5 -137.5q0 -103 28 -136t108 -33q82 0 111 33t29 136q0 73 -13.5 109t-41.5 48t-85 12zM368 568
h-131l146 129h159z" />
    <glyph glyph-name="ocircumflex" unicode="&#xf4;" 
d="M351 -14q-152 0 -221 59.5t-69 211.5q0 150 69.5 208.5t220.5 58.5q154 0 223.5 -58.5t69.5 -208.5q0 -152 -69.5 -211.5t-223.5 -59.5zM351 424q-81 0 -108.5 -31.5t-27.5 -137.5q0 -103 28 -136t108 -33q82 0 111 33t29 136q0 73 -13.5 109t-41.5 48t-85 12zM572 568
h-140l-85 76l-83 -76h-136l147 129h146z" />
    <glyph glyph-name="otilde" unicode="&#xf5;" 
d="M351 -14q-152 0 -221 59.5t-69 211.5q0 150 69.5 208.5t220.5 58.5q154 0 223.5 -58.5t69.5 -208.5q0 -152 -69.5 -211.5t-223.5 -59.5zM351 424q-81 0 -108.5 -31.5t-27.5 -137.5q0 -103 28 -136t108 -33q82 0 111 33t29 136q0 73 -13.5 109t-41.5 48t-85 12zM495 702
l75 -50q-40 -93 -141 -93q-38 0 -89.5 26.5t-79.5 26.5q-37 0 -62 -51l-67 55q55 81 130 81q44 0 95 -26.5t76 -26.5q22 0 35.5 12.5t27.5 45.5z" />
    <glyph glyph-name="odieresis" unicode="&#xf6;" 
d="M351 -14q-152 0 -221 59.5t-69 211.5q0 150 69.5 208.5t220.5 58.5q154 0 223.5 -58.5t69.5 -208.5q0 -152 -69.5 -211.5t-223.5 -59.5zM351 424q-81 0 -108.5 -31.5t-27.5 -137.5q0 -103 28 -136t108 -33q82 0 111 33t29 136q0 73 -13.5 109t-41.5 48t-85 12zM223 681
q42 0 57 -10t15 -45q0 -38 -15 -50t-57 -12t-56.5 11.5t-14.5 50.5q0 35 14.5 45t56.5 10zM480 681q42 0 56.5 -10t14.5 -45q0 -38 -15 -50t-56 -12q-43 0 -57.5 11.5t-14.5 50.5q0 35 14.5 45t57.5 10z" />
    <glyph glyph-name="divide" unicode="&#xf7;" horiz-adv-x="699" 
d="M58 303v118h583v-118h-583zM347 224q57 0 76.5 -13.5t19.5 -57.5q0 -48 -19.5 -62.5t-76.5 -14.5q-54 0 -73 14.5t-19 62.5q0 44 19 57.5t73 13.5zM347 645q57 0 76.5 -13t19.5 -57q0 -48 -19.5 -62.5t-76.5 -14.5q-54 0 -73 14.5t-19 62.5q0 44 19 57t73 13z" />
    <glyph glyph-name="oslash" unicode="&#xf8;" 
d="M548 509h139l-82 -79q39 -61 39 -173q0 -152 -69.5 -211.5t-223.5 -59.5q-111 0 -176 31l-18 -17h-138l83 79q-41 60 -41 178q0 150 69.5 208.5t220.5 58.5q117 0 179 -31zM351 423q-78 0 -106.5 -27.5t-28.5 -116.5q0 -58 7 -86l218 214q-28 16 -90 16zM351 87
q81 0 109 33.5t28 120.5q0 45 -6 73l-217 -212q24 -15 86 -15z" />
    <glyph glyph-name="ugrave" unicode="&#xf9;" horiz-adv-x="700" 
d="M468 110v399h149v-480q-139 -44 -290 -44q-132 0 -190 53t-58 187v284h149v-271q0 -85 25.5 -113t103.5 -28q59 0 111 13zM468 568h-132l-173 129h158z" />
    <glyph glyph-name="uacute" unicode="&#xfa;" horiz-adv-x="700" 
d="M468 110v399h149v-480q-139 -44 -290 -44q-132 0 -190 53t-58 187v284h149v-271q0 -85 25.5 -113t103.5 -28q59 0 111 13zM371 568h-131l145 129h160z" />
    <glyph glyph-name="ucircumflex" unicode="&#xfb;" horiz-adv-x="700" 
d="M468 110v399h149v-480q-139 -44 -290 -44q-132 0 -190 53t-58 187v284h149v-271q0 -85 25.5 -113t103.5 -28q59 0 111 13zM578 568h-140l-85 76l-83 -76h-136l147 129h146z" />
    <glyph glyph-name="udieresis" unicode="&#xfc;" horiz-adv-x="700" 
d="M468 110v399h149v-480q-139 -44 -290 -44q-132 0 -190 53t-58 187v284h149v-271q0 -85 25.5 -113t103.5 -28q59 0 111 13zM224 681q42 0 57 -10t15 -45q0 -38 -15 -50t-57 -12t-56.5 11.5t-14.5 50.5q0 35 14.5 45t56.5 10zM481 681q42 0 56.5 -10t14.5 -45
q0 -38 -15 -50t-56 -12q-43 0 -57.5 11.5t-14.5 50.5q0 35 14.5 45t57.5 10z" />
    <glyph glyph-name="yacute" unicode="&#xfd;" horiz-adv-x="613" 
d="M216 -25q-100 303 -216 534h155q81 -169 151 -386q102 223 151 386h151q-87 -249 -231 -530q-50 -99 -95 -171h-166q43 63 100 167zM346 568h-131l145 129h160z" />
    <glyph glyph-name="thorn" unicode="&#xfe;" 
d="M83 -192v901h149v-195q65 10 119 10q156 0 224 -58.5t68 -210.5q0 -148 -67 -208.5t-198 -60.5q-78 0 -146 29v-207h-149zM232 402v-262q0 -22 34.5 -35.5t85.5 -13.5q79 0 109 34t30 127q0 102 -29 133.5t-111 31.5q-73 0 -119 -15z" />
    <glyph glyph-name="ydieresis" unicode="&#xff;" horiz-adv-x="613" 
d="M216 -25q-100 303 -216 534h155q81 -169 151 -386q102 223 151 386h151q-87 -249 -231 -530q-50 -99 -95 -171h-166q43 63 100 167zM182 681q42 0 57 -10t15 -45q0 -38 -15 -50t-57 -12t-56 11.5t-14 50.5q0 35 14 45t56 10zM439 681q42 0 56.5 -10t14.5 -45
q0 -38 -15 -50t-56 -12q-43 0 -57.5 11.5t-14.5 50.5q0 35 14.5 45t57.5 10z" />
    <glyph glyph-name="Amacron" unicode="&#x100;" horiz-adv-x="818" 
d="M666 0q-55 115 -81 174h-366q-22 -57 -64 -174h-166q129 345 302 697h249q154 -407 301 -697h-175zM423 585h-32q-50 -108 -130 -298h279q-64 152 -117 298zM242 753v92h334v-92h-334z" />
    <glyph glyph-name="amacron" unicode="&#x101;" horiz-adv-x="672" 
d="M593 326v-300q-123 -40 -276 -40q-147 0 -202.5 35.5t-55.5 134.5q0 100 59.5 133.5t180.5 33.5q72 0 151 -14q0 68 -29 89.5t-123 21.5q-102 0 -185 -25l-28 102q123 27 244 27q140 0 202 -43.5t62 -154.5zM450 98v127q-50 9 -121 9q-67 0 -90.5 -13t-23.5 -60
q0 -51 22 -65.5t91 -14.5q62 0 122 17zM166 576v90h333v-90h-333z" />
    <glyph glyph-name="Abreve" unicode="&#x102;" horiz-adv-x="818" 
d="M666 0q-55 115 -81 174h-366q-22 -57 -64 -174h-166q129 345 302 697h249q154 -407 301 -697h-175zM423 585h-32q-50 -108 -130 -298h279q-64 152 -117 298zM228 871h102q0 -34 18.5 -46t60.5 -12t61 12t19 46h96q0 -137 -180 -137q-177 0 -177 137z" />
    <glyph glyph-name="abreve" unicode="&#x103;" horiz-adv-x="672" 
d="M593 326v-300q-123 -40 -276 -40q-147 0 -202.5 35.5t-55.5 134.5q0 100 59.5 133.5t180.5 33.5q72 0 151 -14q0 68 -29 89.5t-123 21.5q-102 0 -185 -25l-28 102q123 27 244 27q140 0 202 -43.5t62 -154.5zM450 98v127q-50 9 -121 9q-67 0 -90.5 -13t-23.5 -60
q0 -51 22 -65.5t91 -14.5q62 0 122 17zM154 697h102q0 -34 18.5 -46t60.5 -12t61 12t19 46h96q0 -137 -180 -137q-177 0 -177 137z" />
    <glyph glyph-name="Aogonek" unicode="&#x104;" horiz-adv-x="818" 
d="M666 0q-55 115 -81 174h-366q-22 -57 -64 -174h-166q129 345 302 697h249q154 -407 301 -697h-175zM423 585h-32q-50 -108 -130 -298h279q-64 152 -117 298zM756 12h47q-61 -30 -81 -52t-20 -52q0 -22 14.5 -31t57.5 -9q62 0 99 27l42 -63q-55 -35 -157 -35
q-88 0 -123 21.5t-35 67.5q0 42 39.5 75.5t116.5 50.5z" />
    <glyph glyph-name="aogonek" unicode="&#x105;" horiz-adv-x="673" 
d="M593 326v-300q-123 -40 -276 -40q-147 0 -202.5 35.5t-55.5 134.5q0 100 59.5 133.5t180.5 33.5q72 0 151 -14q0 68 -29 89.5t-123 21.5q-102 0 -185 -25l-28 102q123 27 244 27q140 0 202 -43.5t62 -154.5zM450 98v127q-50 9 -121 9q-67 0 -90.5 -13t-23.5 -60
q0 -51 22 -65.5t91 -14.5q62 0 122 17zM497 12h47q-61 -30 -81 -52t-20 -52q0 -22 14.5 -31t57.5 -9q61 0 100 27l42 -63q-57 -35 -158 -35q-88 0 -123 21.5t-35 67.5q0 42 39.5 75.5t116.5 50.5z" />
    <glyph glyph-name="Cacute" unicode="&#x106;" horiz-adv-x="710" 
d="M64 355q0 106 23 176t74 110.5t121 56.5t174 16q129 0 240 -26l-34 -116q-74 22 -178 22q-50 0 -82.5 -3t-63 -12t-48.5 -25t-32 -43t-19.5 -65t-5.5 -92q0 -80 12.5 -128.5t45.5 -75t76 -35t117 -8.5q104 0 178 22l34 -118q-107 -25 -240 -25q-103 0 -173.5 18t-121 60
t-74 113.5t-23.5 177.5zM424 747h-130l155 129h165z" />
    <glyph glyph-name="cacute" unicode="&#x107;" horiz-adv-x="563" 
d="M516 118l33 -106q-78 -26 -186 -26q-149 0 -225.5 61t-76.5 210q0 148 77 207.5t225 59.5q109 0 186 -24l-33 -106q-72 22 -142 22q-88 0 -123.5 -30.5t-35.5 -130.5q0 -96 36.5 -128.5t122.5 -32.5q70 0 142 24zM356 568h-131l146 129h159z" />
    <glyph glyph-name="Ccircumflex" unicode="&#x108;" horiz-adv-x="710" 
d="M64 355q0 106 23 176t74 110.5t121 56.5t174 16q129 0 240 -26l-34 -116q-74 22 -178 22q-50 0 -82.5 -3t-63 -12t-48.5 -25t-32 -43t-19.5 -65t-5.5 -92q0 -80 12.5 -128.5t45.5 -75t76 -35t117 -8.5q104 0 178 22l34 -118q-107 -25 -240 -25q-103 0 -173.5 18t-121 60
t-74 113.5t-23.5 177.5zM533 747l-86 78l-84 -78h-135l147 129h146l151 -129h-139z" />
    <glyph glyph-name="ccircumflex" unicode="&#x109;" horiz-adv-x="564" 
d="M516 118l33 -106q-78 -26 -186 -26q-149 0 -225.5 61t-76.5 210q0 148 77 207.5t225 59.5q109 0 186 -24l-33 -106q-72 22 -142 22q-88 0 -123.5 -30.5t-35.5 -130.5q0 -96 36.5 -128.5t122.5 -32.5q70 0 142 24zM572 568h-140l-85 76l-83 -76h-136l147 129h146z" />
    <glyph glyph-name="Cdotaccent" unicode="&#x10a;" horiz-adv-x="710" 
d="M64 355q0 106 23 176t74 110.5t121 56.5t174 16q129 0 240 -26l-34 -116q-74 22 -178 22q-50 0 -82.5 -3t-63 -12t-48.5 -25t-32 -43t-19.5 -65t-5.5 -92q0 -80 12.5 -128.5t45.5 -75t76 -35t117 -8.5q104 0 178 22l34 -118q-107 -25 -240 -25q-103 0 -173.5 18t-121 60
t-74 113.5t-23.5 177.5zM450 867q42 0 57 -10.5t15 -45.5q0 -38 -15 -49.5t-57 -11.5t-56 11.5t-14 49.5q0 35 14 45.5t56 10.5z" />
    <glyph glyph-name="cdotaccent" unicode="&#x10b;" horiz-adv-x="563" 
d="M516 118l33 -106q-78 -26 -186 -26q-149 0 -225.5 61t-76.5 210q0 148 77 207.5t225 59.5q109 0 186 -24l-33 -106q-72 22 -142 22q-88 0 -123.5 -30.5t-35.5 -130.5q0 -96 36.5 -128.5t122.5 -32.5q70 0 142 24zM353 681q42 0 57 -10t15 -45q0 -38 -15 -50t-57 -12
t-56.5 11.5t-14.5 50.5q0 35 14.5 45t56.5 10z" />
    <glyph glyph-name="Ccaron" unicode="&#x10c;" horiz-adv-x="710" 
d="M64 355q0 106 23 176t74 110.5t121 56.5t174 16q129 0 240 -26l-34 -116q-74 22 -178 22q-50 0 -82.5 -3t-63 -12t-48.5 -25t-32 -43t-19.5 -65t-5.5 -92q0 -80 12.5 -128.5t45.5 -75t76 -35t117 -8.5q104 0 178 22l34 -118q-107 -25 -240 -25q-103 0 -173.5 18t-121 60
t-74 113.5t-23.5 177.5zM351 876l87 -78l84 78h135l-147 -129h-146l-151 129h138z" />
    <glyph glyph-name="ccaron" unicode="&#x10d;" horiz-adv-x="564" 
d="M516 118l33 -106q-78 -26 -186 -26q-149 0 -225.5 61t-76.5 210q0 148 77 207.5t225 59.5q109 0 186 -24l-33 -106q-72 22 -142 22q-88 0 -123.5 -30.5t-35.5 -130.5q0 -96 36.5 -128.5t122.5 -32.5q70 0 142 24zM127 697h140l86 -76l82 76h136l-146 -129h-147z" />
    <glyph glyph-name="Dcaron" unicode="&#x10e;" horiz-adv-x="884" 
d="M106 697h319q103 0 174 -16t122 -55t75 -106.5t24 -168.5q0 -196 -94 -273.5t-301 -77.5h-319v697zM651 350q0 78 -11 123t-41.5 70t-72 32.5t-116.5 7.5h-146v-469h146q73 0 116 9t73 35.5t41 71.5t11 120zM326 876l87 -78l84 78h135l-147 -129h-146l-151 129h138z" />
    <glyph glyph-name="dcaron" unicode="&#x10f;" horiz-adv-x="706" 
d="M473 107v263q0 22 -34.5 35.5t-85.5 13.5q-79 0 -108.5 -34t-29.5 -128q0 -101 29 -133t111 -32q65 0 118 15zM621 722v-699q-111 -37 -266 -37q-157 0 -225.5 58.5t-68.5 210.5q0 147 67.5 208t197.5 61q83 0 147 -29v227h148zM689 722h132l-69 -192h-87z" />
    <glyph glyph-name="Dcroat" unicode="&#x110;" horiz-adv-x="883" 
d="M43 311v92h62v294h320q103 0 174 -16t122 -55t74.5 -106.5t23.5 -168.5t-23.5 -169t-74.5 -108t-122 -57t-174 -17h-320v311h-62zM650 350q0 78 -10.5 123t-41.5 69.5t-72.5 32t-116.5 7.5h-145v-179h191v-92h-191v-197h145q73 0 116.5 9t73 35.5t40.5 71.5t11 120z" />
    <glyph glyph-name="dcroat" unicode="&#x111;" 
d="M366 577v89h107v56h148v-56h59v-89h-59v-554q-111 -37 -266 -37q-157 0 -225.5 58.5t-68.5 210.5q0 147 67.5 208t197.5 61q83 0 147 -29v82h-107zM473 107v263q0 22 -34.5 35.5t-85.5 13.5q-79 0 -108.5 -34t-29.5 -128q0 -101 29 -133t111 -32q65 0 118 15z" />
    <glyph glyph-name="Emacron" unicode="&#x112;" horiz-adv-x="744" 
d="M106 697h607v-114h-449v-161h321v-113h-321v-195h449v-114h-607v697zM244 753v92h334v-92h-334z" />
    <glyph glyph-name="emacron" unicode="&#x113;" horiz-adv-x="663" 
d="M547 112l24 -98q-100 -28 -214 -28q-143 0 -219.5 61.5t-76.5 209.5q0 146 71.5 206.5t212.5 60.5q77 0 126 -12.5t84 -46t48 -92.5t9 -151h-395q1 -78 37 -104.5t121 -26.5q88 0 172 21zM354 426q-71 0 -100 -23t-36 -86h257q-4 66 -29.5 87.5t-91.5 21.5zM187 576v90
h334v-90h-334z" />
    <glyph glyph-name="Ebreve" unicode="&#x114;" horiz-adv-x="744" 
d="M106 697h607v-114h-449v-161h321v-113h-321v-195h449v-114h-607v697zM243 871h102q0 -34 18.5 -46t60.5 -12t61 12t19 46h96q0 -137 -180 -137q-177 0 -177 137z" />
    <glyph glyph-name="ebreve" unicode="&#x115;" horiz-adv-x="663" 
d="M547 112l24 -98q-100 -28 -214 -28q-143 0 -219.5 61.5t-76.5 209.5q0 146 71.5 206.5t212.5 60.5q77 0 126 -12.5t84 -46t48 -92.5t9 -151h-395q1 -78 37 -104.5t121 -26.5q88 0 172 21zM354 426q-71 0 -100 -23t-36 -86h257q-4 66 -29.5 87.5t-91.5 21.5zM169 697h102
q0 -34 18.5 -46t60.5 -12t61.5 12.5t19.5 45.5h96q0 -137 -180 -137q-178 0 -178 137z" />
    <glyph glyph-name="Edotaccent" unicode="&#x116;" horiz-adv-x="744" 
d="M106 697h607v-114h-449v-161h321v-113h-321v-195h449v-114h-607v697zM435 867q42 0 57 -10.5t15 -45.5q0 -38 -15 -49.5t-57 -11.5t-56.5 11.5t-14.5 49.5q0 35 14.5 45.5t56.5 10.5z" />
    <glyph glyph-name="edotaccent" unicode="&#x117;" horiz-adv-x="663" 
d="M547 112l24 -98q-100 -28 -214 -28q-143 0 -219.5 61.5t-76.5 209.5q0 146 71.5 206.5t212.5 60.5q77 0 126 -12.5t84 -46t48 -92.5t9 -151h-395q1 -78 37 -104.5t121 -26.5q88 0 172 21zM354 426q-71 0 -100 -23t-36 -86h257q-4 66 -29.5 87.5t-91.5 21.5zM349 681
q42 0 57 -10t15 -45q0 -38 -15 -50t-57 -12t-56.5 11.5t-14.5 50.5q0 35 14.5 45t56.5 10z" />
    <glyph glyph-name="Eogonek" unicode="&#x118;" horiz-adv-x="744" 
d="M106 697h607v-114h-449v-161h321v-113h-321v-195h449v-114h-607v697zM633 12h47q-61 -30 -81 -52t-20 -52q0 -22 14.5 -31t57.5 -9q62 0 99 27l42 -63q-55 -35 -157 -35q-88 0 -123 21.5t-35 67.5q0 42 39.5 75.5t116.5 50.5z" />
    <glyph glyph-name="eogonek" unicode="&#x119;" horiz-adv-x="662" 
d="M547 112l24 -98q-100 -28 -214 -28q-143 0 -219.5 61.5t-76.5 209.5q0 146 71.5 206.5t212.5 60.5q77 0 126 -12.5t84 -46t48 -92.5t9 -151h-395q1 -78 37 -104.5t121 -26.5q88 0 172 21zM354 426q-71 0 -100 -23t-36 -86h257q-4 66 -29.5 87.5t-91.5 21.5zM492 12h47
q-61 -30 -81 -52t-20 -52q0 -22 14.5 -31t57.5 -9q62 0 99 27l42 -63q-55 -35 -157 -35q-88 0 -123 21.5t-35 67.5q0 42 39.5 75.5t116.5 50.5z" />
    <glyph glyph-name="Ecaron" unicode="&#x11a;" horiz-adv-x="744" 
d="M106 697h607v-114h-449v-161h321v-113h-321v-195h449v-114h-607v697zM336 876l88 -78l84 78h134l-146 -129h-146l-152 129h138z" />
    <glyph glyph-name="ecaron" unicode="&#x11b;" horiz-adv-x="663" 
d="M547 112l24 -98q-100 -28 -214 -28q-143 0 -219.5 61.5t-76.5 209.5q0 146 71.5 206.5t212.5 60.5q77 0 126 -12.5t84 -46t48 -92.5t9 -151h-395q1 -78 37 -104.5t121 -26.5q88 0 172 21zM354 426q-71 0 -100 -23t-36 -86h257q-4 66 -29.5 87.5t-91.5 21.5zM126 697h140
l85 -76l83 76h136l-147 -129h-146z" />
    <glyph glyph-name="Gcircumflex" unicode="&#x11c;" horiz-adv-x="840" 
d="M592 116v180h-182v111h344v-391q-113 -30 -298 -30q-103 0 -173.5 18t-121 60t-74 113.5t-23.5 177.5t26 176.5t80.5 110.5t128 56t180.5 16q139 0 252 -26l-32 -115q-73 21 -208 21q-78 0 -121.5 -7.5t-77.5 -32.5t-46.5 -72.5t-12.5 -127.5t12.5 -129t45.5 -75.5
t76 -35t117 -8.5q58 0 108 10zM544 747l-86 78l-84 -78h-135l147 129h146l151 -129h-139z" />
    <glyph glyph-name="gcircumflex" unicode="&#x11d;" 
d="M473 143v262q-54 17 -118 17q-83 0 -111.5 -31.5t-28.5 -136.5q0 -94 28.5 -126.5t107.5 -32.5q52 0 87 13t35 35zM473 21q-66 -33 -155 -33q-133 0 -195 58t-62 207q0 152 69 211.5t225 59.5q157 0 266 -38v-447q0 -73 -23 -122t-68.5 -74.5t-101 -36t-133.5 -10.5
q-121 0 -215 30l30 100q95 -25 184 -25q90 0 134.5 26.5t44.5 93.5zM584 568h-140l-85 76l-83 -76h-136l147 129h146z" />
    <glyph glyph-name="Gbreve" unicode="&#x11e;" horiz-adv-x="840" 
d="M592 116v180h-182v111h344v-391q-113 -30 -298 -30q-103 0 -173.5 18t-121 60t-74 113.5t-23.5 177.5t26 176.5t80.5 110.5t128 56t180.5 16q139 0 252 -26l-32 -115q-73 21 -208 21q-78 0 -121.5 -7.5t-77.5 -32.5t-46.5 -72.5t-12.5 -127.5t12.5 -129t45.5 -75.5
t76 -35t117 -8.5q58 0 108 10zM278 871h102q0 -34 18.5 -46t60.5 -12q41 0 60.5 12.5t19.5 45.5h96q0 -137 -180 -137q-177 0 -177 137z" />
    <glyph glyph-name="gbreve" unicode="&#x11f;" 
d="M473 143v262q-54 17 -118 17q-83 0 -111.5 -31.5t-28.5 -136.5q0 -94 28.5 -126.5t107.5 -32.5q52 0 87 13t35 35zM473 21q-66 -33 -155 -33q-133 0 -195 58t-62 207q0 152 69 211.5t225 59.5q157 0 266 -38v-447q0 -73 -23 -122t-68.5 -74.5t-101 -36t-133.5 -10.5
q-121 0 -215 30l30 100q95 -25 184 -25q90 0 134.5 26.5t44.5 93.5zM181 697h102q0 -34 18.5 -46t60.5 -12t61.5 12.5t19.5 45.5h96q0 -137 -180 -137q-178 0 -178 137z" />
    <glyph glyph-name="Gdotaccent" unicode="&#x120;" horiz-adv-x="840" 
d="M592 116v180h-182v111h344v-391q-113 -30 -298 -30q-103 0 -173.5 18t-121 60t-74 113.5t-23.5 177.5t26 176.5t80.5 110.5t128 56t180.5 16q139 0 252 -26l-32 -115q-73 21 -208 21q-78 0 -121.5 -7.5t-77.5 -32.5t-46.5 -72.5t-12.5 -127.5t12.5 -129t45.5 -75.5
t76 -35t117 -8.5q58 0 108 10zM470 867q42 0 57 -10.5t15 -45.5q0 -38 -15 -49.5t-57 -11.5t-56.5 11.5t-14.5 49.5q0 35 14.5 45.5t56.5 10.5z" />
    <glyph glyph-name="gdotaccent" unicode="&#x121;" 
d="M473 143v262q-54 17 -118 17q-83 0 -111.5 -31.5t-28.5 -136.5q0 -94 28.5 -126.5t107.5 -32.5q52 0 87 13t35 35zM473 21q-66 -33 -155 -33q-133 0 -195 58t-62 207q0 152 69 211.5t225 59.5q157 0 266 -38v-447q0 -73 -23 -122t-68.5 -74.5t-101 -36t-133.5 -10.5
q-121 0 -215 30l30 100q95 -25 184 -25q90 0 134.5 26.5t44.5 93.5zM353 681q42 0 57 -10t15 -45q0 -38 -15 -50t-57 -12t-56.5 11.5t-14.5 50.5q0 35 14.5 45t56.5 10z" />
    <glyph glyph-name="Gcommaaccent" unicode="&#x122;" horiz-adv-x="840" 
d="M592 116v180h-182v111h344v-391q-113 -30 -298 -30q-103 0 -173.5 18t-121 60t-74 113.5t-23.5 177.5t26 176.5t80.5 110.5t128 56t180.5 16q139 0 252 -26l-32 -115q-73 21 -208 21q-78 0 -121.5 -7.5t-77.5 -32.5t-46.5 -72.5t-12.5 -127.5t12.5 -129t45.5 -75.5
t76 -35t117 -8.5q58 0 108 10zM568 -51l-130 -167h-116l85 167h161z" />
    <glyph glyph-name="gcommaaccent" unicode="&#x123;" 
d="M473 143v262q-54 17 -118 17q-83 0 -111.5 -31.5t-28.5 -136.5q0 -94 28.5 -126.5t107.5 -32.5q52 0 87 13t35 35zM473 21q-66 -33 -155 -33q-133 0 -195 58t-62 207q0 152 69 211.5t225 59.5q157 0 266 -38v-447q0 -73 -23 -122t-68.5 -74.5t-101 -36t-133.5 -10.5
q-121 0 -215 30l30 100q95 -25 184 -25q90 0 134.5 26.5t44.5 93.5zM512 751l-129 -167h-117l85 167h161z" />
    <glyph glyph-name="Hcircumflex" unicode="&#x124;" horiz-adv-x="884" 
d="M264 309v-309h-158v697h158v-266h358v266h156v-697h-156v309h-358zM521 747l-86 78l-84 -78h-135l147 129h146l151 -129h-139z" />
    <glyph glyph-name="hcircumflex" unicode="&#x125;" horiz-adv-x="699" 
d="M400 524q115 0 167.5 -48t52.5 -183v-293h-148v283q0 66 -27 97.5t-96 31.5q-49 0 -83 -12t-34 -33v-367h-149v722h149v-233q80 35 168 35zM329 747l-87 78l-84 -78h-134l146 129h147l151 -129h-139z" />
    <glyph glyph-name="Hbar" unicode="&#x126;" horiz-adv-x="884" 
d="M35 520v105h71v72h158v-72h358v72h156v-72h72v-105h-72v-520h-156v309h-358v-309h-158v520h-71zM264 431h358v89h-358v-89z" />
    <glyph glyph-name="hbar" unicode="&#x127;" horiz-adv-x="700" 
d="M22 581v87h61v54h149v-54h124v-87h-124v-92q82 35 168 35q57 0 95.5 -9.5t68 -34.5t43.5 -71t14 -116v-293h-149v283q0 77 -28.5 103t-93.5 26q-50 0 -84 -12t-34 -33v-367h-149v581h-61z" />
    <glyph glyph-name="Itilde" unicode="&#x128;" horiz-adv-x="370" 
d="M106 697h158v-697h-158v697zM334 879l73 -50q-18 -41 -55.5 -67t-88.5 -26q-37 0 -91 27t-81 27q-37 0 -61 -50l-67 55q54 79 128 79q44 0 99 -26t79 -26q22 0 36.5 12.5t28.5 44.5z" />
    <glyph glyph-name="itilde" unicode="&#x129;" horiz-adv-x="315" 
d="M232 509v-509h-149v509h149zM303 702l74 -50q-40 -93 -140 -93q-38 0 -90 26.5t-79 26.5q-38 0 -63 -51l-67 55q56 81 131 81q44 0 94.5 -26.5t75.5 -26.5q22 0 36 12.5t28 45.5z" />
    <glyph glyph-name="Imacron" unicode="&#x12a;" horiz-adv-x="370" 
d="M105 697h159v-697h-159v697zM19 753v92h334v-92h-334z" />
    <glyph glyph-name="imacron" unicode="&#x12b;" horiz-adv-x="315" 
d="M232 509v-509h-149v509h149zM-8 576v90h334v-90h-334z" />
    <glyph glyph-name="Ibreve" unicode="&#x12c;" horiz-adv-x="370" 
d="M105 697h159v-697h-159v697zM8 871h102q0 -34 18.5 -46t60.5 -12t61.5 12.5t19.5 45.5h96q0 -137 -180 -137q-178 0 -178 137z" />
    <glyph glyph-name="ibreve" unicode="&#x12d;" horiz-adv-x="315" 
d="M232 509v-509h-149v509h149zM-20 697h102q0 -34 18.5 -46t60.5 -12t61.5 12.5t19.5 45.5h96q0 -137 -180 -137q-178 0 -178 137z" />
    <glyph glyph-name="Iogonek" unicode="&#x12e;" horiz-adv-x="370" 
d="M106 697h158v-697h-158v697zM184 12h47q-61 -30 -81 -52t-20 -52q0 -22 14.5 -31t57.5 -9q61 0 100 27l42 -63q-57 -35 -158 -35q-88 0 -123 21.5t-35 67.5q0 42 39.5 75.5t116.5 50.5z" />
    <glyph glyph-name="iogonek" unicode="&#x12f;" horiz-adv-x="315" 
d="M232 509v-509h-149v509h149zM159 721q50 0 67.5 -11.5t17.5 -49.5q0 -43 -17.5 -56t-67.5 -13q-51 0 -69 13t-18 56q0 38 17.5 49.5t69.5 11.5zM167 12h47q-61 -30 -81 -52t-20 -52q0 -22 14.5 -31t57.5 -9q61 0 100 27l42 -63q-57 -35 -158 -35q-88 0 -123 21.5
t-35 67.5q0 42 39.5 75.5t116.5 50.5z" />
    <glyph glyph-name="Idotaccent" unicode="&#x130;" horiz-adv-x="370" 
d="M106 697h158v-697h-158v697zM184 867q42 0 57 -10.5t15 -45.5q0 -38 -15 -49.5t-57 -11.5t-56.5 11.5t-14.5 49.5q0 35 14.5 45.5t56.5 10.5z" />
    <glyph glyph-name="dotlessi" unicode="&#x131;" horiz-adv-x="315" 
d="M232 509v-509h-149v509h149z" />
    <glyph glyph-name="IJ" unicode="&#x132;" horiz-adv-x="922" 
d="M106 697h158v-697h-158v697zM819 697v-505q0 -206 -253 -206q-102 0 -190 27l31 118q63 -21 143 -21q109 0 109 99v488h160z" />
    <glyph glyph-name="ij" unicode="&#x133;" horiz-adv-x="629" 
d="M232 509v-509h-149v509h149zM158 721q51 0 68.5 -11.5t17.5 -49.5q0 -43 -17.5 -56t-68.5 -13t-68.5 13t-17.5 56q0 38 17.5 49.5t68.5 11.5zM470 721q51 0 69 -11.5t18 -49.5q0 -43 -18 -56t-69 -13q-50 0 -68 13t-18 56q0 38 18 49.5t68 11.5zM293 -203v103
q54 0 78.5 18.5t24.5 67.5v523h149v-520q0 -109 -60 -150.5t-192 -41.5z" />
    <glyph glyph-name="Jcircumflex" unicode="&#x134;" horiz-adv-x="553" 
d="M450 697l1 -505q0 -206 -254 -206q-101 0 -190 27l31 118q65 -21 143 -21q109 0 109 99v488h160zM451 747l-86 78l-84 -78h-135l147 129h146l151 -129h-139z" />
    <glyph glyph-name="jcircumflex" unicode="&#x135;" horiz-adv-x="314" 
d="M379 568h-140l-86 76l-82 -76h-136l146 129h147zM231 509v-519q0 -109 -59.5 -151t-190.5 -42v103q53 0 77.5 19t24.5 68v522h148z" />
    <glyph glyph-name="Kcommaaccent" unicode="&#x136;" horiz-adv-x="794" 
d="M264 697v-697h-158v697h158zM810 0h-194q-116 160 -212.5 257t-137.5 111q44 27 134.5 116t191.5 213h192q-105 -123 -191.5 -208.5t-124.5 -111.5q40 -23 135.5 -123t206.5 -254zM502 -51l-130 -167h-116l85 167h161z" />
    <glyph glyph-name="kcommaaccent" unicode="&#x137;" horiz-adv-x="662" 
d="M232 722v-722h-149v722h149zM663 0h-176q-208 252 -255 269q60 42 236 240h177q-167 -187 -234 -231q26 -13 93.5 -86t158.5 -192zM437 -51l-130 -167h-116l85 167h161z" />
    <glyph glyph-name="Lacute" unicode="&#x139;" horiz-adv-x="661" 
d="M106 697h158v-582h395v-115h-553v697zM249 747h-130l155 129h164z" />
    <glyph glyph-name="lacute" unicode="&#x13a;" horiz-adv-x="322" 
d="M232 722v-579q0 -69 47 -120l-131 -47q-65 62 -65 162v584h149zM200 747h-130l155 129h164z" />
    <glyph glyph-name="Lcommaaccent" unicode="&#x13b;" horiz-adv-x="661" 
d="M106 697h158v-582h395v-115h-553v697zM474 -51l-129 -167h-117l86 167h160z" />
    <glyph glyph-name="lcommaaccent" unicode="&#x13c;" horiz-adv-x="321" 
d="M231 722v-579q0 -69 47 -120l-131 -47q-65 62 -65 162v584h149zM290 -51l-130 -167h-116l85 167h161z" />
    <glyph glyph-name="Lcaron" unicode="&#x13d;" horiz-adv-x="661" 
d="M106 697h158v-582h395v-115h-553v697zM381 722h132l-69 -192h-87z" />
    <glyph glyph-name="lcaron" unicode="&#x13e;" horiz-adv-x="321" 
d="M232 722v-579q0 -69 47 -120l-131 -47q-65 62 -65 162v584h149zM307 722h132l-68 -192h-88z" />
    <glyph glyph-name="Ldot" unicode="&#x13f;" horiz-adv-x="661" 
d="M106 697h158v-582h395v-115h-553v697zM425 463q42 0 57 -10.5t15 -45.5q0 -38 -15 -49.5t-57 -11.5t-56.5 11.5t-14.5 49.5q0 35 14.5 45.5t56.5 10.5z" />
    <glyph glyph-name="ldot" unicode="&#x140;" horiz-adv-x="322" 
d="M232 722v-579q0 -69 47 -120l-131 -47q-65 62 -65 162v584h149zM339 460q42 0 57 -10t15 -45q0 -38 -15 -50t-57 -12t-56.5 11.5t-14.5 50.5q0 35 14.5 45t56.5 10z" />
    <glyph glyph-name="Lslash" unicode="&#x141;" horiz-adv-x="661" 
d="M451 557v-124l-187 -135v-183h395v-115h-554v189l-80 -58v123l80 58v385h159v-276z" />
    <glyph glyph-name="lslash" unicode="&#x142;" horiz-adv-x="345" 
d="M244 722v-228l82 75v-124l-82 -75v-227q0 -8 2 -24q4 -55 44 -96q-17 -6 -61 -22t-69 -24q-58 50 -63 135q-2 38 -2 58v67q-12 -11 -38 -34.5t-39 -34.5v123q13 11 38.5 34t38.5 35v362h149z" />
    <glyph glyph-name="Nacute" unicode="&#x143;" horiz-adv-x="929" 
d="M822 697v-697h-193q-178 274 -368 525v-525h-155v697h208q181 -238 351 -503v503h157zM488 747h-130l155 129h164z" />
    <glyph glyph-name="nacute" unicode="&#x144;" horiz-adv-x="700" 
d="M232 400v-400h-149v480q136 44 289 44q133 0 191 -53t58 -187v-284h-149v271q0 85 -26 113t-105 28q-55 0 -109 -12zM349 568h-130l145 129h159z" />
    <glyph glyph-name="Ncommaaccent" unicode="&#x145;" horiz-adv-x="929" 
d="M822 697v-697h-193q-178 274 -368 525v-525h-155v697h208q181 -238 351 -503v503h157zM552 -51l-129 -167h-117l86 167h160z" />
    <glyph glyph-name="ncommaaccent" unicode="&#x146;" horiz-adv-x="700" 
d="M232 400v-400h-149v480q136 44 289 44q133 0 191 -53t58 -187v-284h-149v271q0 85 -26 113t-105 28q-55 0 -109 -12zM437 -51l-130 -167h-116l85 167h161z" />
    <glyph glyph-name="Ncaron" unicode="&#x147;" horiz-adv-x="929" 
d="M822 697v-697h-193q-178 274 -368 525v-525h-155v697h208q181 -238 351 -503v503h157zM394 876l88 -78l84 78h134l-146 -129h-147l-151 129h138z" />
    <glyph glyph-name="ncaron" unicode="&#x148;" horiz-adv-x="700" 
d="M232 400v-400h-149v480q136 44 289 44q133 0 191 -53t58 -187v-284h-149v271q0 85 -26 113t-105 28q-55 0 -109 -12zM125 697h140l86 -76l82 76h136l-146 -129h-147z" />
    <glyph glyph-name="Omacron" unicode="&#x14c;" horiz-adv-x="925" 
d="M462 714q104 0 175 -16.5t123 -57t76 -110.5t24 -175q0 -107 -24 -179t-76 -113.5t-123 -59t-175 -17.5t-175 17.5t-123 59t-76 113.5t-24 179q0 105 24 175.5t76 110.5t123 56.5t175 16.5zM462 105q73 0 114.5 9t69 37t37 74.5t9.5 127.5t-9 127t-37.5 72.5t-69 34.5
t-114.5 8t-114 -8t-68.5 -34.5t-37.5 -72.5t-9 -127t9.5 -127.5t37 -74.5t68.5 -37t114 -9zM296 753v92h333v-92h-333z" />
    <glyph glyph-name="omacron" unicode="&#x14d;" 
d="M351 -14q-152 0 -221 59.5t-69 211.5q0 150 69.5 208.5t220.5 58.5q154 0 223.5 -58.5t69.5 -208.5q0 -152 -69.5 -211.5t-223.5 -59.5zM351 424q-81 0 -108.5 -31.5t-27.5 -137.5q0 -103 28 -136t108 -33q82 0 111 33t29 136q0 73 -13.5 109t-41.5 48t-85 12zM185 576
v90h333v-90h-333z" />
    <glyph glyph-name="Obreve" unicode="&#x14e;" horiz-adv-x="925" 
d="M462 714q104 0 175 -16.5t123 -57t76 -110.5t24 -175q0 -107 -24 -179t-76 -113.5t-123 -59t-175 -17.5t-175 17.5t-123 59t-76 113.5t-24 179q0 105 24 175.5t76 110.5t123 56.5t175 16.5zM462 105q73 0 114.5 9t69 37t37 74.5t9.5 127.5t-9 127t-37.5 72.5t-69 34.5
t-114.5 8t-114 -8t-68.5 -34.5t-37.5 -72.5t-9 -127t9.5 -127.5t37 -74.5t68.5 -37t114 -9zM284 871h102q0 -34 18.5 -46t60.5 -12q41 0 60.5 12.5t19.5 45.5h96q0 -137 -180 -137q-177 0 -177 137z" />
    <glyph glyph-name="obreve" unicode="&#x14f;" 
d="M351 -14q-152 0 -221 59.5t-69 211.5q0 150 69.5 208.5t220.5 58.5q154 0 223.5 -58.5t69.5 -208.5q0 -152 -69.5 -211.5t-223.5 -59.5zM351 424q-81 0 -108.5 -31.5t-27.5 -137.5q0 -103 28 -136t108 -33q82 0 111 33t29 136q0 73 -13.5 109t-41.5 48t-85 12zM173 697
h102q0 -34 18.5 -46t60.5 -12q41 0 60.5 12.5t19.5 45.5h96q0 -137 -180 -137q-177 0 -177 137z" />
    <glyph glyph-name="Ohungarumlaut" unicode="&#x150;" horiz-adv-x="925" 
d="M462 714q104 0 175 -16.5t123 -57t76 -110.5t24 -175q0 -107 -24 -179t-76 -113.5t-123 -59t-175 -17.5t-175 17.5t-123 59t-76 113.5t-24 179q0 105 24 175.5t76 110.5t123 56.5t175 16.5zM462 105q73 0 114.5 9t69 37t37 74.5t9.5 127.5t-9 127t-37.5 72.5t-69 34.5
t-114.5 8t-114 -8t-68.5 -34.5t-37.5 -72.5t-9 -127t9.5 -127.5t37 -74.5t68.5 -37t114 -9zM372 747h-102l110 129h130zM570 747h-103l109 129h131z" />
    <glyph glyph-name="ohungarumlaut" unicode="&#x151;" 
d="M351 -14q-152 0 -221 59.5t-69 211.5q0 150 69.5 208.5t220.5 58.5q154 0 223.5 -58.5t69.5 -208.5q0 -152 -69.5 -211.5t-223.5 -59.5zM351 424q-81 0 -108.5 -31.5t-27.5 -137.5q0 -103 28 -136t108 -33q82 0 111 33t29 136q0 73 -13.5 109t-41.5 48t-85 12zM265 568
h-102l109 129h131zM463 568h-103l109 129h131z" />
    <glyph glyph-name="OE" unicode="&#x152;" horiz-adv-x="1318" 
d="M639 697h648v-114h-484q45 -56 54 -161h247v-112h-247q-3 -131 -60 -196h490v-114h-665q-64 -14 -160 -14q-104 0 -175 17.5t-123 59t-76 113.5t-24 179q0 105 24 175.5t76 110.5t123 56.5t175 16.5q105 0 177 -17zM462 105q73 0 114.5 9t69 37t37 74.5t9.5 127.5t-9 127
t-37.5 72.5t-69 34.5t-114.5 8t-114 -8t-68.5 -34.5t-37.5 -72.5t-9 -127t9.5 -127.5t37 -74.5t68.5 -37t114 -9z" />
    <glyph glyph-name="oe" unicode="&#x153;" horiz-adv-x="1089" 
d="M972 112l25 -98q-102 -28 -215 -28q-152 0 -213 69q-57 -69 -218 -69q-152 0 -221 59.5t-69 211.5q0 150 69.5 208.5t220.5 58.5q157 0 215 -65q61 65 204 65q76 0 125.5 -12.5t84.5 -45.5t48 -92.5t9 -151.5h-395q1 -78 37.5 -104.5t120.5 -26.5q90 0 172 21zM351 424
q-81 0 -108.5 -31.5t-27.5 -137.5q0 -103 28 -136t108 -33q82 0 111 33t29 136q0 73 -13.5 109t-41.5 48t-85 12zM780 426q-69 0 -99 -22.5t-38 -86.5h257q-3 66 -28.5 87.5t-91.5 21.5z" />
    <glyph glyph-name="Racute" unicode="&#x154;" horiz-adv-x="847" 
d="M264 585v-210h237q46 0 71.5 26t25.5 76q0 108 -94 108h-240zM555 303q43 -13 106.5 -81.5t172.5 -221.5h-195q-97 141 -159.5 203.5t-103.5 62.5h-112v-266h-158v697h436q232 0 232 -203q0 -83 -51 -135t-168 -56zM412 747h-130l155 129h165z" />
    <glyph glyph-name="racute" unicode="&#x155;" horiz-adv-x="455" 
d="M83 0v509h149v-38q40 53 156 53q30 0 62 -3v-118q-37 7 -78 7q-59 0 -99.5 -15t-40.5 -42v-353h-149zM306 568h-131l146 129h159z" />
    <glyph glyph-name="Rcommaaccent" unicode="&#x156;" horiz-adv-x="847" 
d="M264 585v-210h237q46 0 71.5 26t25.5 76q0 108 -94 108h-240zM555 303q43 -13 106.5 -81.5t172.5 -221.5h-195q-97 141 -159.5 203.5t-103.5 62.5h-112v-266h-158v697h436q232 0 232 -203q0 -83 -51 -135t-168 -56zM525 -51l-130 -167h-116l85 167h161z" />
    <glyph glyph-name="rcommaaccent" unicode="&#x157;" horiz-adv-x="455" 
d="M83 0v509h149v-38q40 53 156 53q30 0 62 -3v-118q-37 7 -78 7q-59 0 -99.5 -15t-40.5 -42v-353h-149zM269 -51l-130 -167h-116l85 167h161z" />
    <glyph glyph-name="Rcaron" unicode="&#x158;" horiz-adv-x="847" 
d="M264 585v-210h237q46 0 71.5 26t25.5 76q0 108 -94 108h-240zM555 303q43 -13 106.5 -81.5t172.5 -221.5h-195q-97 141 -159.5 203.5t-103.5 62.5h-112v-266h-158v697h436q232 0 232 -203q0 -83 -51 -135t-168 -56zM330 876l88 -78l84 78h134l-146 -129h-146l-152 129
h138z" />
    <glyph glyph-name="rcaron" unicode="&#x159;" horiz-adv-x="455" 
d="M83 0v509h149v-38q40 53 156 53q29 0 62 -3v-118q-39 7 -78 7q-59 0 -99.5 -15t-40.5 -42v-353h-149zM54 697h140l86 -76l82 76h136l-146 -129h-147z" />
    <glyph glyph-name="Sacute" unicode="&#x15a;" horiz-adv-x="746" 
d="M671 683l-35 -114q-84 25 -221 25q-101 0 -144.5 -20.5t-43.5 -70.5q0 -42 37 -61t147 -28q147 -13 213.5 -62t66.5 -147q0 -120 -87 -169.5t-274 -49.5q-151 0 -260 31l35 114q93 -25 223 -25q103 0 148 20t45 72q0 43 -39 66t-152 31q-143 12 -207 55t-64 137
q0 120 88 173.5t268 53.5q142 0 256 -31zM385 747h-129l155 129h164z" />
    <glyph glyph-name="sacute" unicode="&#x15b;" horiz-adv-x="589" 
d="M521 496l-33 -97q-89 24 -177 24q-61 0 -86 -11t-25 -48q0 -26 25.5 -37.5t100.5 -17.5q114 -10 163.5 -44t49.5 -109q0 -64 -34 -102.5t-89.5 -53t-138.5 -14.5q-127 0 -218 27l31 98q81 -24 181 -24q66 0 93 12t27 50q0 28 -27 41.5t-104 19.5q-107 7 -156.5 38.5
t-49.5 106.5q0 93 68 131t194 38q105 0 205 -28zM308 568h-130l145 129h159z" />
    <glyph glyph-name="Scircumflex" unicode="&#x15c;" horiz-adv-x="746" 
d="M671 683l-35 -114q-84 25 -221 25q-101 0 -144.5 -20.5t-43.5 -70.5q0 -42 37 -61t147 -28q147 -13 213.5 -62t66.5 -147q0 -120 -87 -169.5t-274 -49.5q-151 0 -260 31l35 114q93 -25 223 -25q103 0 148 20t45 72q0 43 -39 66t-152 31q-143 12 -207 55t-64 137
q0 120 88 173.5t268 53.5q142 0 256 -31zM478 747l-87 78l-84 -78h-134l146 129h147l151 -129h-139z" />
    <glyph glyph-name="scircumflex" unicode="&#x15d;" horiz-adv-x="589" 
d="M521 496l-33 -97q-89 24 -177 24q-61 0 -86 -11t-25 -48q0 -26 25.5 -37.5t100.5 -17.5q114 -10 163.5 -44t49.5 -109q0 -64 -34 -102.5t-89.5 -53t-138.5 -14.5q-127 0 -218 27l31 98q81 -24 181 -24q66 0 93 12t27 50q0 28 -27 41.5t-104 19.5q-107 7 -156.5 38.5
t-49.5 106.5q0 93 68 131t194 38q105 0 205 -28zM532 568h-141l-85 76l-83 -76h-135l146 129h146z" />
    <glyph glyph-name="Scedilla" unicode="&#x15e;" horiz-adv-x="746" 
d="M671 683l-35 -114q-84 25 -221 25q-101 0 -144.5 -20.5t-43.5 -70.5q0 -42 37 -61t147 -28q147 -13 213.5 -62t66.5 -147q0 -120 -87 -169.5t-274 -49.5q-151 0 -260 31l35 114q93 -25 223 -25q103 0 148 20t45 72q0 43 -39 66t-152 31q-143 12 -207 55t-64 137
q0 120 88 173.5t268 53.5q142 0 256 -31zM336 0h59v-42q72 0 102 -17t30 -61q0 -47 -36.5 -65t-127.5 -18q-74 0 -118 16l26 54q30 -12 86 -12q28 0 38.5 5.5t10.5 20.5q0 19 -24 24t-89 2z" />
    <glyph glyph-name="Scedilla" unicode="&#xf6c1;" horiz-adv-x="746" 
d="M671 683l-35 -114q-84 25 -221 25q-101 0 -144.5 -20.5t-43.5 -70.5q0 -42 37 -61t147 -28q147 -13 213.5 -62t66.5 -147q0 -120 -87 -169.5t-274 -49.5q-151 0 -260 31l35 114q93 -25 223 -25q103 0 148 20t45 72q0 43 -39 66t-152 31q-143 12 -207 55t-64 137
q0 120 88 173.5t268 53.5q142 0 256 -31zM336 0h59v-42q72 0 102 -17t30 -61q0 -47 -36.5 -65t-127.5 -18q-74 0 -118 16l26 54q30 -12 86 -12q28 0 38.5 5.5t10.5 20.5q0 19 -24 24t-89 2z" />
    <glyph glyph-name="scedilla" unicode="&#x15f;" horiz-adv-x="589" 
d="M521 496l-33 -97q-89 24 -177 24q-61 0 -86 -11t-25 -48q0 -26 25.5 -37.5t100.5 -17.5q114 -10 163.5 -44t49.5 -109q0 -64 -34 -102.5t-89.5 -53t-138.5 -14.5q-127 0 -218 27l31 98q81 -24 181 -24q66 0 93 12t27 50q0 28 -27 41.5t-104 19.5q-107 7 -156.5 38.5
t-49.5 106.5q0 93 68 131t194 38q105 0 205 -28zM254 0h59v-42q72 0 102 -17t30 -61q0 -47 -36.5 -65t-127.5 -18q-74 0 -118 16l27 54q28 -12 85 -12q28 0 38.5 5.5t10.5 20.5q0 19 -23.5 24t-89.5 2z" />
    <glyph glyph-name="scedilla" unicode="&#xf6c2;" horiz-adv-x="589" 
d="M521 496l-33 -97q-89 24 -177 24q-61 0 -86 -11t-25 -48q0 -26 25.5 -37.5t100.5 -17.5q114 -10 163.5 -44t49.5 -109q0 -64 -34 -102.5t-89.5 -53t-138.5 -14.5q-127 0 -218 27l31 98q81 -24 181 -24q66 0 93 12t27 50q0 28 -27 41.5t-104 19.5q-107 7 -156.5 38.5
t-49.5 106.5q0 93 68 131t194 38q105 0 205 -28zM254 0h59v-42q72 0 102 -17t30 -61q0 -47 -36.5 -65t-127.5 -18q-74 0 -118 16l27 54q28 -12 85 -12q28 0 38.5 5.5t10.5 20.5q0 19 -23.5 24t-89.5 2z" />
    <glyph glyph-name="Scaron" unicode="&#x160;" horiz-adv-x="746" 
d="M671 683l-35 -114q-84 25 -221 25q-101 0 -144.5 -20.5t-43.5 -70.5q0 -42 37 -61t147 -28q147 -13 213.5 -62t66.5 -147q0 -120 -87 -169.5t-274 -49.5q-151 0 -260 31l35 114q93 -25 223 -25q103 0 148 20t45 72q0 43 -39 66t-152 31q-143 12 -207 55t-64 137
q0 120 88 173.5t268 53.5q142 0 256 -31zM300 876l88 -78l84 78h134l-146 -129h-147l-151 129h138z" />
    <glyph glyph-name="scaron" unicode="&#x161;" horiz-adv-x="589" 
d="M521 496l-33 -97q-89 24 -177 24q-61 0 -86 -11t-25 -48q0 -26 25.5 -37.5t100.5 -17.5q114 -10 163.5 -44t49.5 -109q0 -64 -34 -102.5t-89.5 -53t-138.5 -14.5q-127 0 -218 27l31 98q81 -24 181 -24q66 0 93 12t27 50q0 28 -27 41.5t-104 19.5q-107 7 -156.5 38.5
t-49.5 106.5q0 93 68 131t194 38q105 0 205 -28zM79 697h141l85 -76l83 76h135l-146 -129h-147z" />
    <glyph glyph-name="Tcommaaccent" unicode="&#x162;" horiz-adv-x="732" 
d="M446 0h-160v583h-282v114h724v-114h-282v-583zM477 -51l-130 -167h-116l85 167h161z" />
    <glyph glyph-name="Tcommaaccent" unicode="&#x21a;" horiz-adv-x="732" 
d="M446 0h-160v583h-282v114h724v-114h-282v-583zM477 -51l-130 -167h-116l85 167h161z" />
    <glyph glyph-name="tcommaaccent" unicode="&#x163;" horiz-adv-x="498" 
d="M466 401h-203v-219q0 -49 19.5 -69t72.5 -20t105 14l26 -98q-76 -23 -168 -23q-109 0 -156.5 38.5t-47.5 146.5v230h-102v108h102v86l149 51v-137h203v-108zM361 -51l-129 -167h-117l85 167h161z" />
    <glyph glyph-name="tcommaaccent" unicode="&#x21b;" horiz-adv-x="498" 
d="M466 401h-203v-219q0 -49 19.5 -69t72.5 -20t105 14l26 -98q-76 -23 -168 -23q-109 0 -156.5 38.5t-47.5 146.5v230h-102v108h102v86l149 51v-137h203v-108zM361 -51l-129 -167h-117l85 167h161z" />
    <glyph glyph-name="Tcaron" unicode="&#x164;" horiz-adv-x="732" 
d="M446 0h-160v583h-282v114h724v-114h-282v-583zM286 876l88 -78l84 78h134l-146 -129h-147l-151 129h138z" />
    <glyph glyph-name="tcaron" unicode="&#x165;" horiz-adv-x="498" 
d="M466 401h-203v-219q0 -49 19.5 -69t72.5 -20t105 14l26 -98q-76 -23 -168 -23q-109 0 -156.5 38.5t-47.5 146.5v230h-102v108h102v86l149 51v-137h203v-108zM373 770h132l-68 -192h-88z" />
    <glyph glyph-name="Tbar" unicode="&#x166;" horiz-adv-x="732" 
d="M194 235v92h92v254h-282v116h724v-116h-282v-254h82v-92h-82v-235h-160v235h-92z" />
    <glyph glyph-name="tbar" unicode="&#x167;" horiz-adv-x="498" 
d="M46 217v82h68v103h-102v107h102v86l149 51v-137h203v-107h-203v-103h116v-82h-116v-35q0 -48 21 -68.5t74 -20.5q50 0 102 14l26 -98q-76 -23 -167 -23q-108 0 -156.5 38.5t-48.5 146.5v46h-68z" />
    <glyph glyph-name="Utilde" unicode="&#x168;" horiz-adv-x="891" 
d="M796 697l1 -486q0 -129 -86.5 -177t-264.5 -48q-87 0 -148 9.5t-109 34t-71.5 69.5t-23.5 112v486h160v-466q0 -70 42.5 -97t149.5 -27q105 0 149 26.5t44 97.5v466h157zM596 879l73 -50q-18 -41 -55.5 -67t-88.5 -26q-37 0 -91 27t-81 27q-37 0 -61 -50l-67 55
q54 79 128 79q44 0 99 -26t79 -26q21 0 35.5 12.5t29.5 44.5z" />
    <glyph glyph-name="utilde" unicode="&#x169;" horiz-adv-x="700" 
d="M468 110v399h149v-480q-139 -44 -290 -44q-132 0 -190 53t-58 187v284h149v-271q0 -85 25.5 -113t103.5 -28q59 0 111 13zM495 702l75 -50q-40 -93 -141 -93q-38 0 -89.5 26.5t-79.5 26.5q-37 0 -62 -51l-67 55q55 81 130 81q44 0 95 -26.5t76 -26.5q22 0 35.5 12.5
t27.5 45.5z" />
    <glyph glyph-name="Umacron" unicode="&#x16a;" horiz-adv-x="891" 
d="M796 697l1 -486q0 -129 -86.5 -177t-264.5 -48q-87 0 -148 9.5t-109 34t-71.5 69.5t-23.5 112v486h160v-466q0 -70 42.5 -97t149.5 -27q105 0 149 26.5t44 97.5v466h157zM275 753v92h334v-92h-334z" />
    <glyph glyph-name="umacron" unicode="&#x16b;" horiz-adv-x="700" 
d="M468 110v399h149v-480q-139 -44 -290 -44q-132 0 -190 53t-58 187v284h149v-271q0 -85 25.5 -113t103.5 -28q59 0 111 13zM179 576v90h333v-90h-333z" />
    <glyph glyph-name="Ubreve" unicode="&#x16c;" horiz-adv-x="891" 
d="M796 697l1 -486q0 -129 -86.5 -177t-264.5 -48q-87 0 -148 9.5t-109 34t-71.5 69.5t-23.5 112v486h160v-466q0 -70 42.5 -97t149.5 -27q105 0 149 26.5t44 97.5v466h157zM267 871h102q0 -34 18.5 -46t60.5 -12t61 12t19 46h96q0 -137 -180 -137q-177 0 -177 137z" />
    <glyph glyph-name="ubreve" unicode="&#x16d;" horiz-adv-x="700" 
d="M468 110v399h149v-480q-139 -44 -290 -44q-132 0 -190 53t-58 187v284h149v-271q0 -85 25.5 -113t103.5 -28q59 0 111 13zM168 697h102q0 -34 18.5 -46t60.5 -12t61 12t19 46h96q0 -137 -180 -137q-177 0 -177 137z" />
    <glyph glyph-name="Uring" unicode="&#x16e;" horiz-adv-x="891" 
d="M796 697l1 -486q0 -129 -86.5 -177t-264.5 -48q-87 0 -148 9.5t-109 34t-71.5 69.5t-23.5 112v486h160v-466q0 -70 42.5 -97t149.5 -27q105 0 149 26.5t44 97.5v466h157zM443 890q74 0 108.5 -22.5t34.5 -75.5t-34.5 -75.5t-108.5 -22.5t-109 22.5t-35 75.5q0 54 33.5 76
t110.5 22zM443 834q-35 0 -47.5 -10t-12.5 -33t12.5 -33t47.5 -10t47.5 10t12.5 33q0 24 -12.5 33.5t-47.5 9.5z" />
    <glyph glyph-name="uring" unicode="&#x16f;" horiz-adv-x="700" 
d="M468 110v399h149v-480q-139 -44 -290 -44q-132 0 -190 53t-58 187v284h149v-271q0 -85 25.5 -113t103.5 -28q59 0 111 13zM351 741q74 0 108.5 -22.5t34.5 -75.5t-34.5 -75.5t-108.5 -22.5t-109 22.5t-35 75.5t33.5 75.5t110.5 22.5zM351 684q-35 0 -47.5 -9.5
t-12.5 -33.5q0 -23 12.5 -33t47.5 -10t47.5 10t12.5 33q0 24 -12 33.5t-48 9.5z" />
    <glyph glyph-name="Uhungarumlaut" unicode="&#x170;" horiz-adv-x="891" 
d="M796 697l1 -486q0 -129 -86.5 -177t-264.5 -48q-87 0 -148 9.5t-109 34t-71.5 69.5t-23.5 112v486h160v-466q0 -70 42.5 -97t149.5 -27q105 0 149 26.5t44 97.5v466h157zM354 747h-102l110 129h130zM552 747h-103l109 129h131z" />
    <glyph glyph-name="uhungarumlaut" unicode="&#x171;" horiz-adv-x="700" 
d="M468 110v399h149v-480q-139 -44 -290 -44q-132 0 -190 53t-58 187v284h149v-271q0 -85 25.5 -113t103.5 -28q59 0 111 13zM255 568h-102l110 129h130zM453 568h-103l109 129h131z" />
    <glyph glyph-name="Uogonek" unicode="&#x172;" horiz-adv-x="891" 
d="M796 697l1 -486q0 -129 -86.5 -177t-264.5 -48q-87 0 -148 9.5t-109 34t-71.5 69.5t-23.5 112v486h160v-466q0 -70 42.5 -97t149.5 -27q105 0 149 26.5t44 97.5v466h157zM510 12h47q-61 -30 -81 -52t-20 -52q0 -22 15 -31t57 -9q61 0 100 27l42 -63q-55 -35 -157 -35
q-89 0 -124 21.5t-35 67.5q0 41 39.5 75t116.5 51z" />
    <glyph glyph-name="uogonek" unicode="&#x173;" horiz-adv-x="700" 
d="M468 110v399h149v-480q-139 -44 -290 -44q-132 0 -190 53t-58 187v284h149v-271q0 -85 25.5 -113t103.5 -28q59 0 111 13zM494 12h47q-61 -30 -81 -52t-20 -52q0 -22 14.5 -31t57.5 -9q61 0 100 27l42 -63q-57 -35 -157 -35q-89 0 -124 21.5t-35 67.5q0 42 39.5 75.5
t116.5 50.5z" />
    <glyph glyph-name="Wcircumflex" unicode="&#x174;" horiz-adv-x="1171" 
d="M592 478q-47 -191 -154 -478h-200q-133 444 -240 697h173q96 -240 180 -533q124 345 168 533h146q125 -369 165 -533q100 261 174 533h163q-102 -348 -243 -697h-201q-45 200 -131 478zM675 747l-87 78l-84 -78h-134l146 129h147l151 -129h-139z" />
    <glyph glyph-name="wcircumflex" unicode="&#x175;" horiz-adv-x="996" 
d="M498 341q-48 -177 -118 -341h-183q-95 285 -197 509h157q78 -171 139 -382q31 76 72 194.5t60 187.5h146q66 -167 123 -382q98 225 142 382h151q-86 -259 -209 -509h-185q-46 198 -98 341zM722 568h-140l-85 76l-83 -76h-136l147 129h146z" />
    <glyph glyph-name="Ycircumflex" unicode="&#x176;" horiz-adv-x="765" 
d="M160 697q108 -113 233 -266q131 147 221 266h192q-159 -198 -337 -396v-301h-159v300q-216 256 -356 397h206zM475 747l-87 78l-84 -78h-134l146 129h147l151 -129h-139z" />
    <glyph glyph-name="ycircumflex" unicode="&#x177;" horiz-adv-x="613" 
d="M216 -25q-100 303 -216 534h155q81 -169 151 -386q102 223 151 386h151q-87 -249 -231 -530q-50 -99 -95 -171h-166q43 63 100 167zM530 568h-140l-85 76l-83 -76h-136l147 129h146z" />
    <glyph glyph-name="Ydieresis" unicode="&#x178;" horiz-adv-x="765" 
d="M160 697q108 -113 233 -266q131 147 221 266h192q-159 -198 -337 -396v-301h-159v300q-216 256 -356 397h206zM265 864q42 0 56.5 -10.5t14.5 -45.5q0 -38 -14.5 -49.5t-56.5 -11.5t-57 11.5t-15 49.5q0 35 15 45.5t57 10.5zM520 864q42 0 56.5 -10.5t14.5 -45.5
q0 -38 -14.5 -49.5t-56.5 -11.5q-43 0 -57.5 11.5t-14.5 49.5q0 35 14.5 45.5t57.5 10.5z" />
    <glyph glyph-name="Zacute" unicode="&#x179;" horiz-adv-x="744" 
d="M20 0v32q228 258 458 551h-432v114h678v-30q-96 -129 -231.5 -293t-226.5 -260h450v-114h-696zM390 747h-130l155 129h164z" />
    <glyph glyph-name="zacute" unicode="&#x17a;" horiz-adv-x="597" 
d="M42 509h527v-25q-62 -84 -156.5 -196.5t-157.5 -179.5h306v-108h-539v25q84 89 178 200t141 176h-299v108zM342 568h-130l145 129h159z" />
    <glyph glyph-name="Zdotaccent" unicode="&#x17b;" horiz-adv-x="744" 
d="M20 0v32q228 258 458 551h-432v114h678v-30q-96 -129 -231.5 -293t-226.5 -260h450v-114h-696zM380 867q42 0 57 -10.5t15 -45.5q0 -38 -15 -49.5t-57 -11.5t-56.5 11.5t-14.5 49.5q0 35 14.5 45.5t56.5 10.5z" />
    <glyph glyph-name="zdotaccent" unicode="&#x17c;" horiz-adv-x="597" 
d="M42 509h527v-25q-62 -84 -156.5 -196.5t-157.5 -179.5h306v-108h-539v25q84 89 178 200t141 176h-299v108zM304 681q42 0 57 -10t15 -45q0 -38 -15 -50t-57 -12t-56.5 11.5t-14.5 50.5q0 35 14.5 45t56.5 10z" />
    <glyph glyph-name="Zcaron" unicode="&#x17d;" horiz-adv-x="744" 
d="M20 0v32q228 258 458 551h-432v114h678v-30q-96 -129 -231.5 -293t-226.5 -260h450v-114h-696zM307 876l87 -78l84 78h135l-147 -129h-146l-151 129h138z" />
    <glyph glyph-name="zcaron" unicode="&#x17e;" horiz-adv-x="597" 
d="M42 509h527v-25q-62 -84 -156.5 -196.5t-157.5 -179.5h306v-108h-539v25q84 89 178 200t141 176h-299v108zM81 697h140l85 -76l83 76h136l-147 -129h-146z" />
    <glyph glyph-name="florin" unicode="&#x192;" horiz-adv-x="452" 
d="M301 536v-27h204l-16 -107h-204l-39 -416q-22 -189 -258 -189q-97 0 -175 24l43 96q58 -20 124 -20q110 0 118 89l38 416h-108l17 107h108l2 34q11 181 241 181q99 0 172 -22l-48 -98q-49 14 -114 14q-48 0 -74.5 -18t-30.5 -64z" />
    <glyph glyph-name="Scommaaccent" unicode="&#x218;" horiz-adv-x="746" 
d="M671 683l-35 -114q-84 25 -221 25q-101 0 -144.5 -20.5t-43.5 -70.5q0 -42 37 -61t147 -28q147 -13 213.5 -62t66.5 -147q0 -120 -87 -169.5t-274 -49.5q-151 0 -260 31l35 114q93 -25 223 -25q103 0 148 20t45 72q0 43 -39 66t-152 31q-143 12 -207 55t-64 137
q0 120 88 173.5t268 53.5q142 0 256 -31zM478 -51l-130 -167h-116l85 167h161z" />
    <glyph glyph-name="scommaaccent" unicode="&#x219;" horiz-adv-x="589" 
d="M521 496l-33 -97q-89 24 -177 24q-61 0 -86 -11t-25 -48q0 -26 25.5 -37.5t100.5 -17.5q114 -10 163.5 -44t49.5 -109q0 -64 -34 -102.5t-89.5 -53t-138.5 -14.5q-127 0 -218 27l31 98q81 -24 181 -24q66 0 93 12t27 50q0 28 -27 41.5t-104 19.5q-107 7 -156.5 38.5
t-49.5 106.5q0 93 68 131t194 38q105 0 205 -28zM396 -51l-130 -167h-116l85 167h161z" />
    <glyph glyph-name="circumflex" unicode="&#x2c6;" horiz-adv-x="792" 
d="M632 568h-140l-86 76l-82 -76h-136l146 129h147z" />
    <glyph glyph-name="caron" unicode="&#x2c7;" horiz-adv-x="784" 
d="M188 697h140l86 -76l82 76h136l-146 -129h-147z" />
    <glyph glyph-name="breve" unicode="&#x2d8;" horiz-adv-x="629" 
d="M113 697h102q0 -34 18.5 -46t60.5 -12t61.5 12.5t19.5 45.5h96q0 -137 -180 -137q-178 0 -178 137z" />
    <glyph glyph-name="dotaccent" unicode="&#x2d9;" horiz-adv-x="554" 
d="M223 681q42 0 57 -10t15 -45q0 -38 -15 -50t-57 -12t-56.5 11.5t-14.5 50.5q0 35 14.5 45t56.5 10z" />
    <glyph glyph-name="ring" unicode="&#x2da;" horiz-adv-x="857" 
d="M432 741q74 0 108.5 -22.5t34.5 -75.5t-34.5 -75.5t-108.5 -22.5t-109 22.5t-35 75.5t33.5 75.5t110.5 22.5zM432 684q-35 0 -47.5 -9.5t-12.5 -33.5q0 -23 12.5 -33t47.5 -10t47.5 10t12.5 33q0 24 -12.5 33.5t-47.5 9.5z" />
    <glyph glyph-name="ogonek" unicode="&#x2db;" horiz-adv-x="770" 
d="M532 12h47q-61 -30 -81 -52t-20 -52q0 -22 14.5 -31t57.5 -9q61 0 100 27l42 -63q-57 -35 -158 -35q-88 0 -123 21.5t-35 67.5q0 42 39.5 75.5t116.5 50.5z" />
    <glyph glyph-name="tilde" unicode="&#x2dc;" horiz-adv-x="857" 
d="M535 702l74 -50q-40 -93 -140 -93q-38 0 -90 26.5t-79 26.5q-38 0 -63 -51l-67 55q56 81 131 81q44 0 94.5 -26.5t75.5 -26.5q22 0 36 12.5t28 45.5z" />
    <glyph glyph-name="hungarumlaut" unicode="&#x2dd;" horiz-adv-x="661" 
d="M298 568h-102l109 129h131zM496 568h-103l109 129h131z" />
    <glyph glyph-name="Delta" unicode="&#x394;" horiz-adv-x="777" 
d="M789 0h-811q131 353 306 697h203q63 -172 147 -367t155 -330zM375 563q-93 -189 -191 -449h376q-115 250 -185 449z" />
    <glyph glyph-name="Delta" unicode="&#x2206;" horiz-adv-x="777" 
d="M789 0h-811q131 353 306 697h203q63 -172 147 -367t155 -330zM375 563q-93 -189 -191 -449h376q-115 250 -185 449z" />
    <glyph glyph-name="Omega" unicode="&#x3a9;" horiz-adv-x="958" 
d="M18 0v118h190q-53 30 -84.5 105.5t-31.5 171.5q0 177 94 248t293 71q198 0 291.5 -71t93.5 -248q0 -96 -31.5 -171.5t-83.5 -105.5h191v-118h-386v112q83 20 113 87.5t30 193.5q0 123 -44 162.5t-174 39.5q-131 0 -175.5 -39.5t-44.5 -162.5q0 -125 29.5 -192.5
t112.5 -87.5v-113h-383z" />
    <glyph glyph-name="Omega" unicode="&#x2126;" horiz-adv-x="958" 
d="M18 0v118h190q-53 30 -84.5 105.5t-31.5 171.5q0 177 94 248t293 71q198 0 291.5 -71t93.5 -248q0 -96 -31.5 -171.5t-83.5 -105.5h191v-118h-386v112q83 20 113 87.5t30 193.5q0 123 -44 162.5t-174 39.5q-131 0 -175.5 -39.5t-44.5 -162.5q0 -125 29.5 -192.5
t112.5 -87.5v-113h-383z" />
    <glyph glyph-name="pi" unicode="&#x3c0;" horiz-adv-x="762" 
d="M30 391v118h702v-118h-98v-391h-149v391h-211v-269q0 -121 -96 -162l-95 84q42 19 42 76v271h-95z" />
    <glyph glyph-name="afii10023" unicode="&#x401;" horiz-adv-x="744" 
d="M106 697h607v-114h-449v-161h321v-113h-321v-195h449v-114h-607v697zM275 864q42 0 56.5 -10.5t14.5 -45.5q0 -38 -14.5 -49.5t-56.5 -11.5t-57 11.5t-15 49.5q0 35 15 45.5t57 10.5zM531 864q42 0 56.5 -10.5t14.5 -45.5q0 -38 -14.5 -49.5t-56.5 -11.5
q-43 0 -57.5 11.5t-14.5 49.5q0 35 14.5 45.5t57.5 10.5z" />
    <glyph glyph-name="afii10051" unicode="&#x402;" horiz-adv-x="905" 
d="M728 583h-282v-134q78 35 168 35q61 0 100 -11t70 -41.5t45 -87.5t14 -146q0 -297 -191 -381l-104 85q32 15 53 31t42.5 47.5t32 84.5t10.5 129q0 77 -13 115.5t-37.5 50.5t-73.5 12q-47 0 -81 -11.5t-35 -30.5v-330h-160v583h-282v114h724v-114z" />
    <glyph glyph-name="afii10052" unicode="&#x403;" horiz-adv-x="661" 
d="M264 0h-158v697h565v-114h-407v-583zM406 747h-131l155 129h164z" />
    <glyph glyph-name="afii10053" unicode="&#x404;" horiz-adv-x="739" 
d="M594 310h-357q3 -64 19 -104.5t49 -62t75.5 -29t109.5 -7.5q110 0 184 22l34 -118q-107 -25 -246 -25q-207 0 -302.5 81.5t-95.5 287.5q0 106 24 176.5t76.5 110.5t123 56t174.5 16q135 0 246 -26l-34 -116q-74 22 -184 22q-66 0 -105.5 -5.5t-73.5 -23.5t-50.5 -52.5
t-22.5 -90.5h356v-112z" />
    <glyph glyph-name="afii10054" unicode="&#x405;" horiz-adv-x="746" 
d="M671 683l-35 -114q-84 25 -221 25q-101 0 -144.5 -20.5t-43.5 -70.5q0 -42 37 -61t147 -28q147 -13 213.5 -62t66.5 -147q0 -120 -87 -169.5t-274 -49.5q-151 0 -260 31l35 114q93 -25 223 -25q103 0 148 20t45 72q0 43 -39 66t-152 31q-143 12 -207 55t-64 137
q0 120 88 173.5t268 53.5q142 0 256 -31z" />
    <glyph glyph-name="afii10055" unicode="&#x406;" horiz-adv-x="370" 
d="M106 697h158v-697h-158v697z" />
    <glyph glyph-name="afii10056" unicode="&#x407;" horiz-adv-x="369" 
d="M105 697h159v-697h-159v697zM56 864q42 0 56.5 -10.5t14.5 -45.5q0 -38 -14.5 -49.5t-56.5 -11.5t-57 11.5t-15 49.5q0 35 15 45.5t57 10.5zM312 864q42 0 56 -10.5t14 -45.5q0 -38 -14 -49.5t-56 -11.5q-43 0 -57.5 11.5t-14.5 49.5q0 35 14.5 45.5t57.5 10.5z" />
    <glyph glyph-name="afii10057" unicode="&#x408;" horiz-adv-x="553" 
d="M450 697l1 -505q0 -206 -254 -206q-101 0 -190 27l31 118q65 -21 143 -21q109 0 109 99v488h160z" />
    <glyph glyph-name="afii10058" unicode="&#x409;" horiz-adv-x="1281" 
d="M587 578h-236q-26 -287 -147 -578h-167q153 387 169 697h539v-250h268q116 0 170 -60.5t54 -162.5q0 -224 -217 -224h-433v578zM972 340h-227v-229h230q90 0 90 113q0 116 -93 116z" />
    <glyph glyph-name="afii10059" unicode="&#x40a;" horiz-adv-x="1291" 
d="M264 333v-333h-158v697h158v-253h334v253h157v-254h268q117 0 170.5 -60t53.5 -162q0 -221 -217 -221h-432v333h-334zM982 333h-227v-222h231q47 0 68.5 27t21.5 83q0 112 -94 112z" />
    <glyph glyph-name="afii10060" unicode="&#x40b;" horiz-adv-x="912" 
d="M834 253v-253h-148v243q0 77 -29 103t-95 26q-47 0 -81 -11.5t-35 -30.5v-330h-160v583h-282v114h724v-114h-282v-134q78 35 168 35q115 0 167.5 -48t52.5 -183z" />
    <glyph glyph-name="afii10061" unicode="&#x40c;" horiz-adv-x="797" 
d="M804 0h-188q-59 131 -113 202t-107 97t-132 32v-331h-158v697h158v-336q61 49 152.5 140.5t175.5 195.5h192q-106 -124 -187.5 -206t-118.5 -107q44 -12 74.5 -29t71.5 -56t85 -112.5t95 -186.5zM462 747h-129l155 129h164z" />
    <glyph glyph-name="afii10062" unicode="&#x40e;" horiz-adv-x="701" 
d="M278 176q-49 113 -135 265t-161 256h188q123 -183 208 -377q135 231 197 377h179q-81 -171 -196 -363.5t-218 -333.5q-134 0 -200 -1q69 75 138 177zM203 871h102q0 -34 18.5 -46t61.5 -12q37 0 59 13t20 45h96q0 -137 -178 -137q-179 0 -179 137z" />
    <glyph glyph-name="afii10145" unicode="&#x40f;" horiz-adv-x="883" 
d="M779 0h-256l-25 -188h-105l-26 188h-260v697h158v-578h358v578h156v-697z" />
    <glyph glyph-name="afii10017" unicode="&#x410;" horiz-adv-x="818" 
d="M666 0q-55 115 -81 174h-366q-22 -57 -64 -174h-166q129 345 302 697h249q154 -407 301 -697h-175zM423 585h-32q-50 -108 -130 -298h279q-64 152 -117 298z" />
    <glyph glyph-name="afii10018" unicode="&#x411;" horiz-adv-x="853" 
d="M264 111h264q81 0 81 98q0 103 -85 103h-260v-201zM708 697v-114h-444v-164h292q223 0 223 -212q0 -110 -55 -158.5t-161 -48.5h-457v697h602z" />
    <glyph glyph-name="afii10019" unicode="&#x412;" horiz-adv-x="855" 
d="M264 111h264q81 0 81 98q0 103 -85 103h-260v-201zM264 585v-166h257q72 0 72 84q0 43 -16 62.5t-56 19.5h-257zM587 369q112 -4 152 -48t40 -130q0 -191 -216 -191h-457v697h450q118 0 161.5 -41.5t43.5 -125.5q0 -77 -34.5 -115t-139.5 -46z" />
    <glyph glyph-name="afii10020" unicode="&#x413;" horiz-adv-x="653" 
d="M264 0h-158v697h565v-114h-407v-583z" />
    <glyph glyph-name="afii10021" unicode="&#x414;" horiz-adv-x="963" 
d="M814 697v-578h149l-26 -273h-139v154h-627v-154h-140l-26 273h132q109 255 125 578h552zM657 119v464h-250q-23 -268 -98 -464h348z" />
    <glyph glyph-name="afii10022" unicode="&#x415;" horiz-adv-x="744" 
d="M106 697h607v-114h-449v-161h321v-113h-321v-195h449v-114h-607v697z" />
    <glyph glyph-name="afii10024" unicode="&#x416;" horiz-adv-x="1146" 
d="M175 0h-182q47 113 87.5 186.5t78 112.5t66 56t68.5 29q-75 55 -282 313h187q159 -210 295 -332v332h159v-332q144 131 296 332h186q-202 -254 -281 -313q40 -12 68.5 -29t65.5 -56t77.5 -112.5t88.5 -186.5h-183q-42 100 -77.5 162.5t-73.5 99t-76 51.5t-91 19v-332
h-159v332q-106 -9 -172 -75t-146 -257z" />
    <glyph glyph-name="afii10025" unicode="&#x417;" horiz-adv-x="771" 
d="M232 310v112h133q81 0 112 19t31 70q0 49 -39 67t-153 18q-132 0 -220 -22l-31 114q146 26 282 26q180 0 254.5 -41t74.5 -137q0 -77 -36.5 -118t-140.5 -49q112 -4 154 -49.5t42 -131.5q0 -111 -83 -156.5t-265 -45.5q-151 0 -287 25l30 115q89 -21 226 -21
q119 0 163 22t44 79q0 58 -36 81t-119 23h-136z" />
    <glyph glyph-name="afii10026" unicode="&#x418;" horiz-adv-x="929" 
d="M822 697v-697h-154v504q-187 -286 -354 -504h-208v697h156v-526q217 291 370 526h190z" />
    <glyph glyph-name="afii10027" unicode="&#x419;" horiz-adv-x="929" 
d="M822 697v-697h-154v504q-187 -286 -354 -504h-208v697h156v-526q217 291 370 526h190zM286 871h102q0 -34 18.5 -46t60.5 -12t61.5 12.5t19.5 45.5h96q0 -137 -180 -137q-178 0 -178 137z" />
    <glyph glyph-name="afii10028" unicode="&#x41a;" horiz-adv-x="797" 
d="M804 0h-188q-59 131 -113 202t-107 97t-132 32v-331h-158v697h158v-336q61 49 152.5 140.5t175.5 195.5h192q-106 -124 -187.5 -206t-118.5 -107q44 -12 74.5 -29t71.5 -56t85 -112.5t95 -186.5z" />
    <glyph glyph-name="afii10029" unicode="&#x41b;" horiz-adv-x="874" 
d="M612 583h-261q-26 -293 -147 -583h-167q153 387 169 697h562v-697h-156v583z" />
    <glyph glyph-name="afii10030" unicode="&#x41c;" horiz-adv-x="1100" 
d="M557 251q96 212 232 446h205v-697h-155v519q-89 -166 -233 -455h-123q-160 338 -225 455v-519h-152v697h216q126 -217 235 -446z" />
    <glyph glyph-name="afii10031" unicode="&#x41d;" horiz-adv-x="884" 
d="M264 309v-309h-158v697h158v-266h358v266h156v-697h-156v309h-358z" />
    <glyph glyph-name="afii10032" unicode="&#x41e;" horiz-adv-x="925" 
d="M462 714q104 0 175 -16.5t123 -57t76 -110.5t24 -175q0 -107 -24 -179t-76 -113.5t-123 -59t-175 -17.5t-175 17.5t-123 59t-76 113.5t-24 179q0 105 24 175.5t76 110.5t123 56.5t175 16.5zM462 105q73 0 114.5 9t69 37t37 74.5t9.5 127.5t-9 127t-37.5 72.5t-69 34.5
t-114.5 8t-114 -8t-68.5 -34.5t-37.5 -72.5t-9 -127t9.5 -127.5t37 -74.5t68.5 -37t114 -9z" />
    <glyph glyph-name="afii10033" unicode="&#x41f;" horiz-adv-x="884" 
d="M264 583v-583h-158v697h672v-697h-156v583h-358z" />
    <glyph glyph-name="afii10034" unicode="&#x420;" horiz-adv-x="808" 
d="M264 340h233q103 0 103 119q0 126 -99 126h-237v-245zM264 0h-158v697h436q232 0 232 -239q0 -98 -57.5 -163t-171.5 -65h-281v-230z" />
    <glyph glyph-name="afii10035" unicode="&#x421;" horiz-adv-x="710" 
d="M64 355q0 106 23 176t74 110.5t121 56.5t174 16q129 0 240 -26l-34 -116q-74 22 -178 22q-50 0 -82.5 -3t-63 -12t-48.5 -25t-32 -43t-19.5 -65t-5.5 -92q0 -80 12.5 -128.5t45.5 -75t76 -35t117 -8.5q104 0 178 22l34 -118q-107 -25 -240 -25q-103 0 -173.5 18t-121 60
t-74 113.5t-23.5 177.5z" />
    <glyph glyph-name="afii10036" unicode="&#x422;" horiz-adv-x="732" 
d="M446 0h-160v583h-282v114h724v-114h-282v-583z" />
    <glyph glyph-name="afii10037" unicode="&#x423;" horiz-adv-x="736" 
d="M378 320q135 231 197 377h179q-81 -171 -196 -363.5t-218 -333.5h-200q75 81 140 177q-45 103 -135.5 262t-162.5 258h188q123 -183 208 -377z" />
    <glyph glyph-name="afii10038" unicode="&#x424;" horiz-adv-x="959" 
d="M391 697h157v-87q139 -5 218 -35t110 -83t31 -142q0 -134 -77 -193.5t-282 -67.5v-89h-157v89q-136 5 -212.5 35t-106 83t-29.5 143t29.5 142.5t106 82.5t212.5 35v87zM746 349q0 45 -6.5 70.5t-27.5 45t-60 27.5t-104 10v-305q86 2 129 18.5t56 46t13 87.5zM201 349
q0 -57 13.5 -86.5t54.5 -46.5t122 -19v304q-82 -2 -123 -18.5t-54 -46t-13 -87.5z" />
    <glyph glyph-name="afii10039" unicode="&#x425;" horiz-adv-x="808" 
d="M203 697q89 -94 210 -230q113 132 192 230h194q-119 -145 -289 -342q230 -267 302 -355h-197q-133 159 -204 241q-159 -175 -222 -241h-194q125 129 319 352q-196 220 -314 345h203z" />
    <glyph glyph-name="afii10040" unicode="&#x426;" horiz-adv-x="928" 
d="M264 697v-578h358v578h156v-578h150l-26 -273h-138v154h-658v697h158z" />
    <glyph glyph-name="afii10041" unicode="&#x427;" horiz-adv-x="801" 
d="M536 379v318h159v-697h-159v224q-68 -32 -204 -32q-71 0 -122 10t-94 36t-64.5 75.5t-21.5 123.5v260h158v-251q0 -79 38 -105t138 -26q80 0 126 16.5t46 47.5z" />
    <glyph glyph-name="afii10042" unicode="&#x428;" horiz-adv-x="1170" 
d="M1064 697v-697h-958v697h158v-578h243v578h157v-578h242v578h158z" />
    <glyph glyph-name="afii10043" unicode="&#x429;" horiz-adv-x="1212" 
d="M264 697v-578h243v578h157v-578h242v578h158v-578h148l-25 -273h-139v154h-942v697h158z" />
    <glyph glyph-name="afii10044" unicode="&#x42a;" horiz-adv-x="864" 
d="M20 697h284v-248h292q116 0 170 -61.5t54 -163.5t-52.5 -163t-164.5 -61h-457v583h-126v114zM304 111h255q90 0 90 113q0 115 -94 115h-251v-228z" />
    <glyph glyph-name="afii10045" unicode="&#x42b;" horiz-adv-x="1123" 
d="M264 111h255q90 0 90 113q0 115 -94 115h-251v-228zM106 697h158v-248h292q116 0 170 -61.5t54 -163.5q0 -224 -217 -224h-457v697zM858 697h159v-697h-159v697z" />
    <glyph glyph-name="afii10046" unicode="&#x42c;" horiz-adv-x="824" 
d="M264 111h255q90 0 90 113q0 115 -94 115h-251v-228zM106 697h158v-248h292q116 0 170 -61.5t54 -163.5q0 -224 -217 -224h-457v697z" />
    <glyph glyph-name="afii10047" unicode="&#x42d;" horiz-adv-x="739" 
d="M503 310h-358v112h356q-6 56 -22.5 90.5t-50 52t-73.5 23.5t-106 6q-110 0 -183 -22l-35 116q113 26 246 26q104 0 174.5 -16t123 -56t76.5 -110.5t24 -176.5q0 -206 -95.5 -287.5t-302.5 -81.5q-138 0 -246 25l35 118q73 -22 183 -22q67 0 109.5 7.5t75.5 29t49 62
t20 104.5z" />
    <glyph glyph-name="afii10048" unicode="&#x42e;" horiz-adv-x="1160" 
d="M772 714q82 0 139.5 -16t100.5 -56t63.5 -110t20.5 -174q0 -206 -79.5 -289t-244.5 -83q-154 0 -234.5 73t-89.5 250h-184v-309h-158v697h158v-266h185q13 158 93 220.5t230 62.5zM772 105q96 0 128.5 49t32.5 204q0 80 -7 126.5t-27.5 72t-48 33t-78.5 7.5
q-66 0 -97.5 -15.5t-48 -67t-16.5 -156.5t16 -159.5t49 -74t97 -19.5z" />
    <glyph glyph-name="afii10049" unicode="&#x42f;" horiz-adv-x="847" 
d="M583 375v210h-240q-94 0 -94 -108q0 -50 25.5 -76t71.5 -26h237zM292 305q-219 7 -219 189q0 203 233 203h435v-697h-158v266h-133q-39 0 -66 -9t-56 -37t-56 -81t-58 -139h-182q53 125 95 189.5t76.5 86.5t88.5 29z" />
    <glyph glyph-name="afii10065" unicode="&#x430;" horiz-adv-x="672" 
d="M593 326v-300q-123 -40 -276 -40q-147 0 -202.5 35.5t-55.5 134.5q0 100 59.5 133.5t180.5 33.5q72 0 151 -14q0 67 -28.5 88t-123.5 21q-108 0 -185 -23l-28 102q123 27 244 27q140 0 202 -43.5t62 -154.5zM450 98v127q-50 9 -121 9q-67 0 -90.5 -13t-23.5 -60
q0 -51 22 -65.5t91 -14.5q62 0 122 17z" />
    <glyph glyph-name="afii10066" unicode="&#x431;" horiz-adv-x="690" 
d="M216 245q0 -89 29 -123t94 -34q81 0 108.5 28.5t27.5 128.5q0 90 -27 120t-101 30q-79 0 -105 -30.5t-26 -119.5zM215 442q54 60 166 60q126 0 186.5 -55.5t60.5 -199.5q0 -148 -68 -204.5t-225 -56.5q-69 0 -115.5 13t-83 46.5t-54 95t-17.5 153.5q0 100 11 168
t31.5 112t59 69t83.5 35.5t115 15.5q146 10 229 39v-110q-61 -23 -222 -35q-86 -6 -116 -38t-41 -108z" />
    <glyph glyph-name="afii10067" unicode="&#x432;" horiz-adv-x="696" 
d="M232 96h182q35 0 50.5 13.5t15.5 44.5q0 66 -69 66h-179v-124zM232 413v-102h176q32 0 45.5 12.5t13.5 39.5q0 29 -13 39.5t-46 10.5h-176zM483 270q86 -2 119.5 -35.5t33.5 -95.5q0 -139 -180 -139h-373v509h368q98 0 134.5 -30.5t36.5 -91.5q0 -55 -28.5 -83.5
t-110.5 -33.5z" />
    <glyph glyph-name="afii10068" unicode="&#x433;" horiz-adv-x="509" 
d="M232 401v-401h-149v509h425v-108h-276z" />
    <glyph glyph-name="afii10069" unicode="&#x434;" horiz-adv-x="779" 
d="M199 509h456v-401h118l-35 -249h-119v141h-460v-141h-120l-34 249h109q73 213 85 401zM507 401h-172q-11 -123 -65 -293h237v293z" />
    <glyph glyph-name="afii10070" unicode="&#x435;" horiz-adv-x="663" 
d="M547 112l24 -98q-100 -28 -214 -28q-143 0 -219.5 61.5t-76.5 209.5q0 146 71.5 206.5t212.5 60.5q77 0 126 -12.5t84 -46t48 -92.5t9 -151h-395q1 -78 37 -104.5t121 -26.5q88 0 172 21zM354 426q-71 0 -100 -23t-36 -86h257q-4 66 -29.5 87.5t-91.5 21.5z" />
    <glyph glyph-name="afii10072" unicode="&#x436;" horiz-adv-x="959" 
d="M172 0h-170q42 80 77.5 133.5t64.5 81.5t48.5 39.5t45.5 20.5q-27 19 -88 81.5t-134 152.5h172q136 -163 216 -242v242h149v-242q86 86 217 242h172q-74 -90 -134.5 -152.5t-87.5 -81.5q26 -9 45 -20.5t48.5 -39.5t64.5 -81.5t77 -133.5h-169q-66 121 -121 172t-112 64
v-236h-149v236q-57 -13 -112 -64t-120 -172z" />
    <glyph glyph-name="afii10073" unicode="&#x437;" horiz-adv-x="619" 
d="M177 222v93h94q67 0 93 10.5t26 40.5q0 29 -27 40.5t-103 11.5q-104 0 -187 -22l-31 108q103 20 221 20q159 0 221 -29t62 -102q0 -57 -32 -87.5t-115 -36.5q88 -4 125 -38t37 -96q0 -85 -67.5 -117t-230.5 -32q-125 0 -226 19l31 111q82 -24 192 -24q85 0 114 14.5
t29 52.5q0 35 -30.5 49t-101.5 14h-94z" />
    <glyph glyph-name="afii10074" unicode="&#x438;" horiz-adv-x="712" 
d="M480 0v311q-100 -151 -248 -311h-149v509h149v-324q104 109 248 324h149v-509h-149z" />
    <glyph glyph-name="afii10075" unicode="&#x439;" horiz-adv-x="712" 
d="M480 0v311q-100 -151 -248 -311h-149v509h149v-324q104 109 248 324h149v-509h-149zM177 697h102q0 -34 18.5 -46t61.5 -12q37 0 59 13t20 45h96q0 -137 -179 -137q-178 0 -178 137z" />
    <glyph glyph-name="afii10076" unicode="&#x43a;" horiz-adv-x="661" 
d="M659 0h-174q-72 126 -129.5 175t-123.5 61v-236h-149v509h149v-245q89 82 236 245h177q-175 -195 -232 -233q27 -9 47 -21t49.5 -40t66.5 -81t83 -134z" />
    <glyph glyph-name="afii10077" unicode="&#x43b;" horiz-adv-x="687" 
d="M454 401h-166q-20 -209 -92 -401h-156q89 239 107 509h456v-509h-149v401z" />
    <glyph glyph-name="afii10078" unicode="&#x43c;" horiz-adv-x="904" 
d="M459 206q71 157 154 303h208v-509h-148v371q-77 -139 -168 -341h-111q-111 246 -163 341v-371h-148v509h217q66 -114 159 -303z" />
    <glyph glyph-name="afii10079" unicode="&#x43d;" 
d="M472 216h-240v-216h-149v509h149v-187h240v187h149v-509h-149v216z" />
    <glyph glyph-name="afii10080" unicode="&#x43e;" 
d="M351 -14q-152 0 -221 59.5t-69 211.5q0 150 69.5 208.5t220.5 58.5q154 0 223.5 -58.5t69.5 -208.5q0 -152 -69.5 -211.5t-223.5 -59.5zM351 423q-81 0 -108.5 -31t-27.5 -137q0 -103 28 -135.5t108 -32.5q83 0 111.5 32.5t28.5 135.5q0 73 -13.5 109t-41.5 47.5
t-85 11.5z" />
    <glyph glyph-name="afii10081" unicode="&#x43f;" 
d="M232 401v-401h-149v509h538v-509h-149v401h-240z" />
    <glyph glyph-name="afii10082" unicode="&#x440;" 
d="M232 402v-262q0 -22 34.5 -35.5t85.5 -13.5q79 0 109 34t30 127q0 102 -29 133.5t-111 31.5q-73 0 -119 -15zM83 -192v678q109 38 268 38q156 0 224 -58.5t68 -210.5q0 -148 -67 -208.5t-198 -60.5q-78 0 -146 29v-207h-149z" />
    <glyph glyph-name="afii10083" unicode="&#x441;" horiz-adv-x="563" 
d="M516 118l33 -106q-78 -26 -186 -26q-149 0 -225.5 61t-76.5 210q0 148 77 207.5t225 59.5q109 0 186 -24l-33 -106q-72 22 -142 22q-88 0 -123.5 -30.5t-35.5 -130.5q0 -96 36.5 -128.5t122.5 -32.5q70 0 142 24z" />
    <glyph glyph-name="afii10084" unicode="&#x442;" horiz-adv-x="582" 
d="M365 401v-401h-149v401h-210v108h570v-108h-211z" />
    <glyph glyph-name="afii10085" unicode="&#x443;" horiz-adv-x="613" 
d="M216 -25q-100 303 -216 534h155q81 -169 151 -386q102 223 151 386h151q-87 -249 -231 -530q-50 -99 -95 -171h-166q43 63 100 167z" />
    <glyph glyph-name="afii10086" unicode="&#x444;" horiz-adv-x="1007" 
d="M429 514v195h149v-195q57 10 98 10q146 0 207.5 -58t61.5 -211q0 -148 -60.5 -208.5t-180.5 -60.5q-72 0 -126 29v-207h-149v207q-56 -29 -126 -29q-121 0 -181 60.5t-60 208.5q0 153 61.5 211t207.5 58q40 0 98 -10zM330 91q44 0 71.5 13t27.5 35v265q-45 13 -98 13
q-70 0 -96.5 -32t-26.5 -133q0 -92 28 -126.5t94 -34.5zM678 91q65 0 93 34.5t28 126.5q0 101 -26.5 133t-96.5 32q-55 0 -98 -13v-267q1 -21 28 -33.5t72 -12.5z" />
    <glyph glyph-name="afii10087" unicode="&#x445;" horiz-adv-x="625" 
d="M619 0h-168q-48 66 -128 161q-71 -80 -150 -161h-166q94 91 238 254q-135 156 -237 255h178q61 -62 140 -156q53 60 126 156h166q-86 -108 -210 -251q105 -122 211 -258z" />
    <glyph glyph-name="afii10088" unicode="&#x446;" horiz-adv-x="763" 
d="M621 108h136l-34 -249h-120v141h-520v509h149v-401h240v401h149v-401z" />
    <glyph glyph-name="afii10089" unicode="&#x447;" horiz-adv-x="668" 
d="M46 385v124h149v-114q0 -77 29 -103t94 -26q48 0 82.5 12t34.5 33v198h149v-509h-149v189q-80 -35 -168 -35q-57 0 -95.5 9.5t-68 34.5t-43.5 71t-14 116z" />
    <glyph glyph-name="afii10090" unicode="&#x448;" horiz-adv-x="1030" 
d="M946 509v-509h-863v509h149v-401h209v401h148v-401h208v401h149z" />
    <glyph glyph-name="afii10091" unicode="&#x449;" horiz-adv-x="1089" 
d="M928 -141v141h-845v509h149v-401h209v401h148v-401h208v401h149v-401h137q-6 -41 -17.5 -124t-17.5 -125h-120z" />
    <glyph glyph-name="afii10092" unicode="&#x44a;" horiz-adv-x="733" 
d="M272 325h215q190 0 190 -161q0 -88 -46.5 -126t-143.5 -38h-363v401h-118v108h266v-184zM272 92h180q69 0 69 70q0 36 -17.5 51.5t-53.5 15.5h-178v-137z" />
    <glyph glyph-name="afii10093" unicode="&#x44b;" horiz-adv-x="932" 
d="M412 92q68 0 68 70q0 36 -17.5 51.5t-53.5 15.5h-177v-137h180zM232 325h215q189 0 189 -161q0 -88 -46.5 -126t-142.5 -38h-364v509h149v-184zM849 509v-509h-149v509h149z" />
    <glyph glyph-name="afii10094" unicode="&#x44c;" horiz-adv-x="692" 
d="M412 92q68 0 68 70q0 36 -17.5 51.5t-53.5 15.5h-177v-137h180zM232 325h215q189 0 189 -161q0 -88 -46.5 -126t-142.5 -38h-364v509h149v-184z" />
    <glyph glyph-name="afii10095" unicode="&#x44d;" horiz-adv-x="577" 
d="M29 12l32 99q63 -21 144 -21q76 0 113 28t42 104h-243v95h241q-9 60 -45.5 81t-107.5 21q-87 0 -144 -19l-32 100q79 24 186 24q146 0 223.5 -60t77.5 -207q0 -148 -77.5 -209.5t-223.5 -61.5q-108 0 -186 26z" />
    <glyph glyph-name="afii10096" unicode="&#x44e;" horiz-adv-x="1018" 
d="M670 -14q-137 0 -205 51.5t-77 178.5h-156v-216h-149v509h149v-187h157q14 112 82 157t199 45q149 0 218 -58.5t69 -208.5q0 -151 -69 -211t-218 -60zM670 424q-78 0 -105 -31.5t-27 -137.5q0 -103 27.5 -136t104.5 -33q78 0 106 33t28 136q0 106 -27.5 137.5
t-106.5 31.5z" />
    <glyph glyph-name="afii10097" unicode="&#x44f;" horiz-adv-x="712" 
d="M480 279v130h-174q-37 0 -54.5 -14.5t-17.5 -49.5q0 -66 76 -66h170zM247 220q-92 3 -133 41.5t-41 98.5q0 149 193 149h363v-509h-149v181h-92q-62 0 -100 -34.5t-88 -146.5h-170q62 127 106 169.5t111 50.5z" />
    <glyph glyph-name="afii10071" unicode="&#x451;" horiz-adv-x="663" 
d="M547 112l24 -98q-100 -28 -214 -28q-143 0 -219.5 61.5t-76.5 209.5q0 146 71.5 206.5t212.5 60.5q77 0 126 -12.5t84 -46t48 -92.5t9 -151h-395q1 -78 37 -104.5t121 -26.5q88 0 172 21zM354 426q-71 0 -100 -23t-36 -86h257q-4 66 -29.5 87.5t-91.5 21.5zM218 681
q42 0 57 -10t15 -45q0 -38 -15 -50t-57 -12t-56.5 11.5t-14.5 50.5q0 35 14.5 45t56.5 10zM475 681q42 0 56.5 -10t14.5 -45q0 -38 -15 -50t-56 -12q-43 0 -57.5 11.5t-14.5 50.5q0 35 14.5 45t57.5 10z" />
    <glyph glyph-name="afii10099" unicode="&#x452;" horiz-adv-x="691" 
d="M232 581v-104q74 35 168 35q61 0 100.5 -11.5t70.5 -43t45 -89.5t14 -147q0 -169 -56 -269.5t-134 -134.5l-106 85q41 19 69 49.5t48.5 98t20.5 167.5q0 78 -12.5 116.5t-36.5 50.5t-73 12q-47 0 -81 -11.5t-37 -31.5v-353h-149v581h-61v87h61v54h149v-54h124v-87h-124z
" />
    <glyph glyph-name="afii10100" unicode="&#x453;" horiz-adv-x="509" 
d="M232 402v-402h-149v509h425v-107h-276zM324 568h-131l146 129h159z" />
    <glyph glyph-name="afii10101" unicode="&#x454;" horiz-adv-x="577" 
d="M516 111l32 -99q-78 -26 -185 -26q-146 0 -224 61.5t-78 209.5q0 147 77.5 207t223.5 60q109 0 186 -24l-32 -100q-57 19 -144 19q-70 0 -106.5 -21t-46.5 -81h242v-95h-244q5 -76 42 -104t113 -28q81 0 144 21z" />
    <glyph glyph-name="afii10102" unicode="&#x455;" horiz-adv-x="589" 
d="M521 496l-33 -97q-89 24 -177 24q-61 0 -86 -11t-25 -48q0 -26 25.5 -37.5t100.5 -17.5q114 -10 163.5 -44t49.5 -109q0 -64 -34 -102.5t-89.5 -53t-138.5 -14.5q-127 0 -218 27l31 98q81 -24 181 -24q66 0 93 12t27 50q0 28 -27 41.5t-104 19.5q-107 7 -156.5 38.5
t-49.5 106.5q0 93 68 131t194 38q105 0 205 -28z" />
    <glyph glyph-name="afii10103" unicode="&#x456;" horiz-adv-x="315" 
d="M232 509v-509h-149v509h149zM158 721q51 0 68.5 -11.5t17.5 -49.5q0 -43 -17.5 -56t-68.5 -13t-68.5 13t-17.5 56q0 38 17.5 49.5t68.5 11.5z" />
    <glyph glyph-name="afii10104" unicode="&#x457;" horiz-adv-x="314" 
d="M232 509v-509h-149v509h149zM29 681q42 0 57 -10t15 -45q0 -38 -15 -50t-57 -12t-56.5 11.5t-14.5 50.5q0 35 14.5 45t56.5 10zM286 681q41 0 55.5 -10t14.5 -45q0 -38 -14.5 -50t-55.5 -12q-43 0 -57.5 11.5t-14.5 50.5q0 35 14 45t58 10z" />
    <glyph glyph-name="afii10105" unicode="&#x458;" horiz-adv-x="315" 
d="M159 721q50 0 67.5 -11.5t17.5 -49.5q0 -43 -17.5 -56t-67.5 -13q-51 0 -69 13t-18 56q0 38 17.5 49.5t69.5 11.5zM-19 -203v103q53 0 77.5 18.5t24.5 67.5v523h149v-520q0 -109 -59.5 -150.5t-191.5 -41.5z" />
    <glyph glyph-name="afii10106" unicode="&#x459;" horiz-adv-x="1063" 
d="M454 401h-166q-20 -209 -92 -401h-156q89 239 107 509h456v-184h215q189 0 189 -161q0 -88 -46.5 -126t-142.5 -38h-364v401zM603 92h180q68 0 68 70q0 36 -17.5 51.5t-53.5 15.5h-177v-137z" />
    <glyph glyph-name="afii10107" unicode="&#x45a;" horiz-adv-x="1081" 
d="M621 325h214q190 0 190 -161q0 -88 -46.5 -126t-143.5 -38h-363v229h-240v-229h-149v509h149v-184h240v184h149v-184zM621 92h180q68 0 68 71q0 36 -17.5 51t-53.5 15h-177v-137z" />
    <glyph glyph-name="afii10108" unicode="&#x45b;" horiz-adv-x="700" 
d="M22 581v87h61v54h149v-54h124v-87h-124v-92q82 35 168 35q57 0 95.5 -9.5t68 -34.5t43.5 -71t14 -116v-293h-149v283q0 77 -28.5 103t-93.5 26q-50 0 -84 -12t-34 -33v-367h-149v581h-61z" />
    <glyph glyph-name="afii10109" unicode="&#x45c;" horiz-adv-x="661" 
d="M659 0h-174q-72 126 -129.5 175t-123.5 61v-236h-149v509h149v-245q89 82 236 245h177q-175 -195 -232 -233q27 -9 47 -21t49.5 -40t66.5 -81t83 -134zM388 568h-131l145 129h160z" />
    <glyph glyph-name="afii10110" unicode="&#x45e;" horiz-adv-x="613" 
d="M216 -25q-100 303 -216 534h155q81 -169 151 -386q102 223 151 386h151q-87 -249 -231 -530q-50 -99 -95 -171h-166q43 63 100 167zM128 699h102q0 -34 19 -46t61 -12q41 0 60.5 12.5t19.5 45.5h96q0 -137 -180 -137q-178 0 -178 137z" />
    <glyph glyph-name="afii10193" unicode="&#x45f;" 
d="M232 509v-401h240v401h149v-509h-188l-25 -178h-105l-26 178h-194v509h149z" />
    <glyph glyph-name="afii10050" unicode="&#x490;" horiz-adv-x="653" 
d="M106 0v697h420l40 178h105v-292h-407v-583h-158z" />
    <glyph glyph-name="afii10098" unicode="&#x491;" horiz-adv-x="509" 
d="M508 401h-276v-401h-149v509h295l36 164h94v-272z" />
    <glyph glyph-name="endash" unicode="&#x2013;" horiz-adv-x="694" 
d="M59 222v118h576v-118h-576z" />
    <glyph glyph-name="emdash" unicode="&#x2014;" horiz-adv-x="1038" 
d="M59 222v118h920v-118h-920z" />
    <glyph glyph-name="quoteleft" unicode="&#x2018;" horiz-adv-x="306" 
d="M29 505l131 262h120l-94 -262h-157z" />
    <glyph glyph-name="quoteright" unicode="&#x2019;" horiz-adv-x="307" 
d="M279 762l-131 -262h-120l94 262h157z" />
    <glyph glyph-name="quotesinglbase" unicode="&#x201a;" horiz-adv-x="295" 
d="M273 103l-131 -262h-120l94 262h157z" />
    <glyph glyph-name="quotedblleft" unicode="&#x201c;" horiz-adv-x="541" 
d="M29 505l131 262h120l-94 -262h-157zM262 505l131 262h120l-94 -262h-157z" />
    <glyph glyph-name="quotedblright" unicode="&#x201d;" horiz-adv-x="541" 
d="M512 763l-131 -262h-120l93 262h158zM279 763l-131 -262h-120l94 262h157z" />
    <glyph glyph-name="quotedblbase" unicode="&#x201e;" horiz-adv-x="541" 
d="M512 98l-131 -262h-120l93 262h158zM279 98l-131 -262h-120l94 262h157z" />
    <glyph glyph-name="dagger" unicode="&#x2020;" horiz-adv-x="535" 
d="M36 479v100h169v143h124v-143h170v-100h-170v-228h-124v228h-169z" />
    <glyph glyph-name="daggerdbl" unicode="&#x2021;" horiz-adv-x="535" 
d="M36 479v100h169v143h124v-143h170v-100h-170v-96h170v-101h-170v-143h-124v143h-169v101h169v96h-169z" />
    <glyph glyph-name="bullet" unicode="&#x2022;" 
d="M351 56q-152 0 -221 59.5t-69 211.5q0 150 69.5 208.5t220.5 58.5q154 0 223.5 -58.5t69.5 -208.5q0 -152 -69.5 -211.5t-223.5 -59.5z" />
    <glyph glyph-name="ellipsis" unicode="&#x2026;" horiz-adv-x="1369" 
d="M261 143q58 0 77 -13t19 -57q0 -48 -19.5 -63t-76.5 -15q-54 0 -73 15t-19 63q0 44 19 57t73 13zM683 143q56 0 75 -13t19 -57q0 -48 -19 -63t-75 -15q-55 0 -74.5 15t-19.5 63q0 44 19.5 57t74.5 13zM1104 143q57 0 76.5 -13t19.5 -57q0 -48 -19.5 -63t-76.5 -15
q-54 0 -73.5 15t-19.5 63q0 44 19.5 57t73.5 13z" />
    <glyph glyph-name="perthousand" unicode="&#x2030;" horiz-adv-x="1625" 
d="M760 697h140l-515 -697h-139zM260 714q120 0 169.5 -47t49.5 -176q0 -131 -50 -181t-169 -50q-118 0 -168 50t-50 181q0 129 49.5 176t168.5 47zM260 349q52 0 69.5 27.5t17.5 113.5t-17 111t-70 25q-51 0 -69 -25.5t-18 -110.5t18 -113t69 -28zM890 439q120 0 169.5 -47
t49.5 -175q0 -131 -50 -181t-169 -50t-168.5 50t-49.5 181q0 128 49.5 175t168.5 47zM890 74q52 0 69.5 27.5t17.5 114.5q0 85 -17 110t-70 25q-52 0 -69.5 -25t-17.5 -110q0 -86 18 -114t69 -28zM1364 439q120 0 169.5 -47t49.5 -175q0 -131 -50 -181t-169 -50t-168.5 50
t-49.5 181q0 128 49.5 175t168.5 47zM1364 74q52 0 69.5 27.5t17.5 114.5q0 85 -17 110t-70 25q-52 0 -69.5 -25t-17.5 -110q0 -86 18 -114t69 -28z" />
    <glyph glyph-name="guilsinglleft" unicode="&#x2039;" horiz-adv-x="473" 
d="M441 518l-211 -204l211 -208l-84 -75l-325 281l324 279z" />
    <glyph glyph-name="guilsinglright" unicode="&#x203a;" horiz-adv-x="473" 
d="M32 105l212 204l-212 209l84 74l326 -280l-324 -280z" />
    <glyph glyph-name="fraction" unicode="&#x2044;" horiz-adv-x="711" 
d="M552 697h140l-527 -697h-139z" />
    <glyph glyph-name="fraction" unicode="&#x2215;" horiz-adv-x="711" 
d="M552 697h140l-527 -697h-139z" />
    <glyph glyph-name="franc" unicode="&#x20a3;" horiz-adv-x="684" 
d="M58 117v88h48v492h595v-114h-437v-197h267v-112h-267v-69h108v-88h-108v-117h-158v117h-48z" />
    <glyph glyph-name="Euro" unicode="&#x20ac;" horiz-adv-x="710" 
d="M64 355q0 106 23 176t74 110.5t121 56.5t174 16q129 0 240 -26l-34 -116q-74 22 -178 22q-108 0 -160 -21.5t-73 -88.5h287v-85h-304q-1 -11 -1 -45q0 -35 1 -45h304v-85h-287q20 -70 72.5 -93.5t160.5 -23.5q104 0 178 22l34 -118q-107 -25 -240 -25q-103 0 -173.5 18
t-121 60t-74 113.5t-23.5 177.5z" />
    <glyph glyph-name="afii61352" unicode="&#x2116;" horiz-adv-x="1409" 
d="M822 697v-697h-193q-178 274 -368 525v-525h-155v697h208q181 -238 351 -503v503h157zM932 123v98h391v-98h-391zM1125 714q124 0 173.5 -44t49.5 -164q0 -122 -50 -168t-173 -46q-122 0 -172 46t-50 168q0 120 49.5 164t172.5 44zM1125 381q56 0 74 23.5t18 101.5
q0 77 -17.5 98.5t-74.5 21.5t-74 -21.5t-17 -98.5q0 -79 17 -102t74 -23z" />
    <glyph glyph-name="trademark" unicode="&#x2122;" horiz-adv-x="988" 
d="M252 338h-107v281h-137v78h379v-78h-135v-281zM573 697l109 -243l106 243h134v-359h-100v250l-105 -236h-83l-100 236v-250h-101v359h140z" />
    <glyph glyph-name="estimated" unicode="&#x212e;" horiz-adv-x="853" 
d="M803 303h-569q4 -119 55.5 -158t181.5 -39q45 0 109.5 7t95.5 16l34 -118q-108 -25 -240 -25q-209 0 -307.5 82t-98.5 287q0 104 24.5 175t75 111t116 56.5t158.5 16.5q188 0 276.5 -88t88.5 -291v-32zM438 595q-105 0 -150.5 -34t-51.5 -140h399q-5 105 -49 139.5
t-148 34.5z" />
    <glyph glyph-name="arrowleft" unicode="&#x2190;" horiz-adv-x="908" 
d="M468 26l-450 341l449 341l105 -89l-260 -194h578v-117h-578l260 -193z" />
    <glyph glyph-name="arrowup" unicode="&#x2191;" horiz-adv-x="911" 
d="M46 355l410 375l408 -375l-105 -88l-233 218v-482h-140v482l-232 -218z" />
    <glyph glyph-name="arrowright" unicode="&#x2192;" horiz-adv-x="908" 
d="M440 707l450 -340l-450 -342l-105 90l261 193h-578v117h578l-261 194z" />
    <glyph glyph-name="arrowdown" unicode="&#x2193;" horiz-adv-x="911" 
d="M864 378l-409 -375l-409 374l107 88l233 -217v482h140v-482l232 217z" />
    <glyph glyph-name="partialdiff" unicode="&#x2202;" horiz-adv-x="751" 
d="M371 428q42 0 104 -5q-69 114 -270 274h197q65 -53 113 -101t91.5 -107t66 -126t22.5 -139q0 -141 -65.5 -191t-254.5 -50q-174 0 -244 52t-70 183q0 118 67 164t243 46zM528 238q0 36 -11 72q-56 7 -130 7q-100 0 -130 -20t-30 -85q0 -62 29.5 -86.5t118.5 -24.5
q92 0 122.5 24.5t30.5 112.5z" />
    <glyph glyph-name="product" unicode="&#x220f;" horiz-adv-x="884" 
d="M264 578v-578h-158v697h672v-697h-156v578h-358z" />
    <glyph glyph-name="summation" unicode="&#x2211;" horiz-adv-x="747" 
d="M473 345q-116 -144 -200 -232h445v-113h-713q80 90 283 346q-137 173 -265 351h691v-114h-428q102 -132 187 -238z" />
    <glyph glyph-name="minus" unicode="&#x2212;" horiz-adv-x="699" 
d="M58 303v118h583v-118h-583z" />
    <glyph glyph-name="radical" unicode="&#x221a;" horiz-adv-x="694" 
d="M0 509h198q83 -172 151 -384q47 103 122.5 292t103.5 280h151q-46 -130 -140 -354t-153 -343h-183q-81 230 -152 387h-98v122z" />
    <glyph glyph-name="infinity" unicode="&#x221e;" horiz-adv-x="927" 
d="M404 351q0 53 -28 76t-94 23q-65 0 -89 -22t-24 -77q0 -56 24 -78t89 -22q66 0 94 23.5t28 76.5zM464 264q-9 -77 -61 -103.5t-148 -26.5q-119 0 -171 47t-52 170t52 169.5t171 46.5q96 0 148 -26.5t61 -102.5q8 76 59.5 102.5t148.5 26.5q119 0 171 -46.5t52 -169.5
t-52 -170t-171 -47q-96 0 -148 27t-60 103zM523 351q0 -53 28 -76t94 -23q65 0 89 22t24 77t-24 77t-89 22q-66 0 -94 -23t-28 -76z" />
    <glyph glyph-name="integral" unicode="&#x222b;" horiz-adv-x="408" 
d="M488 702l-34 -98q-51 14 -116 14q-49 0 -74 -16.5t-25 -65.5v-550q0 -189 -237 -189q-100 0 -178 24l30 96q62 -20 133 -20q47 0 75 22t28 67v557q0 95 60.5 138t161.5 43q96 0 176 -22z" />
    <glyph glyph-name="approxequal" unicode="&#x2248;" horiz-adv-x="699" 
d="M560 320l96 -63q-23 -51 -71 -82.5t-113 -31.5q-48 0 -138.5 42.5t-124.5 42.5q-46 0 -77 -60l-86 69q69 98 164 98q56 0 146.5 -41.5t121.5 -41.5q28 0 46.5 14.5t35.5 53.5zM560 533l96 -63q-23 -51 -71 -82.5t-113 -31.5q-48 0 -138.5 42.5t-124.5 42.5q-46 0 -77 -60
l-86 69q69 98 164 98q56 0 146.5 -41.5t121.5 -41.5q28 0 46.5 14.5t35.5 53.5z" />
    <glyph glyph-name="notequal" unicode="&#x2260;" horiz-adv-x="699" 
d="M456 648h149l-62 -95h98v-118h-171l-95 -149h266v-118h-338l-63 -96h-147l61 96h-96v118h169l95 149h-264v118h336z" />
    <glyph glyph-name="lessequal" unicode="&#x2264;" horiz-adv-x="699" 
d="M58 19v118h583v-118h-583zM599 629l-313 -193l313 -195l-75 -82l-432 250v52l430 249z" />
    <glyph glyph-name="greaterequal" unicode="&#x2265;" horiz-adv-x="698" 
d="M642 137v-118h-583v118h583zM413 436l-312 193l77 81l431 -249v-52l-434 -250l-74 82z" />
    <glyph glyph-name="lozenge" unicode="&#x25ca;" horiz-adv-x="721" 
d="M699 265q-128 -246 -206 -433h-248q-130 236 -222 433q96 207 222 434h248q76 -183 206 -434zM532 266q-13 29 -49 104.5t-64 136.5t-42 98h-32q-136 -272 -166 -339q43 -95 166 -339h32q14 37 42 97.5t64 136.5t49 105z" />
    <glyph glyph-name="caron.alt" unicode="&#xe01e;" horiz-adv-x="392" 
d="M338 722h132l-68 -192h-88z" />
    <glyph glyph-name="commaaccent" unicode="&#xf6c3;" horiz-adv-x="320" 
d="M319 -51l-130 -167h-116l85 167h161z" />
    <glyph glyph-name="Acute" unicode="&#xf6c9;" horiz-adv-x="490" 
d="M249 747h-130l155 129h164z" />
    <glyph glyph-name="Caron" unicode="&#xf6ca;" horiz-adv-x="785" 
d="M336 876l88 -78l84 78h134l-146 -129h-147l-151 129h138z" />
    <glyph glyph-name="Dieresis" unicode="&#xf6cb;" horiz-adv-x="517" 
d="M175 864q42 0 56.5 -10.5t14.5 -45.5q0 -38 -14.5 -49.5t-56.5 -11.5t-57 11.5t-15 49.5q0 35 15 45.5t57 10.5zM431 864q42 0 56 -10.5t14 -45.5q0 -38 -14 -49.5t-56 -11.5q-43 0 -57.5 11.5t-14.5 49.5q0 35 14.5 45.5t57.5 10.5z" />
    <glyph glyph-name="Grave" unicode="&#xf6ce;" horiz-adv-x="489" 
d="M490 747h-136l-190 129h164z" />
    <glyph glyph-name="Hungarumlaut" unicode="&#xf6cf;" horiz-adv-x="742" 
d="M298 747h-102l109 129h131zM496 747h-103l109 129h131z" />
    <glyph glyph-name="Macron" unicode="&#xf6d0;" horiz-adv-x="392" 
d="M148 753v92h334v-92h-334z" />
    <glyph glyph-name="Lslashsmall" unicode="&#xf6f9;" horiz-adv-x="518" 
d="M231 232v-121h288v-111h-437v128l-50 -37v107l50 37v274h149v-170l113 83v-108z" />
    <glyph glyph-name="OEsmall" unicode="&#xf6fa;" horiz-adv-x="990" 
d="M944 509v-101h-333q25 -38 31 -95h225v-95h-225q-1 -74 -33 -117h335v-101h-461q-52 -14 -132 -14q-152 0 -221 59.5t-69 211.5q0 150 69.5 208.5t220.5 58.5q79 0 136 -15h457zM351 424q-81 0 -108.5 -31.5t-27.5 -137.5q0 -103 28 -136t108 -33q82 0 111 33t29 136
q0 73 -13.5 109t-41.5 48t-85 12z" />
    <glyph glyph-name="Scaronsmall" unicode="&#xf6fd;" horiz-adv-x="589" 
d="M521 496l-33 -97q-89 24 -177 24q-61 0 -86 -11t-25 -48q0 -26 25.5 -37.5t100.5 -17.5q114 -10 163.5 -44t49.5 -109q0 -64 -34 -102.5t-89.5 -53t-138.5 -14.5q-127 0 -218 27l31 98q81 -24 181 -24q66 0 93 12t27 50q0 28 -27 41.5t-104 19.5q-107 7 -156.5 38.5
t-49.5 106.5q0 93 68 131t194 38q105 0 205 -28zM79 697h141l85 -76l83 76h135l-146 -129h-147z" />
    <glyph glyph-name="Zcaronsmall" unicode="&#xf6ff;" horiz-adv-x="597" 
d="M42 509h527v-25q-62 -84 -156.5 -196.5t-157.5 -179.5h306v-108h-539v25q84 89 178 200t141 176h-299v108zM81 697h140l85 -76l83 76h136l-147 -129h-146z" />
    <glyph glyph-name="exclamsmall" unicode="&#xf721;" horiz-adv-x="392" 
d="M109 509h172l-33 -302h-108zM196 141q56 0 75 -13.5t19 -57.5q0 -48 -19 -62.5t-75 -14.5q-55 0 -74.5 14.5t-19.5 62.5q0 44 19.5 57.5t74.5 13.5z" />
    <glyph glyph-name="ampersandsmall" unicode="&#xf726;" horiz-adv-x="838" 
d="M820 0h-164q-25 32 -54 64q-141 -78 -294 -78q-151 0 -210.5 31.5t-59.5 117.5q0 129 172 136q-82 5 -108.5 34t-26.5 88q0 74 54 102.5t211 28.5q107 0 164 -13.5t78 -40.5t21 -77q0 -56 -34 -87t-118 -37q74 -7 157 -69q44 45 59 99h161q-21 -89 -120 -172
q55 -52 112 -127zM313 82q126 0 211 61q-88 78 -197 78q-41 0 -66 -3.5t-45.5 -19.5t-20.5 -46q0 -40 26 -55t92 -15zM338 317q64 0 92 12t28 45q0 32 -24 44t-91 12q-69 0 -93.5 -12t-24.5 -44q0 -33 24.5 -45t88.5 -12z" />
    <glyph glyph-name="zerooldstyle" unicode="&#xf730;" horiz-adv-x="752" 
d="M378 -14q-140 0 -209 60.5t-69 210.5q0 149 69 208t209 59q141 0 207.5 -58.5t66.5 -208.5q0 -151 -66.5 -211t-207.5 -60zM378 424q-50 0 -75 -11.5t-38 -48t-13 -109.5q0 -103 27 -136t99 -33q73 0 96.5 32t23.5 137q0 107 -23.5 138t-96.5 31z" />
    <glyph glyph-name="oneoldstyle" unicode="&#xf731;" horiz-adv-x="751" 
d="M529 0h-150v362l-187 -71l-43 104l380 129v-524z" />
    <glyph glyph-name="twooldstyle" unicode="&#xf732;" horiz-adv-x="752" 
d="M147 386l-35 115q117 23 251 23q156 0 216 -36.5t60 -123.5q0 -75 -70.5 -137t-244.5 -126h328v-101h-546v91q162 75 241 119t104.5 71t25.5 59q0 39 -29 55t-110 16q-43 0 -103.5 -7.5t-87.5 -17.5z" />
    <glyph glyph-name="threeoldstyle" unicode="&#xf733;" horiz-adv-x="751" 
d="M231 121v112h116q77 0 108 19t31 69q0 49 -36 67t-144 18q-122 0 -210 -22l-31 114q146 26 272 26q177 0 247 -41t70 -137q0 -77 -37.5 -117.5t-142.5 -47.5q112 -4 154.5 -49t42.5 -131q0 -112 -78 -157t-259 -45q-139 0 -275 25l31 114q83 -20 214 -20
q116 0 155.5 21.5t39.5 79.5t-33 80t-117 22h-118z" />
    <glyph glyph-name="fouroldstyle" unicode="&#xf734;" horiz-adv-x="752" 
d="M443 0h-415v40q213 310 356 469h210v-406h112v-103h-112v-192h-151v192zM443 103v296q-83 -90 -223 -296h223z" />
    <glyph glyph-name="fiveoldstyle" unicode="&#xf735;" horiz-adv-x="751" 
d="M115 509h519v-114h-370v-153q66 4 101 4q173 0 239.5 -49.5t66.5 -167.5q0 -131 -73.5 -181.5t-254.5 -50.5q-145 0 -266 25l31 114q80 -20 204 -20q114 0 150.5 22t36.5 84q0 67 -33.5 89.5t-144.5 22.5q-119 0 -206 -14v389z" />
    <glyph glyph-name="sixoldstyle" unicode="&#xf736;" horiz-adv-x="751" 
d="M676 687l-35 -116q-74 23 -197 23q-108 0 -156.5 -34.5t-52.5 -138.5q75 11 159 11q174 0 241.5 -49t67.5 -168q0 -131 -69.5 -180t-244.5 -49q-181 0 -252 78.5t-71 289.5q0 107 20.5 176.5t67.5 110.5t115.5 57t174.5 16q122 0 232 -27zM389 105q89 0 119 22t30 81
q0 62 -28.5 87t-108.5 25q-98 0 -168 -10q1 -85 19.5 -130.5t49 -60t87.5 -14.5z" />
    <glyph glyph-name="sevenoldstyle" unicode="&#xf737;" horiz-adv-x="751" 
d="M716 509v-39q-85 -113 -199 -316t-171 -346h-178q68 157 165.5 328t172.5 259h-432v114h642z" />
    <glyph glyph-name="eightoldstyle" unicode="&#xf738;" horiz-adv-x="751" 
d="M375 94q86 0 118 23t32 84t-33.5 87t-116.5 26q-82 0 -115 -26t-33 -87t31.5 -84t116.5 -23zM375 417q72 0 104 22.5t32 75.5q0 51 -30 70t-106 19t-106 -19t-30 -70q0 -53 32 -75.5t104 -22.5zM375 -14q-172 0 -243 45.5t-71 156.5q0 87 41.5 132t154.5 49
q-105 8 -141.5 49t-36.5 118q0 95 64 136.5t232 41.5q169 0 233 -41.5t64 -136.5q0 -77 -36.5 -118t-141.5 -49q113 -4 154.5 -49t41.5 -132q0 -111 -71 -156.5t-244 -45.5z" />
    <glyph glyph-name="nineoldstyle" unicode="&#xf739;" horiz-adv-x="751" 
d="M203 -192q203 161 272 275q-48 -5 -104 -5q-176 0 -243 46t-67 164q0 132 70 184t244 52q189 0 254.5 -50t65.5 -191q0 -137 -79 -250.5t-217 -224.5h-196zM387 190q74 0 130 7q11 36 11 72q0 87 -31 112t-122 25q-88 0 -118 -25t-30 -87q0 -65 30 -84.5t130 -19.5z" />
    <glyph glyph-name="questionsmall" unicode="&#xf73f;" horiz-adv-x="578" 
d="M270 143q57 0 76.5 -13t19.5 -57q0 -48 -19.5 -62.5t-76.5 -14.5q-54 0 -73 14.5t-19 62.5q0 44 19 57t73 13zM340 202h-148q85 54 120.5 90t35.5 81q0 28 -23 39.5t-82 11.5q-93 0 -167 -18l-23 103q112 19 202 19q141 0 201 -31t60 -102q0 -59 -39.5 -101.5
t-136.5 -91.5z" />
    <glyph glyph-name="Asmall" unicode="&#xf761;" horiz-adv-x="676" 
d="M513 0q-20 37 -57 123h-255q-19 -50 -43 -123h-154q75 215 220 509h231q114 -320 214 -509h-156zM346 409h-25q-43 -87 -85 -195h183q-41 99 -73 195z" />
    <glyph glyph-name="Bsmall" unicode="&#xf762;" horiz-adv-x="696" 
d="M232 96h182q35 0 50.5 13.5t15.5 44.5q0 66 -69 66h-179v-124zM232 413v-102h176q32 0 45.5 12.5t13.5 39.5q0 29 -13 39.5t-46 10.5h-176zM483 270q86 -2 119.5 -35.5t33.5 -95.5q0 -139 -180 -139h-373v509h368q98 0 134.5 -30.5t36.5 -91.5q0 -55 -28.5 -83.5
t-110.5 -33.5z" />
    <glyph glyph-name="Csmall" unicode="&#xf763;" horiz-adv-x="563" 
d="M516 118l33 -106q-78 -26 -186 -26q-149 0 -225.5 61t-76.5 210q0 148 77 207.5t225 59.5q109 0 186 -24l-33 -106q-72 22 -142 22q-88 0 -123.5 -30.5t-35.5 -130.5q0 -96 36.5 -128.5t122.5 -32.5q70 0 142 24z" />
    <glyph glyph-name="Dsmall" unicode="&#xf764;" horiz-adv-x="701" 
d="M83 509h259q155 0 226 -54.5t71 -197.5q0 -144 -71.5 -200.5t-225.5 -56.5h-259v509zM331 413h-99v-317h99q85 0 119.5 31.5t34.5 127.5q0 98 -34 128t-120 30z" />
    <glyph glyph-name="Esmall" unicode="&#xf765;" horiz-adv-x="607" 
d="M561 509v-101h-329v-95h252v-95h-252v-117h329v-101h-478v509h478z" />
    <glyph glyph-name="Fsmall" unicode="&#xf766;" horiz-adv-x="569" 
d="M83 0v509h478v-101h-329v-120h252v-97h-252v-191h-149z" />
    <glyph glyph-name="Gsmall" unicode="&#xf767;" horiz-adv-x="683" 
d="M606 297v-276q-118 -35 -243 -35q-147 0 -224.5 61t-77.5 210q0 147 82 207t232 60q120 0 204 -24l-38 -102q-75 22 -161 22q-88 0 -126.5 -32.5t-38.5 -132.5q0 -96 38 -130.5t121 -34.5q59 0 99 14v96h-130v97h263z" />
    <glyph glyph-name="Hsmall" unicode="&#xf768;" 
d="M472 216h-240v-216h-149v509h149v-187h240v187h149v-509h-149v216z" />
    <glyph glyph-name="Ismall" unicode="&#xf769;" horiz-adv-x="315" 
d="M232 509v-509h-149v509h149z" />
    <glyph glyph-name="Jsmall" unicode="&#xf76a;" horiz-adv-x="497" 
d="M415 509v-333q0 -190 -237 -190q-101 0 -178 23l29 106q62 -20 134 -20q103 0 103 90v324h149z" />
    <glyph glyph-name="Ksmall" unicode="&#xf76b;" horiz-adv-x="662" 
d="M232 509v-509h-149v509h149zM663 0h-176q-208 252 -255 269q60 42 236 240h177q-167 -187 -234 -231q26 -13 93.5 -86t158.5 -192z" />
    <glyph glyph-name="Lsmall" unicode="&#xf76c;" horiz-adv-x="519" 
d="M232 509v-398h288v-111h-437v509h149z" />
    <glyph glyph-name="Msmall" unicode="&#xf76d;" horiz-adv-x="904" 
d="M459 206q71 157 154 303h208v-509h-148v371q-77 -139 -168 -341h-111q-111 246 -163 341v-371h-148v509h217q66 -114 159 -303z" />
    <glyph glyph-name="Nsmall" unicode="&#xf76e;" horiz-adv-x="712" 
d="M480 198v311h149v-509h-149q-140 209 -248 321v-321h-149v509h146q154 -165 251 -311z" />
    <glyph glyph-name="Osmall" unicode="&#xf76f;" 
d="M351 -14q-152 0 -221 59.5t-69 211.5q0 150 69.5 208.5t220.5 58.5q154 0 223.5 -58.5t69.5 -208.5q0 -152 -69.5 -211.5t-223.5 -59.5zM351 423q-81 0 -108.5 -31t-27.5 -137q0 -103 28 -135.5t108 -32.5q83 0 111.5 32.5t28.5 135.5q0 73 -13.5 109t-41.5 47.5
t-85 11.5z" />
    <glyph glyph-name="Psmall" unicode="&#xf770;" horiz-adv-x="676" 
d="M408 413h-176v-137h176q66 0 66 67q0 70 -66 70zM450 185h-218v-185h-149v509h355q101 0 146.5 -40.5t45.5 -123.5q0 -160 -180 -160z" />
    <glyph glyph-name="Qsmall" unicode="&#xf771;" 
d="M339 -14q-140 0 -209 60.5t-69 210.5t69.5 208.5t220.5 58.5q154 0 223.5 -58.5t69.5 -208.5q0 -107 -35 -166t-109 -83q41 -8 92.5 -52t129.5 -138h-167q-131 168 -216 168zM351 424q-81 0 -108.5 -31.5t-27.5 -137.5q0 -103 28 -136t108 -33q82 0 111 33t29 136
q0 73 -13.5 109t-41.5 48t-85 12z" />
    <glyph glyph-name="Rsmall" unicode="&#xf772;" horiz-adv-x="689" 
d="M443 509q188 0 188 -149q0 -135 -168 -140q50 -10 91.5 -50.5t128.5 -169.5h-173q-69 109 -109.5 145t-83.5 36h-85v-181h-149v509h360zM232 279h169q76 0 76 66q0 64 -74 64h-171v-130z" />
    <glyph glyph-name="Ssmall" unicode="&#xf773;" horiz-adv-x="589" 
d="M521 496l-33 -97q-89 24 -177 24q-61 0 -86 -11t-25 -48q0 -26 25.5 -37.5t100.5 -17.5q114 -10 163.5 -44t49.5 -109q0 -64 -34 -102.5t-89.5 -53t-138.5 -14.5q-127 0 -218 27l31 98q81 -24 181 -24q66 0 93 12t27 50q0 28 -27 41.5t-104 19.5q-107 7 -156.5 38.5
t-49.5 106.5q0 93 68 131t194 38q105 0 205 -28z" />
    <glyph glyph-name="Tsmall" unicode="&#xf774;" horiz-adv-x="582" 
d="M365 401v-401h-149v401h-210v108h570v-108h-211z" />
    <glyph glyph-name="Usmall" unicode="&#xf775;" horiz-adv-x="693" 
d="M347 97q70 0 94 23t24 79v310h148v-303q0 -124 -59.5 -172t-206.5 -48q-148 0 -208 48.5t-60 171.5v303h149v-310q0 -56 24.5 -79t94.5 -23z" />
    <glyph glyph-name="Vsmall" unicode="&#xf776;" horiz-adv-x="626" 
d="M317 125q101 221 151 384h151q-78 -221 -219 -509h-184q-103 303 -205 509h155q81 -172 151 -384z" />
    <glyph glyph-name="Wsmall" unicode="&#xf777;" horiz-adv-x="996" 
d="M498 341q-48 -177 -118 -341h-183q-95 285 -197 509h157q78 -171 139 -382q31 76 72 194.5t60 187.5h146q66 -167 123 -382q98 225 142 382h151q-86 -259 -209 -509h-185q-46 198 -98 341z" />
    <glyph glyph-name="Xsmall" unicode="&#xf778;" horiz-adv-x="625" 
d="M619 0h-168q-48 66 -128 161q-71 -80 -150 -161h-166q94 91 238 254q-135 156 -237 255h178q61 -62 140 -156q53 60 126 156h166q-86 -108 -210 -251q105 -122 211 -258z" />
    <glyph glyph-name="Ysmall" unicode="&#xf779;" horiz-adv-x="584" 
d="M300 332q78 79 151 177h163q-116 -149 -242 -278v-231h-149v231q-151 177 -253 278h173q68 -68 157 -177z" />
    <glyph glyph-name="Zsmall" unicode="&#xf77a;" horiz-adv-x="597" 
d="M42 509h527v-25q-62 -84 -156.5 -196.5t-157.5 -179.5h306v-108h-539v25q84 89 178 200t141 176h-299v108z" />
    <glyph glyph-name="exclamdownsmall" unicode="&#xf7a1;" horiz-adv-x="393" 
d="M282 0h-171l32 302h109zM197 369q-57 0 -76.5 13t-19.5 57q0 48 20 63t76 15q55 0 74.5 -15t19.5 -63q0 -44 -19.5 -57t-74.5 -13z" />
    <glyph glyph-name="questiondownsmall" unicode="&#xf7bf;" horiz-adv-x="578" 
d="M300 376q-56 0 -75.5 13t-19.5 57q0 48 19.5 63t75.5 15q55 0 74.5 -15t19.5 -63q0 -44 -19.5 -57t-74.5 -13zM232 317h147q-86 -55 -121.5 -91t-35.5 -82q0 -27 23.5 -38t82.5 -11q92 0 166 18l24 -103q-98 -17 -201 -17q-140 0 -201.5 29.5t-61.5 98.5q0 60 40 103.5
t138 92.5z" />
    <glyph glyph-name="Agravesmall" unicode="&#xf7e0;" horiz-adv-x="676" 
d="M513 0q-20 37 -57 123h-255q-19 -50 -43 -123h-154q75 215 220 509h231q114 -320 214 -509h-156zM346 409h-25q-43 -87 -85 -195h183q-41 99 -73 195zM462 568h-132l-172 129h158z" />
    <glyph glyph-name="Aacutesmall" unicode="&#xf7e1;" horiz-adv-x="676" 
d="M513 0q-20 37 -57 123h-255q-19 -50 -43 -123h-154q75 215 220 509h231q114 -320 214 -509h-156zM346 409h-25q-43 -87 -85 -195h183q-41 99 -73 195zM350 568h-131l145 129h160z" />
    <glyph glyph-name="Acircumflexsmall" unicode="&#xf7e2;" horiz-adv-x="676" 
d="M513 0q-20 37 -57 123h-255q-19 -50 -43 -123h-154q75 215 220 509h231q114 -320 214 -509h-156zM346 409h-25q-43 -87 -85 -195h183q-41 99 -73 195zM560 568h-141l-85 76l-83 -76h-135l146 129h146z" />
    <glyph glyph-name="Atildesmall" unicode="&#xf7e3;" horiz-adv-x="676" 
d="M513 0q-20 37 -57 123h-255q-19 -50 -43 -123h-154q75 215 220 509h231q114 -320 214 -509h-156zM346 409h-25q-43 -87 -85 -195h183q-41 99 -73 195zM480 702l75 -50q-40 -93 -141 -93q-38 0 -89.5 26.5t-79.5 26.5q-37 0 -62 -51l-67 55q55 81 130 81q44 0 95 -26.5
t76 -26.5q22 0 35.5 12.5t27.5 45.5z" />
    <glyph glyph-name="Adieresissmall" unicode="&#xf7e4;" horiz-adv-x="676" 
d="M513 0q-20 37 -57 123h-255q-19 -50 -43 -123h-154q75 215 220 509h231q114 -320 214 -509h-156zM346 409h-25q-43 -87 -85 -195h183q-41 99 -73 195zM207 681q42 0 57 -10t15 -45q0 -38 -15 -50t-57 -12t-56.5 11.5t-14.5 50.5q0 35 14.5 45t56.5 10zM464 681
q41 0 55.5 -10t14.5 -45q0 -38 -14.5 -50t-55.5 -12q-43 0 -57.5 11.5t-14.5 50.5q0 35 14 45t58 10z" />
    <glyph glyph-name="Aringsmall" unicode="&#xf7e5;" horiz-adv-x="676" 
d="M513 0q-20 37 -57 123h-255q-19 -50 -43 -123h-154q75 215 220 509h231q114 -320 214 -509h-156zM346 409h-25q-43 -87 -85 -195h183q-41 99 -73 195zM333 741q74 0 108.5 -22.5t34.5 -75.5t-34.5 -75.5t-108.5 -22.5t-109 22.5t-35 75.5t33.5 75.5t110.5 22.5zM333 684
q-35 0 -47.5 -9.5t-12.5 -33.5q0 -23 12.5 -33t47.5 -10t47.5 10t12.5 33q0 24 -12.5 33.5t-47.5 9.5z" />
    <glyph glyph-name="AEsmall" unicode="&#xf7e6;" horiz-adv-x="970" 
d="M848 313v-95h-252v-117h328v-101h-477v125h-269q-26 -33 -96 -125h-162q171 225 428 509h576v-101h-328v-95h252zM419 417q-82 -93 -169 -200h197v200h-28z" />
    <glyph glyph-name="Ccedillasmall" unicode="&#xf7e7;" horiz-adv-x="563" 
d="M516 118l33 -106q-78 -26 -186 -26q-149 0 -225.5 61t-76.5 210q0 148 77 207.5t225 59.5q109 0 186 -24l-33 -106q-72 22 -142 22q-88 0 -123.5 -30.5t-35.5 -130.5q0 -96 36.5 -128.5t122.5 -32.5q70 0 142 24zM312 0h59v-42q71 0 101.5 -17.5t30.5 -60.5
q0 -47 -37 -65t-128 -18q-73 0 -117 16l26 54q29 -12 85 -12q28 0 38.5 5.5t10.5 20.5q0 19 -23.5 24t-88.5 2z" />
    <glyph glyph-name="Egravesmall" unicode="&#xf7e8;" horiz-adv-x="607" 
d="M561 509v-101h-329v-95h252v-95h-252v-117h329v-101h-478v509h478zM462 568h-132l-173 129h159z" />
    <glyph glyph-name="Eacutesmall" unicode="&#xf7e9;" horiz-adv-x="607" 
d="M561 509v-101h-329v-95h252v-95h-252v-117h329v-101h-478v509h478zM345 568h-131l145 129h160z" />
    <glyph glyph-name="Ecircumflexsmall" unicode="&#xf7ea;" horiz-adv-x="607" 
d="M561 509v-101h-329v-95h252v-95h-252v-117h329v-101h-478v509h478zM561 568h-141l-85 76l-83 -76h-135l146 129h146z" />
    <glyph glyph-name="Edieresissmall" unicode="&#xf7eb;" horiz-adv-x="607" 
d="M561 509v-101h-329v-95h252v-95h-252v-117h329v-101h-478v509h478zM209 681q42 0 57 -10t15 -45q0 -38 -15 -50t-57 -12t-56.5 11.5t-14.5 50.5q0 35 14.5 45t56.5 10zM466 681q42 0 56.5 -10t14.5 -45q0 -38 -15 -50t-56 -12q-43 0 -57.5 11.5t-14.5 50.5q0 35 14.5 45
t57.5 10z" />
    <glyph glyph-name="Igravesmall" unicode="&#xf7ec;" horiz-adv-x="315" 
d="M232 509v-509h-149v509h149zM257 568h-132l-173 129h158z" />
    <glyph glyph-name="Iacutesmall" unicode="&#xf7ed;" horiz-adv-x="315" 
d="M232 509v-509h-149v509h149zM184 568h-131l145 129h160z" />
    <glyph glyph-name="Icircumflexsmall" unicode="&#xf7ee;" horiz-adv-x="314" 
d="M231 509v-509h-149v509h149zM380 568h-140l-86 76l-82 -76h-136l146 129h147z" />
    <glyph glyph-name="Idieresissmall" unicode="&#xf7ef;" horiz-adv-x="314" 
d="M231 509v-509h-148v509h148zM30 681q42 0 57 -10t15 -45q0 -38 -15 -50t-57 -12t-56.5 11.5t-14.5 50.5q0 35 14.5 45t56.5 10zM287 681q41 0 55.5 -10t14.5 -45q0 -38 -14.5 -50t-55.5 -12q-43 0 -57.5 11.5t-14.5 50.5q0 35 14 45t58 10z" />
    <glyph glyph-name="Ethsmall" unicode="&#xf7f0;" horiz-adv-x="700" 
d="M26 220v90h56v199h260q154 0 225 -54.5t71 -197.5q0 -144 -71 -200.5t-225 -56.5h-260v220h-56zM331 413h-100v-103h107v-90h-107v-124h100q84 0 118.5 31.5t34.5 127.5q0 98 -34 128t-119 30z" />
    <glyph glyph-name="Ntildesmall" unicode="&#xf7f1;" horiz-adv-x="712" 
d="M480 198v311h149v-509h-149q-140 209 -248 321v-321h-149v509h146q154 -165 251 -311zM509 702l74 -50q-38 -93 -140 -93q-38 0 -89.5 26.5t-79.5 26.5q-37 0 -63 -51l-67 55q56 81 131 81q44 0 94.5 -26.5t75.5 -26.5q22 0 36 12.5t28 45.5z" />
    <glyph glyph-name="Ogravesmall" unicode="&#xf7f2;" 
d="M351 -14q-152 0 -221 59.5t-69 211.5q0 150 69.5 208.5t220.5 58.5q154 0 223.5 -58.5t69.5 -208.5q0 -152 -69.5 -211.5t-223.5 -59.5zM351 424q-81 0 -108.5 -31.5t-27.5 -137.5q0 -103 28 -136t108 -33q82 0 111 33t29 136q0 73 -13.5 109t-41.5 48t-85 12zM476 568
h-132l-173 129h159z" />
    <glyph glyph-name="Oacutesmall" unicode="&#xf7f3;" 
d="M351 -14q-152 0 -221 59.5t-69 211.5q0 150 69.5 208.5t220.5 58.5q154 0 223.5 -58.5t69.5 -208.5q0 -152 -69.5 -211.5t-223.5 -59.5zM351 424q-81 0 -108.5 -31.5t-27.5 -137.5q0 -103 28 -136t108 -33q82 0 111 33t29 136q0 73 -13.5 109t-41.5 48t-85 12zM368 568
h-131l146 129h159z" />
    <glyph glyph-name="Ocircumflexsmall" unicode="&#xf7f4;" 
d="M351 -14q-152 0 -221 59.5t-69 211.5q0 150 69.5 208.5t220.5 58.5q154 0 223.5 -58.5t69.5 -208.5q0 -152 -69.5 -211.5t-223.5 -59.5zM351 424q-81 0 -108.5 -31.5t-27.5 -137.5q0 -103 28 -136t108 -33q82 0 111 33t29 136q0 73 -13.5 109t-41.5 48t-85 12zM572 568
h-140l-85 76l-83 -76h-136l147 129h146z" />
    <glyph glyph-name="Otildesmall" unicode="&#xf7f5;" 
d="M351 -14q-152 0 -221 59.5t-69 211.5q0 150 69.5 208.5t220.5 58.5q154 0 223.5 -58.5t69.5 -208.5q0 -152 -69.5 -211.5t-223.5 -59.5zM351 424q-81 0 -108.5 -31.5t-27.5 -137.5q0 -103 28 -136t108 -33q82 0 111 33t29 136q0 73 -13.5 109t-41.5 48t-85 12zM495 702
l75 -50q-40 -93 -141 -93q-38 0 -89.5 26.5t-79.5 26.5q-37 0 -62 -51l-67 55q55 81 130 81q44 0 95 -26.5t76 -26.5q22 0 35.5 12.5t27.5 45.5z" />
    <glyph glyph-name="Odieresissmall" unicode="&#xf7f6;" 
d="M351 -14q-152 0 -221 59.5t-69 211.5q0 150 69.5 208.5t220.5 58.5q154 0 223.5 -58.5t69.5 -208.5q0 -152 -69.5 -211.5t-223.5 -59.5zM351 424q-81 0 -108.5 -31.5t-27.5 -137.5q0 -103 28 -136t108 -33q82 0 111 33t29 136q0 73 -13.5 109t-41.5 48t-85 12zM223 681
q42 0 57 -10t15 -45q0 -38 -15 -50t-57 -12t-56.5 11.5t-14.5 50.5q0 35 14.5 45t56.5 10zM480 681q42 0 56.5 -10t14.5 -45q0 -38 -15 -50t-56 -12q-43 0 -57.5 11.5t-14.5 50.5q0 35 14.5 45t57.5 10z" />
    <glyph glyph-name="Oslashsmall" unicode="&#xf7f8;" horiz-adv-x="706" 
d="M554 509h129l-81 -76q42 -61 42 -176q0 -152 -69.5 -211.5t-222.5 -59.5q-116 0 -182 33l-20 -19h-126l79 76q-42 65 -42 181q0 150 69.5 208.5t221.5 58.5q121 0 183 -33zM352 423q-79 0 -109.5 -28.5t-30.5 -119.5q0 -49 9 -89l224 220q-27 17 -93 17zM352 87
q83 0 111 35t28 131q0 42 -7 68l-224 -217q27 -17 92 -17z" />
    <glyph glyph-name="Ugravesmall" unicode="&#xf7f9;" horiz-adv-x="693" 
d="M347 97q70 0 94 23t24 79v310h148v-303q0 -124 -59.5 -172t-206.5 -48q-148 0 -208 48.5t-60 171.5v303h149v-310q0 -56 24.5 -79t94.5 -23zM468 568h-132l-173 129h158z" />
    <glyph glyph-name="Uacutesmall" unicode="&#xf7fa;" horiz-adv-x="693" 
d="M347 97q70 0 94 23t24 79v310h148v-303q0 -124 -59.5 -172t-206.5 -48q-148 0 -208 48.5t-60 171.5v303h149v-310q0 -56 24.5 -79t94.5 -23zM353 568h-131l145 129h160z" />
    <glyph glyph-name="Ucircumflexsmall" unicode="&#xf7fb;" horiz-adv-x="693" 
d="M347 97q70 0 94 23t24 79v310h148v-303q0 -124 -59.5 -172t-206.5 -48q-148 0 -208 48.5t-60 171.5v303h149v-310q0 -56 24.5 -79t94.5 -23zM567 568h-140l-85 76l-83 -76h-136l147 129h146z" />
    <glyph glyph-name="Udieresissmall" unicode="&#xf7fc;" horiz-adv-x="693" 
d="M347 97q70 0 94 23t24 79v310h148v-303q0 -124 -59.5 -172t-206.5 -48q-148 0 -208 48.5t-60 171.5v303h149v-310q0 -56 24.5 -79t94.5 -23zM219 681q42 0 57 -10t15 -45q0 -38 -15 -50t-57 -12t-56 11.5t-14 50.5q0 35 14 45t56 10zM476 681q42 0 56.5 -10t14.5 -45
q0 -38 -15 -50t-56 -12q-43 0 -57.5 11.5t-14.5 50.5q0 35 14.5 45t57.5 10z" />
    <glyph glyph-name="Yacutesmall" unicode="&#xf7fd;" horiz-adv-x="584" 
d="M300 332q78 79 151 177h163q-116 -149 -242 -278v-231h-149v231q-151 177 -253 278h173q68 -68 157 -177zM318 568h-131l145 129h160z" />
    <glyph glyph-name="Thornsmall" unicode="&#xf7fe;" horiz-adv-x="676" 
d="M232 97v-97h-149v509h149v-88h206q101 0 146.5 -40.5t45.5 -123.5q0 -160 -180 -160h-218zM408 325h-176v-137h176q66 0 66 67q0 70 -66 70z" />
    <glyph glyph-name="Ydieresissmall" unicode="&#xf7ff;" horiz-adv-x="584" 
d="M300 332q78 79 151 177h163q-116 -149 -242 -278v-231h-149v231q-151 177 -253 278h173q68 -68 157 -177zM174 681q42 0 57 -10t15 -45q0 -38 -15 -50t-57 -12t-56.5 11.5t-14.5 50.5q0 35 14.5 45t56.5 10zM431 681q42 0 56.5 -10t14.5 -45q0 -38 -15 -50t-56 -12
q-43 0 -57.5 11.5t-14.5 50.5q0 35 14.5 45t57.5 10z" />
    <glyph glyph-name="CR" horiz-adv-x="319" 
 />
    <glyph glyph-name="Gcedilla" horiz-adv-x="840" 
d="M592 116v180h-182v111h344v-391q-113 -30 -298 -30q-103 0 -173.5 18t-121 60t-74 113.5t-23.5 177.5t26 176.5t80.5 110.5t128 56t180.5 16q139 0 252 -26l-32 -115q-73 21 -208 21q-78 0 -121.5 -7.5t-77.5 -32.5t-46.5 -72.5t-12.5 -127.5t12.5 -129t45.5 -75.5
t76 -35t117 -8.5q58 0 108 10zM430 0h59v-42q71 0 101.5 -17.5t30.5 -60.5q0 -47 -37 -65t-128 -18q-73 0 -117 16l26 54q29 -12 85 -12q29 0 39.5 5.5t10.5 20.5q0 19 -24 24t-89 2z" />
    <glyph glyph-name="Idot" horiz-adv-x="370" 
d="M106 697h158v-697h-158v697zM185 867q42 0 57 -10.5t15 -45.5q0 -38 -15 -49.5t-57 -11.5t-56.5 11.5t-14.5 49.5q0 35 14.5 45.5t56.5 10.5z" />
    <glyph glyph-name="Breve" horiz-adv-x="388" 
d="M140 871h102q0 -34 18.5 -46t60.5 -12t61.5 12.5t19.5 45.5h96q0 -137 -180 -137q-178 0 -178 137z" />
    <glyph glyph-name="Circumflex" horiz-adv-x="792" 
d="M503 747l-87 78l-84 -78h-134l146 129h147l151 -129h-139z" />
    <glyph glyph-name="Dotaccent" horiz-adv-x="363" 
d="M184 867q42 0 57 -10.5t15 -45.5q0 -38 -15 -49.5t-57 -11.5t-56.5 11.5t-14.5 49.5q0 35 14.5 45.5t56.5 10.5z" />
    <glyph glyph-name="gacute" 
d="M473 143v262q-54 17 -118 17q-83 0 -111.5 -31.5t-28.5 -136.5q0 -94 28.5 -126.5t107.5 -32.5q52 0 87 13t35 35zM473 21q-66 -33 -155 -33q-133 0 -195 58t-62 207q0 152 69 211.5t225 59.5q157 0 266 -38v-447q0 -73 -23 -122t-68.5 -74.5t-101 -36t-133.5 -10.5
q-121 0 -215 30l30 100q95 -25 184 -25q90 0 134.5 26.5t44.5 93.5zM371 568h-131l145 129h160z" />
    <glyph glyph-name="ldotaccent" horiz-adv-x="322" 
d="M232 722v-579q0 -69 47 -120l-131 -47q-65 62 -65 162v584h149zM347 450q42 0 57 -10t15 -45q0 -38 -15 -50t-57 -12t-56.5 11.5t-14.5 50.5q0 35 14.5 45t56.5 10z" />
    <glyph glyph-name="Ring" horiz-adv-x="857" 
d="M432 890q74 0 108.5 -22.5t34.5 -75.5t-34.5 -75.5t-108.5 -22.5t-109 22.5t-35 75.5q0 54 33.5 76t110.5 22zM432 834q-35 0 -47.5 -10t-12.5 -33t12.5 -33t47.5 -10t47.5 10t12.5 33q0 24 -12.5 33.5t-47.5 9.5z" />
    <glyph glyph-name="Tilde" horiz-adv-x="849" 
d="M630 879l73 -50q-18 -41 -55.5 -67t-88.5 -26q-37 0 -91 27t-81 27q-37 0 -61 -50l-67 55q54 79 128 79q44 0 99 -26t79 -26q22 0 36.5 12.5t28.5 44.5z" />
    <glyph glyph-name="Dmacron" horiz-adv-x="884" 
d="M106 697h319q103 0 174 -16t122 -55t75 -106.5t24 -168.5q0 -196 -94 -273.5t-301 -77.5h-319v697zM651 350q0 78 -11 123t-41.5 70t-72 32.5t-116.5 7.5h-146v-469h146q73 0 116 9t73 35.5t41 71.5t11 120zM255 753v92h333v-92h-333z" />
    <glyph glyph-name="zerop" horiz-adv-x="759" 
d="M379 714q82 0 137.5 -16t97 -56t61 -109.5t19.5 -174.5q0 -106 -19.5 -178.5t-60 -115t-97.5 -60.5t-138 -18q-108 0 -174.5 33t-103 115.5t-36.5 223.5q0 105 19.5 174.5t60.5 109.5t97 56t137 16zM379 105q65 0 97 20t46.5 73t14.5 160q0 81 -6.5 127t-26.5 71.5
t-47.5 33t-77.5 7.5q-66 0 -96.5 -16t-45 -66.5t-14.5 -156.5q0 -107 14.5 -160t46 -73t95.5 -20z" />
    <glyph glyph-name="onep" horiz-adv-x="476" 
d="M370 0h-156v556l-187 -67l-43 108l386 129v-726z" />
    <glyph glyph-name="twop" horiz-adv-x="730" 
d="M116 568l-35 114q126 32 268 32q162 0 235 -44.5t73 -160.5q0 -57 -12.5 -94.5t-57.5 -83t-117 -93t-205 -124.5h392v-114h-607v106q114 72 178 113.5t119.5 82t79 61t40.5 46.5t20 43t3 46q0 56 -34.5 76.5t-121.5 20.5q-132 0 -218 -27z" />
    <glyph glyph-name="threep" horiz-adv-x="719" 
d="M219 310v112h115q78 0 109 19.5t31 69.5q0 49 -36 67t-144 18q-124 0 -210 -22l-31 114q144 26 271 26q177 0 247 -41t70 -137q0 -77 -37.5 -118t-141.5 -49q112 -4 154 -49.5t42 -131.5q0 -112 -77.5 -157t-258.5 -45q-139 0 -275 25l30 114q85 -20 214 -20
q117 0 156 21.5t39 79.5q0 59 -33.5 81.5t-115.5 22.5h-118z" />
    <glyph glyph-name="fourp" horiz-adv-x="727" 
d="M437 179h-418v41q202 301 358 477h211v-409h111v-109h-111v-179h-151v179zM437 288v295q-106 -116 -226 -295h226z" />
    <glyph glyph-name="fivep" horiz-adv-x="730" 
d="M110 697h519v-114h-370v-155q66 4 101 4q173 0 239.5 -49t66.5 -168q0 -131 -73 -180t-255 -49q-145 0 -266 25l31 114q80 -20 204 -20q115 0 151 20.5t36 82.5q0 67 -33.5 89.5t-144.5 22.5q-119 0 -206 -14v391z" />
    <glyph glyph-name="sixp" horiz-adv-x="755" 
d="M675 687l-35 -116q-74 23 -197 23q-106 0 -155.5 -35t-53.5 -138q75 11 159 11q174 0 241.5 -49t67.5 -168q0 -131 -69.5 -180t-244.5 -49q-181 0 -252 78.5t-71 289.5q0 107 20.5 176.5t67.5 110.5t115.5 57t174.5 16q122 0 232 -27zM388 105q89 0 119 22t30 81
q0 62 -28.5 87t-108.5 25q-90 0 -168 -10q1 -85 19.5 -130.5t49 -60t87.5 -14.5z" />
    <glyph glyph-name="sevenp" horiz-adv-x="633" 
d="M656 697v-40q-83 -111 -193.5 -311t-168.5 -346h-179q70 160 163.5 328t167.5 255h-432v114h642z" />
    <glyph glyph-name="eightp" horiz-adv-x="758" 
d="M380 94q85 0 116.5 23t31.5 84t-33 87t-115 26q-83 0 -116.5 -26t-33.5 -87t31.5 -84t118.5 -23zM380 417q71 0 103 22.5t32 75.5q0 51 -30 70t-105 19q-77 0 -107 -19t-30 -70q0 -53 32 -75.5t105 -22.5zM380 -14h-2q-172 0 -243 45.5t-71 156.5q0 87 41.5 132t154.5 49
q-105 8 -141.5 49t-36.5 118q0 95 64 136.5t232 41.5q169 0 233.5 -41.5t64.5 -136.5q0 -77 -36.5 -118t-141.5 -49q112 -4 153.5 -49.5t41.5 -131.5q0 -111 -70.5 -156.5t-242.5 -45.5z" />
    <glyph glyph-name="ninep" horiz-adv-x="751" 
d="M202 0q204 162 270 273q-48 -5 -103 -5q-176 0 -243 46t-67 164q0 132 70 184t244 52q188 0 253 -50t65 -191q0 -137 -77.5 -250t-213.5 -223h-198zM385 380q73 0 130 7q10 33 10 72q0 87 -31 112t-121 25q-89 0 -119.5 -25.5t-30.5 -86.5q0 -65 31 -84.5t131 -19.5z" />
    <glyph glyph-name="g.2" horiz-adv-x="706" 
d="M631 492v-122q0 -96 -76.5 -146t-211.5 -50q-51 0 -96 10q-6 -16 -6 -29q0 -25 35.5 -35.5t132.5 -13.5q130 -3 189 -35.5t59 -101.5q0 -94 -83 -133.5t-245 -39.5q-148 0 -252 27l30 109q91 -29 217 -29q96 0 137 13t41 43q0 27 -28 35.5t-131 11.5q-144 4 -193.5 28.5
t-49.5 86.5q0 48 35 88q-70 39 -70 137q0 88 70 133t224 45q161 0 272 -32zM483 361v49q-53 12 -130 12q-76 0 -105 -15.5t-29 -59.5q0 -42 28.5 -57t100.5 -15q135 0 135 86z" />
    <glyph glyph-name="ct" horiz-adv-x="1026" 
d="M641 171v230q-65 0 -162.5 8t-111.5 8q-86 0 -119 -30.5t-33 -131.5q0 -97 34 -129.5t118 -32.5q74 0 134 21l34 -102q-78 -26 -178 -26q-145 0 -220.5 61t-75.5 210q0 147 76 207t220 60q26 0 124.5 -7.5t159.5 -7.5v86l148 51v-137h203v-108h-203v-219q0 -48 21 -68.5
t74 -20.5q50 0 102 14l27 -98q-74 -23 -166 -23q-109 0 -157.5 38.5t-48.5 146.5z" />
    <glyph glyph-name="arrowupleft" horiz-adv-x="834" 
d="M131 119l-29 507l607 -24v-125l-349 16l409 -341l-99 -83l-410 341l21 -290z" />
    <glyph glyph-name="arrowupright" horiz-adv-x="834" 
d="M138 601l606 25l-28 -507l-150 1l20 290l-408 -341l-100 83l409 341l-349 -17v125z" />
    <glyph glyph-name="arrowdownleft" horiz-adv-x="834" 
d="M102 69l29 506l150 -1l-21 -290l410 341l99 -83l-409 -340l349 16v-125z" />
    <glyph glyph-name="arrowdownright" horiz-adv-x="834" 
d="M744 68l-606 24v125l349 -16l-409 340l100 84l408 -341l-20 290l150 1z" />
    <glyph glyph-name="dmacron" 
d="M366 577v89h107v56h148v-56h59v-89h-59v-554q-111 -37 -266 -37q-157 0 -225.5 58.5t-68.5 210.5q0 147 67.5 208t197.5 61q83 0 147 -29v82h-107zM473 107v263q0 22 -34.5 35.5t-85.5 13.5q-79 0 -108.5 -34t-29.5 -128q0 -101 29 -133t111 -32q65 0 118 15z" />
    <glyph glyph-name="Ldotaccent" horiz-adv-x="661" 
d="M106 697h158v-582h395v-115h-553v697zM425 463q42 0 57 -10.5t15 -45.5q0 -38 -15 -49.5t-57 -11.5t-56.5 11.5t-14.5 49.5q0 35 14.5 45.5t56.5 10.5z" />
    <glyph glyph-name="st" horiz-adv-x="1073" 
d="M688 171v230q-91 1 -224 11.5t-153 10.5q-61 0 -86 -11t-25 -48q0 -26 25.5 -37.5t100.5 -17.5q114 -10 163.5 -44t49.5 -109q0 -64 -34 -102.5t-89.5 -53t-138.5 -14.5q-127 0 -218 27l31 98q81 -24 181 -24q66 0 93 12t27 50q0 28 -27 41.5t-104 19.5
q-107 7 -156.5 38.5t-49.5 106.5q0 93 68 131t194 38q22 0 158.5 -7.5t213.5 -7.5v86l148 51v-137h203v-108h-203v-219q0 -48 21 -68.5t74 -20.5q49 0 102 14l27 -98q-74 -23 -166 -23q-109 0 -157.5 38.5t-48.5 146.5z" />
    <glyph glyph-name="orn1" horiz-adv-x="724" 
d="M364 -97q-15 26 -45.5 43t-64 25t-69.5 24t-64.5 37t-47 67t-18.5 112q0 106 43.5 160t125.5 54q60 0 140 -30q78 29 140 29q169 0 169 -211q0 -66 -19 -112t-48.5 -67.5t-66.5 -37.5t-70.5 -24t-63 -25.5t-41.5 -43.5zM364 294q-56 29 -89 29q-67 0 -67 -112
q0 -56 18.5 -86t41.5 -37t52 -19.5t44 -34.5q11 18 32 29t41.5 17t39.5 17.5t31 40t12 74.5q0 110 -60 110q-32 0 -96 -28zM364 408q9 23 9 53q0 46 -31.5 74t-88.5 28h-253v101h724v-101h-294q18 -18 18 -46q0 -31 -22 -61.5t-62 -47.5z" />
    <glyph glyph-name="orn2" horiz-adv-x="724" 
d="M360 -97q-13 26 -42.5 43.5t-63 25.5t-70.5 24t-66.5 37.5t-49 67.5t-19.5 112q0 211 171 211q59 0 140 -29q78 30 138 30q82 0 126 -54t44 -160q0 -66 -18.5 -112t-47 -67t-64.5 -37t-69 -24t-63.5 -25t-45.5 -43zM360 408q-42 17 -63.5 47.5t-21.5 61.5q0 27 19 46
h-294v101h724v-101h-254q-56 0 -88.5 -28t-32.5 -74q0 -25 11 -53z" />
    <glyph glyph-name="orn3" horiz-adv-x="724" 
d="M364 664q11 -23 34.5 -38.5t51 -24.5t59 -18.5t60.5 -25t52.5 -39t37.5 -65t14 -98.5q0 -212 -169 -212q-62 0 -140 29q-81 -29 -140 -29q-82 0 -125.5 53.5t-43.5 160.5q0 66 18.5 112t47 67t64.5 37t69.5 23.5t64 24.5t45.5 43zM364 273q62 -27 96 -27q31 0 45.5 25.5
t14.5 84.5q0 46 -12 74t-31 39.5t-39.5 18t-41.5 17.5t-32 29q-15 -22 -44 -34.5t-52 -19.5t-41.5 -37t-18.5 -86q0 -112 67 -112q31 0 89 28zM364 160q41 -18 62.5 -48t21.5 -61q0 -29 -18 -46h294v-101h-724v101h253q57 0 88.5 28t31.5 74q0 29 -9 53z" />
    <glyph glyph-name="orn4" horiz-adv-x="724" 
d="M360 664q15 -26 45.5 -43t63.5 -24.5t69 -23.5t64.5 -37t47 -67t18.5 -112q0 -107 -44 -160.5t-126 -53.5q-59 0 -138 29q-81 -29 -140 -29q-171 0 -171 212q0 66 19.5 112t49 67t66.5 37t70.5 24t63 25.5t42.5 43.5zM360 160q-11 -30 -11 -53q0 -46 32.5 -74t88.5 -28
h254v-101h-724v101h294q-19 17 -19 46q0 31 21.5 61t63.5 48z" />
    <glyph glyph-name="orn5" horiz-adv-x="1012" 
d="M18 282q27 11 45.5 31.5t29 43.5t21.5 49t29.5 49.5t46 42.5t77.5 30t119 11q257 0 257 -141q0 -49 -35 -116q35 -65 35 -117q0 -141 -254 -141q-68 0 -118 12t-78 31.5t-47 43.5t-30.5 50t-22.5 49.5t-29.5 43t-45.5 28.5zM487 282q34 47 34 74q0 56 -135 56
q-55 0 -88 -9.5t-47 -25.5t-21.5 -32.5t-20.5 -34.5t-35 -28q22 -9 35 -26.5t20.5 -34.5t21.5 -33t48 -26t89 -10q71 0 101.5 12t30.5 38q0 28 -33 80zM623 282q31 -8 63 -8q55 0 89 26.5t34 73.5v211h121v-603h-121v245q-19 -15 -55 -15q-37 0 -73.5 18t-57.5 52z" />
    <glyph glyph-name="orn6" horiz-adv-x="1012" 
d="M18 285q27 9 45.5 29t29.5 43t22.5 49.5t30.5 50.5t47 43.5t78 31.5t118 12q254 0 254 -142q0 -50 -35 -117q35 -65 35 -115q0 -69 -64.5 -105.5t-192.5 -36.5q-79 0 -134 15.5t-80.5 39t-44.5 54t-28 58t-29.5 53t-51.5 37.5zM623 285q21 35 57.5 53t73.5 18
q34 0 55 -16v245h121v-603h-121v211q0 47 -34 74t-89 27q-28 0 -63 -9z" />
    <glyph glyph-name="orn7" horiz-adv-x="1011" 
d="M993 283q-31 -11 -52 -35.5t-31 -52.5t-29 -59t-44.5 -55.5t-81 -40.5t-134.5 -16q-253 0 -253 142q0 50 35 117q-36 65 -36 115q0 68 65 105t192 37q79 0 134 -15.5t80.5 -39t44.5 -54t28.5 -58t30 -53t51.5 -37.5zM524 283q-34 -56 -34 -80q0 -27 31 -39t101 -12
q56 0 90 10t47.5 26t21 33t20.5 35t35 27q-22 10 -35 28t-20.5 34.5t-21.5 32t-47 25t-88 9.5q-135 0 -135 -55q0 -28 35 -74zM387 283q-21 -35 -57.5 -53t-73.5 -18q-31 0 -55 16v-245h-121v603h121v-211q0 -47 34 -74t89 -27q32 0 63 9z" />
    <glyph glyph-name="orn8" horiz-adv-x="1011" 
d="M993 286q-27 -11 -45.5 -31.5t-29 -43.5t-22 -49t-30 -49.5t-46 -42.5t-77.5 -30t-119 -11q-128 0 -192.5 36.5t-64.5 104.5q0 50 36 116q-35 65 -35 117q0 141 253 141q79 0 134.5 -16t81 -40.5t44.5 -55.5t29 -58.5t31 -52.5t52 -35zM387 286q-28 8 -63 8
q-55 0 -89 -26.5t-34 -73.5v-211h-121v603h121v-245q23 15 55 15q37 0 73.5 -18t57.5 -52z" />
    <glyph glyph-name="publish" horiz-adv-x="1004" 
d="M932 355q0 -107 -26.5 -179t-82.5 -113.5t-133 -59t-188 -17.5t-188 17.5t-133 59t-82.5 113.5t-26.5 179q0 105 26.5 175.5t83 110.5t133 56.5t187.5 16.5t187.5 -16.5t133 -56.5t83 -110.5t26.5 -175.5zM606 411q0 31 -12 45.5t-41 14.5h-114v-117h112q30 0 42.5 14
t12.5 43zM733 410q0 -69 -35.5 -107.5t-105.5 -38.5h-153v-122h-126v417h277q143 0 143 -149zM502 622q-89 0 -141 -9t-90 -38t-52.5 -81t-14.5 -140t14.5 -141.5t52.5 -84t90.5 -40.5t140.5 -10t141 10t90.5 40.5t52 84t14.5 141.5t-14.5 140t-52.5 81t-89.5 38t-141.5 9z
" />
    <glyph glyph-name="zerob" horiz-adv-x="925" 
d="M461 614q-119 0 -173 -55.5t-54 -202.5q0 -150 54.5 -210t172.5 -60t173 59.5t55 210.5q0 147 -54.5 202.5t-173.5 55.5zM461 171q-68 0 -91 36t-23 149q0 78 11 114.5t33 48.5t70 12q49 0 72 -12t34 -48.5t11 -114.5q0 -113 -24 -149t-93 -36zM462 714q104 0 175 -16.5
t123 -57t76 -110.5t24 -175q0 -107 -24 -179t-76 -113.5t-123 -59t-175 -17.5t-175 17.5t-123 59t-76 113.5t-24 179q0 105 24 175.5t76 110.5t123 56.5t175 16.5z" />
    <glyph glyph-name="oneb" horiz-adv-x="925" 
d="M425 100h111v526l-279 -93l31 -77l137 49v-405zM462 714q104 0 175 -16.5t123 -57t76 -110.5t24 -175q0 -107 -24 -179t-76 -113.5t-123 -59t-175 -17.5t-175 17.5t-123 59t-76 113.5t-24 179q0 105 24 175.5t76 110.5t123 56.5t175 16.5z" />
    <glyph glyph-name="twob" horiz-adv-x="925" 
d="M462 714q104 0 175 -16.5t123 -57t76 -110.5t24 -175q0 -107 -24 -179t-76 -113.5t-123 -59t-175 -17.5t-175 17.5t-123 59t-76 113.5t-24 179q0 105 24 175.5t76 110.5t123 56.5t175 16.5zM254 592l24 -80q68 19 159 19q63 0 88.5 -15.5t25.5 -56.5q0 -25 -5.5 -41
t-19 -35t-54 -48t-91.5 -64t-150 -98v-75h439v81h-287q129 74 187 118t79 80t21 90q0 84 -53 116.5t-171 32.5q-106 0 -192 -24z" />
    <glyph glyph-name="threeb" horiz-adv-x="925" 
d="M366 402v-81h86q62 0 86.5 -16.5t24.5 -59.5q0 -42 -29 -58t-115 -16q-95 0 -155 15l-21 -81q93 -19 198 -19q132 0 187.5 33t55.5 114q0 62 -30 95t-111 36q75 6 101 35.5t26 85.5q0 70 -50.5 99.5t-178.5 29.5q-94 0 -195 -19l22 -81q62 15 151 15q79 0 105.5 -13
t26.5 -48q0 -37 -22 -51.5t-79 -14.5h-84zM462 714q104 0 175 -16.5t123 -57t76 -110.5t24 -175q0 -107 -24 -179t-76 -113.5t-123 -59t-175 -17.5t-175 17.5t-123 59t-76 113.5t-24 179q0 105 24 175.5t76 110.5t123 56.5t175 16.5z" />
    <glyph glyph-name="fourb" horiz-adv-x="925" 
d="M195 226h302v-130h109v130h81v78h-81v297h-152q-59 -67 -133.5 -167t-125.5 -179v-29zM497 520v-216h-165q80 124 165 216zM462 714q104 0 175 -16.5t123 -57t76 -110.5t24 -175q0 -107 -24 -179t-76 -113.5t-123 -59t-175 -17.5t-175 17.5t-123 59t-76 113.5t-24 179
q0 105 24 175.5t76 110.5t123 56.5t175 16.5z" />
    <glyph glyph-name="fiveb" horiz-adv-x="925" 
d="M647 599h-374v-282q68 10 149 10t106.5 -16.5t25.5 -65.5q0 -46 -27 -61t-111 -15q-92 0 -149 15l-22 -82q88 -18 192 -18q132 0 185 35.5t53 129.5q0 86 -48.5 122t-173.5 36q-40 0 -73 -3v112h267v83zM462 714q104 0 175 -16.5t123 -57t76 -110.5t24 -175
q0 -107 -24 -179t-76 -113.5t-123 -59t-175 -17.5t-175 17.5t-123 59t-76 113.5t-24 179q0 105 24 175.5t76 110.5t123 56.5t175 16.5z" />
    <glyph glyph-name="sixb" horiz-adv-x="925" 
d="M646 511l25 83q-78 20 -168 20q-150 0 -211.5 -55t-61.5 -206q0 -153 51.5 -210t182.5 -57q126 0 176 35.5t50 130.5q0 86 -49 121.5t-175 35.5q-68 0 -116 -8q5 79 38 103t115 24q89 0 143 -17zM573 247q0 -43 -22.5 -59.5t-86.5 -16.5q-62 0 -88 29.5t-28 121.5
q52 7 106 7q72 0 95.5 -17t23.5 -65zM462 714q104 0 175 -16.5t123 -57t76 -110.5t24 -175q0 -107 -24 -179t-76 -113.5t-123 -59t-175 -17.5t-175 17.5t-123 59t-76 113.5t-24 179q0 105 24 175.5t76 110.5t123 56.5t175 16.5z" />
    <glyph glyph-name="sevenb" horiz-adv-x="925" 
d="M329 96h121q116 267 266 505h-471v-83h305q-132 -214 -221 -422zM462 714q104 0 175 -16.5t123 -57t76 -110.5t24 -175q0 -107 -24 -179t-76 -113.5t-123 -59t-175 -17.5t-175 17.5t-123 59t-76 113.5t-24 179q0 105 24 175.5t76 110.5t123 56.5t175 16.5z" />
    <glyph glyph-name="eightb" horiz-adv-x="925" 
d="M462 163q-63 0 -86.5 17t-23.5 62t24.5 63.5t85.5 18.5t85.5 -18.5t24.5 -63.5t-23.5 -62t-86.5 -17zM462 398q-53 0 -76.5 16.5t-23.5 55.5q0 37 22 51t78 14t77.5 -14t21.5 -51q0 -39 -23 -55.5t-76 -16.5zM461 86h1q124 0 175.5 33t51.5 114q0 62 -30 95t-111 36
q76 6 102.5 35.5t26.5 85.5q0 69 -47 99t-169 30t-168.5 -30t-46.5 -99q0 -55 27 -85t103 -36q-81 -3 -111.5 -36t-30.5 -95q0 -81 51.5 -114t175.5 -33zM462 714q104 0 175 -16.5t123 -57t76 -110.5t24 -175q0 -107 -24 -179t-76 -113.5t-123 -59t-175 -17.5t-175 17.5
t-123 59t-76 113.5t-24 179q0 105 24 175.5t76 110.5t123 56.5t175 16.5z" />
    <glyph glyph-name="nineb" horiz-adv-x="925" 
d="M459 293q22 0 78 4q-50 -82 -198 -199h141q100 80 157 161.5t57 181.5q0 103 -47.5 139t-184.5 36q-125 0 -175.5 -38t-50.5 -133q0 -85 48 -118.5t175 -33.5zM575 431q0 -30 -8 -53q-45 -6 -96 -6q-74 0 -96 15t-22 63q0 45 22 63.5t87 18.5q66 0 89.5 -18.5t23.5 -82.5
zM462 -14q-104 0 -175 17.5t-123 59t-76 113.5t-24 179q0 105 24 175.5t76 110.5t123 56.5t175 16.5t175 -16.5t123 -57t76 -110.5t24 -175q0 -107 -24 -179t-76 -113.5t-123 -59t-175 -17.5z" />
    <glyph glyph-name="apple" horiz-adv-x="1094" 
d="M327 -14q-131 0 -198 60.5t-67 208.5q0 68 20 116.5t54.5 76t77 45.5t90.5 31.5t92 28.5t85 42t66 66q24 -39 65 -66t85 -42t92.5 -28.5t91 -31.5t77 -45.5t54.5 -76t20 -116.5q0 -148 -67.5 -208.5t-198.5 -60.5q-76 0 -146 29v-207h-148v207q-66 -29 -145 -29zM620 474
v-334q0 -22 34.5 -35.5t85.5 -13.5q79 0 109 34t30 127q0 53 -15.5 86.5t-44 50t-59 26t-71 24.5t-69.5 35zM472 140v334q-25 -18 -57.5 -31.5t-59 -20.5t-54 -19.5t-46 -28.5t-30 -46.5t-11.5 -75.5q0 -94 30 -127.5t110 -33.5q51 0 84.5 13.5t33.5 35.5z" />
    <glyph glyph-name="sp" horiz-adv-x="1291" 
d="M668 -192v570q-205 45 -357 45q-61 0 -86 -11t-25 -48q0 -26 25.5 -37.5t100.5 -17.5q114 -10 163.5 -44t49.5 -109q0 -64 -34 -102.5t-89.5 -53t-138.5 -14.5q-127 0 -218 27l31 98q81 -24 181 -24q66 0 93 12t27 50q0 28 -27 41.5t-104 19.5q-107 7 -156.5 38.5
t-49.5 106.5q0 93 68 131t194 38q179 0 352 -38q109 38 268 38q157 0 225 -58.5t68 -210.5q0 -148 -67 -208.5t-198 -60.5q-77 0 -147 29v-207h-149zM817 402v-262q0 -22 34.5 -35.5t85.5 -13.5q80 0 109.5 33.5t29.5 127.5q0 102 -29 133.5t-111 31.5q-72 0 -119 -15z" />
    <glyph glyph-name="at.2" horiz-adv-x="1132" 
d="M819 438v-303q-120 -40 -270 -40q-141 0 -194 35t-53 134q0 53 15.5 87t48.5 50.5t69.5 22.5t91.5 6q74 0 150 -14q0 69 -28 90.5t-125 21.5q-79 0 -128.5 -6t-88.5 -21t-58.5 -45.5t-29 -74.5t-9.5 -113q0 -86 15 -137t58 -82t108.5 -41.5t176.5 -10.5q149 0 226 24.5
t107.5 81t30.5 165.5q0 108 -24 167h130q24 -67 24 -169q0 -112 -26 -184t-88 -114t-151 -58.5t-228 -16.5q-136 0 -226.5 17t-153.5 59.5t-91 114.5t-28 182q0 108 28.5 180t90 112.5t144 56.5t203.5 16q155 0 219 -41.5t64 -151.5zM677 207v126q-52 9 -113 9
q-62 0 -88.5 -14t-26.5 -59t23 -62t88 -17q61 0 117 17z" />
    <glyph glyph-name="ampersand.2" horiz-adv-x="908" 
d="M746 311v-277q-65 -22 -161 -35t-182 -13q-161 0 -245 46.5t-84 155.5q0 86 42.5 131.5t154.5 49.5q-101 8 -136.5 48.5t-35.5 117.5q0 93 72.5 136t218.5 43q91 0 196 -24l-43 -114q-65 20 -132 20q-82 0 -113 -18.5t-31 -66.5q0 -49 29.5 -69.5t100.5 -20.5h198v85
l151 50v-135h161v-110h-161zM595 121v190h-208q-77 0 -109 -23t-32 -82q0 -57 37.5 -79t138.5 -22t173 16z" />
    <glyph glyph-name="Abrevesmall" horiz-adv-x="676" 
d="M513 0q-20 37 -57 123h-255q-19 -50 -43 -123h-154q75 215 220 509h231q114 -320 214 -509h-156zM346 409h-25q-43 -87 -85 -195h183q-41 99 -73 195zM156 697h102q0 -34 19 -46t61 -12q41 0 60.5 12.5t19.5 45.5h96q0 -137 -180 -137q-178 0 -178 137z" />
    <glyph glyph-name="Amacronsmall" horiz-adv-x="676" 
d="M513 0q-20 37 -57 123h-255q-19 -50 -43 -123h-154q75 215 220 509h231q114 -320 214 -509h-156zM346 409h-25q-43 -87 -85 -195h183q-41 99 -73 195zM166 576v90h334v-90h-334z" />
    <glyph glyph-name="Aogoneksmall" horiz-adv-x="676" 
d="M513 0q-20 37 -57 123h-255q-19 -50 -43 -123h-154q75 215 220 509h231q114 -320 214 -509h-156zM346 409h-25q-43 -87 -85 -195h183q-41 99 -73 195zM579 12h47q-61 -30 -81 -52t-20 -52q0 -22 14.5 -31t57.5 -9q62 0 99 27l42 -63q-55 -35 -157 -35q-88 0 -123 21.5
t-35 67.5q0 42 39.5 75.5t116.5 50.5z" />
    <glyph glyph-name="bracketleftsmall" horiz-adv-x="454" 
d="M108 657h324v-108h-169v-593h169v-107h-324v808z" />
    <glyph glyph-name="braceleftsmall" horiz-adv-x="426" 
d="M44 201v-1v99q57 0 89.5 32t32.5 120q0 174 185 213l61 -90q-60 -15 -85.5 -48t-25.5 -117q0 -141 -112 -159q112 -18 112 -161q0 -83 25 -115.5t86 -48.5q-26 -39 -61 -89q-185 39 -185 213q0 88 -32.5 120t-89.5 32z" />
    <glyph glyph-name="Dcaronsmall" horiz-adv-x="701" 
d="M83 509h259q155 0 226 -54.5t71 -197.5q0 -144 -71.5 -200.5t-225.5 -56.5h-259v509zM331 413h-99v-317h99q85 0 119.5 31.5t34.5 127.5q0 98 -34 128t-120 30zM113 697h140l86 -76l82 76h136l-146 -129h-147z" />
    <glyph glyph-name="Dcroatsmall" horiz-adv-x="700" 
d="M26 220v90h56v199h260q154 0 225 -54.5t71 -197.5q0 -144 -71 -200.5t-225 -56.5h-260v220h-56zM331 413h-100v-103h107v-90h-107v-124h100q84 0 118.5 31.5t34.5 127.5q0 98 -34 128t-119 30z" />
    <glyph glyph-name="Dmacronsmall" horiz-adv-x="701" 
d="M83 509h259q155 0 226 -54.5t71 -197.5q0 -144 -71.5 -200.5t-225.5 -56.5h-259v509zM331 413h-99v-317h99q85 0 119.5 31.5t34.5 127.5q0 98 -34 128t-120 30zM165 576v90h333v-90h-333z" />
    <glyph glyph-name="Emacronsmall" horiz-adv-x="607" 
d="M561 509v-101h-329v-95h252v-95h-252v-117h329v-101h-478v509h478zM161 576v90h334v-90h-334z" />
    <glyph glyph-name="Eurosmall" horiz-adv-x="562" 
d="M505 104l32 -92q-78 -26 -180 -26q-145 0 -220.5 61t-75.5 210q0 148 76 207.5t220 59.5q103 0 180 -24l-32 -92q-60 19 -137 19q-56 0 -88.5 -14.5t-48.5 -52.5h225v-69h-240q-1 -10 -1 -36q0 -22 1 -32h240v-68h-226q15 -40 48.5 -56t89.5 -16q76 0 137 21z" />
    <glyph glyph-name="Eogoneksmall" horiz-adv-x="606" 
d="M561 509v-101h-329v-95h252v-95h-252v-117h329v-101h-478v509h478zM465 12h46q-60 -30 -80 -52t-20 -52q0 -22 14.5 -31t57.5 -9q60 0 99 27l42 -63q-55 -35 -157 -35q-88 0 -123 21.5t-35 67.5q0 42 39.5 75.5t116.5 50.5z" />
    <glyph glyph-name="Ecaronsmall" horiz-adv-x="606" 
d="M561 509v-101h-329v-95h252v-95h-252v-117h329v-101h-478v509h478zM124 697h140l85 -76l83 76h136l-147 -129h-146z" />
    <glyph glyph-name="Edotaccentsmall" horiz-adv-x="607" 
d="M561 509v-101h-329v-95h252v-95h-252v-117h329v-101h-478v509h478zM337 681q42 0 57 -10t15 -45q0 -38 -15 -50t-57 -12t-56 11.5t-14 50.5q0 35 14 45t56 10z" />
    <glyph glyph-name="Ebrevesmall" horiz-adv-x="607" 
d="M561 509v-101h-329v-95h252v-95h-252v-117h329v-101h-478v509h478zM157 697h102q0 -34 19 -46t61 -12q41 0 60.5 12.5t19.5 45.5h96q0 -137 -180 -137q-178 0 -178 137z" />
    <glyph glyph-name="Gacutesmall" horiz-adv-x="683" 
d="M606 297v-276q-118 -35 -243 -35q-147 0 -224.5 61t-77.5 210q0 147 82 207t232 60q120 0 204 -24l-38 -102q-75 22 -161 22q-88 0 -126.5 -32.5t-38.5 -132.5q0 -96 38 -130.5t121 -34.5q59 0 99 14v96h-130v97h263zM369 568h-130l145 129h159z" />
    <glyph glyph-name="Gbrevesmall" horiz-adv-x="683" 
d="M606 297v-276q-118 -35 -243 -35q-147 0 -224.5 61t-77.5 210q0 147 82 207t232 60q120 0 204 -24l-38 -102q-75 22 -161 22q-88 0 -126.5 -32.5t-38.5 -132.5q0 -96 38 -130.5t121 -34.5q59 0 99 14v96h-130v97h263zM193 697h102q0 -34 18.5 -46t60.5 -12t61.5 12.5
t19.5 45.5h96q0 -137 -180 -137q-178 0 -178 137z" />
    <glyph glyph-name="Gcircumflexsmall" horiz-adv-x="683" 
d="M606 297v-276q-118 -35 -243 -35q-147 0 -224.5 61t-77.5 210q0 147 82 207t232 60q120 0 204 -24l-38 -102q-75 22 -161 22q-88 0 -126.5 -32.5t-38.5 -132.5q0 -96 38 -130.5t121 -34.5q59 0 99 14v96h-130v97h263zM593 568h-141l-85 76l-83 -76h-135l146 129h146z" />
    <glyph glyph-name="Gcommaaccentsmall" horiz-adv-x="683" 
d="M606 297v-276q-118 -35 -243 -35q-147 0 -224.5 61t-77.5 210q0 147 82 207t232 60q120 0 204 -24l-38 -102q-75 22 -161 22q-88 0 -126.5 -32.5t-38.5 -132.5q0 -96 38 -130.5t121 -34.5q59 0 99 14v96h-130v97h263zM457 -51l-130 -167h-116l85 167h161z" />
    <glyph glyph-name="Gdotaccentsmall" horiz-adv-x="683" 
d="M606 297v-276q-118 -35 -243 -35q-147 0 -224.5 61t-77.5 210q0 147 82 207t232 60q120 0 204 -24l-38 -102q-75 22 -161 22q-88 0 -126.5 -32.5t-38.5 -132.5q0 -96 38 -130.5t121 -34.5q59 0 99 14v96h-130v97h263zM367 681q42 0 57 -10t15 -45q0 -38 -15 -50t-57 -12
t-56.5 11.5t-14.5 50.5q0 35 14.5 45t56.5 10z" />
    <glyph glyph-name="Germandblssmall" horiz-adv-x="1177" 
d="M1109 496l-33 -97q-89 24 -177 24q-61 0 -86 -11t-25 -48q0 -26 25.5 -37.5t100.5 -17.5q114 -10 163.5 -44t49.5 -109q0 -64 -34 -102.5t-89.5 -53t-138.5 -14.5q-127 0 -218 27l31 98q81 -24 181 -24q66 0 93 12t27 50q0 28 -27 41.5t-104 19.5q-107 7 -156.5 38.5
t-49.5 106.5q0 93 68 131t194 38q105 0 205 -28zM521 496l-33 -97q-89 24 -177 24q-61 0 -86 -11t-25 -48q0 -26 25.5 -37.5t100.5 -17.5q114 -10 163.5 -44t49.5 -109q0 -64 -34 -102.5t-89.5 -53t-138.5 -14.5q-127 0 -218 27l31 98q81 -24 181 -24q66 0 93 12t27 50
q0 28 -27 41.5t-104 19.5q-107 7 -156.5 38.5t-49.5 106.5q0 93 68 131t194 38q105 0 205 -28z" />
    <glyph glyph-name="Hbarsmall" 
d="M16 381v79h67v49h149v-49h240v49h149v-49h68v-79h-68v-381h-149v216h-240v-216h-149v381h-67zM232 322h240v59h-240v-59z" />
    <glyph glyph-name="Hcircumflexsmall" 
d="M472 216h-240v-216h-149v509h149v-187h240v187h149v-509h-149v216zM576 568h-140l-85 76l-83 -76h-136l147 129h146z" />
    <glyph glyph-name="IJsmall" horiz-adv-x="811" 
d="M232 509v-509h-149v509h149zM729 509v-333q0 -190 -238 -190q-100 0 -178 23l29 106q62 -20 135 -20q103 0 103 90v324h149z" />
    <glyph glyph-name="Imacronsmall" horiz-adv-x="315" 
d="M232 509v-509h-149v509h149zM-8 576v90h334v-90h-334z" />
    <glyph glyph-name="Iogoneksmall" horiz-adv-x="314" 
d="M231 509v-509h-149v509h149zM158 12h47q-61 -30 -81 -52t-20 -52q0 -22 14.5 -31t57.5 -9q61 0 100 27l42 -63q-57 -35 -158 -35q-88 0 -123 21.5t-35 67.5q0 42 39.5 75.5t116.5 50.5z" />
    <glyph glyph-name="Itildesmall" horiz-adv-x="314" 
d="M231 509v-509h-148v509h148zM306 702l74 -50q-40 -93 -140 -93q-38 0 -90 26.5t-79 26.5q-38 0 -63 -51l-67 55q56 81 131 81q44 0 94.5 -26.5t75.5 -26.5q22 0 36 12.5t28 45.5z" />
    <glyph glyph-name="Jcircumflexsmall" horiz-adv-x="497" 
d="M415 509v-333q0 -190 -237 -190q-101 0 -178 23l29 106q62 -20 134 -20q103 0 103 90v324h149zM559 568h-140l-85 76l-83 -76h-136l147 129h146z" />
    <glyph glyph-name="Kcommaaccentsmall" horiz-adv-x="662" 
d="M232 509v-509h-149v509h149zM663 0h-176q-208 252 -255 269q60 42 236 240h177q-167 -187 -234 -231q26 -13 93.5 -86t158.5 -192zM453 -51l-130 -167h-116l85 167h161z" />
    <glyph glyph-name="Lacutesmall" horiz-adv-x="519" 
d="M232 509v-398h288v-111h-437v509h149zM240 568h-131l146 129h159z" />
    <glyph glyph-name="Lcaronsmall" horiz-adv-x="519" 
d="M232 509v-398h288v-111h-437v509h149zM325 540h132l-68 -192h-88z" />
    <glyph glyph-name="Lcommaaccentsmall" horiz-adv-x="519" 
d="M232 509v-398h288v-111h-437v509h149zM383 -51l-130 -167h-116l85 167h161z" />
    <glyph glyph-name="Ldotsmall" horiz-adv-x="519" 
d="M232 509v-398h288v-111h-437v509h149zM371 382q42 0 57 -10t15 -45q0 -38 -15 -50t-57 -12t-56.5 11.5t-14.5 50.5q0 35 14.5 45t56.5 10z" />
    <glyph glyph-name="Nacutesmall" horiz-adv-x="712" 
d="M480 198v311h149v-509h-149q-140 209 -248 321v-321h-149v509h146q154 -165 251 -311zM384 568h-131l146 129h159z" />
    <glyph glyph-name="Ncaronsmall" horiz-adv-x="712" 
d="M480 198v311h149v-509h-149q-140 209 -248 321v-321h-149v509h146q154 -165 251 -311zM137 697h140l86 -76l82 76h136l-146 -129h-147z" />
    <glyph glyph-name="Ncommaaccentsmall" horiz-adv-x="712" 
d="M480 198v311h149v-509h-149q-140 209 -248 321v-321h-149v509h146q154 -165 251 -311zM448 -51l-130 -167h-116l85 167h161z" />
    <glyph glyph-name="Obrevesmall" 
d="M351 -14q-152 0 -221 59.5t-69 211.5q0 150 69.5 208.5t220.5 58.5q154 0 223.5 -58.5t69.5 -208.5q0 -152 -69.5 -211.5t-223.5 -59.5zM351 423q-81 0 -108.5 -31t-27.5 -137q0 -103 28 -135.5t108 -32.5q83 0 111.5 32.5t28.5 135.5q0 73 -13.5 109t-41.5 47.5
t-85 11.5zM173 697h102q0 -34 18.5 -46t61.5 -12q42 0 60.5 12t18.5 46h96q0 -137 -179 -137q-178 0 -178 137z" />
    <glyph glyph-name="Ohungarumlautsmall" 
d="M351 -14q-152 0 -221 59.5t-69 211.5q0 150 69.5 208.5t220.5 58.5q154 0 223.5 -58.5t69.5 -208.5q0 -152 -69.5 -211.5t-223.5 -59.5zM351 423q-81 0 -108.5 -31t-27.5 -137q0 -103 28 -135.5t108 -32.5q83 0 111.5 32.5t28.5 135.5q0 73 -13.5 109t-41.5 47.5
t-85 11.5zM271 568h-102l109 129h131zM469 568h-103l109 129h131z" />
    <glyph glyph-name="Omacronsmall" 
d="M351 -14q-152 0 -221 59.5t-69 211.5q0 150 69.5 208.5t220.5 58.5q154 0 223.5 -58.5t69.5 -208.5q0 -152 -69.5 -211.5t-223.5 -59.5zM351 423q-81 0 -108.5 -31t-27.5 -137q0 -103 28 -135.5t108 -32.5q83 0 111.5 32.5t28.5 135.5q0 73 -13.5 109t-41.5 47.5
t-85 11.5zM187 576v90h334v-90h-334z" />
    <glyph glyph-name="parenleftsmall" horiz-adv-x="414" 
d="M82 250q0 175 70 274.5t188 134.5l68 -92q-39 -12 -67 -31.5t-52.5 -54.5t-37.5 -93t-13 -138t13 -137.5t37.5 -92.5t52.5 -55t67 -32l-68 -92q-118 35 -188 134.5t-70 274.5z" />
    <glyph glyph-name="Racutesmall" horiz-adv-x="689" 
d="M443 509q188 0 188 -149q0 -135 -168 -140q50 -10 91.5 -50.5t128.5 -169.5h-173q-69 109 -109.5 145t-83.5 36h-85v-181h-149v509h360zM232 279h169q76 0 76 66q0 64 -74 64h-171v-130zM339 568h-131l145 129h160z" />
    <glyph glyph-name="Rcaronsmall" horiz-adv-x="689" 
d="M443 509q188 0 188 -149q0 -135 -168 -140q50 -10 91.5 -50.5t128.5 -169.5h-173q-69 109 -109.5 145t-83.5 36h-85v-181h-149v509h360zM232 279h169q76 0 76 66q0 64 -74 64h-171v-130zM127 697h141l85 -76l83 76h135l-146 -129h-146z" />
    <glyph glyph-name="Rcommaaccentsmall" horiz-adv-x="689" 
d="M443 509q188 0 188 -149q0 -135 -168 -140q50 -10 91.5 -50.5t128.5 -169.5h-173q-69 109 -109.5 145t-83.5 36h-85v-181h-149v509h360zM232 279h169q76 0 76 66q0 64 -74 64h-171v-130zM445 -51l-129 -167h-117l86 167h160z" />
    <glyph glyph-name="sterlingsmall" horiz-adv-x="615" 
d="M38 203v90h60v50q0 181 281 181q106 0 204 -24l-31 -101q-71 19 -173 19q-77 0 -107 -20t-30 -62v-43h185v-90h-185v-99h319v-104h-463v203h-60z" />
    <glyph glyph-name="summationsmall" horiz-adv-x="597" 
d="M568 401h-298q51 -67 116 -143q-95 -113 -131 -150h306v-108h-539v25q76 82 199 232q-109 132 -180 227v25h527v-108z" />
    <glyph glyph-name="Tbarsmall" horiz-adv-x="582" 
d="M125 178v90h91v133h-210v108h570v-108h-211v-133h93v-90h-93v-178h-149v178h-91z" />
    <glyph glyph-name="Tcommaaccentsmall" horiz-adv-x="582" 
d="M365 401v-401h-149v401h-210v108h570v-108h-211zM388 -51l-130 -167h-116l85 167h161z" />
    <glyph glyph-name="Tcaronsmall" horiz-adv-x="582" 
d="M365 401v-401h-149v401h-210v108h570v-108h-211zM71 697h140l85 -76l83 76h136l-147 -129h-146z" />
    <glyph glyph-name="Utildesmall" horiz-adv-x="693" 
d="M347 97q70 0 94 23t24 79v310h148v-303q0 -124 -59.5 -172t-206.5 -48q-148 0 -208 48.5t-60 171.5v303h149v-310q0 -56 24.5 -79t94.5 -23zM492 702l74 -50q-40 -93 -140 -93q-38 0 -90 26.5t-79 26.5q-38 0 -63 -51l-67 55q56 81 131 81q44 0 94.5 -26.5t75.5 -26.5
q22 0 36 12.5t28 45.5z" />
    <glyph glyph-name="Uringsmall" horiz-adv-x="693" 
d="M347 97q70 0 94 23t24 79v310h148v-303q0 -124 -59.5 -172t-206.5 -48q-148 0 -208 48.5t-60 171.5v303h149v-310q0 -56 24.5 -79t94.5 -23zM348 741q74 0 108.5 -22.5t34.5 -75.5t-34.5 -75.5t-108.5 -22.5t-109 22.5t-35 75.5t33.5 75.5t110.5 22.5zM348 684
q-35 0 -47.5 -9.5t-12.5 -33.5q0 -23 12.5 -33t47.5 -10t47.5 10t12.5 33q0 24 -12.5 33.5t-47.5 9.5z" />
    <glyph glyph-name="Uogoneksmall" horiz-adv-x="693" 
d="M347 97q70 0 94 23t24 79v310h148v-303q0 -124 -59.5 -172t-206.5 -48q-148 0 -208 48.5t-60 171.5v303h149v-310q0 -56 24.5 -79t94.5 -23zM417 12h47q-61 -30 -81 -52t-20 -52q0 -22 15 -31t57 -9q61 0 100 27l42 -63q-55 -35 -157 -35q-89 0 -124 21.5t-35 67.5
q0 41 39.5 75t116.5 51z" />
    <glyph glyph-name="Umacronsmall" horiz-adv-x="693" 
d="M347 97q70 0 94 23t24 79v310h148v-303q0 -124 -59.5 -172t-206.5 -48q-148 0 -208 48.5t-60 171.5v303h149v-310q0 -56 24.5 -79t94.5 -23zM183 576v90h334v-90h-334z" />
    <glyph glyph-name="Ubrevesmall" horiz-adv-x="693" 
d="M347 97q70 0 94 23t24 79v310h148v-303q0 -124 -59.5 -172t-206.5 -48q-148 0 -208 48.5t-60 171.5v303h149v-310q0 -56 24.5 -79t94.5 -23zM171 697h102q0 -34 19 -46t61 -12q41 0 60.5 12.5t19.5 45.5h96q0 -137 -180 -137q-178 0 -178 137z" />
    <glyph glyph-name="Uhungarumlautsmall" horiz-adv-x="693" 
d="M347 97q70 0 94 23t24 79v310h148v-303q0 -124 -59.5 -172t-206.5 -48q-148 0 -208 48.5t-60 171.5v303h149v-310q0 -56 24.5 -79t94.5 -23zM266 568h-102l109 129h131zM464 568h-103l109 129h131z" />
    <glyph glyph-name="yensmall" horiz-adv-x="584" 
d="M60 220v61h121q-125 145 -210 228h170q67 -64 159 -177q69 70 151 177h162q-87 -110 -197 -228h108v-61h-152v-62h152v-62h-152v-96h-149v96h-163v62h163v62h-163z" />
    <glyph glyph-name="Ycircumflexsmall" horiz-adv-x="584" 
d="M300 332q78 79 151 177h163q-116 -149 -242 -278v-231h-149v231q-151 177 -253 278h173q68 -68 157 -177zM523 568h-140l-85 76l-83 -76h-136l147 129h146z" />
    <glyph glyph-name="zerosmall" horiz-adv-x="674" 
d="M336 -14q-135 0 -200.5 60.5t-65.5 210.5q0 149 65.5 208t200.5 59q137 0 202.5 -59t65.5 -208q0 -150 -65.5 -210.5t-202.5 -60.5zM336 424q-65 0 -89.5 -32.5t-24.5 -136.5q0 -102 25 -135.5t89 -33.5q65 0 89.5 33.5t24.5 135.5q0 105 -24.5 137t-89.5 32z" />
    <glyph glyph-name="onesmall" horiz-adv-x="672" 
d="M472 0h-148v362l-188 -71l-44 104l380 129v-524z" />
    <glyph glyph-name="twosmall" horiz-adv-x="674" 
d="M111 386l-36 115q117 23 242 23q148 0 208 -37t60 -123q0 -74 -61 -131t-236 -132h308v-101h-526v91q166 84 237.5 126.5t93 67t21.5 56.5q0 39 -28 54.5t-102 15.5q-42 0 -98 -7.5t-83 -17.5z" />
    <glyph glyph-name="foursmall" horiz-adv-x="674" 
d="M388 121h-354v47q53 69 139 167t161 174h197v-290h108v-98h-108v-121h-143v121zM388 219v196q-113 -119 -174 -196h174z" />
    <glyph glyph-name="fivesmall" horiz-adv-x="673" 
d="M110 509h465v-103h-316v-92q72 3 88 3q137 0 193 -36t56 -124q0 -96 -70 -133.5t-227 -37.5q-144 0 -226 19l29 102q69 -18 186 -18q88 0 123 14t35 51q0 41 -32.5 56.5t-116.5 15.5q-93 0 -187 -10v293z" />
    <glyph glyph-name="sixsmall" horiz-adv-x="673" 
d="M626 151q0 -94 -64 -129.5t-209 -35.5q-73 0 -121 10.5t-86.5 39t-56 82.5t-17.5 137q0 148 80.5 208.5t242.5 60.5q107 0 215 -25l-34 -102q-94 23 -178 23q-100 0 -139 -24.5t-42 -92.5q84 12 159 12q134 0 192 -35.5t58 -128.5zM474 153q0 45 -26 60t-99 15
q-67 0 -132 -9q1 -83 33 -110.5t98 -27.5q73 0 99.5 15.5t26.5 56.5z" />
    <glyph glyph-name="sevensmall" horiz-adv-x="673" 
d="M60 509h581v-24q-170 -207 -306 -485h-173q123 225 266 401h-368v108z" />
    <glyph glyph-name="eightsmall" horiz-adv-x="673" 
d="M336 83q78 0 105 15t27 54t-30 54t-102 15q-71 0 -101 -15t-30 -54t27 -54t104 -15zM336 -14q-160 0 -221.5 31.5t-61.5 117.5q0 62 37 96t125 38q-83 6 -114.5 36.5t-31.5 87.5q0 74 55.5 102.5t211.5 28.5q158 0 213 -28.5t55 -102.5q0 -57 -31 -87.5t-114 -36.5
q88 -4 124 -38t36 -96q0 -86 -61 -117.5t-222 -31.5zM336 317q67 0 94 12.5t27 44.5t-25 44t-96 12q-70 0 -95 -12t-25 -44t27 -44.5t93 -12.5z" />
    <glyph glyph-name="ninesmall" horiz-adv-x="674" 
d="M292 183q-127 0 -183 37t-56 130q0 94 66.5 134t210.5 40q160 0 225.5 -44.5t65.5 -162.5q0 -48 -18.5 -91t-57 -83t-77 -71t-98.5 -72h-198q222 141 252 193q-94 -10 -132 -10zM465 324q0 61 -28.5 83t-100.5 22q-75 0 -101.5 -18t-26.5 -61q0 -44 23 -57t99 -13
q62 0 120 7q15 20 15 37z" />
    <glyph glyph-name="threesmall" horiz-adv-x="673" 
d="M212 222v93h94q66 0 93 11t27 40t-26.5 40.5t-101.5 11.5q-108 0 -191 -22l-30 108q102 20 223 20q159 0 220.5 -29t61.5 -102q0 -57 -32 -87.5t-116 -36.5q88 -4 124.5 -38t36.5 -96q0 -85 -67.5 -117t-229.5 -32q-125 0 -226 19l31 111q81 -24 191 -24q85 0 114 14.5
t29 52.5q0 35 -30 49t-101 14h-94z" />
    <glyph glyph-name="atsmall" horiz-adv-x="873" 
d="M399 444q-131 0 -175.5 -34.5t-44.5 -149.5q0 -117 52 -154.5t204 -37.5t206 44t54 172q0 87 -22 142h118q21 -55 21 -145q0 -168 -88.5 -233t-288.5 -65q-203 0 -288.5 58.5t-85.5 217.5q0 154 82.5 212t253.5 58q67 0 106.5 -7.5t69.5 -29.5t41.5 -62.5t11.5 -107.5
q0 -63 -9 -100t-34 -58t-60.5 -27.5t-96.5 -6.5q-108 0 -147 25.5t-39 100.5t37.5 100.5t132.5 25.5q58 0 101 -5q-3 38 -27 52.5t-85 14.5zM437 309q-45 0 -60.5 -9t-15.5 -40t15.5 -41t60.5 -10q42 0 58 13.5t16 52.5v30q-44 4 -74 4z" />
    <glyph glyph-name="backslashsmall" horiz-adv-x="512" 
d="M-10 509h163l370 -509h-162z" />
    <glyph glyph-name="slashsmall" horiz-adv-x="512" 
d="M360 509h163l-371 -509h-162z" />
    <glyph glyph-name="barsmall" horiz-adv-x="445" 
d="M144 659h157v-813h-157v813z" />
    <glyph glyph-name="bracketrightsmall" horiz-adv-x="454" 
d="M22 657h324v-808h-324v107h169v593h-169v108z" />
    <glyph glyph-name="bracerightsmall" horiz-adv-x="427" 
d="M383 299v1v-100q-59 0 -91.5 -32t-32.5 -120q0 -174 -185 -213l-61 90q60 15 86.5 48.5t26.5 117.5q0 141 110 159q-110 15 -110 160q0 84 -25.5 117t-87.5 48l61 89q185 -39 185 -213q0 -88 32.5 -120t91.5 -32z" />
    <glyph glyph-name="Cdotaccentsmall" horiz-adv-x="563" 
d="M516 118l33 -106q-78 -26 -186 -26q-149 0 -225.5 61t-76.5 210q0 148 77 207.5t225 59.5q109 0 186 -24l-33 -106q-72 22 -142 22q-88 0 -123.5 -30.5t-35.5 -130.5q0 -96 36.5 -128.5t122.5 -32.5q70 0 142 24zM353 681q42 0 57 -10t15 -45q0 -38 -15 -50t-57 -12
t-56.5 11.5t-14.5 50.5q0 35 14.5 45t56.5 10z" />
    <glyph glyph-name="Cacutesmall" horiz-adv-x="563" 
d="M516 118l33 -106q-78 -26 -186 -26q-149 0 -225.5 61t-76.5 210q0 148 77 207.5t225 59.5q109 0 186 -24l-33 -106q-72 22 -142 22q-88 0 -123.5 -30.5t-35.5 -130.5q0 -96 36.5 -128.5t122.5 -32.5q70 0 142 24zM366 568h-131l145 129h160z" />
    <glyph glyph-name="Ccaronsmall" horiz-adv-x="564" 
d="M516 118l33 -106q-78 -26 -186 -26q-149 0 -225.5 61t-76.5 210q0 148 77 207.5t225 59.5q109 0 186 -24l-33 -106q-72 22 -142 22q-88 0 -123.5 -30.5t-35.5 -130.5q0 -96 36.5 -128.5t122.5 -32.5q70 0 142 24zM127 697h140l86 -76l82 76h136l-146 -129h-147z" />
    <glyph glyph-name="centsmall" horiz-adv-x="507" 
d="M245 524h80v-76q63 -4 104 -15l-27 -74q-29 10 -77 12v-224q45 4 77 14l27 -73q-33 -12 -104 -19v-83h-80v85q-89 9 -136.5 53.5t-47.5 136.5q0 91 47.5 134.5t136.5 51.5v77zM179 259q0 -95 66 -103v207q-66 -8 -66 -104z" />
    <glyph glyph-name="daggersmall" horiz-adv-x="535" 
d="M36 409v100h169v143h124v-143h170v-100h-170v-228h-124v228h-169z" />
    <glyph glyph-name="degreesmall" horiz-adv-x="413" 
d="M206 524q95 0 135 -33.5t40 -124.5q0 -93 -40 -128.5t-135 -35.5q-94 0 -134.5 35.5t-40.5 128.5q0 91 40.5 124.5t134.5 33.5zM206 270q40 0 52.5 19t12.5 76t-12.5 74.5t-52.5 17.5q-39 0 -52.5 -18t-13.5 -74t14 -75.5t52 -19.5z" />
    <glyph glyph-name="dollarsmall" horiz-adv-x="625" 
d="M270 620h83v-102q103 -2 184 -24l-31 -94q-52 14 -153 18v-114q102 -12 151.5 -47t49.5 -104q0 -141 -201 -161v-110h-83v108q-114 2 -194 23l32 97q65 -16 162 -20v122q-101 9 -150.5 41t-49.5 103q0 141 200 160v104zM203 362q0 -21 14.5 -32t52.5 -16v104
q-67 -8 -67 -56zM422 149q0 22 -15 34t-54 19v-110q69 8 69 57z" />
    <glyph glyph-name="numbersignsmall" horiz-adv-x="716" 
d="M49 314l7 85h123l8 110h126l-8 -110h119l8 110h126l-8 -110h130l-7 -85h-131l-8 -108h133l-7 -85h-132l-11 -121h-126l11 121h-120l-10 -121h-126l10 121h-120l7 85h120l9 108h-123zM298 314l-9 -108h119l8 108h-118z" />
    <glyph glyph-name="parenrightsmall" horiz-adv-x="414" 
d="M332 250q0 -175 -70 -275t-188 -135l-68 93q39 12 67 31.5t53 54.5t37.5 93t12.5 138q0 104 -24 172t-58.5 97.5t-87.5 46.5l68 93q118 -35 188 -134.5t70 -274.5z" />
    <glyph glyph-name="percentsmall" horiz-adv-x="915" 
d="M617 509h127l-450 -509h-125zM206 524q95 0 135 -33.5t40 -124.5q0 -93 -40 -128.5t-135 -35.5q-94 0 -134.5 35.5t-40.5 128.5q0 91 40.5 124.5t134.5 33.5zM206 270q40 0 52.5 19t12.5 76t-12.5 74.5t-52.5 17.5q-39 0 -52.5 -18t-13.5 -74t14 -75.5t52 -19.5zM708 307
q95 0 135 -33t40 -124q0 -93 -40.5 -128.5t-134.5 -35.5t-134.5 35.5t-40.5 128.5q0 91 40 124t135 33zM708 54q40 0 52.5 18.5t12.5 76.5q0 57 -12 74t-53 17q-40 0 -53 -17.5t-13 -73.5q0 -57 13.5 -76t52.5 -19z" />
    <glyph glyph-name="sectionsmall" horiz-adv-x="568" 
d="M495 504l-29 -78q-68 18 -153 18q-119 0 -119 -41q0 -20 22.5 -28t93.5 -12q105 -7 156.5 -33t51.5 -81q0 -38 -37 -73q27 -23 27 -63q0 -67 -64 -97t-190 -30q-100 0 -181 19l29 79q59 -19 153 -19q45 0 82 10t37 32q0 19 -23 27.5t-93 12.5q-105 7 -156.5 33t-51.5 81
q0 42 35 74q-25 24 -25 62q0 67 64 97t190 30q99 0 181 -20zM189 298q-12 -14 -12 -28q0 -19 26 -28.5t83 -14.5q48 -4 95 -14q11 13 11 29q0 18 -25.5 27t-88.5 15q-53 5 -89 14z" />
    <glyph glyph-name="Sacutesmall" horiz-adv-x="589" 
d="M521 496l-33 -97q-89 24 -177 24q-61 0 -86 -11t-25 -48q0 -26 25.5 -37.5t100.5 -17.5q114 -10 163.5 -44t49.5 -109q0 -64 -34 -102.5t-89.5 -53t-138.5 -14.5q-127 0 -218 27l31 98q81 -24 181 -24q66 0 93 12t27 50q0 28 -27 41.5t-104 19.5q-107 7 -156.5 38.5
t-49.5 106.5q0 93 68 131t194 38q105 0 205 -28zM308 568h-130l145 129h159z" />
    <glyph glyph-name="Scedillasmall" horiz-adv-x="589" 
d="M521 496l-33 -97q-89 24 -177 24q-61 0 -86 -11t-25 -48q0 -26 25.5 -37.5t100.5 -17.5q114 -10 163.5 -44t49.5 -109q0 -64 -34 -102.5t-89.5 -53t-138.5 -14.5q-127 0 -218 27l31 98q81 -24 181 -24q66 0 93 12t27 50q0 28 -27 41.5t-104 19.5q-107 7 -156.5 38.5
t-49.5 106.5q0 93 68 131t194 38q105 0 205 -28zM254 0h59v-42q72 0 102 -17t30 -61q0 -47 -36.5 -65t-127.5 -18q-74 0 -118 16l27 54q28 -12 85 -12q28 0 38.5 5.5t10.5 20.5q0 19 -23.5 24t-89.5 2z" />
    <glyph glyph-name="Scircumflexsmall" horiz-adv-x="589" 
d="M521 496l-33 -97q-89 24 -177 24q-61 0 -86 -11t-25 -48q0 -26 25.5 -37.5t100.5 -17.5q114 -10 163.5 -44t49.5 -109q0 -64 -34 -102.5t-89.5 -53t-138.5 -14.5q-127 0 -218 27l31 98q81 -24 181 -24q66 0 93 12t27 50q0 28 -27 41.5t-104 19.5q-107 7 -156.5 38.5
t-49.5 106.5q0 93 68 131t194 38q105 0 205 -28zM532 568h-141l-85 76l-83 -76h-135l146 129h146z" />
    <glyph glyph-name="Scommaaccentsmall" horiz-adv-x="589" 
d="M521 496l-33 -97q-89 24 -177 24q-61 0 -86 -11t-25 -48q0 -26 25.5 -37.5t100.5 -17.5q114 -10 163.5 -44t49.5 -109q0 -64 -34 -102.5t-89.5 -53t-138.5 -14.5q-127 0 -218 27l31 98q81 -24 181 -24q66 0 93 12t27 50q0 28 -27 41.5t-104 19.5q-107 7 -156.5 38.5
t-49.5 106.5q0 93 68 131t194 38q105 0 205 -28zM396 -51l-130 -167h-116l85 167h161z" />
    <glyph glyph-name="Wcircumflexsmall" horiz-adv-x="996" 
d="M498 341q-48 -177 -118 -341h-183q-95 285 -197 509h157q78 -171 139 -382q31 76 72 194.5t60 187.5h146q66 -167 123 -382q98 225 142 382h151q-86 -259 -209 -509h-185q-46 198 -98 341zM722 568h-140l-85 76l-83 -76h-136l147 129h146z" />
    <glyph glyph-name="Zacutesmall" horiz-adv-x="597" 
d="M42 509h527v-25q-62 -84 -156.5 -196.5t-157.5 -179.5h306v-108h-539v25q84 89 178 200t141 176h-299v108zM342 568h-130l145 129h159z" />
    <glyph glyph-name="Zdotaccentsmall" horiz-adv-x="597" 
d="M42 509h527v-25q-62 -84 -156.5 -196.5t-157.5 -179.5h306v-108h-539v25q84 89 178 200t141 176h-299v108zM304 681q42 0 57 -10t15 -45q0 -38 -15 -50t-57 -12t-56.5 11.5t-14.5 50.5q0 35 14.5 45t56.5 10z" />
    <glyph glyph-name="zeroop" horiz-adv-x="675" 
d="M339 -14q-140 0 -209 60.5t-69 210.5q0 149 69 208t209 59q141 0 208 -59t67 -208q0 -151 -67 -211t-208 -60zM339 424q-49 0 -74 -12t-37.5 -48t-12.5 -109q0 -103 26.5 -136t97.5 -33q73 0 97.5 32.5t24.5 136.5q0 107 -24 138t-98 31z" />
    <glyph glyph-name="oneop" horiz-adv-x="456" 
d="M373 0h-150v362l-187 -71l-43 104l380 129v-524z" />
    <glyph glyph-name="twoop" horiz-adv-x="678" 
d="M109 386l-35 115q117 23 251 23q156 0 216 -36.5t60 -123.5q0 -75 -70.5 -137t-244.5 -126h328v-101h-546v91q162 75 241 119t104.5 71t25.5 59q0 39 -29 55t-110 16q-43 0 -103.5 -7.5t-87.5 -17.5z" />
    <glyph glyph-name="threeop" horiz-adv-x="698" 
d="M197 121v112h115q78 0 109 19t31 69q0 49 -36 67t-144 18q-124 0 -210 -22l-31 114q144 26 271 26q177 0 247 -41t70 -137q0 -77 -37.5 -117.5t-141.5 -47.5q112 -4 154 -49t42 -131q0 -112 -77.5 -157t-258.5 -45q-139 0 -275 25l30 114q85 -20 214 -20q117 0 156 21.5
t39 79.5t-33 80t-116 22h-118z" />
    <glyph glyph-name="fourop" horiz-adv-x="708" 
d="M429 0h-415v40q213 310 356 469h210v-406h112v-103h-112v-192h-151v192zM429 103v296q-83 -90 -223 -296h223z" />
    <glyph glyph-name="fiveop" horiz-adv-x="717" 
d="M99 509h519v-114h-369v-153q64 4 100 4q173 0 240 -49.5t67 -167.5q0 -131 -73.5 -181.5t-255.5 -50.5q-141 0 -266 25l31 114q80 -20 205 -20q114 0 151 22t37 84q0 66 -34 89t-146 23q-117 0 -206 -14v389z" />
    <glyph glyph-name="sixop" horiz-adv-x="760" 
d="M672 687l-35 -116q-74 23 -197 23q-106 0 -155.5 -35t-53.5 -138q75 11 159 11q174 0 241.5 -49t67.5 -168q0 -131 -69.5 -180t-244.5 -49q-181 0 -252 78.5t-71 289.5q0 107 20.5 176.5t67.5 110.5t115.5 57t174.5 16q122 0 232 -27zM385 105q89 0 119 22t30 81
q0 62 -30.5 87t-119.5 25q-77 0 -155 -10q1 -85 19.5 -130.5t49 -60t87.5 -14.5z" />
    <glyph glyph-name="sevenop" horiz-adv-x="629" 
d="M636 509v-39q-85 -113 -199 -316t-171 -346h-178q68 157 165.5 328t172.5 259h-432v114h642z" />
    <glyph glyph-name="eightop" horiz-adv-x="752" 
d="M377 94q85 0 116.5 23t31.5 84t-33 87t-115 26q-83 0 -116.5 -26t-33.5 -87t31.5 -84t118.5 -23zM377 417q71 0 103 22.5t32 75.5q0 51 -30 70t-105 19q-77 0 -107 -19t-30 -70q0 -53 32 -75.5t105 -22.5zM377 -14h-2q-172 0 -243 45.5t-71 156.5q0 87 41.5 132t154.5 49
q-105 8 -141.5 49t-36.5 118q0 95 64 136.5t232 41.5q169 0 233.5 -41.5t64.5 -136.5q0 -77 -36.5 -118t-141.5 -49q112 -4 153.5 -49.5t41.5 -131.5q0 -111 -70.5 -156.5t-242.5 -45.5z" />
    <glyph glyph-name="nineop" horiz-adv-x="756" 
d="M203 -192q203 161 272 275q-48 -5 -104 -5q-176 0 -243 46t-67 164q0 132 70 184t244 52q189 0 254.5 -50t65.5 -191q0 -137 -79 -250.5t-217 -224.5h-196zM387 190q74 0 130 7q11 36 11 72q0 87 -31 112t-122 25q-88 0 -118 -25t-30 -87q0 -65 30 -84.5t130 -19.5z" />
    <glyph glyph-name="two.alt" horiz-adv-x="730" 
d="M111 568l-35 114q126 32 272 32q163 0 236 -44t73 -159q0 -76 -43.5 -128t-149.5 -93q-103 -40 -150 -76.5t-59 -99.5h399v-114h-604q6 64 24.5 115.5t42 86t63.5 65.5t74 49.5t88 43.5q78 35 112.5 63t34.5 76q0 57 -33.5 76.5t-121.5 19.5q-137 0 -223 -27z" />
    <glyph glyph-name="Ccircumflexsmall" horiz-adv-x="564" 
d="M516 118l33 -106q-78 -26 -186 -26q-149 0 -225.5 61t-76.5 210q0 148 77 207.5t225 59.5q109 0 186 -24l-33 -106q-72 22 -142 22q-88 0 -123.5 -30.5t-35.5 -130.5q0 -96 36.5 -128.5t122.5 -32.5q70 0 142 24zM572 568h-140l-85 76l-83 -76h-136l147 129h146z" />
    <glyph glyph-name="ccaront" horiz-adv-x="1026" 
d="M641 171v230q-65 0 -162.5 8t-111.5 8q-86 0 -119 -30.5t-33 -131.5q0 -97 34 -129.5t118 -32.5q74 0 134 21l34 -102q-78 -26 -178 -26q-145 0 -220.5 61t-75.5 210q0 147 76 207t220 60q26 0 124.5 -7.5t159.5 -7.5v86l148 51v-137h203v-108h-203v-219q0 -48 21 -68.5
t74 -20.5q50 0 102 14l27 -98q-74 -23 -166 -23q-109 0 -157.5 38.5t-48.5 146.5zM133 697h140l86 -76l82 76h136l-146 -129h-147z" />
    <glyph glyph-name="scaront" horiz-adv-x="1073" 
d="M688 171v230q-91 1 -224 11.5t-153 10.5q-61 0 -86 -11t-25 -48q0 -26 25.5 -37.5t100.5 -17.5q114 -10 163.5 -44t49.5 -109q0 -64 -34 -102.5t-89.5 -53t-138.5 -14.5q-127 0 -218 27l31 98q81 -24 181 -24q66 0 93 12t27 50q0 28 -27 41.5t-104 19.5
q-107 7 -156.5 38.5t-49.5 106.5q0 93 68 131t194 38q22 0 158.5 -7.5t213.5 -7.5v86l148 51v-137h203v-108h-203v-219q0 -48 21 -68.5t74 -20.5q49 0 102 14l27 -98q-74 -23 -166 -23q-109 0 -157.5 38.5t-48.5 146.5zM89 697h140l85 -76l83 76h136l-147 -129h-146z" />
    <glyph glyph-name="ampersandsmall.2" horiz-adv-x="805" 
d="M791 223h-148v-206q-160 -31 -286 -31q-163 0 -230.5 32t-67.5 117q0 62 36.5 96.5t124.5 38.5q-85 6 -117 34t-32 84q0 74 62.5 105t220.5 31q121 0 223 -20l-30 -108q-83 22 -190 22q-76 0 -102.5 -11t-26.5 -40t27 -40t93 -11h443v-93zM217 160q0 -38 29.5 -53
t113.5 -15q82 0 147 13v118h-162q-69 0 -98.5 -14.5t-29.5 -48.5z" />
    <glyph glyph-name="man" horiz-adv-x="629" 
d="M414 419v-611h-91v372h-16v-372h-91v611q-27 -1 -35 -10.5t-8 -37.5v-191h-113v194q0 83 49 109t205 26t205.5 -26t49.5 -109v-194h-113v191q0 28 -8 37.5t-34 10.5zM314 721q73 0 98.5 -16.5t25.5 -72.5q0 -63 -25.5 -82t-98.5 -19q-75 0 -101 19t-26 82q0 56 25.5 72.5
t101.5 16.5z" />
    <glyph glyph-name="woman" horiz-adv-x="629" 
d="M389 419v-239q121 -236 216 -372h-581q154 280 216 372v239q-44 -1 -55.5 -10t-11.5 -38v-191h-89v194q0 83 46 109t184 26q139 0 185 -26.5t46 -108.5v-194h-89v191q0 29 -11.5 38t-55.5 10zM314 721q73 0 98.5 -16.5t25.5 -72.5q0 -63 -25.5 -82t-98.5 -19
q-75 0 -101 19t-26 82q0 56 25.5 72.5t101.5 16.5z" />
    <glyph glyph-name="escaperight" horiz-adv-x="1520" 
d="M535 509q16 -60 87.5 -118t164.5 -58l-17 -80q-88 0 -160.5 37t-105.5 99l-59 -229q62 -1 106.5 -17t75 -51t34 -90t-16.5 -134h-101q39 120 0.5 170.5t-182.5 50.5q-44 -128 -122 -182.5t-213 -54.5l22 77q81 0 133.5 41t79.5 149l78 308q-47 0 -89.5 -41.5
t-62.5 -132.5h-99q38 127 97 191.5t173 64.5h177zM1494 293l-328 -256l-65 57l196 159h-466l16 80h450l-196 159l65 57zM636 531h-89q-75 0 -101 19t-26 82q0 56 25.5 72.5t101.5 16.5q75 0 102 -18t13 -71z" />
    <glyph glyph-name="noentry" horiz-adv-x="1024" 
d="M1006 0h-149l-258 215v-407h-79v372h-16v-372h-79v407l-258 -215h-149l239 202v172q0 71 33 99l-267 224h159l225 -191q45 3 104 3q66 0 103 -4l227 192h160l-269 -225q34 -27 34 -98v-171zM511 721q73 0 98.5 -16.5t25.5 -72.5q0 -63 -25.5 -82t-98.5 -19q-75 0 -101 19
t-26 82q0 56 25.5 72.5t101.5 16.5zM370 371v-73l55 47v16l-51 41q-4 -7 -4 -31zM653 371q0 22 -5 31l-49 -41v-16l54 -46v72z" />
    <glyph glyph-name="escapeleft" horiz-adv-x="1520" 
d="M985 509h176q114 0 173.5 -64.5t96.5 -191.5h-98q-20 91 -63 132.5t-90 41.5l78 -308q27 -108 80 -149t134 -41l22 -77q-135 0 -213 54.5t-122 182.5q-98 0 -145 -21.5t-55 -71t17 -128.5h-100q-43 150 13.5 220t185.5 72l-59 229q-33 -62 -105.5 -99t-160.5 -37l-17 80
q92 0 164 58t88 118zM354 37l-328 256l328 256l64 -57l-195 -159h450l15 -80h-465l195 -159zM973 531h-89l-26 101q-14 54 13 71.5t102 17.5q76 0 101.5 -16.5t25.5 -72.5q0 -63 -26 -82t-101 -19z" />
    <glyph glyph-name="manneg" horiz-adv-x="821" 
d="M511 -192v611q26 -1 34 -10.5t8 -37.5v-191h113v194q0 83 -49.5 109t-204.5 26q-108 0 -160 -11t-73.5 -38.5t-21.5 -85.5v-194h113v191q0 28 8 37.5t35 10.5v-611h91v372h16v-372h91zM412 721q-76 0 -102 -16.5t-26 -72.5q0 -63 26 -82t102 -19q72 0 97.5 19t25.5 82
q0 56 -25 72.5t-98 16.5zM661 -232h-501q-73 0 -98.5 19t-25.5 82v803q0 56 25.5 72.5t98.5 16.5h501q73 0 98.5 -16.5t25.5 -72.5v-803q0 -63 -25.5 -82t-98.5 -19z" />
    <glyph glyph-name="womanneg" horiz-adv-x="821" 
d="M486 180v239q44 -1 55.5 -10t11.5 -38v-191h89v194q0 82 -46 108.5t-184 26.5q-139 0 -185 -26t-46 -109v-194h89v191q0 29 11.5 38t55.5 10v-239q-62 -92 -216 -372h581q-95 136 -216 372zM412 721q-76 0 -102 -16.5t-26 -72.5q0 -63 26 -82t102 -19q72 0 97.5 19
t25.5 82q0 56 -25 72.5t-98 16.5zM661 -232h-501q-73 0 -98.5 19t-25.5 82v803q0 56 25.5 72.5t98.5 16.5h501q73 0 98.5 -16.5t25.5 -72.5v-803q0 -63 -25.5 -82t-98.5 -19z" />
    </font>
</defs>
</svg>
